solid OpenSCAD_Model
  facet normal -1 0 0
    outer loop
      vertex 0 32.3934 0
      vertex 0 7 4
      vertex 0 32.3934 4
    endloop
  endfacet
  facet normal -1 0 0
    outer loop
      vertex 0 0 0
      vertex 0 7 4
      vertex 0 32.3934 0
    endloop
  endfacet
  facet normal -1 -0 0
    outer loop
      vertex 0 7 4
      vertex 0 0 0
      vertex 0 0 4
    endloop
  endfacet
  facet normal 0 0 1
    outer loop
      vertex 30.7266 39.5365 4
      vertex 32.3 43 4
      vertex 30.8 40 4
    endloop
  endfacet
  facet normal 0 0 1
    outer loop
      vertex 32.3 43 4
      vertex 30.7266 40.4635 4
      vertex 30.8 40 4
    endloop
  endfacet
  facet normal 0 0 1
    outer loop
      vertex 32.3 43 4
      vertex 30.5135 40.8817 4
      vertex 30.7266 40.4635 4
    endloop
  endfacet
  facet normal 0 0 1
    outer loop
      vertex 32.3 43 4
      vertex 30.1817 41.2135 4
      vertex 30.5135 40.8817 4
    endloop
  endfacet
  facet normal 0 0 1
    outer loop
      vertex 32.3 43 4
      vertex 29.7635 41.4266 4
      vertex 30.1817 41.2135 4
    endloop
  endfacet
  facet normal 0 0 1
    outer loop
      vertex 32.3 43 4
      vertex 29.3 41.5 4
      vertex 29.7635 41.4266 4
    endloop
  endfacet
  facet normal 0 0 1
    outer loop
      vertex 32.3 43 4
      vertex 28.8365 41.4266 4
      vertex 29.3 41.5 4
    endloop
  endfacet
  facet normal 0 0 1
    outer loop
      vertex 10.6066 43 4
      vertex 27.8 40 4
      vertex 27.8734 40.4635 4
    endloop
  endfacet
  facet normal -0 0 1
    outer loop
      vertex 10.6066 43 4
      vertex 28.8365 41.4266 4
      vertex 32.3 43 4
    endloop
  endfacet
  facet normal 0 0 1
    outer loop
      vertex 10.6066 43 4
      vertex 28.4183 41.2135 4
      vertex 28.8365 41.4266 4
    endloop
  endfacet
  facet normal 0 0 1
    outer loop
      vertex 10.6066 43 4
      vertex 28.0865 40.8817 4
      vertex 28.4183 41.2135 4
    endloop
  endfacet
  facet normal 0 0 1
    outer loop
      vertex 10.6066 43 4
      vertex 27.8734 40.4635 4
      vertex 28.0865 40.8817 4
    endloop
  endfacet
  facet normal 0 0 1
    outer loop
      vertex 27.8 40 4
      vertex 10.6066 43 4
      vertex 25.15 25 4
    endloop
  endfacet
  facet normal 0 0 1
    outer loop
      vertex 10.6066 43 4
      vertex 8.3 25 4
      vertex 25.15 25 4
    endloop
  endfacet
  facet normal -0 0 1
    outer loop
      vertex 0 32.3934 4
      vertex 8.3 25 4
      vertex 10.6066 43 4
    endloop
  endfacet
  facet normal 0 0 1
    outer loop
      vertex 0 7 4
      vertex 8.3 25 4
      vertex 0 32.3934 4
    endloop
  endfacet
  facet normal 0 0 1
    outer loop
      vertex 8.3 25 4
      vertex 0 7 4
      vertex 8.3 7 4
    endloop
  endfacet
  facet normal 0 0 1
    outer loop
      vertex 32.3 43 4
      vertex 30.7266 39.5365 4
      vertex 32.3 20.15 4
    endloop
  endfacet
  facet normal -0 0 1
    outer loop
      vertex 30.5135 39.1183 4
      vertex 32.3 20.15 4
      vertex 30.7266 39.5365 4
    endloop
  endfacet
  facet normal -0 0 1
    outer loop
      vertex 30.1817 38.7865 4
      vertex 32.3 20.15 4
      vertex 30.5135 39.1183 4
    endloop
  endfacet
  facet normal -0 0 1
    outer loop
      vertex 29.7635 38.5734 4
      vertex 32.3 20.15 4
      vertex 30.1817 38.7865 4
    endloop
  endfacet
  facet normal 0 0 1
    outer loop
      vertex 25.15 25 4
      vertex 29.7635 38.5734 4
      vertex 29.3 38.5 4
    endloop
  endfacet
  facet normal 0 0 1
    outer loop
      vertex 25.15 25 4
      vertex 29.3 38.5 4
      vertex 28.8365 38.5734 4
    endloop
  endfacet
  facet normal 0 0 1
    outer loop
      vertex 25.15 25 4
      vertex 28.8365 38.5734 4
      vertex 28.4183 38.7865 4
    endloop
  endfacet
  facet normal 0 0 1
    outer loop
      vertex 25.15 25 4
      vertex 28.4183 38.7865 4
      vertex 28.0865 39.1183 4
    endloop
  endfacet
  facet normal 0 0 1
    outer loop
      vertex 25.15 25 4
      vertex 28.0865 39.1183 4
      vertex 27.8734 39.5365 4
    endloop
  endfacet
  facet normal 0 0 1
    outer loop
      vertex 25.15 25 4
      vertex 27.8734 39.5365 4
      vertex 27.8 40 4
    endloop
  endfacet
  facet normal 0 0 1
    outer loop
      vertex 29.7635 38.5734 4
      vertex 25.15 25 4
      vertex 32.3 20.15 4
    endloop
  endfacet
  facet normal 0 0 1
    outer loop
      vertex 32.3 20.15 4
      vertex 25.15 25 4
      vertex 25.15 20.15 4
    endloop
  endfacet
  facet normal -0 0 1
    outer loop
      vertex 25.15 4.85 4
      vertex 32.3 0 4
      vertex 32.3 4.85 4
    endloop
  endfacet
  facet normal 0 0 1
    outer loop
      vertex 32.3 0 4
      vertex 25.15 4.85 4
      vertex 25.15 0 4
    endloop
  endfacet
  facet normal 1 -0 0
    outer loop
      vertex 32.3 0 4
      vertex 32.3 4.85 0
      vertex 32.3 4.85 4
    endloop
  endfacet
  facet normal 1 0 0
    outer loop
      vertex 32.3 4.85 0
      vertex 32.3 0 4
      vertex 32.3 0 0
    endloop
  endfacet
  facet normal 1 -0 0
    outer loop
      vertex 32.3 20.15 4
      vertex 32.3 43 0
      vertex 32.3 43 4
    endloop
  endfacet
  facet normal 1 0 0
    outer loop
      vertex 32.3 43 0
      vertex 32.3 20.15 4
      vertex 32.3 20.15 0
    endloop
  endfacet
  facet normal 0 1 -0
    outer loop
      vertex 32.3 43 0
      vertex 10.6066 43 4
      vertex 32.3 43 4
    endloop
  endfacet
  facet normal 0 1 0
    outer loop
      vertex 10.6066 43 4
      vertex 32.3 43 0
      vertex 10.6066 43 0
    endloop
  endfacet
  facet normal 0 0 -1
    outer loop
      vertex 32.3 0 0
      vertex 25.15 4.85 0
      vertex 32.3 4.85 0
    endloop
  endfacet
  facet normal 0 0 -1
    outer loop
      vertex 0 0 0
      vertex 25.15 20.15 0
      vertex 25.15 4.85 0
    endloop
  endfacet
  facet normal 0 0 -1
    outer loop
      vertex 0 0 0
      vertex 25.15 4.85 0
      vertex 32.3 0 0
    endloop
  endfacet
  facet normal -0 0 -1
    outer loop
      vertex 25.15 20.15 0
      vertex 0 0 0
      vertex 0 32.3934 0
    endloop
  endfacet
  facet normal 0 0 -1
    outer loop
      vertex 25.15 20.15 0
      vertex 0 32.3934 0
      vertex 10.6066 43 0
    endloop
  endfacet
  facet normal 0 0 -1
    outer loop
      vertex 30.7266 39.5365 0
      vertex 32.3 43 0
      vertex 32.3 20.15 0
    endloop
  endfacet
  facet normal 0 0 -1
    outer loop
      vertex 32.3 43 0
      vertex 30.7266 39.5365 0
      vertex 30.8 40 0
    endloop
  endfacet
  facet normal 0 0 -1
    outer loop
      vertex 32.3 20.15 0
      vertex 30.5135 39.1183 0
      vertex 30.7266 39.5365 0
    endloop
  endfacet
  facet normal 0 0 -1
    outer loop
      vertex 32.3 20.15 0
      vertex 30.1817 38.7865 0
      vertex 30.5135 39.1183 0
    endloop
  endfacet
  facet normal 0 0 -1
    outer loop
      vertex 32.3 20.15 0
      vertex 29.7635 38.5734 0
      vertex 30.1817 38.7865 0
    endloop
  endfacet
  facet normal 0 0 -1
    outer loop
      vertex 32.3 20.15 0
      vertex 29.3 38.5 0
      vertex 29.7635 38.5734 0
    endloop
  endfacet
  facet normal 0 0 -1
    outer loop
      vertex 25.15 20.15 0
      vertex 29.3 38.5 0
      vertex 32.3 20.15 0
    endloop
  endfacet
  facet normal -0 0 -1
    outer loop
      vertex 29.3 38.5 0
      vertex 25.15 20.15 0
      vertex 28.8365 38.5734 0
    endloop
  endfacet
  facet normal -0 0 -1
    outer loop
      vertex 28.8365 38.5734 0
      vertex 25.15 20.15 0
      vertex 28.4183 38.7865 0
    endloop
  endfacet
  facet normal -0 0 -1
    outer loop
      vertex 28.4183 38.7865 0
      vertex 25.15 20.15 0
      vertex 28.0865 39.1183 0
    endloop
  endfacet
  facet normal 0 0 -1
    outer loop
      vertex 28.0865 39.1183 0
      vertex 10.6066 43 0
      vertex 27.8734 39.5365 0
    endloop
  endfacet
  facet normal 0 0 -1
    outer loop
      vertex 10.6066 43 0
      vertex 28.0865 39.1183 0
      vertex 25.15 20.15 0
    endloop
  endfacet
  facet normal 0 0 -1
    outer loop
      vertex 30.7266 40.4635 0
      vertex 32.3 43 0
      vertex 30.8 40 0
    endloop
  endfacet
  facet normal 0 0 -1
    outer loop
      vertex 30.5135 40.8817 0
      vertex 32.3 43 0
      vertex 30.7266 40.4635 0
    endloop
  endfacet
  facet normal 0 0 -1
    outer loop
      vertex 30.1817 41.2135 0
      vertex 32.3 43 0
      vertex 30.5135 40.8817 0
    endloop
  endfacet
  facet normal 0 0 -1
    outer loop
      vertex 29.7635 41.4266 0
      vertex 32.3 43 0
      vertex 30.1817 41.2135 0
    endloop
  endfacet
  facet normal 0 0 -1
    outer loop
      vertex 29.3 41.5 0
      vertex 32.3 43 0
      vertex 29.7635 41.4266 0
    endloop
  endfacet
  facet normal 0 0 -1
    outer loop
      vertex 28.8365 41.4266 0
      vertex 32.3 43 0
      vertex 29.3 41.5 0
    endloop
  endfacet
  facet normal 0 0 -1
    outer loop
      vertex 28.8365 41.4266 0
      vertex 10.6066 43 0
      vertex 32.3 43 0
    endloop
  endfacet
  facet normal 0 0 -1
    outer loop
      vertex 28.4183 41.2135 0
      vertex 10.6066 43 0
      vertex 28.8365 41.4266 0
    endloop
  endfacet
  facet normal 0 0 -1
    outer loop
      vertex 28.0865 40.8817 0
      vertex 10.6066 43 0
      vertex 28.4183 41.2135 0
    endloop
  endfacet
  facet normal 0 0 -1
    outer loop
      vertex 27.8734 40.4635 0
      vertex 10.6066 43 0
      vertex 28.0865 40.8817 0
    endloop
  endfacet
  facet normal 0 0 -1
    outer loop
      vertex 27.8 40 0
      vertex 10.6066 43 0
      vertex 27.8734 40.4635 0
    endloop
  endfacet
  facet normal 0 0 -1
    outer loop
      vertex 27.8734 39.5365 0
      vertex 10.6066 43 0
      vertex 27.8 40 0
    endloop
  endfacet
  facet normal 0 -1 0
    outer loop
      vertex 6.90172 0 8.73637
      vertex 10 0 11
      vertex 3 0 11
    endloop
  endfacet
  facet normal 0 -1 0
    outer loop
      vertex 6.90172 0 8.73637
      vertex 3 0 11
      vertex 6.09828 0 8.73637
    endloop
  endfacet
  facet normal 0 -1 0
    outer loop
      vertex 3 0 11
      vertex 5.44828 0 8.26412
      vertex 6.09828 0 8.73637
    endloop
  endfacet
  facet normal 0 -1 0
    outer loop
      vertex 3 0 11
      vertex 5.2 0 7.5
      vertex 5.44828 0 8.26412
    endloop
  endfacet
  facet normal 0 -1 0
    outer loop
      vertex 0 0 4
      vertex 5.2 0 7.5
      vertex 3 0 11
    endloop
  endfacet
  facet normal 0 -1 0
    outer loop
      vertex 0 0 0
      vertex 6.09828 0 6.26363
      vertex 0 0 4
    endloop
  endfacet
  facet normal 0 -1 -0
    outer loop
      vertex 5.44828 0 6.73588
      vertex 0 0 4
      vertex 6.09828 0 6.26363
    endloop
  endfacet
  facet normal 0 -1 -0
    outer loop
      vertex 5.2 0 7.5
      vertex 0 0 4
      vertex 5.44828 0 6.73588
    endloop
  endfacet
  facet normal 0 -1 0
    outer loop
      vertex 25.15 0 4
      vertex 13.15 0 15
      vertex 10.8572 0 9.79989
    endloop
  endfacet
  facet normal 0 -1 0
    outer loop
      vertex 7.55172 0 8.26412
      vertex 10 0 11
      vertex 6.90172 0 8.73637
    endloop
  endfacet
  facet normal 0 -1 -0
    outer loop
      vertex 10 0 11
      vertex 7.55172 0 8.26412
      vertex 10.8572 0 9.79989
    endloop
  endfacet
  facet normal 0 -1 0
    outer loop
      vertex 7.8 0 7.5
      vertex 10.8572 0 9.79989
      vertex 7.55172 0 8.26412
    endloop
  endfacet
  facet normal 0 -1 0
    outer loop
      vertex 7.55172 0 6.73588
      vertex 10.8572 0 9.79989
      vertex 7.8 0 7.5
    endloop
  endfacet
  facet normal 0 -1 -0
    outer loop
      vertex 10.8572 0 9.79989
      vertex 7.55172 0 6.73588
      vertex 25.15 0 4
    endloop
  endfacet
  facet normal 0 -1 0
    outer loop
      vertex 25.15 0 4
      vertex 7.55172 0 6.73588
      vertex 6.90172 0 6.26363
    endloop
  endfacet
  facet normal 0 -1 0
    outer loop
      vertex 13.15 0 15
      vertex 25.15 0 4
      vertex 25.15 0 15
    endloop
  endfacet
  facet normal 0 -1 -0
    outer loop
      vertex 6.09828 0 6.26363
      vertex 0 0 0
      vertex 6.90172 0 6.26363
    endloop
  endfacet
  facet normal 0 -1 -0
    outer loop
      vertex 6.90172 0 6.26363
      vertex 0 0 0
      vertex 25.15 0 4
    endloop
  endfacet
  facet normal 0 -1 0
    outer loop
      vertex 32.3 0 0
      vertex 25.15 0 4
      vertex 0 0 0
    endloop
  endfacet
  facet normal 0 -1 0
    outer loop
      vertex 25.15 0 4
      vertex 32.3 0 0
      vertex 32.3 0 4
    endloop
  endfacet
  facet normal 0.81374 -0 0.581229
    outer loop
      vertex 10 0 11
      vertex 10.8572 7 9.79989
      vertex 10 7 11
    endloop
  endfacet
  facet normal 0.81374 0 0.581229
    outer loop
      vertex 10.8572 7 9.79989
      vertex 10 0 11
      vertex 10.8572 0 9.79989
    endloop
  endfacet
  facet normal 0 1 0
    outer loop
      vertex 10 7 11
      vertex 8.125 7 10.3146
      vertex 3 7 11
    endloop
  endfacet
  facet normal 0 1 0
    outer loop
      vertex 10.8572 7 9.79989
      vertex 8.125 7 10.3146
      vertex 10 7 11
    endloop
  endfacet
  facet normal 0 1 0
    outer loop
      vertex 10.8572 7 9.79989
      vertex 9.75 7 7.5
      vertex 8.125 7 10.3146
    endloop
  endfacet
  facet normal 0 1 0
    outer loop
      vertex 8.125 7 4.68542
      vertex 8.3 7 4
      vertex 4.875 7 4.68542
    endloop
  endfacet
  facet normal 0 1 0
    outer loop
      vertex 9.75 7 7.5
      vertex 8.3 7 4
      vertex 8.125 7 4.68542
    endloop
  endfacet
  facet normal 0 1 0
    outer loop
      vertex 8.3 7 4
      vertex 9.75 7 7.5
      vertex 10.8572 7 9.79989
    endloop
  endfacet
  facet normal 0 1 -0
    outer loop
      vertex 4.875 7 10.3146
      vertex 3 7 11
      vertex 8.125 7 10.3146
    endloop
  endfacet
  facet normal 0 1 -0
    outer loop
      vertex 3.25 7 7.5
      vertex 3 7 11
      vertex 4.875 7 10.3146
    endloop
  endfacet
  facet normal 0 1 0
    outer loop
      vertex 3.25 7 7.5
      vertex 0 7 4
      vertex 3 7 11
    endloop
  endfacet
  facet normal 0 1 0
    outer loop
      vertex 4.875 7 4.68542
      vertex 0 7 4
      vertex 3.25 7 7.5
    endloop
  endfacet
  facet normal 0 1 0
    outer loop
      vertex 0 7 4
      vertex 4.875 7 4.68542
      vertex 8.3 7 4
    endloop
  endfacet
  facet normal -0 0 1
    outer loop
      vertex 3 7 11
      vertex 10 0 11
      vertex 10 7 11
    endloop
  endfacet
  facet normal 0 0 1
    outer loop
      vertex 10 0 11
      vertex 3 7 11
      vertex 3 0 11
    endloop
  endfacet
  facet normal -0.919145 0 0.393919
    outer loop
      vertex 0 0 4
      vertex 3 7 11
      vertex 0 7 4
    endloop
  endfacet
  facet normal -0.919145 0 0.393919
    outer loop
      vertex 3 7 11
      vertex 0 0 4
      vertex 3 0 11
    endloop
  endfacet
  facet normal 1 -0 0
    outer loop
      vertex 25.15 0 15
      vertex 25.15 4.85 4
      vertex 25.15 4.85 15
    endloop
  endfacet
  facet normal 1 0 0
    outer loop
      vertex 25.15 4.85 4
      vertex 25.15 0 15
      vertex 25.15 0 4
    endloop
  endfacet
  facet normal 1 -0 0
    outer loop
      vertex 25.15 20.15 15
      vertex 25.15 25 4
      vertex 25.15 25 15
    endloop
  endfacet
  facet normal 1 0 0
    outer loop
      vertex 25.15 25 4
      vertex 25.15 20.15 15
      vertex 25.15 20.15 4
    endloop
  endfacet
  facet normal 1 0 0
    outer loop
      vertex 25.15 4.85 4
      vertex 25.15 20.15 4
      vertex 25.15 20.15 15
    endloop
  endfacet
  facet normal 1 0 0
    outer loop
      vertex 25.15 4.85 4
      vertex 25.15 20.15 15
      vertex 25.15 4.85 15
    endloop
  endfacet
  facet normal 1 0 0
    outer loop
      vertex 25.15 20.15 4
      vertex 25.15 4.85 4
      vertex 25.15 20.15 0
    endloop
  endfacet
  facet normal 1 0 0
    outer loop
      vertex 25.15 20.15 0
      vertex 25.15 4.85 4
      vertex 25.15 4.85 0
    endloop
  endfacet
  facet normal 0 1 -0
    outer loop
      vertex 25.15 25 4
      vertex 13.15 25 15
      vertex 25.15 25 15
    endloop
  endfacet
  facet normal 0 1 0
    outer loop
      vertex 13.15 25 15
      vertex 25.15 25 4
      vertex 8.3 25 4
    endloop
  endfacet
  facet normal -0 0 1
    outer loop
      vertex 24.3423 17.4692 15
      vertex 24.3523 7.5 15
      vertex 24.3523 17.5 15
    endloop
  endfacet
  facet normal 0 0 1
    outer loop
      vertex 24.3423 17.4692 15
      vertex 24.3423 7.53076 15
      vertex 24.3523 7.5 15
    endloop
  endfacet
  facet normal -0 0 1
    outer loop
      vertex 24.1513 16.8815 15
      vertex 24.3423 7.53076 15
      vertex 24.3423 17.4692 15
    endloop
  endfacet
  facet normal 0 0 1
    outer loop
      vertex 24.1513 16.8815 15
      vertex 24.1513 8.11854 15
      vertex 24.3423 7.53076 15
    endloop
  endfacet
  facet normal -0 0 1
    outer loop
      vertex 23.6513 16.5182 15
      vertex 24.1513 8.11854 15
      vertex 24.1513 16.8815 15
    endloop
  endfacet
  facet normal 0 0 1
    outer loop
      vertex 23.6513 16.5182 15
      vertex 23.6513 8.48181 15
      vertex 24.1513 8.11854 15
    endloop
  endfacet
  facet normal -0 0 1
    outer loop
      vertex 23.6252 16.4992 15
      vertex 23.6513 8.48181 15
      vertex 23.6513 16.5182 15
    endloop
  endfacet
  facet normal 0 0 1
    outer loop
      vertex 23.6252 16.4992 15
      vertex 23.6252 8.50082 15
      vertex 23.6513 8.48181 15
    endloop
  endfacet
  facet normal -0 0 1
    outer loop
      vertex 14.9748 16.4992 15
      vertex 23.6252 8.50082 15
      vertex 23.6252 16.4992 15
    endloop
  endfacet
  facet normal 0 0 1
    outer loop
      vertex 14.9748 16.4992 15
      vertex 14.9748 8.50082 15
      vertex 23.6252 8.50082 15
    endloop
  endfacet
  facet normal 0 0 1
    outer loop
      vertex 14.9487 16.5182 15
      vertex 14.9748 8.50082 15
      vertex 14.9748 16.4992 15
    endloop
  endfacet
  facet normal 0 0 1
    outer loop
      vertex 14.9487 16.5182 15
      vertex 14.9487 8.48181 15
      vertex 14.9748 8.50082 15
    endloop
  endfacet
  facet normal 0 0 1
    outer loop
      vertex 14.4487 16.8815 15
      vertex 14.9487 8.48181 15
      vertex 14.9487 16.5182 15
    endloop
  endfacet
  facet normal 0 0 1
    outer loop
      vertex 14.4487 16.8815 15
      vertex 14.4487 8.11854 15
      vertex 14.9487 8.48181 15
    endloop
  endfacet
  facet normal 0 0 1
    outer loop
      vertex 14.2577 17.4692 15
      vertex 14.4487 8.11854 15
      vertex 14.4487 16.8815 15
    endloop
  endfacet
  facet normal 0 0 1
    outer loop
      vertex 14.2577 17.4692 15
      vertex 14.2577 7.53076 15
      vertex 14.4487 8.11854 15
    endloop
  endfacet
  facet normal 0 0 1
    outer loop
      vertex 14.2477 17.5 15
      vertex 14.2577 7.53076 15
      vertex 14.2577 17.4692 15
    endloop
  endfacet
  facet normal 0 0 1
    outer loop
      vertex 14.2577 7.53076 15
      vertex 14.2477 17.5 15
      vertex 14.2477 7.5 15
    endloop
  endfacet
  facet normal 0 0 1
    outer loop
      vertex 23.6252 18.5008 15
      vertex 25.15 20.15 15
      vertex 25.15 25 15
    endloop
  endfacet
  facet normal 0 0 1
    outer loop
      vertex 25.15 20.15 15
      vertex 24.3523 17.5 15
      vertex 25.15 4.85 15
    endloop
  endfacet
  facet normal -0 0 1
    outer loop
      vertex 24.3523 7.5 15
      vertex 25.15 4.85 15
      vertex 24.3523 17.5 15
    endloop
  endfacet
  facet normal 0 0 1
    outer loop
      vertex 25.15 20.15 15
      vertex 24.3423 17.5308 15
      vertex 24.3523 17.5 15
    endloop
  endfacet
  facet normal 0 0 1
    outer loop
      vertex 25.15 20.15 15
      vertex 24.1513 18.1185 15
      vertex 24.3423 17.5308 15
    endloop
  endfacet
  facet normal 0 0 1
    outer loop
      vertex 25.15 20.15 15
      vertex 23.6513 18.4818 15
      vertex 24.1513 18.1185 15
    endloop
  endfacet
  facet normal 0 0 1
    outer loop
      vertex 25.15 20.15 15
      vertex 23.6252 18.5008 15
      vertex 23.6513 18.4818 15
    endloop
  endfacet
  facet normal 0 0 1
    outer loop
      vertex 25.15 25 15
      vertex 14.9748 18.5008 15
      vertex 23.6252 18.5008 15
    endloop
  endfacet
  facet normal 0 0 1
    outer loop
      vertex 14.2477 17.5 15
      vertex 13.15 25 15
      vertex 14.2477 7.5 15
    endloop
  endfacet
  facet normal 0 0 1
    outer loop
      vertex 14.2577 17.5308 15
      vertex 13.15 25 15
      vertex 14.2477 17.5 15
    endloop
  endfacet
  facet normal 0 0 1
    outer loop
      vertex 14.4487 18.1185 15
      vertex 13.15 25 15
      vertex 14.2577 17.5308 15
    endloop
  endfacet
  facet normal 0 0 1
    outer loop
      vertex 14.9487 18.4818 15
      vertex 13.15 25 15
      vertex 14.4487 18.1185 15
    endloop
  endfacet
  facet normal 0 0 1
    outer loop
      vertex 14.9748 18.5008 15
      vertex 13.15 25 15
      vertex 14.9487 18.4818 15
    endloop
  endfacet
  facet normal -0 0 1
    outer loop
      vertex 13.15 25 15
      vertex 14.9748 18.5008 15
      vertex 25.15 25 15
    endloop
  endfacet
  facet normal -0 0 1
    outer loop
      vertex 24.3423 7.46924 15
      vertex 25.15 4.85 15
      vertex 24.3523 7.5 15
    endloop
  endfacet
  facet normal -0 0 1
    outer loop
      vertex 24.1513 6.88146 15
      vertex 25.15 4.85 15
      vertex 24.3423 7.46924 15
    endloop
  endfacet
  facet normal -0 0 1
    outer loop
      vertex 23.6513 6.51819 15
      vertex 25.15 4.85 15
      vertex 24.1513 6.88146 15
    endloop
  endfacet
  facet normal -0 0 1
    outer loop
      vertex 23.6252 6.49918 15
      vertex 25.15 4.85 15
      vertex 23.6513 6.51819 15
    endloop
  endfacet
  facet normal 0 0 1
    outer loop
      vertex 25.15 4.85 15
      vertex 23.6252 6.49918 15
      vertex 25.15 0 15
    endloop
  endfacet
  facet normal -0 0 1
    outer loop
      vertex 14.9748 6.49918 15
      vertex 25.15 0 15
      vertex 23.6252 6.49918 15
    endloop
  endfacet
  facet normal 0 0 1
    outer loop
      vertex 13.15 0 15
      vertex 14.9487 6.51819 15
      vertex 14.4487 6.88146 15
    endloop
  endfacet
  facet normal 0 0 1
    outer loop
      vertex 14.9748 6.49918 15
      vertex 13.15 0 15
      vertex 25.15 0 15
    endloop
  endfacet
  facet normal 0 0 1
    outer loop
      vertex 14.9487 6.51819 15
      vertex 13.15 0 15
      vertex 14.9748 6.49918 15
    endloop
  endfacet
  facet normal 0 0 1
    outer loop
      vertex 14.2577 7.46924 15
      vertex 13.15 0 15
      vertex 14.4487 6.88146 15
    endloop
  endfacet
  facet normal 0 0 1
    outer loop
      vertex 14.2477 7.5 15
      vertex 13.15 0 15
      vertex 14.2577 7.46924 15
    endloop
  endfacet
  facet normal 0 0 1
    outer loop
      vertex 13.15 0 15
      vertex 14.2477 7.5 15
      vertex 13.15 25 15
    endloop
  endfacet
  facet normal -0.91501 0 0.403432
    outer loop
      vertex 10.8572 7 9.79989
      vertex 8.3 25 4
      vertex 8.3 7 4
    endloop
  endfacet
  facet normal -0.915008 1.23156e-06 0.403435
    outer loop
      vertex 8.3 25 4
      vertex 10.8572 7 9.79989
      vertex 13.15 25 15
    endloop
  endfacet
  facet normal -0.915007 0 0.403439
    outer loop
      vertex 13.15 0 15
      vertex 10.8572 7 9.79989
      vertex 10.8572 0 9.79989
    endloop
  endfacet
  facet normal -0.915007 0 0.403439
    outer loop
      vertex 10.8572 7 9.79989
      vertex 13.15 0 15
      vertex 13.15 25 15
    endloop
  endfacet
  facet normal 0.95108 -0.308944 0
    outer loop
      vertex 14.55 7.5 13
      vertex 14.6932 7.94084 5
      vertex 14.6932 7.94084 13
    endloop
  endfacet
  facet normal 0.95108 -0.308944 0
    outer loop
      vertex 14.6932 7.94084 5
      vertex 14.55 7.5 13
      vertex 14.55 7.5 5
    endloop
  endfacet
  facet normal 0.58778 -0.809021 0
    outer loop
      vertex 14.6932 7.94084 5
      vertex 15.0682 8.21329 13
      vertex 14.6932 7.94084 13
    endloop
  endfacet
  facet normal 0.58778 -0.809021 0
    outer loop
      vertex 15.0682 8.21329 13
      vertex 14.6932 7.94084 5
      vertex 15.0682 8.21329 5
    endloop
  endfacet
  facet normal 0 1 -0
    outer loop
      vertex 23.5318 6.78671 5
      vertex 15.0682 6.78671 13
      vertex 23.5318 6.78671 13
    endloop
  endfacet
  facet normal 0 1 0
    outer loop
      vertex 15.0682 6.78671 13
      vertex 23.5318 6.78671 5
      vertex 15.0682 6.78671 5
    endloop
  endfacet
  facet normal 0 0 1
    outer loop
      vertex 23.9068 7.94084 5
      vertex 23.9068 7.05916 5
      vertex 24.05 7.5 5
    endloop
  endfacet
  facet normal 0 0 1
    outer loop
      vertex 23.5318 8.21329 5
      vertex 23.9068 7.05916 5
      vertex 23.9068 7.94084 5
    endloop
  endfacet
  facet normal 0 0 1
    outer loop
      vertex 23.5318 8.21329 5
      vertex 23.5318 6.78671 5
      vertex 23.9068 7.05916 5
    endloop
  endfacet
  facet normal -0 0 1
    outer loop
      vertex 15.0682 8.21329 5
      vertex 23.5318 6.78671 5
      vertex 23.5318 8.21329 5
    endloop
  endfacet
  facet normal 0 0 1
    outer loop
      vertex 15.0682 8.21329 5
      vertex 15.0682 6.78671 5
      vertex 23.5318 6.78671 5
    endloop
  endfacet
  facet normal -0 0 1
    outer loop
      vertex 14.6932 7.94084 5
      vertex 15.0682 6.78671 5
      vertex 15.0682 8.21329 5
    endloop
  endfacet
  facet normal 0 0 1
    outer loop
      vertex 14.6932 7.94084 5
      vertex 14.6932 7.05916 5
      vertex 15.0682 6.78671 5
    endloop
  endfacet
  facet normal 0 -0 1
    outer loop
      vertex 14.6932 7.05916 5
      vertex 14.6932 7.94084 5
      vertex 14.55 7.5 5
    endloop
  endfacet
  facet normal -0.58778 0.809021 0
    outer loop
      vertex 23.9068 7.05916 5
      vertex 23.5318 6.78671 13
      vertex 23.9068 7.05916 13
    endloop
  endfacet
  facet normal -0.58778 0.809021 0
    outer loop
      vertex 23.5318 6.78671 13
      vertex 23.9068 7.05916 5
      vertex 23.5318 6.78671 5
    endloop
  endfacet
  facet normal 0 -1 0
    outer loop
      vertex 15.0682 8.21329 5
      vertex 23.5318 8.21329 13
      vertex 15.0682 8.21329 13
    endloop
  endfacet
  facet normal 0 -1 -0
    outer loop
      vertex 23.5318 8.21329 13
      vertex 15.0682 8.21329 5
      vertex 23.5318 8.21329 5
    endloop
  endfacet
  facet normal -0.58778 -0.809021 0
    outer loop
      vertex 23.5318 8.21329 5
      vertex 23.9068 7.94084 13
      vertex 23.5318 8.21329 13
    endloop
  endfacet
  facet normal -0.58778 -0.809021 -0
    outer loop
      vertex 23.9068 7.94084 13
      vertex 23.5318 8.21329 5
      vertex 23.9068 7.94084 5
    endloop
  endfacet
  facet normal 0.58778 0.809021 -0
    outer loop
      vertex 15.0682 6.78671 5
      vertex 14.6932 7.05916 13
      vertex 15.0682 6.78671 13
    endloop
  endfacet
  facet normal 0.58778 0.809021 0
    outer loop
      vertex 14.6932 7.05916 13
      vertex 15.0682 6.78671 5
      vertex 14.6932 7.05916 5
    endloop
  endfacet
  facet normal 0.95108 0.308944 0
    outer loop
      vertex 14.6932 7.05916 13
      vertex 14.55 7.5 5
      vertex 14.55 7.5 13
    endloop
  endfacet
  facet normal 0.95108 0.308944 0
    outer loop
      vertex 14.55 7.5 5
      vertex 14.6932 7.05916 13
      vertex 14.6932 7.05916 5
    endloop
  endfacet
  facet normal -0.95108 -0.308944 0
    outer loop
      vertex 24.05 7.5 5
      vertex 23.9068 7.94084 13
      vertex 23.9068 7.94084 5
    endloop
  endfacet
  facet normal -0.95108 -0.308944 0
    outer loop
      vertex 23.9068 7.94084 13
      vertex 24.05 7.5 5
      vertex 24.05 7.5 13
    endloop
  endfacet
  facet normal -0.95108 0.308944 0
    outer loop
      vertex 23.9068 7.05916 5
      vertex 24.05 7.5 13
      vertex 24.05 7.5 5
    endloop
  endfacet
  facet normal -0.95108 0.308944 0
    outer loop
      vertex 24.05 7.5 13
      vertex 23.9068 7.05916 5
      vertex 23.9068 7.05916 13
    endloop
  endfacet
  facet normal 0.582756 0.800102 0.142241
    outer loop
      vertex 15.0682 6.78671 13
      vertex 14.9487 6.51819 15
      vertex 14.9748 6.49918 15
    endloop
  endfacet
  facet normal 0.581801 0.80079 0.142277
    outer loop
      vertex 14.9487 6.51819 15
      vertex 15.0682 6.78671 13
      vertex 14.6932 7.05916 13
    endloop
  endfacet
  facet normal 0.941375 0.305901 0.142262
    outer loop
      vertex 14.4487 6.88146 15
      vertex 14.6932 7.05916 13
      vertex 14.2577 7.46924 15
    endloop
  endfacet
  facet normal -0.581804 -0.800788 0.142276
    outer loop
      vertex 23.9068 7.94084 13
      vertex 24.1513 8.11854 15
      vertex 23.6513 8.48181 15
    endloop
  endfacet
  facet normal 0 -0.989823 0.142302
    outer loop
      vertex 15.0682 8.21329 13
      vertex 23.6252 8.50082 15
      vertex 14.9748 8.50082 15
    endloop
  endfacet
  facet normal 0 -0.989823 0.142302
    outer loop
      vertex 23.6252 8.50082 15
      vertex 15.0682 8.21329 13
      vertex 23.5318 8.21329 13
    endloop
  endfacet
  facet normal 0.581804 0.800788 0.142276
    outer loop
      vertex 14.9487 6.51819 15
      vertex 14.6932 7.05916 13
      vertex 14.4487 6.88146 15
    endloop
  endfacet
  facet normal 0 0.989823 0.142302
    outer loop
      vertex 23.5318 6.78671 13
      vertex 14.9748 6.49918 15
      vertex 23.6252 6.49918 15
    endloop
  endfacet
  facet normal 0 0.989823 0.142302
    outer loop
      vertex 14.9748 6.49918 15
      vertex 23.5318 6.78671 13
      vertex 15.0682 6.78671 13
    endloop
  endfacet
  facet normal -0.582756 -0.800102 0.142241
    outer loop
      vertex 23.5318 8.21329 13
      vertex 23.6513 8.48181 15
      vertex 23.6252 8.50082 15
    endloop
  endfacet
  facet normal -0.581801 -0.80079 0.142277
    outer loop
      vertex 23.6513 8.48181 15
      vertex 23.5318 8.21329 13
      vertex 23.9068 7.94084 13
    endloop
  endfacet
  facet normal 0.941331 -0.306025 0.142282
    outer loop
      vertex 14.55 7.5 13
      vertex 14.2577 7.53076 15
      vertex 14.2477 7.5 15
    endloop
  endfacet
  facet normal 0.941403 -0.3058 0.142289
    outer loop
      vertex 14.2577 7.53076 15
      vertex 14.55 7.5 13
      vertex 14.6932 7.94084 13
    endloop
  endfacet
  facet normal 0.581801 -0.80079 0.142277
    outer loop
      vertex 15.0682 8.21329 13
      vertex 14.9487 8.48181 15
      vertex 14.6932 7.94084 13
    endloop
  endfacet
  facet normal 0.582756 -0.800102 0.142241
    outer loop
      vertex 14.9487 8.48181 15
      vertex 15.0682 8.21329 13
      vertex 14.9748 8.50082 15
    endloop
  endfacet
  facet normal -0.581801 0.80079 0.142277
    outer loop
      vertex 23.5318 6.78671 13
      vertex 23.6513 6.51819 15
      vertex 23.9068 7.05916 13
    endloop
  endfacet
  facet normal -0.582756 0.800102 0.142241
    outer loop
      vertex 23.6513 6.51819 15
      vertex 23.5318 6.78671 13
      vertex 23.6252 6.49918 15
    endloop
  endfacet
  facet normal -0.941403 -0.3058 0.142289
    outer loop
      vertex 24.05 7.5 13
      vertex 24.3423 7.53076 15
      vertex 23.9068 7.94084 13
    endloop
  endfacet
  facet normal -0.941331 -0.306025 0.142282
    outer loop
      vertex 24.3423 7.53076 15
      vertex 24.05 7.5 13
      vertex 24.3523 7.5 15
    endloop
  endfacet
  facet normal 0.941331 0.306025 0.142282
    outer loop
      vertex 14.2577 7.46924 15
      vertex 14.55 7.5 13
      vertex 14.2477 7.5 15
    endloop
  endfacet
  facet normal 0.941403 0.3058 0.142289
    outer loop
      vertex 14.55 7.5 13
      vertex 14.2577 7.46924 15
      vertex 14.6932 7.05916 13
    endloop
  endfacet
  facet normal -0.941375 -0.305901 0.142262
    outer loop
      vertex 24.3423 7.53076 15
      vertex 24.1513 8.11854 15
      vertex 23.9068 7.94084 13
    endloop
  endfacet
  facet normal -0.941331 0.306025 0.142282
    outer loop
      vertex 24.05 7.5 13
      vertex 24.3423 7.46924 15
      vertex 24.3523 7.5 15
    endloop
  endfacet
  facet normal -0.941403 0.3058 0.142289
    outer loop
      vertex 24.3423 7.46924 15
      vertex 24.05 7.5 13
      vertex 23.9068 7.05916 13
    endloop
  endfacet
  facet normal 0.581804 -0.800788 0.142276
    outer loop
      vertex 14.6932 7.94084 13
      vertex 14.9487 8.48181 15
      vertex 14.4487 8.11854 15
    endloop
  endfacet
  facet normal 0.941375 -0.305901 0.142262
    outer loop
      vertex 14.6932 7.94084 13
      vertex 14.4487 8.11854 15
      vertex 14.2577 7.53076 15
    endloop
  endfacet
  facet normal -0.941375 0.305901 0.142262
    outer loop
      vertex 24.1513 6.88146 15
      vertex 24.3423 7.46924 15
      vertex 23.9068 7.05916 13
    endloop
  endfacet
  facet normal -0.581804 0.800788 0.142276
    outer loop
      vertex 24.1513 6.88146 15
      vertex 23.9068 7.05916 13
      vertex 23.6513 6.51819 15
    endloop
  endfacet
  facet normal 0.951072 -0.308969 0
    outer loop
      vertex 14.55 17.5 13
      vertex 14.6932 17.9408 5
      vertex 14.6932 17.9408 13
    endloop
  endfacet
  facet normal 0.951072 -0.308969 0
    outer loop
      vertex 14.6932 17.9408 5
      vertex 14.55 17.5 13
      vertex 14.55 17.5 5
    endloop
  endfacet
  facet normal 0.587851 -0.808969 0
    outer loop
      vertex 14.6932 17.9408 5
      vertex 15.0682 18.2133 13
      vertex 14.6932 17.9408 13
    endloop
  endfacet
  facet normal 0.587851 -0.808969 0
    outer loop
      vertex 15.0682 18.2133 13
      vertex 14.6932 17.9408 5
      vertex 15.0682 18.2133 5
    endloop
  endfacet
  facet normal 0.951072 0.308969 0
    outer loop
      vertex 14.6932 17.0592 13
      vertex 14.55 17.5 5
      vertex 14.55 17.5 13
    endloop
  endfacet
  facet normal 0.951072 0.308969 0
    outer loop
      vertex 14.55 17.5 5
      vertex 14.6932 17.0592 13
      vertex 14.6932 17.0592 5
    endloop
  endfacet
  facet normal -0.951072 0.308969 0
    outer loop
      vertex 23.9068 17.0592 5
      vertex 24.05 17.5 13
      vertex 24.05 17.5 5
    endloop
  endfacet
  facet normal -0.951072 0.308969 0
    outer loop
      vertex 24.05 17.5 13
      vertex 23.9068 17.0592 5
      vertex 23.9068 17.0592 13
    endloop
  endfacet
  facet normal 0 1 -0
    outer loop
      vertex 23.5318 16.7867 5
      vertex 15.0682 16.7867 13
      vertex 23.5318 16.7867 13
    endloop
  endfacet
  facet normal 0 1 0
    outer loop
      vertex 15.0682 16.7867 13
      vertex 23.5318 16.7867 5
      vertex 15.0682 16.7867 5
    endloop
  endfacet
  facet normal 0 0 1
    outer loop
      vertex 23.9068 17.9408 5
      vertex 23.9068 17.0592 5
      vertex 24.05 17.5 5
    endloop
  endfacet
  facet normal 0 0 1
    outer loop
      vertex 23.5318 18.2133 5
      vertex 23.9068 17.0592 5
      vertex 23.9068 17.9408 5
    endloop
  endfacet
  facet normal 0 0 1
    outer loop
      vertex 23.5318 18.2133 5
      vertex 23.5318 16.7867 5
      vertex 23.9068 17.0592 5
    endloop
  endfacet
  facet normal -0 0 1
    outer loop
      vertex 15.0682 18.2133 5
      vertex 23.5318 16.7867 5
      vertex 23.5318 18.2133 5
    endloop
  endfacet
  facet normal 0 0 1
    outer loop
      vertex 15.0682 18.2133 5
      vertex 15.0682 16.7867 5
      vertex 23.5318 16.7867 5
    endloop
  endfacet
  facet normal -0 0 1
    outer loop
      vertex 14.6932 17.9408 5
      vertex 15.0682 16.7867 5
      vertex 15.0682 18.2133 5
    endloop
  endfacet
  facet normal 0 0 1
    outer loop
      vertex 14.6932 17.9408 5
      vertex 14.6932 17.0592 5
      vertex 15.0682 16.7867 5
    endloop
  endfacet
  facet normal 0 -0 1
    outer loop
      vertex 14.6932 17.0592 5
      vertex 14.6932 17.9408 5
      vertex 14.55 17.5 5
    endloop
  endfacet
  facet normal -0.587851 0.808969 0
    outer loop
      vertex 23.9068 17.0592 5
      vertex 23.5318 16.7867 13
      vertex 23.9068 17.0592 13
    endloop
  endfacet
  facet normal -0.587851 0.808969 0
    outer loop
      vertex 23.5318 16.7867 13
      vertex 23.9068 17.0592 5
      vertex 23.5318 16.7867 5
    endloop
  endfacet
  facet normal 0 -1 0
    outer loop
      vertex 15.0682 18.2133 5
      vertex 23.5318 18.2133 13
      vertex 15.0682 18.2133 13
    endloop
  endfacet
  facet normal 0 -1 -0
    outer loop
      vertex 23.5318 18.2133 13
      vertex 15.0682 18.2133 5
      vertex 23.5318 18.2133 5
    endloop
  endfacet
  facet normal -0.587851 -0.808969 0
    outer loop
      vertex 23.5318 18.2133 5
      vertex 23.9068 17.9408 13
      vertex 23.5318 18.2133 13
    endloop
  endfacet
  facet normal -0.587851 -0.808969 -0
    outer loop
      vertex 23.9068 17.9408 13
      vertex 23.5318 18.2133 5
      vertex 23.9068 17.9408 5
    endloop
  endfacet
  facet normal 0.587851 0.808969 -0
    outer loop
      vertex 15.0682 16.7867 5
      vertex 14.6932 17.0592 13
      vertex 15.0682 16.7867 13
    endloop
  endfacet
  facet normal 0.587851 0.808969 0
    outer loop
      vertex 14.6932 17.0592 13
      vertex 15.0682 16.7867 5
      vertex 14.6932 17.0592 5
    endloop
  endfacet
  facet normal -0.951072 -0.308969 0
    outer loop
      vertex 24.05 17.5 5
      vertex 23.9068 17.9408 13
      vertex 23.9068 17.9408 5
    endloop
  endfacet
  facet normal -0.951072 -0.308969 0
    outer loop
      vertex 23.9068 17.9408 13
      vertex 24.05 17.5 5
      vertex 24.05 17.5 13
    endloop
  endfacet
  facet normal 0.581872 -0.800741 0.142266
    outer loop
      vertex 15.0682 18.2133 13
      vertex 14.9487 18.4818 15
      vertex 14.6932 17.9408 13
    endloop
  endfacet
  facet normal 0.582556 -0.800248 0.142241
    outer loop
      vertex 14.9487 18.4818 15
      vertex 15.0682 18.2133 13
      vertex 14.9748 18.5008 15
    endloop
  endfacet
  facet normal 0.941446 -0.305664 0.1423
    outer loop
      vertex 14.55 17.5 13
      vertex 14.2577 17.5308 15
      vertex 14.2477 17.5 15
    endloop
  endfacet
  facet normal 0.941394 -0.305825 0.142294
    outer loop
      vertex 14.2577 17.5308 15
      vertex 14.55 17.5 13
      vertex 14.6932 17.9408 13
    endloop
  endfacet
  facet normal 0 -0.989825 0.142287
    outer loop
      vertex 15.0682 18.2133 13
      vertex 23.6252 18.5008 15
      vertex 14.9748 18.5008 15
    endloop
  endfacet
  facet normal 0 -0.989825 0.142287
    outer loop
      vertex 23.6252 18.5008 15
      vertex 15.0682 18.2133 13
      vertex 23.5318 18.2133 13
    endloop
  endfacet
  facet normal 0.941362 0.305939 0.142264
    outer loop
      vertex 14.4487 16.8815 15
      vertex 14.6932 17.0592 13
      vertex 14.2577 17.4692 15
    endloop
  endfacet
  facet normal 0.581836 0.800765 0.142277
    outer loop
      vertex 14.9487 16.5182 15
      vertex 14.6932 17.0592 13
      vertex 14.4487 16.8815 15
    endloop
  endfacet
  facet normal 0.941362 -0.305939 0.142264
    outer loop
      vertex 14.6932 17.9408 13
      vertex 14.4487 18.1185 15
      vertex 14.2577 17.5308 15
    endloop
  endfacet
  facet normal 0.581836 -0.800765 0.142277
    outer loop
      vertex 14.6932 17.9408 13
      vertex 14.9487 18.4818 15
      vertex 14.4487 18.1185 15
    endloop
  endfacet
  facet normal -0.941446 0.305664 0.1423
    outer loop
      vertex 24.05 17.5 13
      vertex 24.3423 17.4692 15
      vertex 24.3523 17.5 15
    endloop
  endfacet
  facet normal -0.941394 0.305825 0.142294
    outer loop
      vertex 24.3423 17.4692 15
      vertex 24.05 17.5 13
      vertex 23.9068 17.0592 13
    endloop
  endfacet
  facet normal 0 0.989825 0.142287
    outer loop
      vertex 23.5318 16.7867 13
      vertex 14.9748 16.4992 15
      vertex 23.6252 16.4992 15
    endloop
  endfacet
  facet normal 0 0.989825 0.142287
    outer loop
      vertex 14.9748 16.4992 15
      vertex 23.5318 16.7867 13
      vertex 15.0682 16.7867 13
    endloop
  endfacet
  facet normal 0.941446 0.305664 0.1423
    outer loop
      vertex 14.2577 17.4692 15
      vertex 14.55 17.5 13
      vertex 14.2477 17.5 15
    endloop
  endfacet
  facet normal 0.941394 0.305825 0.142294
    outer loop
      vertex 14.55 17.5 13
      vertex 14.2577 17.4692 15
      vertex 14.6932 17.0592 13
    endloop
  endfacet
  facet normal -0.581836 -0.800765 0.142277
    outer loop
      vertex 23.9068 17.9408 13
      vertex 24.1513 18.1185 15
      vertex 23.6513 18.4818 15
    endloop
  endfacet
  facet normal 0.582556 0.800248 0.142241
    outer loop
      vertex 15.0682 16.7867 13
      vertex 14.9487 16.5182 15
      vertex 14.9748 16.4992 15
    endloop
  endfacet
  facet normal 0.581872 0.800741 0.142266
    outer loop
      vertex 14.9487 16.5182 15
      vertex 15.0682 16.7867 13
      vertex 14.6932 17.0592 13
    endloop
  endfacet
  facet normal -0.941362 0.305939 0.142264
    outer loop
      vertex 24.1513 16.8815 15
      vertex 24.3423 17.4692 15
      vertex 23.9068 17.0592 13
    endloop
  endfacet
  facet normal -0.941362 -0.305939 0.142264
    outer loop
      vertex 24.3423 17.5308 15
      vertex 24.1513 18.1185 15
      vertex 23.9068 17.9408 13
    endloop
  endfacet
  facet normal -0.941394 -0.305825 0.142294
    outer loop
      vertex 24.05 17.5 13
      vertex 24.3423 17.5308 15
      vertex 23.9068 17.9408 13
    endloop
  endfacet
  facet normal -0.941446 -0.305664 0.1423
    outer loop
      vertex 24.3423 17.5308 15
      vertex 24.05 17.5 13
      vertex 24.3523 17.5 15
    endloop
  endfacet
  facet normal -0.581836 0.800765 0.142277
    outer loop
      vertex 24.1513 16.8815 15
      vertex 23.9068 17.0592 13
      vertex 23.6513 16.5182 15
    endloop
  endfacet
  facet normal -0.581872 0.800741 0.142266
    outer loop
      vertex 23.5318 16.7867 13
      vertex 23.6513 16.5182 15
      vertex 23.9068 17.0592 13
    endloop
  endfacet
  facet normal -0.582556 0.800248 0.142241
    outer loop
      vertex 23.6513 16.5182 15
      vertex 23.5318 16.7867 13
      vertex 23.6252 16.4992 15
    endloop
  endfacet
  facet normal -0.582556 -0.800248 0.142241
    outer loop
      vertex 23.5318 18.2133 13
      vertex 23.6513 18.4818 15
      vertex 23.6252 18.5008 15
    endloop
  endfacet
  facet normal -0.581872 -0.800741 0.142266
    outer loop
      vertex 23.6513 18.4818 15
      vertex 23.5318 18.2133 13
      vertex 23.9068 17.9408 13
    endloop
  endfacet
  facet normal 0 -1 0
    outer loop
      vertex 25.15 20.15 0
      vertex 32.3 20.15 4
      vertex 25.15 20.15 4
    endloop
  endfacet
  facet normal 0 -1 -0
    outer loop
      vertex 32.3 20.15 4
      vertex 25.15 20.15 0
      vertex 32.3 20.15 0
    endloop
  endfacet
  facet normal 0 1 -0
    outer loop
      vertex 32.3 4.85 0
      vertex 25.15 4.85 4
      vertex 32.3 4.85 4
    endloop
  endfacet
  facet normal 0 1 0
    outer loop
      vertex 25.15 4.85 4
      vertex 32.3 4.85 0
      vertex 25.15 4.85 0
    endloop
  endfacet
  facet normal -0.987692 -0.156411 0
    outer loop
      vertex 30.8 40 0
      vertex 30.7266 40.4635 4
      vertex 30.7266 40.4635 0
    endloop
  endfacet
  facet normal -0.987692 -0.156411 0
    outer loop
      vertex 30.7266 40.4635 4
      vertex 30.8 40 0
      vertex 30.8 40 4
    endloop
  endfacet
  facet normal 0.987692 -0.156411 0
    outer loop
      vertex 27.8 40 4
      vertex 27.8734 40.4635 0
      vertex 27.8734 40.4635 4
    endloop
  endfacet
  facet normal 0.987692 -0.156411 0
    outer loop
      vertex 27.8734 40.4635 0
      vertex 27.8 40 4
      vertex 27.8 40 0
    endloop
  endfacet
  facet normal -0.156411 -0.987692 0
    outer loop
      vertex 29.3 41.5 0
      vertex 29.7635 41.4266 4
      vertex 29.3 41.5 4
    endloop
  endfacet
  facet normal -0.156411 -0.987692 -0
    outer loop
      vertex 29.7635 41.4266 4
      vertex 29.3 41.5 0
      vertex 29.7635 41.4266 0
    endloop
  endfacet
  facet normal -0.156411 0.987692 0
    outer loop
      vertex 29.7635 38.5734 0
      vertex 29.3 38.5 4
      vertex 29.7635 38.5734 4
    endloop
  endfacet
  facet normal -0.156411 0.987692 0
    outer loop
      vertex 29.3 38.5 4
      vertex 29.7635 38.5734 0
      vertex 29.3 38.5 0
    endloop
  endfacet
  facet normal -0.454018 0.890992 0
    outer loop
      vertex 30.1817 38.7865 0
      vertex 29.7635 38.5734 4
      vertex 30.1817 38.7865 4
    endloop
  endfacet
  facet normal -0.454018 0.890992 0
    outer loop
      vertex 29.7635 38.5734 4
      vertex 30.1817 38.7865 0
      vertex 29.7635 38.5734 0
    endloop
  endfacet
  facet normal -0.707107 -0.707107 0
    outer loop
      vertex 30.5135 40.8817 0
      vertex 30.1817 41.2135 4
      vertex 30.1817 41.2135 0
    endloop
  endfacet
  facet normal -0.707107 -0.707107 0
    outer loop
      vertex 30.1817 41.2135 4
      vertex 30.5135 40.8817 0
      vertex 30.5135 40.8817 4
    endloop
  endfacet
  facet normal -0.890992 -0.454018 0
    outer loop
      vertex 30.7266 40.4635 0
      vertex 30.5135 40.8817 4
      vertex 30.5135 40.8817 0
    endloop
  endfacet
  facet normal -0.890992 -0.454018 0
    outer loop
      vertex 30.5135 40.8817 4
      vertex 30.7266 40.4635 0
      vertex 30.7266 40.4635 4
    endloop
  endfacet
  facet normal -0.454018 -0.890992 0
    outer loop
      vertex 29.7635 41.4266 0
      vertex 30.1817 41.2135 4
      vertex 29.7635 41.4266 4
    endloop
  endfacet
  facet normal -0.454018 -0.890992 -0
    outer loop
      vertex 30.1817 41.2135 4
      vertex 29.7635 41.4266 0
      vertex 30.1817 41.2135 0
    endloop
  endfacet
  facet normal 0.454018 -0.890992 0
    outer loop
      vertex 28.4183 41.2135 0
      vertex 28.8365 41.4266 4
      vertex 28.4183 41.2135 4
    endloop
  endfacet
  facet normal 0.454018 -0.890992 0
    outer loop
      vertex 28.8365 41.4266 4
      vertex 28.4183 41.2135 0
      vertex 28.8365 41.4266 0
    endloop
  endfacet
  facet normal 0.707107 -0.707107 0
    outer loop
      vertex 28.0865 40.8817 4
      vertex 28.4183 41.2135 0
      vertex 28.4183 41.2135 4
    endloop
  endfacet
  facet normal 0.707107 -0.707107 0
    outer loop
      vertex 28.4183 41.2135 0
      vertex 28.0865 40.8817 4
      vertex 28.0865 40.8817 0
    endloop
  endfacet
  facet normal 0.156411 -0.987692 0
    outer loop
      vertex 28.8365 41.4266 0
      vertex 29.3 41.5 4
      vertex 28.8365 41.4266 4
    endloop
  endfacet
  facet normal 0.156411 -0.987692 0
    outer loop
      vertex 29.3 41.5 4
      vertex 28.8365 41.4266 0
      vertex 29.3 41.5 0
    endloop
  endfacet
  facet normal 0.707107 0.707107 -0
    outer loop
      vertex 28.4183 38.7865 0
      vertex 28.0865 39.1183 4
      vertex 28.4183 38.7865 4
    endloop
  endfacet
  facet normal 0.707107 0.707107 0
    outer loop
      vertex 28.0865 39.1183 4
      vertex 28.4183 38.7865 0
      vertex 28.0865 39.1183 0
    endloop
  endfacet
  facet normal 0.890992 -0.454018 0
    outer loop
      vertex 27.8734 40.4635 4
      vertex 28.0865 40.8817 0
      vertex 28.0865 40.8817 4
    endloop
  endfacet
  facet normal 0.890992 -0.454018 0
    outer loop
      vertex 28.0865 40.8817 0
      vertex 27.8734 40.4635 4
      vertex 27.8734 40.4635 0
    endloop
  endfacet
  facet normal -0.987692 0.156411 0
    outer loop
      vertex 30.7266 39.5365 0
      vertex 30.8 40 4
      vertex 30.8 40 0
    endloop
  endfacet
  facet normal -0.987692 0.156411 0
    outer loop
      vertex 30.8 40 4
      vertex 30.7266 39.5365 0
      vertex 30.7266 39.5365 4
    endloop
  endfacet
  facet normal -0.707107 0.707107 0
    outer loop
      vertex 30.5135 39.1183 0
      vertex 30.1817 38.7865 4
      vertex 30.5135 39.1183 4
    endloop
  endfacet
  facet normal -0.707107 0.707107 0
    outer loop
      vertex 30.1817 38.7865 4
      vertex 30.5135 39.1183 0
      vertex 30.1817 38.7865 0
    endloop
  endfacet
  facet normal -0.890992 0.454018 0
    outer loop
      vertex 30.5135 39.1183 0
      vertex 30.7266 39.5365 4
      vertex 30.7266 39.5365 0
    endloop
  endfacet
  facet normal -0.890992 0.454018 0
    outer loop
      vertex 30.7266 39.5365 4
      vertex 30.5135 39.1183 0
      vertex 30.5135 39.1183 4
    endloop
  endfacet
  facet normal 0.156411 0.987692 -0
    outer loop
      vertex 29.3 38.5 0
      vertex 28.8365 38.5734 4
      vertex 29.3 38.5 4
    endloop
  endfacet
  facet normal 0.156411 0.987692 0
    outer loop
      vertex 28.8365 38.5734 4
      vertex 29.3 38.5 0
      vertex 28.8365 38.5734 0
    endloop
  endfacet
  facet normal 0.890992 0.454018 0
    outer loop
      vertex 28.0865 39.1183 4
      vertex 27.8734 39.5365 0
      vertex 27.8734 39.5365 4
    endloop
  endfacet
  facet normal 0.890992 0.454018 0
    outer loop
      vertex 27.8734 39.5365 0
      vertex 28.0865 39.1183 4
      vertex 28.0865 39.1183 0
    endloop
  endfacet
  facet normal 0.987692 0.156411 0
    outer loop
      vertex 27.8734 39.5365 4
      vertex 27.8 40 0
      vertex 27.8 40 4
    endloop
  endfacet
  facet normal 0.987692 0.156411 0
    outer loop
      vertex 27.8 40 0
      vertex 27.8734 39.5365 4
      vertex 27.8734 39.5365 0
    endloop
  endfacet
  facet normal 0.454018 0.890992 -0
    outer loop
      vertex 28.8365 38.5734 0
      vertex 28.4183 38.7865 4
      vertex 28.8365 38.5734 4
    endloop
  endfacet
  facet normal 0.454018 0.890992 0
    outer loop
      vertex 28.4183 38.7865 4
      vertex 28.8365 38.5734 0
      vertex 28.4183 38.7865 0
    endloop
  endfacet
  facet normal -0.951056 0 0.30902
    outer loop
      vertex 7.55172 0 6.73588
      vertex 7.8 4 7.5
      vertex 7.55172 4 6.73588
    endloop
  endfacet
  facet normal -0.951056 0 0.30902
    outer loop
      vertex 7.8 4 7.5
      vertex 7.55172 0 6.73588
      vertex 7.8 0 7.5
    endloop
  endfacet
  facet normal 0.951056 -0 0.30902
    outer loop
      vertex 5.2 0 7.5
      vertex 5.44828 4 6.73588
      vertex 5.2 4 7.5
    endloop
  endfacet
  facet normal 0.951056 0 0.30902
    outer loop
      vertex 5.44828 4 6.73588
      vertex 5.2 0 7.5
      vertex 5.44828 0 6.73588
    endloop
  endfacet
  facet normal 0 0 -1
    outer loop
      vertex 6.09828 0 8.73637
      vertex 6.90172 4 8.73637
      vertex 6.90172 0 8.73637
    endloop
  endfacet
  facet normal -0 0 -1
    outer loop
      vertex 6.90172 4 8.73637
      vertex 6.09828 0 8.73637
      vertex 6.09828 4 8.73637
    endloop
  endfacet
  facet normal -0 0 1
    outer loop
      vertex 6.09828 4 6.26363
      vertex 6.90172 0 6.26363
      vertex 6.90172 4 6.26363
    endloop
  endfacet
  facet normal 0 0 1
    outer loop
      vertex 6.90172 0 6.26363
      vertex 6.09828 4 6.26363
      vertex 6.09828 0 6.26363
    endloop
  endfacet
  facet normal -0.587783 0 0.809019
    outer loop
      vertex 6.90172 4 6.26363
      vertex 7.55172 0 6.73588
      vertex 7.55172 4 6.73588
    endloop
  endfacet
  facet normal -0.587783 0 0.809019
    outer loop
      vertex 7.55172 0 6.73588
      vertex 6.90172 4 6.26363
      vertex 6.90172 0 6.26363
    endloop
  endfacet
  facet normal 0.587783 0 0.809019
    outer loop
      vertex 5.44828 4 6.73588
      vertex 6.09828 0 6.26363
      vertex 6.09828 4 6.26363
    endloop
  endfacet
  facet normal 0.587783 0 0.809019
    outer loop
      vertex 6.09828 0 6.26363
      vertex 5.44828 4 6.73588
      vertex 5.44828 0 6.73588
    endloop
  endfacet
  facet normal -0.951056 0 -0.30902
    outer loop
      vertex 7.8 0 7.5
      vertex 7.55172 4 8.26412
      vertex 7.8 4 7.5
    endloop
  endfacet
  facet normal -0.951056 -0 -0.30902
    outer loop
      vertex 7.55172 4 8.26412
      vertex 7.8 0 7.5
      vertex 7.55172 0 8.26412
    endloop
  endfacet
  facet normal -0.587783 0 -0.809019
    outer loop
      vertex 6.90172 0 8.73637
      vertex 7.55172 4 8.26412
      vertex 7.55172 0 8.26412
    endloop
  endfacet
  facet normal -0.587783 0 -0.809019
    outer loop
      vertex 7.55172 4 8.26412
      vertex 6.90172 0 8.73637
      vertex 6.90172 4 8.73637
    endloop
  endfacet
  facet normal 0.587783 0 -0.809019
    outer loop
      vertex 5.44828 0 8.26412
      vertex 6.09828 4 8.73637
      vertex 6.09828 0 8.73637
    endloop
  endfacet
  facet normal 0.587783 0 -0.809019
    outer loop
      vertex 6.09828 4 8.73637
      vertex 5.44828 0 8.26412
      vertex 5.44828 4 8.26412
    endloop
  endfacet
  facet normal 0.951056 0 -0.30902
    outer loop
      vertex 5.44828 0 8.26412
      vertex 5.2 4 7.5
      vertex 5.44828 4 8.26412
    endloop
  endfacet
  facet normal 0.951056 0 -0.30902
    outer loop
      vertex 5.2 4 7.5
      vertex 5.44828 0 8.26412
      vertex 5.2 0 7.5
    endloop
  endfacet
  facet normal -0.866025 0 0.5
    outer loop
      vertex 8.125 4 4.68542
      vertex 9.75 7 7.5
      vertex 8.125 7 4.68542
    endloop
  endfacet
  facet normal -0.866025 0 0.5
    outer loop
      vertex 9.75 7 7.5
      vertex 8.125 4 4.68542
      vertex 9.75 4 7.5
    endloop
  endfacet
  facet normal 0.866025 -0 0.5
    outer loop
      vertex 3.25 4 7.5
      vertex 4.875 7 4.68542
      vertex 3.25 7 7.5
    endloop
  endfacet
  facet normal 0.866025 0 0.5
    outer loop
      vertex 4.875 7 4.68542
      vertex 3.25 4 7.5
      vertex 4.875 4 4.68542
    endloop
  endfacet
  facet normal -0 0 1
    outer loop
      vertex 4.875 7 4.68542
      vertex 8.125 4 4.68542
      vertex 8.125 7 4.68542
    endloop
  endfacet
  facet normal 0 0 1
    outer loop
      vertex 8.125 4 4.68542
      vertex 4.875 7 4.68542
      vertex 4.875 4 4.68542
    endloop
  endfacet
  facet normal 0.866027 0 -0.499998
    outer loop
      vertex 4.875 4 10.3146
      vertex 3.25 7 7.5
      vertex 4.875 7 10.3146
    endloop
  endfacet
  facet normal 0.866027 0 -0.499998
    outer loop
      vertex 3.25 7 7.5
      vertex 4.875 4 10.3146
      vertex 3.25 4 7.5
    endloop
  endfacet
  facet normal -0.866027 0 -0.499998
    outer loop
      vertex 9.75 4 7.5
      vertex 8.125 7 10.3146
      vertex 9.75 7 7.5
    endloop
  endfacet
  facet normal -0.866027 -0 -0.499998
    outer loop
      vertex 8.125 7 10.3146
      vertex 9.75 4 7.5
      vertex 8.125 4 10.3146
    endloop
  endfacet
  facet normal 0 1 0
    outer loop
      vertex 8.125 4 10.3146
      vertex 6.90172 4 8.73637
      vertex 4.875 4 10.3146
    endloop
  endfacet
  facet normal 0 1 0
    outer loop
      vertex 8.125 4 10.3146
      vertex 7.55172 4 8.26412
      vertex 6.90172 4 8.73637
    endloop
  endfacet
  facet normal 0 1 0
    outer loop
      vertex 9.75 4 7.5
      vertex 7.55172 4 8.26412
      vertex 8.125 4 10.3146
    endloop
  endfacet
  facet normal 0 1 0
    outer loop
      vertex 9.75 4 7.5
      vertex 7.8 4 7.5
      vertex 7.55172 4 8.26412
    endloop
  endfacet
  facet normal 0 1 0
    outer loop
      vertex 9.75 4 7.5
      vertex 7.55172 4 6.73588
      vertex 7.8 4 7.5
    endloop
  endfacet
  facet normal 0 1 -0
    outer loop
      vertex 8.125 4 4.68542
      vertex 7.55172 4 6.73588
      vertex 9.75 4 7.5
    endloop
  endfacet
  facet normal 0 1 0
    outer loop
      vertex 6.90172 4 6.26363
      vertex 8.125 4 4.68542
      vertex 6.09828 4 6.26363
    endloop
  endfacet
  facet normal 0 1 0
    outer loop
      vertex 7.55172 4 6.73588
      vertex 8.125 4 4.68542
      vertex 6.90172 4 6.26363
    endloop
  endfacet
  facet normal 0 1 -0
    outer loop
      vertex 6.09828 4 8.73637
      vertex 4.875 4 10.3146
      vertex 6.90172 4 8.73637
    endloop
  endfacet
  facet normal 0 1 -0
    outer loop
      vertex 5.44828 4 8.26412
      vertex 4.875 4 10.3146
      vertex 6.09828 4 8.73637
    endloop
  endfacet
  facet normal 0 1 0
    outer loop
      vertex 3.25 4 7.5
      vertex 5.44828 4 8.26412
      vertex 5.2 4 7.5
    endloop
  endfacet
  facet normal 0 1 0
    outer loop
      vertex 5.44828 4 8.26412
      vertex 3.25 4 7.5
      vertex 4.875 4 10.3146
    endloop
  endfacet
  facet normal 0 1 0
    outer loop
      vertex 5.44828 4 6.73588
      vertex 3.25 4 7.5
      vertex 5.2 4 7.5
    endloop
  endfacet
  facet normal 0 1 0
    outer loop
      vertex 4.875 4 4.68542
      vertex 5.44828 4 6.73588
      vertex 6.09828 4 6.26363
    endloop
  endfacet
  facet normal 0 1 0
    outer loop
      vertex 4.875 4 4.68542
      vertex 6.09828 4 6.26363
      vertex 8.125 4 4.68542
    endloop
  endfacet
  facet normal 0 1 0
    outer loop
      vertex 5.44828 4 6.73588
      vertex 4.875 4 4.68542
      vertex 3.25 4 7.5
    endloop
  endfacet
  facet normal 0 0 -1
    outer loop
      vertex 4.875 4 10.3146
      vertex 8.125 7 10.3146
      vertex 8.125 4 10.3146
    endloop
  endfacet
  facet normal -0 0 -1
    outer loop
      vertex 8.125 7 10.3146
      vertex 4.875 4 10.3146
      vertex 4.875 7 10.3146
    endloop
  endfacet
  facet normal -0.707107 0.707107 0
    outer loop
      vertex 0 32.3934 0
      vertex 10.6066 43 4
      vertex 10.6066 43 0
    endloop
  endfacet
  facet normal -0.707107 0.707107 0
    outer loop
      vertex 10.6066 43 4
      vertex 0 32.3934 0
      vertex 0 32.3934 4
    endloop
  endfacet
endsolid OpenSCAD_Model
