solid OpenSCAD_Model
  facet normal -1 0 0
    outer loop
      vertex 0 32.3934 0
      vertex 0 7 4
      vertex 0 32.3934 4
    endloop
  endfacet
  facet normal -1 0 0
    outer loop
      vertex 0 0 0
      vertex 0 7 4
      vertex 0 32.3934 0
    endloop
  endfacet
  facet normal -1 -0 0
    outer loop
      vertex 0 7 4
      vertex 0 0 0
      vertex 0 0 4
    endloop
  endfacet
  facet normal 0 0 1
    outer loop
      vertex 33.9266 39.5365 4
      vertex 35.5 43 4
      vertex 34 40 4
    endloop
  endfacet
  facet normal 0 0 1
    outer loop
      vertex 35.5 43 4
      vertex 33.9266 40.4635 4
      vertex 34 40 4
    endloop
  endfacet
  facet normal 0 0 1
    outer loop
      vertex 35.5 43 4
      vertex 33.7135 40.8817 4
      vertex 33.9266 40.4635 4
    endloop
  endfacet
  facet normal 0 0 1
    outer loop
      vertex 35.5 43 4
      vertex 33.3817 41.2135 4
      vertex 33.7135 40.8817 4
    endloop
  endfacet
  facet normal 0 0 1
    outer loop
      vertex 35.5 43 4
      vertex 32.9635 41.4266 4
      vertex 33.3817 41.2135 4
    endloop
  endfacet
  facet normal 0 0 1
    outer loop
      vertex 35.5 43 4
      vertex 32.5 41.5 4
      vertex 32.9635 41.4266 4
    endloop
  endfacet
  facet normal 0 0 1
    outer loop
      vertex 35.5 43 4
      vertex 32.0365 41.4266 4
      vertex 32.5 41.5 4
    endloop
  endfacet
  facet normal 0 0 1
    outer loop
      vertex 10.6066 43 4
      vertex 31 40 4
      vertex 31.0734 40.4635 4
    endloop
  endfacet
  facet normal 0 0 1
    outer loop
      vertex 31 40 4
      vertex 11.5 25 4
      vertex 28.35 25 4
    endloop
  endfacet
  facet normal 0 0 1
    outer loop
      vertex 10.6066 43 4
      vertex 31.0734 40.4635 4
      vertex 31.2865 40.8817 4
    endloop
  endfacet
  facet normal 0 0 1
    outer loop
      vertex 10.6066 43 4
      vertex 31.2865 40.8817 4
      vertex 31.6183 41.2135 4
    endloop
  endfacet
  facet normal -0 0 1
    outer loop
      vertex 10.6066 43 4
      vertex 32.0365 41.4266 4
      vertex 35.5 43 4
    endloop
  endfacet
  facet normal 0 0 1
    outer loop
      vertex 10.6066 43 4
      vertex 31.6183 41.2135 4
      vertex 32.0365 41.4266 4
    endloop
  endfacet
  facet normal 0 0 1
    outer loop
      vertex 31 40 4
      vertex 10.6066 43 4
      vertex 11.5 25 4
    endloop
  endfacet
  facet normal -0 0 1
    outer loop
      vertex 0 32.3934 4
      vertex 11.5 25 4
      vertex 10.6066 43 4
    endloop
  endfacet
  facet normal 0 0 1
    outer loop
      vertex 0 7 4
      vertex 11.5 25 4
      vertex 0 32.3934 4
    endloop
  endfacet
  facet normal 0 0 1
    outer loop
      vertex 11.5 25 4
      vertex 0 7 4
      vertex 11.5 7 4
    endloop
  endfacet
  facet normal 0 0 1
    outer loop
      vertex 35.5 43 4
      vertex 33.9266 39.5365 4
      vertex 35.5 20.15 4
    endloop
  endfacet
  facet normal -0 0 1
    outer loop
      vertex 33.7135 39.1183 4
      vertex 35.5 20.15 4
      vertex 33.9266 39.5365 4
    endloop
  endfacet
  facet normal -0 0 1
    outer loop
      vertex 33.3817 38.7865 4
      vertex 35.5 20.15 4
      vertex 33.7135 39.1183 4
    endloop
  endfacet
  facet normal -0 0 1
    outer loop
      vertex 32.9635 38.5734 4
      vertex 35.5 20.15 4
      vertex 33.3817 38.7865 4
    endloop
  endfacet
  facet normal 0 0 1
    outer loop
      vertex 28.35 25 4
      vertex 32.9635 38.5734 4
      vertex 32.5 38.5 4
    endloop
  endfacet
  facet normal 0 0 1
    outer loop
      vertex 28.35 25 4
      vertex 32.5 38.5 4
      vertex 32.0365 38.5734 4
    endloop
  endfacet
  facet normal 0 0 1
    outer loop
      vertex 28.35 25 4
      vertex 32.0365 38.5734 4
      vertex 31.6183 38.7865 4
    endloop
  endfacet
  facet normal 0 0 1
    outer loop
      vertex 28.35 25 4
      vertex 31.6183 38.7865 4
      vertex 31.2865 39.1183 4
    endloop
  endfacet
  facet normal 0 0 1
    outer loop
      vertex 28.35 25 4
      vertex 31.2865 39.1183 4
      vertex 31.0734 39.5365 4
    endloop
  endfacet
  facet normal 0 0 1
    outer loop
      vertex 28.35 25 4
      vertex 31.0734 39.5365 4
      vertex 31 40 4
    endloop
  endfacet
  facet normal 0 0 1
    outer loop
      vertex 32.9635 38.5734 4
      vertex 28.35 25 4
      vertex 35.5 20.15 4
    endloop
  endfacet
  facet normal 0 0 1
    outer loop
      vertex 35.5 20.15 4
      vertex 28.35 25 4
      vertex 28.35 20.15 4
    endloop
  endfacet
  facet normal -0 0 1
    outer loop
      vertex 28.35 4.85 4
      vertex 35.5 0 4
      vertex 35.5 4.85 4
    endloop
  endfacet
  facet normal 0 0 1
    outer loop
      vertex 35.5 0 4
      vertex 28.35 4.85 4
      vertex 28.35 0 4
    endloop
  endfacet
  facet normal 1 -0 0
    outer loop
      vertex 35.5 0 4
      vertex 35.5 4.85 0
      vertex 35.5 4.85 4
    endloop
  endfacet
  facet normal 1 0 0
    outer loop
      vertex 35.5 4.85 0
      vertex 35.5 0 4
      vertex 35.5 0 0
    endloop
  endfacet
  facet normal 1 -0 0
    outer loop
      vertex 35.5 20.15 4
      vertex 35.5 43 0
      vertex 35.5 43 4
    endloop
  endfacet
  facet normal 1 0 0
    outer loop
      vertex 35.5 43 0
      vertex 35.5 20.15 4
      vertex 35.5 20.15 0
    endloop
  endfacet
  facet normal 0 1 -0
    outer loop
      vertex 35.5 43 0
      vertex 10.6066 43 4
      vertex 35.5 43 4
    endloop
  endfacet
  facet normal 0 1 0
    outer loop
      vertex 10.6066 43 4
      vertex 35.5 43 0
      vertex 10.6066 43 0
    endloop
  endfacet
  facet normal 0 0 -1
    outer loop
      vertex 35.5 0 0
      vertex 28.35 4.85 0
      vertex 35.5 4.85 0
    endloop
  endfacet
  facet normal 0 0 -1
    outer loop
      vertex 0 0 0
      vertex 28.35 20.15 0
      vertex 28.35 4.85 0
    endloop
  endfacet
  facet normal 0 0 -1
    outer loop
      vertex 0 0 0
      vertex 28.35 4.85 0
      vertex 35.5 0 0
    endloop
  endfacet
  facet normal -0 0 -1
    outer loop
      vertex 28.35 20.15 0
      vertex 0 0 0
      vertex 0 32.3934 0
    endloop
  endfacet
  facet normal 0 0 -1
    outer loop
      vertex 28.35 20.15 0
      vertex 0 32.3934 0
      vertex 10.6066 43 0
    endloop
  endfacet
  facet normal 0 0 -1
    outer loop
      vertex 33.9266 39.5365 0
      vertex 35.5 43 0
      vertex 35.5 20.15 0
    endloop
  endfacet
  facet normal 0 0 -1
    outer loop
      vertex 35.5 43 0
      vertex 33.9266 39.5365 0
      vertex 34 40 0
    endloop
  endfacet
  facet normal 0 0 -1
    outer loop
      vertex 35.5 20.15 0
      vertex 33.7135 39.1183 0
      vertex 33.9266 39.5365 0
    endloop
  endfacet
  facet normal 0 0 -1
    outer loop
      vertex 35.5 20.15 0
      vertex 33.3817 38.7865 0
      vertex 33.7135 39.1183 0
    endloop
  endfacet
  facet normal 0 0 -1
    outer loop
      vertex 35.5 20.15 0
      vertex 32.9635 38.5734 0
      vertex 33.3817 38.7865 0
    endloop
  endfacet
  facet normal 0 0 -1
    outer loop
      vertex 35.5 20.15 0
      vertex 32.5 38.5 0
      vertex 32.9635 38.5734 0
    endloop
  endfacet
  facet normal 0 0 -1
    outer loop
      vertex 28.35 20.15 0
      vertex 32.5 38.5 0
      vertex 35.5 20.15 0
    endloop
  endfacet
  facet normal -0 0 -1
    outer loop
      vertex 32.5 38.5 0
      vertex 28.35 20.15 0
      vertex 32.0365 38.5734 0
    endloop
  endfacet
  facet normal -0 0 -1
    outer loop
      vertex 32.0365 38.5734 0
      vertex 28.35 20.15 0
      vertex 31.6183 38.7865 0
    endloop
  endfacet
  facet normal -0 0 -1
    outer loop
      vertex 31.6183 38.7865 0
      vertex 28.35 20.15 0
      vertex 31.2865 39.1183 0
    endloop
  endfacet
  facet normal 0 0 -1
    outer loop
      vertex 31.2865 39.1183 0
      vertex 10.6066 43 0
      vertex 31.0734 39.5365 0
    endloop
  endfacet
  facet normal 0 0 -1
    outer loop
      vertex 10.6066 43 0
      vertex 31.2865 39.1183 0
      vertex 28.35 20.15 0
    endloop
  endfacet
  facet normal 0 0 -1
    outer loop
      vertex 33.9266 40.4635 0
      vertex 35.5 43 0
      vertex 34 40 0
    endloop
  endfacet
  facet normal 0 0 -1
    outer loop
      vertex 33.7135 40.8817 0
      vertex 35.5 43 0
      vertex 33.9266 40.4635 0
    endloop
  endfacet
  facet normal 0 0 -1
    outer loop
      vertex 33.3817 41.2135 0
      vertex 35.5 43 0
      vertex 33.7135 40.8817 0
    endloop
  endfacet
  facet normal 0 0 -1
    outer loop
      vertex 32.9635 41.4266 0
      vertex 35.5 43 0
      vertex 33.3817 41.2135 0
    endloop
  endfacet
  facet normal 0 0 -1
    outer loop
      vertex 32.5 41.5 0
      vertex 35.5 43 0
      vertex 32.9635 41.4266 0
    endloop
  endfacet
  facet normal 0 0 -1
    outer loop
      vertex 32.0365 41.4266 0
      vertex 35.5 43 0
      vertex 32.5 41.5 0
    endloop
  endfacet
  facet normal 0 0 -1
    outer loop
      vertex 32.0365 41.4266 0
      vertex 10.6066 43 0
      vertex 35.5 43 0
    endloop
  endfacet
  facet normal 0 0 -1
    outer loop
      vertex 31.6183 41.2135 0
      vertex 10.6066 43 0
      vertex 32.0365 41.4266 0
    endloop
  endfacet
  facet normal 0 0 -1
    outer loop
      vertex 31.2865 40.8817 0
      vertex 10.6066 43 0
      vertex 31.6183 41.2135 0
    endloop
  endfacet
  facet normal 0 0 -1
    outer loop
      vertex 31.0734 40.4635 0
      vertex 10.6066 43 0
      vertex 31.2865 40.8817 0
    endloop
  endfacet
  facet normal 0 0 -1
    outer loop
      vertex 31 40 0
      vertex 10.6066 43 0
      vertex 31.0734 40.4635 0
    endloop
  endfacet
  facet normal 0 0 -1
    outer loop
      vertex 31.0734 39.5365 0
      vertex 10.6066 43 0
      vertex 31 40 0
    endloop
  endfacet
  facet normal 0 -1 0
    outer loop
      vertex 3 0 11
      vertex 6.09828 0 8.73637
      vertex 10 0 11
    endloop
  endfacet
  facet normal 0 -1 0
    outer loop
      vertex 3 0 11
      vertex 5.44828 0 8.26412
      vertex 6.09828 0 8.73637
    endloop
  endfacet
  facet normal 0 -1 0
    outer loop
      vertex 3 0 11
      vertex 5.2 0 7.5
      vertex 5.44828 0 8.26412
    endloop
  endfacet
  facet normal 0 -1 0
    outer loop
      vertex 0 0 4
      vertex 5.2 0 7.5
      vertex 3 0 11
    endloop
  endfacet
  facet normal 0 -1 0
    outer loop
      vertex 0 0 0
      vertex 6.09828 0 6.26363
      vertex 0 0 4
    endloop
  endfacet
  facet normal 0 -1 -0
    outer loop
      vertex 5.44828 0 6.73588
      vertex 0 0 4
      vertex 6.09828 0 6.26363
    endloop
  endfacet
  facet normal 0 -1 -0
    outer loop
      vertex 5.2 0 7.5
      vertex 0 0 4
      vertex 5.44828 0 6.73588
    endloop
  endfacet
  facet normal 0 -1 0
    outer loop
      vertex 6.90172 0 8.73637
      vertex 10 0 11
      vertex 6.09828 0 8.73637
    endloop
  endfacet
  facet normal 0 -1 0
    outer loop
      vertex 7.55172 0 8.26412
      vertex 10 0 11
      vertex 6.90172 0 8.73637
    endloop
  endfacet
  facet normal 0 -1 0
    outer loop
      vertex 7.8 0 7.5
      vertex 10 0 11
      vertex 7.55172 0 8.26412
    endloop
  endfacet
  facet normal 0 -1 0
    outer loop
      vertex 7.8 0 7.5
      vertex 12.8359 0 7.02979
      vertex 10 0 11
    endloop
  endfacet
  facet normal -0 -1 0
    outer loop
      vertex 12.8359 0 7.02979
      vertex 7.8 0 7.5
      vertex 7.55172 0 6.73588
    endloop
  endfacet
  facet normal 0 -1 0
    outer loop
      vertex 28.35 0 4
      vertex 16.35 0 15
      vertex 12.8359 0 7.02979
    endloop
  endfacet
  facet normal 0 -1 0
    outer loop
      vertex 6.90172 0 6.26363
      vertex 12.8359 0 7.02979
      vertex 7.55172 0 6.73588
    endloop
  endfacet
  facet normal 0 -1 -0
    outer loop
      vertex 6.09828 0 6.26363
      vertex 0 0 0
      vertex 6.90172 0 6.26363
    endloop
  endfacet
  facet normal 0 -1 0
    outer loop
      vertex 16.35 0 15
      vertex 28.35 0 4
      vertex 28.35 0 15
    endloop
  endfacet
  facet normal 0 -1 -0
    outer loop
      vertex 6.90172 0 6.26363
      vertex 0 0 0
      vertex 12.8359 0 7.02979
    endloop
  endfacet
  facet normal 0 -1 -0
    outer loop
      vertex 12.8359 0 7.02979
      vertex 0 0 0
      vertex 28.35 0 4
    endloop
  endfacet
  facet normal 0 -1 0
    outer loop
      vertex 35.5 0 0
      vertex 28.35 0 4
      vertex 0 0 0
    endloop
  endfacet
  facet normal 0 -1 0
    outer loop
      vertex 28.35 0 4
      vertex 35.5 0 0
      vertex 35.5 0 4
    endloop
  endfacet
  facet normal 0.81373 -0 0.581243
    outer loop
      vertex 10 0 11
      vertex 12.8359 7 7.02979
      vertex 10 7 11
    endloop
  endfacet
  facet normal 0.81373 0 0.581243
    outer loop
      vertex 12.8359 7 7.02979
      vertex 10 0 11
      vertex 12.8359 0 7.02979
    endloop
  endfacet
  facet normal 0 1 0
    outer loop
      vertex 10 7 11
      vertex 8.125 7 10.3146
      vertex 3 7 11
    endloop
  endfacet
  facet normal 0 1 0
    outer loop
      vertex 10 7 11
      vertex 9.75 7 7.5
      vertex 8.125 7 10.3146
    endloop
  endfacet
  facet normal 0 1 0
    outer loop
      vertex 12.8359 7 7.02979
      vertex 9.75 7 7.5
      vertex 10 7 11
    endloop
  endfacet
  facet normal 0 1 -0
    outer loop
      vertex 11.5 7 4
      vertex 9.75 7 7.5
      vertex 12.8359 7 7.02979
    endloop
  endfacet
  facet normal 0 1 0
    outer loop
      vertex 8.125 7 4.68542
      vertex 11.5 7 4
      vertex 4.875 7 4.68542
    endloop
  endfacet
  facet normal 0 1 0
    outer loop
      vertex 9.75 7 7.5
      vertex 11.5 7 4
      vertex 8.125 7 4.68542
    endloop
  endfacet
  facet normal 0 1 -0
    outer loop
      vertex 4.875 7 10.3146
      vertex 3 7 11
      vertex 8.125 7 10.3146
    endloop
  endfacet
  facet normal 0 1 -0
    outer loop
      vertex 3.25 7 7.5
      vertex 3 7 11
      vertex 4.875 7 10.3146
    endloop
  endfacet
  facet normal 0 1 0
    outer loop
      vertex 3.25 7 7.5
      vertex 0 7 4
      vertex 3 7 11
    endloop
  endfacet
  facet normal 0 1 0
    outer loop
      vertex 4.875 7 4.68542
      vertex 0 7 4
      vertex 3.25 7 7.5
    endloop
  endfacet
  facet normal 0 1 0
    outer loop
      vertex 0 7 4
      vertex 4.875 7 4.68542
      vertex 11.5 7 4
    endloop
  endfacet
  facet normal -0 0 1
    outer loop
      vertex 3 7 11
      vertex 10 0 11
      vertex 10 7 11
    endloop
  endfacet
  facet normal 0 0 1
    outer loop
      vertex 10 0 11
      vertex 3 7 11
      vertex 3 0 11
    endloop
  endfacet
  facet normal -0.919145 0 0.393919
    outer loop
      vertex 0 0 4
      vertex 3 7 11
      vertex 0 7 4
    endloop
  endfacet
  facet normal -0.919145 0 0.393919
    outer loop
      vertex 3 7 11
      vertex 0 0 4
      vertex 3 0 11
    endloop
  endfacet
  facet normal -0 0 1
    outer loop
      vertex 26.8322 16.4776 15
      vertex 27.575 7.5 15
      vertex 27.575 17.5 15
    endloop
  endfacet
  facet normal 0 0 1
    outer loop
      vertex 26.8322 16.4776 15
      vertex 26.8322 8.52239 15
      vertex 27.575 7.5 15
    endloop
  endfacet
  facet normal -0 0 1
    outer loop
      vertex 18.8322 16.4776 15
      vertex 26.8322 8.52239 15
      vertex 26.8322 16.4776 15
    endloop
  endfacet
  facet normal 0 0 1
    outer loop
      vertex 18.8322 16.4776 15
      vertex 18.8322 8.52239 15
      vertex 26.8322 8.52239 15
    endloop
  endfacet
  facet normal 0 0 1
    outer loop
      vertex 17.6303 16.8681 15
      vertex 18.8322 8.52239 15
      vertex 18.8322 16.4776 15
    endloop
  endfacet
  facet normal 0 0 1
    outer loop
      vertex 18.8322 8.52239 15
      vertex 17.6303 16.8681 15
      vertex 17.6303 8.13187 15
    endloop
  endfacet
  facet normal 0 0 1
    outer loop
      vertex 26.8322 18.5224 15
      vertex 28.35 20.15 15
      vertex 28.35 25 15
    endloop
  endfacet
  facet normal 0 0 1
    outer loop
      vertex 28.35 20.15 15
      vertex 27.575 17.5 15
      vertex 28.35 4.85 15
    endloop
  endfacet
  facet normal -0 0 1
    outer loop
      vertex 27.575 7.5 15
      vertex 28.35 4.85 15
      vertex 27.575 17.5 15
    endloop
  endfacet
  facet normal 0 0 1
    outer loop
      vertex 28.35 20.15 15
      vertex 26.8322 18.5224 15
      vertex 27.575 17.5 15
    endloop
  endfacet
  facet normal 0 0 1
    outer loop
      vertex 28.35 25 15
      vertex 18.8322 18.5224 15
      vertex 26.8322 18.5224 15
    endloop
  endfacet
  facet normal -0 0 1
    outer loop
      vertex 16.35 25 15
      vertex 18.8322 18.5224 15
      vertex 28.35 25 15
    endloop
  endfacet
  facet normal 0 0 1
    outer loop
      vertex 16.35 25 15
      vertex 17.6303 16.8681 15
      vertex 17.6303 18.1319 15
    endloop
  endfacet
  facet normal 0 0 1
    outer loop
      vertex 17.6303 16.8681 15
      vertex 16.35 25 15
      vertex 17.6303 8.13187 15
    endloop
  endfacet
  facet normal 0 0 1
    outer loop
      vertex 16.35 0 15
      vertex 17.6303 8.13187 15
      vertex 16.35 25 15
    endloop
  endfacet
  facet normal 0 0 1
    outer loop
      vertex 18.8322 18.5224 15
      vertex 16.35 25 15
      vertex 17.6303 18.1319 15
    endloop
  endfacet
  facet normal -0 0 1
    outer loop
      vertex 26.8322 6.47761 15
      vertex 28.35 4.85 15
      vertex 27.575 7.5 15
    endloop
  endfacet
  facet normal 0 0 1
    outer loop
      vertex 28.35 4.85 15
      vertex 26.8322 6.47761 15
      vertex 28.35 0 15
    endloop
  endfacet
  facet normal -0 0 1
    outer loop
      vertex 18.8322 6.47761 15
      vertex 28.35 0 15
      vertex 26.8322 6.47761 15
    endloop
  endfacet
  facet normal 0 0 1
    outer loop
      vertex 16.35 0 15
      vertex 18.8322 6.47761 15
      vertex 17.6303 6.86813 15
    endloop
  endfacet
  facet normal 0 0 1
    outer loop
      vertex 18.8322 6.47761 15
      vertex 16.35 0 15
      vertex 28.35 0 15
    endloop
  endfacet
  facet normal 0 0 1
    outer loop
      vertex 17.6303 8.13187 15
      vertex 16.35 0 15
      vertex 17.6303 6.86813 15
    endloop
  endfacet
  facet normal 1 -0 0
    outer loop
      vertex 28.35 0 15
      vertex 28.35 4.85 4
      vertex 28.35 4.85 15
    endloop
  endfacet
  facet normal 1 0 0
    outer loop
      vertex 28.35 4.85 4
      vertex 28.35 0 15
      vertex 28.35 0 4
    endloop
  endfacet
  facet normal 1 -0 0
    outer loop
      vertex 28.35 20.15 15
      vertex 28.35 25 4
      vertex 28.35 25 15
    endloop
  endfacet
  facet normal 1 0 0
    outer loop
      vertex 28.35 25 4
      vertex 28.35 20.15 15
      vertex 28.35 20.15 4
    endloop
  endfacet
  facet normal 1 0 0
    outer loop
      vertex 28.35 4.85 4
      vertex 28.35 20.15 4
      vertex 28.35 20.15 15
    endloop
  endfacet
  facet normal 1 0 0
    outer loop
      vertex 28.35 4.85 4
      vertex 28.35 20.15 15
      vertex 28.35 4.85 15
    endloop
  endfacet
  facet normal 1 0 0
    outer loop
      vertex 28.35 20.15 4
      vertex 28.35 4.85 4
      vertex 28.35 20.15 0
    endloop
  endfacet
  facet normal 1 0 0
    outer loop
      vertex 28.35 20.15 0
      vertex 28.35 4.85 4
      vertex 28.35 4.85 0
    endloop
  endfacet
  facet normal 0 1 -0
    outer loop
      vertex 28.35 25 4
      vertex 16.35 25 15
      vertex 28.35 25 15
    endloop
  endfacet
  facet normal 0 1 0
    outer loop
      vertex 16.35 25 15
      vertex 28.35 25 4
      vertex 11.5 25 4
    endloop
  endfacet
  facet normal -0.915004 0 0.403445
    outer loop
      vertex 12.8359 7 7.02979
      vertex 11.5 25 4
      vertex 11.5 7 4
    endloop
  endfacet
  facet normal -0.915008 -1.93399e-06 0.403435
    outer loop
      vertex 11.5 25 4
      vertex 12.8359 7 7.02979
      vertex 16.35 25 15
    endloop
  endfacet
  facet normal -0.91501 0 0.403432
    outer loop
      vertex 16.35 0 15
      vertex 12.8359 7 7.02979
      vertex 12.8359 0 7.02979
    endloop
  endfacet
  facet normal -0.91501 0 0.403432
    outer loop
      vertex 12.8359 7 7.02979
      vertex 16.35 0 15
      vertex 16.35 25 15
    endloop
  endfacet
  facet normal 0 -1 0
    outer loop
      vertex 18.7318 8.21329 5
      vertex 26.7318 8.21329 13
      vertex 18.7318 8.21329 13
    endloop
  endfacet
  facet normal 0 -1 -0
    outer loop
      vertex 26.7318 8.21329 13
      vertex 18.7318 8.21329 5
      vertex 26.7318 8.21329 5
    endloop
  endfacet
  facet normal 0.308989 -0.951066 0
    outer loop
      vertex 17.8932 7.94084 5
      vertex 18.7318 8.21329 13
      vertex 17.8932 7.94084 13
    endloop
  endfacet
  facet normal 0.308989 -0.951066 0
    outer loop
      vertex 18.7318 8.21329 13
      vertex 17.8932 7.94084 5
      vertex 18.7318 8.21329 5
    endloop
  endfacet
  facet normal -0.809036 -0.587759 0
    outer loop
      vertex 27.25 7.5 5
      vertex 26.7318 8.21329 13
      vertex 26.7318 8.21329 5
    endloop
  endfacet
  facet normal -0.809036 -0.587759 0
    outer loop
      vertex 26.7318 8.21329 13
      vertex 27.25 7.5 5
      vertex 27.25 7.5 13
    endloop
  endfacet
  facet normal 0 0 1
    outer loop
      vertex 26.7318 8.21329 5
      vertex 26.7318 6.78671 5
      vertex 27.25 7.5 5
    endloop
  endfacet
  facet normal -0 0 1
    outer loop
      vertex 18.7318 8.21329 5
      vertex 26.7318 6.78671 5
      vertex 26.7318 8.21329 5
    endloop
  endfacet
  facet normal 0 0 1
    outer loop
      vertex 18.7318 8.21329 5
      vertex 18.7318 6.78671 5
      vertex 26.7318 6.78671 5
    endloop
  endfacet
  facet normal -0 0 1
    outer loop
      vertex 17.8932 7.94084 5
      vertex 18.7318 6.78671 5
      vertex 18.7318 8.21329 5
    endloop
  endfacet
  facet normal 0 0 1
    outer loop
      vertex 18.7318 6.78671 5
      vertex 17.8932 7.94084 5
      vertex 17.8932 7.05916 5
    endloop
  endfacet
  facet normal 0 1 -0
    outer loop
      vertex 26.7318 6.78671 5
      vertex 18.7318 6.78671 13
      vertex 26.7318 6.78671 13
    endloop
  endfacet
  facet normal 0 1 0
    outer loop
      vertex 18.7318 6.78671 13
      vertex 26.7318 6.78671 5
      vertex 18.7318 6.78671 5
    endloop
  endfacet
  facet normal -0.809036 0.587759 0
    outer loop
      vertex 26.7318 6.78671 5
      vertex 27.25 7.5 13
      vertex 27.25 7.5 5
    endloop
  endfacet
  facet normal -0.809036 0.587759 0
    outer loop
      vertex 27.25 7.5 13
      vertex 26.7318 6.78671 5
      vertex 26.7318 6.78671 13
    endloop
  endfacet
  facet normal 1 -0 0
    outer loop
      vertex 17.8932 7.05916 13
      vertex 17.8932 7.94084 5
      vertex 17.8932 7.94084 13
    endloop
  endfacet
  facet normal 1 0 0
    outer loop
      vertex 17.8932 7.94084 5
      vertex 17.8932 7.05916 13
      vertex 17.8932 7.05916 5
    endloop
  endfacet
  facet normal 0.308989 0.951066 -0
    outer loop
      vertex 18.7318 6.78671 5
      vertex 17.8932 7.05916 13
      vertex 18.7318 6.78671 13
    endloop
  endfacet
  facet normal 0.308989 0.951066 0
    outer loop
      vertex 17.8932 7.05916 13
      vertex 18.7318 6.78671 5
      vertex 17.8932 7.05916 5
    endloop
  endfacet
  facet normal 0 -1 0
    outer loop
      vertex 18.8322 8.52239 13
      vertex 26.8322 8.52239 15
      vertex 18.8322 8.52239 15
    endloop
  endfacet
  facet normal 0 -1 -0
    outer loop
      vertex 26.8322 8.52239 15
      vertex 18.8322 8.52239 13
      vertex 26.8322 8.52239 13
    endloop
  endfacet
  facet normal 0.309016 -0.951057 0
    outer loop
      vertex 17.6303 8.13187 13
      vertex 18.8322 8.52239 15
      vertex 17.6303 8.13187 15
    endloop
  endfacet
  facet normal 0.309016 -0.951057 0
    outer loop
      vertex 18.8322 8.52239 15
      vertex 17.6303 8.13187 13
      vertex 18.8322 8.52239 13
    endloop
  endfacet
  facet normal -0.809021 -0.58778 0
    outer loop
      vertex 27.575 7.5 13
      vertex 26.8322 8.52239 15
      vertex 26.8322 8.52239 13
    endloop
  endfacet
  facet normal -0.809021 -0.58778 0
    outer loop
      vertex 26.8322 8.52239 15
      vertex 27.575 7.5 13
      vertex 27.575 7.5 15
    endloop
  endfacet
  facet normal 0 0 1
    outer loop
      vertex 26.8322 8.52239 13
      vertex 27.25 7.5 13
      vertex 27.575 7.5 13
    endloop
  endfacet
  facet normal 0 0 1
    outer loop
      vertex 26.8322 8.52239 13
      vertex 26.7318 8.21329 13
      vertex 27.25 7.5 13
    endloop
  endfacet
  facet normal -0 0 1
    outer loop
      vertex 18.8322 8.52239 13
      vertex 26.7318 8.21329 13
      vertex 26.8322 8.52239 13
    endloop
  endfacet
  facet normal 0 0 1
    outer loop
      vertex 18.8322 8.52239 13
      vertex 18.7318 8.21329 13
      vertex 26.7318 8.21329 13
    endloop
  endfacet
  facet normal 0 0 1
    outer loop
      vertex 18.8322 8.52239 13
      vertex 17.8932 7.94084 13
      vertex 18.7318 8.21329 13
    endloop
  endfacet
  facet normal 0 0 1
    outer loop
      vertex 17.8932 7.94084 13
      vertex 17.6303 8.13187 13
      vertex 17.8932 7.05916 13
    endloop
  endfacet
  facet normal -0 0 1
    outer loop
      vertex 17.6303 8.13187 13
      vertex 17.8932 7.94084 13
      vertex 18.8322 8.52239 13
    endloop
  endfacet
  facet normal -0 0 1
    outer loop
      vertex 27.25 7.5 13
      vertex 26.8322 6.47761 13
      vertex 27.575 7.5 13
    endloop
  endfacet
  facet normal -0 0 1
    outer loop
      vertex 26.7318 6.78671 13
      vertex 26.8322 6.47761 13
      vertex 27.25 7.5 13
    endloop
  endfacet
  facet normal 0 0 1
    outer loop
      vertex 26.7318 6.78671 13
      vertex 18.8322 6.47761 13
      vertex 26.8322 6.47761 13
    endloop
  endfacet
  facet normal -0 0 1
    outer loop
      vertex 18.7318 6.78671 13
      vertex 18.8322 6.47761 13
      vertex 26.7318 6.78671 13
    endloop
  endfacet
  facet normal 0 0 1
    outer loop
      vertex 17.8932 7.05916 13
      vertex 18.8322 6.47761 13
      vertex 18.7318 6.78671 13
    endloop
  endfacet
  facet normal 0 0 1
    outer loop
      vertex 17.8932 7.05916 13
      vertex 17.6303 6.86813 13
      vertex 18.8322 6.47761 13
    endloop
  endfacet
  facet normal 0 0 1
    outer loop
      vertex 17.6303 6.86813 13
      vertex 17.8932 7.05916 13
      vertex 17.6303 8.13187 13
    endloop
  endfacet
  facet normal 0 1 -0
    outer loop
      vertex 26.8322 6.47761 13
      vertex 18.8322 6.47761 15
      vertex 26.8322 6.47761 15
    endloop
  endfacet
  facet normal 0 1 0
    outer loop
      vertex 18.8322 6.47761 15
      vertex 26.8322 6.47761 13
      vertex 18.8322 6.47761 13
    endloop
  endfacet
  facet normal -0.809021 0.58778 0
    outer loop
      vertex 26.8322 6.47761 13
      vertex 27.575 7.5 15
      vertex 27.575 7.5 13
    endloop
  endfacet
  facet normal -0.809021 0.58778 0
    outer loop
      vertex 27.575 7.5 15
      vertex 26.8322 6.47761 13
      vertex 26.8322 6.47761 15
    endloop
  endfacet
  facet normal 1 -0 0
    outer loop
      vertex 17.6303 6.86813 15
      vertex 17.6303 8.13187 13
      vertex 17.6303 8.13187 15
    endloop
  endfacet
  facet normal 1 0 0
    outer loop
      vertex 17.6303 8.13187 13
      vertex 17.6303 6.86813 15
      vertex 17.6303 6.86813 13
    endloop
  endfacet
  facet normal 0.309016 0.951057 -0
    outer loop
      vertex 18.8322 6.47761 13
      vertex 17.6303 6.86813 15
      vertex 18.8322 6.47761 15
    endloop
  endfacet
  facet normal 0.309016 0.951057 0
    outer loop
      vertex 17.6303 6.86813 15
      vertex 18.8322 6.47761 13
      vertex 17.6303 6.86813 13
    endloop
  endfacet
  facet normal 0 -1 0
    outer loop
      vertex 18.7318 18.2133 5
      vertex 26.7318 18.2133 13
      vertex 18.7318 18.2133 13
    endloop
  endfacet
  facet normal 0 -1 -0
    outer loop
      vertex 26.7318 18.2133 13
      vertex 18.7318 18.2133 5
      vertex 26.7318 18.2133 5
    endloop
  endfacet
  facet normal 0.30904 -0.951049 0
    outer loop
      vertex 17.8932 17.9408 5
      vertex 18.7318 18.2133 13
      vertex 17.8932 17.9408 13
    endloop
  endfacet
  facet normal 0.30904 -0.951049 0
    outer loop
      vertex 18.7318 18.2133 13
      vertex 17.8932 17.9408 5
      vertex 18.7318 18.2133 5
    endloop
  endfacet
  facet normal -0.80904 -0.587753 0
    outer loop
      vertex 27.25 17.5 5
      vertex 26.7318 18.2133 13
      vertex 26.7318 18.2133 5
    endloop
  endfacet
  facet normal -0.80904 -0.587753 0
    outer loop
      vertex 26.7318 18.2133 13
      vertex 27.25 17.5 5
      vertex 27.25 17.5 13
    endloop
  endfacet
  facet normal 0 0 1
    outer loop
      vertex 26.7318 18.2133 5
      vertex 26.7318 16.7867 5
      vertex 27.25 17.5 5
    endloop
  endfacet
  facet normal -0 0 1
    outer loop
      vertex 18.7318 18.2133 5
      vertex 26.7318 16.7867 5
      vertex 26.7318 18.2133 5
    endloop
  endfacet
  facet normal 0 0 1
    outer loop
      vertex 18.7318 18.2133 5
      vertex 18.7318 16.7867 5
      vertex 26.7318 16.7867 5
    endloop
  endfacet
  facet normal -0 0 1
    outer loop
      vertex 17.8932 17.9408 5
      vertex 18.7318 16.7867 5
      vertex 18.7318 18.2133 5
    endloop
  endfacet
  facet normal 0 0 1
    outer loop
      vertex 18.7318 16.7867 5
      vertex 17.8932 17.9408 5
      vertex 17.8932 17.0592 5
    endloop
  endfacet
  facet normal 0 1 -0
    outer loop
      vertex 26.7318 16.7867 5
      vertex 18.7318 16.7867 13
      vertex 26.7318 16.7867 13
    endloop
  endfacet
  facet normal 0 1 0
    outer loop
      vertex 18.7318 16.7867 13
      vertex 26.7318 16.7867 5
      vertex 18.7318 16.7867 5
    endloop
  endfacet
  facet normal -0.80904 0.587753 0
    outer loop
      vertex 26.7318 16.7867 5
      vertex 27.25 17.5 13
      vertex 27.25 17.5 5
    endloop
  endfacet
  facet normal -0.80904 0.587753 0
    outer loop
      vertex 27.25 17.5 13
      vertex 26.7318 16.7867 5
      vertex 26.7318 16.7867 13
    endloop
  endfacet
  facet normal 1 -0 0
    outer loop
      vertex 17.8932 17.0592 13
      vertex 17.8932 17.9408 5
      vertex 17.8932 17.9408 13
    endloop
  endfacet
  facet normal 1 0 0
    outer loop
      vertex 17.8932 17.9408 5
      vertex 17.8932 17.0592 13
      vertex 17.8932 17.0592 5
    endloop
  endfacet
  facet normal 0.30904 0.951049 -0
    outer loop
      vertex 18.7318 16.7867 5
      vertex 17.8932 17.0592 13
      vertex 18.7318 16.7867 13
    endloop
  endfacet
  facet normal 0.30904 0.951049 0
    outer loop
      vertex 17.8932 17.0592 13
      vertex 18.7318 16.7867 5
      vertex 17.8932 17.0592 5
    endloop
  endfacet
  facet normal 0 -1 0
    outer loop
      vertex 18.8322 18.5224 13
      vertex 26.8322 18.5224 15
      vertex 18.8322 18.5224 15
    endloop
  endfacet
  facet normal 0 -1 -0
    outer loop
      vertex 26.8322 18.5224 15
      vertex 18.8322 18.5224 13
      vertex 26.8322 18.5224 13
    endloop
  endfacet
  facet normal 0.309002 -0.951061 0
    outer loop
      vertex 17.6303 18.1319 13
      vertex 18.8322 18.5224 15
      vertex 17.6303 18.1319 15
    endloop
  endfacet
  facet normal 0.309002 -0.951061 0
    outer loop
      vertex 18.8322 18.5224 15
      vertex 17.6303 18.1319 13
      vertex 18.8322 18.5224 13
    endloop
  endfacet
  facet normal -0.809023 -0.587776 0
    outer loop
      vertex 27.575 17.5 13
      vertex 26.8322 18.5224 15
      vertex 26.8322 18.5224 13
    endloop
  endfacet
  facet normal -0.809023 -0.587776 0
    outer loop
      vertex 26.8322 18.5224 15
      vertex 27.575 17.5 13
      vertex 27.575 17.5 15
    endloop
  endfacet
  facet normal 0 0 1
    outer loop
      vertex 26.8322 18.5224 13
      vertex 27.25 17.5 13
      vertex 27.575 17.5 13
    endloop
  endfacet
  facet normal 0 0 1
    outer loop
      vertex 26.8322 18.5224 13
      vertex 26.7318 18.2133 13
      vertex 27.25 17.5 13
    endloop
  endfacet
  facet normal -0 0 1
    outer loop
      vertex 18.8322 18.5224 13
      vertex 26.7318 18.2133 13
      vertex 26.8322 18.5224 13
    endloop
  endfacet
  facet normal 0 0 1
    outer loop
      vertex 18.8322 18.5224 13
      vertex 18.7318 18.2133 13
      vertex 26.7318 18.2133 13
    endloop
  endfacet
  facet normal 0 0 1
    outer loop
      vertex 18.8322 18.5224 13
      vertex 17.8932 17.9408 13
      vertex 18.7318 18.2133 13
    endloop
  endfacet
  facet normal 0 0 1
    outer loop
      vertex 17.8932 17.9408 13
      vertex 17.6303 18.1319 13
      vertex 17.8932 17.0592 13
    endloop
  endfacet
  facet normal -0 0 1
    outer loop
      vertex 17.6303 18.1319 13
      vertex 17.8932 17.9408 13
      vertex 18.8322 18.5224 13
    endloop
  endfacet
  facet normal -0 0 1
    outer loop
      vertex 27.25 17.5 13
      vertex 26.8322 16.4776 13
      vertex 27.575 17.5 13
    endloop
  endfacet
  facet normal -0 0 1
    outer loop
      vertex 26.7318 16.7867 13
      vertex 26.8322 16.4776 13
      vertex 27.25 17.5 13
    endloop
  endfacet
  facet normal 0 0 1
    outer loop
      vertex 26.7318 16.7867 13
      vertex 18.8322 16.4776 13
      vertex 26.8322 16.4776 13
    endloop
  endfacet
  facet normal -0 0 1
    outer loop
      vertex 18.7318 16.7867 13
      vertex 18.8322 16.4776 13
      vertex 26.7318 16.7867 13
    endloop
  endfacet
  facet normal 0 0 1
    outer loop
      vertex 17.8932 17.0592 13
      vertex 18.8322 16.4776 13
      vertex 18.7318 16.7867 13
    endloop
  endfacet
  facet normal 0 0 1
    outer loop
      vertex 17.8932 17.0592 13
      vertex 17.6303 16.8681 13
      vertex 18.8322 16.4776 13
    endloop
  endfacet
  facet normal 0 0 1
    outer loop
      vertex 17.6303 16.8681 13
      vertex 17.8932 17.0592 13
      vertex 17.6303 18.1319 13
    endloop
  endfacet
  facet normal 0 1 -0
    outer loop
      vertex 26.8322 16.4776 13
      vertex 18.8322 16.4776 15
      vertex 26.8322 16.4776 15
    endloop
  endfacet
  facet normal 0 1 0
    outer loop
      vertex 18.8322 16.4776 15
      vertex 26.8322 16.4776 13
      vertex 18.8322 16.4776 13
    endloop
  endfacet
  facet normal -0.809023 0.587776 0
    outer loop
      vertex 26.8322 16.4776 13
      vertex 27.575 17.5 15
      vertex 27.575 17.5 13
    endloop
  endfacet
  facet normal -0.809023 0.587776 0
    outer loop
      vertex 27.575 17.5 15
      vertex 26.8322 16.4776 13
      vertex 26.8322 16.4776 15
    endloop
  endfacet
  facet normal 1 -0 0
    outer loop
      vertex 17.6303 16.8681 15
      vertex 17.6303 18.1319 13
      vertex 17.6303 18.1319 15
    endloop
  endfacet
  facet normal 1 0 0
    outer loop
      vertex 17.6303 18.1319 13
      vertex 17.6303 16.8681 15
      vertex 17.6303 16.8681 13
    endloop
  endfacet
  facet normal 0.309002 0.951061 -0
    outer loop
      vertex 18.8322 16.4776 13
      vertex 17.6303 16.8681 15
      vertex 18.8322 16.4776 15
    endloop
  endfacet
  facet normal 0.309002 0.951061 0
    outer loop
      vertex 17.6303 16.8681 15
      vertex 18.8322 16.4776 13
      vertex 17.6303 16.8681 13
    endloop
  endfacet
  facet normal 0 -1 0
    outer loop
      vertex 28.35 20.15 0
      vertex 35.5 20.15 4
      vertex 28.35 20.15 4
    endloop
  endfacet
  facet normal 0 -1 -0
    outer loop
      vertex 35.5 20.15 4
      vertex 28.35 20.15 0
      vertex 35.5 20.15 0
    endloop
  endfacet
  facet normal 0 1 -0
    outer loop
      vertex 35.5 4.85 0
      vertex 28.35 4.85 4
      vertex 35.5 4.85 4
    endloop
  endfacet
  facet normal 0 1 0
    outer loop
      vertex 28.35 4.85 4
      vertex 35.5 4.85 0
      vertex 28.35 4.85 0
    endloop
  endfacet
  facet normal -0.987692 -0.156411 0
    outer loop
      vertex 34 40 0
      vertex 33.9266 40.4635 4
      vertex 33.9266 40.4635 0
    endloop
  endfacet
  facet normal -0.987692 -0.156411 0
    outer loop
      vertex 33.9266 40.4635 4
      vertex 34 40 0
      vertex 34 40 4
    endloop
  endfacet
  facet normal 0.156411 -0.987692 0
    outer loop
      vertex 32.0365 41.4266 0
      vertex 32.5 41.5 4
      vertex 32.0365 41.4266 4
    endloop
  endfacet
  facet normal 0.156411 -0.987692 0
    outer loop
      vertex 32.5 41.5 4
      vertex 32.0365 41.4266 0
      vertex 32.5 41.5 0
    endloop
  endfacet
  facet normal -0.156411 0.987692 0
    outer loop
      vertex 32.9635 38.5734 0
      vertex 32.5 38.5 4
      vertex 32.9635 38.5734 4
    endloop
  endfacet
  facet normal -0.156411 0.987692 0
    outer loop
      vertex 32.5 38.5 4
      vertex 32.9635 38.5734 0
      vertex 32.5 38.5 0
    endloop
  endfacet
  facet normal -0.707107 -0.707107 0
    outer loop
      vertex 33.7135 40.8817 0
      vertex 33.3817 41.2135 4
      vertex 33.3817 41.2135 0
    endloop
  endfacet
  facet normal -0.707107 -0.707107 0
    outer loop
      vertex 33.3817 41.2135 4
      vertex 33.7135 40.8817 0
      vertex 33.7135 40.8817 4
    endloop
  endfacet
  facet normal -0.890992 -0.454018 0
    outer loop
      vertex 33.9266 40.4635 0
      vertex 33.7135 40.8817 4
      vertex 33.7135 40.8817 0
    endloop
  endfacet
  facet normal -0.890992 -0.454018 0
    outer loop
      vertex 33.7135 40.8817 4
      vertex 33.9266 40.4635 0
      vertex 33.9266 40.4635 4
    endloop
  endfacet
  facet normal 0.707107 -0.707107 0
    outer loop
      vertex 31.2865 40.8817 4
      vertex 31.6183 41.2135 0
      vertex 31.6183 41.2135 4
    endloop
  endfacet
  facet normal 0.707107 -0.707107 0
    outer loop
      vertex 31.6183 41.2135 0
      vertex 31.2865 40.8817 4
      vertex 31.2865 40.8817 0
    endloop
  endfacet
  facet normal 0.890992 -0.454018 0
    outer loop
      vertex 31.0734 40.4635 4
      vertex 31.2865 40.8817 0
      vertex 31.2865 40.8817 4
    endloop
  endfacet
  facet normal 0.890992 -0.454018 0
    outer loop
      vertex 31.2865 40.8817 0
      vertex 31.0734 40.4635 4
      vertex 31.0734 40.4635 0
    endloop
  endfacet
  facet normal 0.454018 -0.890992 0
    outer loop
      vertex 31.6183 41.2135 0
      vertex 32.0365 41.4266 4
      vertex 31.6183 41.2135 4
    endloop
  endfacet
  facet normal 0.454018 -0.890992 0
    outer loop
      vertex 32.0365 41.4266 4
      vertex 31.6183 41.2135 0
      vertex 32.0365 41.4266 0
    endloop
  endfacet
  facet normal -0.454018 0.890992 0
    outer loop
      vertex 33.3817 38.7865 0
      vertex 32.9635 38.5734 4
      vertex 33.3817 38.7865 4
    endloop
  endfacet
  facet normal -0.454018 0.890992 0
    outer loop
      vertex 32.9635 38.5734 4
      vertex 33.3817 38.7865 0
      vertex 32.9635 38.5734 0
    endloop
  endfacet
  facet normal -0.890992 0.454018 0
    outer loop
      vertex 33.7135 39.1183 0
      vertex 33.9266 39.5365 4
      vertex 33.9266 39.5365 0
    endloop
  endfacet
  facet normal -0.890992 0.454018 0
    outer loop
      vertex 33.9266 39.5365 4
      vertex 33.7135 39.1183 0
      vertex 33.7135 39.1183 4
    endloop
  endfacet
  facet normal 0.454018 0.890992 -0
    outer loop
      vertex 32.0365 38.5734 0
      vertex 31.6183 38.7865 4
      vertex 32.0365 38.5734 4
    endloop
  endfacet
  facet normal 0.454018 0.890992 0
    outer loop
      vertex 31.6183 38.7865 4
      vertex 32.0365 38.5734 0
      vertex 31.6183 38.7865 0
    endloop
  endfacet
  facet normal 0.890992 0.454018 0
    outer loop
      vertex 31.2865 39.1183 4
      vertex 31.0734 39.5365 0
      vertex 31.0734 39.5365 4
    endloop
  endfacet
  facet normal 0.890992 0.454018 0
    outer loop
      vertex 31.0734 39.5365 0
      vertex 31.2865 39.1183 4
      vertex 31.2865 39.1183 0
    endloop
  endfacet
  facet normal -0.156411 -0.987692 0
    outer loop
      vertex 32.5 41.5 0
      vertex 32.9635 41.4266 4
      vertex 32.5 41.5 4
    endloop
  endfacet
  facet normal -0.156411 -0.987692 -0
    outer loop
      vertex 32.9635 41.4266 4
      vertex 32.5 41.5 0
      vertex 32.9635 41.4266 0
    endloop
  endfacet
  facet normal -0.454018 -0.890992 0
    outer loop
      vertex 32.9635 41.4266 0
      vertex 33.3817 41.2135 4
      vertex 32.9635 41.4266 4
    endloop
  endfacet
  facet normal -0.454018 -0.890992 -0
    outer loop
      vertex 33.3817 41.2135 4
      vertex 32.9635 41.4266 0
      vertex 33.3817 41.2135 0
    endloop
  endfacet
  facet normal 0.987692 -0.156411 0
    outer loop
      vertex 31 40 4
      vertex 31.0734 40.4635 0
      vertex 31.0734 40.4635 4
    endloop
  endfacet
  facet normal 0.987692 -0.156411 0
    outer loop
      vertex 31.0734 40.4635 0
      vertex 31 40 4
      vertex 31 40 0
    endloop
  endfacet
  facet normal -0.707107 0.707107 0
    outer loop
      vertex 33.7135 39.1183 0
      vertex 33.3817 38.7865 4
      vertex 33.7135 39.1183 4
    endloop
  endfacet
  facet normal -0.707107 0.707107 0
    outer loop
      vertex 33.3817 38.7865 4
      vertex 33.7135 39.1183 0
      vertex 33.3817 38.7865 0
    endloop
  endfacet
  facet normal 0.156411 0.987692 -0
    outer loop
      vertex 32.5 38.5 0
      vertex 32.0365 38.5734 4
      vertex 32.5 38.5 4
    endloop
  endfacet
  facet normal 0.156411 0.987692 0
    outer loop
      vertex 32.0365 38.5734 4
      vertex 32.5 38.5 0
      vertex 32.0365 38.5734 0
    endloop
  endfacet
  facet normal 0.707107 0.707107 -0
    outer loop
      vertex 31.6183 38.7865 0
      vertex 31.2865 39.1183 4
      vertex 31.6183 38.7865 4
    endloop
  endfacet
  facet normal 0.707107 0.707107 0
    outer loop
      vertex 31.2865 39.1183 4
      vertex 31.6183 38.7865 0
      vertex 31.2865 39.1183 0
    endloop
  endfacet
  facet normal 0.987692 0.156411 0
    outer loop
      vertex 31.0734 39.5365 4
      vertex 31 40 0
      vertex 31 40 4
    endloop
  endfacet
  facet normal 0.987692 0.156411 0
    outer loop
      vertex 31 40 0
      vertex 31.0734 39.5365 4
      vertex 31.0734 39.5365 0
    endloop
  endfacet
  facet normal -0.987692 0.156411 0
    outer loop
      vertex 33.9266 39.5365 0
      vertex 34 40 4
      vertex 34 40 0
    endloop
  endfacet
  facet normal -0.987692 0.156411 0
    outer loop
      vertex 34 40 4
      vertex 33.9266 39.5365 0
      vertex 33.9266 39.5365 4
    endloop
  endfacet
  facet normal -0.951056 0 0.30902
    outer loop
      vertex 7.55172 0 6.73588
      vertex 7.8 4 7.5
      vertex 7.55172 4 6.73588
    endloop
  endfacet
  facet normal -0.951056 0 0.30902
    outer loop
      vertex 7.8 4 7.5
      vertex 7.55172 0 6.73588
      vertex 7.8 0 7.5
    endloop
  endfacet
  facet normal 0.951056 -0 0.30902
    outer loop
      vertex 5.2 0 7.5
      vertex 5.44828 4 6.73588
      vertex 5.2 4 7.5
    endloop
  endfacet
  facet normal 0.951056 0 0.30902
    outer loop
      vertex 5.44828 4 6.73588
      vertex 5.2 0 7.5
      vertex 5.44828 0 6.73588
    endloop
  endfacet
  facet normal 0 0 -1
    outer loop
      vertex 6.09828 0 8.73637
      vertex 6.90172 4 8.73637
      vertex 6.90172 0 8.73637
    endloop
  endfacet
  facet normal -0 0 -1
    outer loop
      vertex 6.90172 4 8.73637
      vertex 6.09828 0 8.73637
      vertex 6.09828 4 8.73637
    endloop
  endfacet
  facet normal -0 0 1
    outer loop
      vertex 6.09828 4 6.26363
      vertex 6.90172 0 6.26363
      vertex 6.90172 4 6.26363
    endloop
  endfacet
  facet normal 0 0 1
    outer loop
      vertex 6.90172 0 6.26363
      vertex 6.09828 4 6.26363
      vertex 6.09828 0 6.26363
    endloop
  endfacet
  facet normal -0.587783 0 0.809019
    outer loop
      vertex 6.90172 4 6.26363
      vertex 7.55172 0 6.73588
      vertex 7.55172 4 6.73588
    endloop
  endfacet
  facet normal -0.587783 0 0.809019
    outer loop
      vertex 7.55172 0 6.73588
      vertex 6.90172 4 6.26363
      vertex 6.90172 0 6.26363
    endloop
  endfacet
  facet normal 0.587783 0 0.809019
    outer loop
      vertex 5.44828 4 6.73588
      vertex 6.09828 0 6.26363
      vertex 6.09828 4 6.26363
    endloop
  endfacet
  facet normal 0.587783 0 0.809019
    outer loop
      vertex 6.09828 0 6.26363
      vertex 5.44828 4 6.73588
      vertex 5.44828 0 6.73588
    endloop
  endfacet
  facet normal -0.951056 0 -0.30902
    outer loop
      vertex 7.8 0 7.5
      vertex 7.55172 4 8.26412
      vertex 7.8 4 7.5
    endloop
  endfacet
  facet normal -0.951056 -0 -0.30902
    outer loop
      vertex 7.55172 4 8.26412
      vertex 7.8 0 7.5
      vertex 7.55172 0 8.26412
    endloop
  endfacet
  facet normal 0.951056 0 -0.30902
    outer loop
      vertex 5.44828 0 8.26412
      vertex 5.2 4 7.5
      vertex 5.44828 4 8.26412
    endloop
  endfacet
  facet normal 0.951056 0 -0.30902
    outer loop
      vertex 5.2 4 7.5
      vertex 5.44828 0 8.26412
      vertex 5.2 0 7.5
    endloop
  endfacet
  facet normal -0.587783 0 -0.809019
    outer loop
      vertex 6.90172 0 8.73637
      vertex 7.55172 4 8.26412
      vertex 7.55172 0 8.26412
    endloop
  endfacet
  facet normal -0.587783 0 -0.809019
    outer loop
      vertex 7.55172 4 8.26412
      vertex 6.90172 0 8.73637
      vertex 6.90172 4 8.73637
    endloop
  endfacet
  facet normal 0.587783 0 -0.809019
    outer loop
      vertex 5.44828 0 8.26412
      vertex 6.09828 4 8.73637
      vertex 6.09828 0 8.73637
    endloop
  endfacet
  facet normal 0.587783 0 -0.809019
    outer loop
      vertex 6.09828 4 8.73637
      vertex 5.44828 0 8.26412
      vertex 5.44828 4 8.26412
    endloop
  endfacet
  facet normal -0.866025 0 0.5
    outer loop
      vertex 8.125 4 4.68542
      vertex 9.75 7 7.5
      vertex 8.125 7 4.68542
    endloop
  endfacet
  facet normal -0.866025 0 0.5
    outer loop
      vertex 9.75 7 7.5
      vertex 8.125 4 4.68542
      vertex 9.75 4 7.5
    endloop
  endfacet
  facet normal 0.866025 -0 0.5
    outer loop
      vertex 3.25 4 7.5
      vertex 4.875 7 4.68542
      vertex 3.25 7 7.5
    endloop
  endfacet
  facet normal 0.866025 0 0.5
    outer loop
      vertex 4.875 7 4.68542
      vertex 3.25 4 7.5
      vertex 4.875 4 4.68542
    endloop
  endfacet
  facet normal -0 0 1
    outer loop
      vertex 4.875 7 4.68542
      vertex 8.125 4 4.68542
      vertex 8.125 7 4.68542
    endloop
  endfacet
  facet normal 0 0 1
    outer loop
      vertex 8.125 4 4.68542
      vertex 4.875 7 4.68542
      vertex 4.875 4 4.68542
    endloop
  endfacet
  facet normal 0 1 0
    outer loop
      vertex 8.125 4 10.3146
      vertex 6.90172 4 8.73637
      vertex 4.875 4 10.3146
    endloop
  endfacet
  facet normal 0 1 0
    outer loop
      vertex 8.125 4 10.3146
      vertex 7.55172 4 8.26412
      vertex 6.90172 4 8.73637
    endloop
  endfacet
  facet normal 0 1 0
    outer loop
      vertex 9.75 4 7.5
      vertex 7.55172 4 8.26412
      vertex 8.125 4 10.3146
    endloop
  endfacet
  facet normal 0 1 0
    outer loop
      vertex 9.75 4 7.5
      vertex 7.8 4 7.5
      vertex 7.55172 4 8.26412
    endloop
  endfacet
  facet normal 0 1 0
    outer loop
      vertex 9.75 4 7.5
      vertex 7.55172 4 6.73588
      vertex 7.8 4 7.5
    endloop
  endfacet
  facet normal 0 1 -0
    outer loop
      vertex 8.125 4 4.68542
      vertex 7.55172 4 6.73588
      vertex 9.75 4 7.5
    endloop
  endfacet
  facet normal 0 1 0
    outer loop
      vertex 6.90172 4 6.26363
      vertex 8.125 4 4.68542
      vertex 6.09828 4 6.26363
    endloop
  endfacet
  facet normal 0 1 0
    outer loop
      vertex 7.55172 4 6.73588
      vertex 8.125 4 4.68542
      vertex 6.90172 4 6.26363
    endloop
  endfacet
  facet normal 0 1 -0
    outer loop
      vertex 6.09828 4 8.73637
      vertex 4.875 4 10.3146
      vertex 6.90172 4 8.73637
    endloop
  endfacet
  facet normal 0 1 -0
    outer loop
      vertex 5.44828 4 8.26412
      vertex 4.875 4 10.3146
      vertex 6.09828 4 8.73637
    endloop
  endfacet
  facet normal 0 1 0
    outer loop
      vertex 3.25 4 7.5
      vertex 5.44828 4 8.26412
      vertex 5.2 4 7.5
    endloop
  endfacet
  facet normal 0 1 0
    outer loop
      vertex 5.44828 4 8.26412
      vertex 3.25 4 7.5
      vertex 4.875 4 10.3146
    endloop
  endfacet
  facet normal 0 1 0
    outer loop
      vertex 5.44828 4 6.73588
      vertex 3.25 4 7.5
      vertex 5.2 4 7.5
    endloop
  endfacet
  facet normal 0 1 0
    outer loop
      vertex 4.875 4 4.68542
      vertex 5.44828 4 6.73588
      vertex 6.09828 4 6.26363
    endloop
  endfacet
  facet normal 0 1 0
    outer loop
      vertex 4.875 4 4.68542
      vertex 6.09828 4 6.26363
      vertex 8.125 4 4.68542
    endloop
  endfacet
  facet normal 0 1 0
    outer loop
      vertex 5.44828 4 6.73588
      vertex 4.875 4 4.68542
      vertex 3.25 4 7.5
    endloop
  endfacet
  facet normal 0 0 -1
    outer loop
      vertex 4.875 4 10.3146
      vertex 8.125 7 10.3146
      vertex 8.125 4 10.3146
    endloop
  endfacet
  facet normal -0 0 -1
    outer loop
      vertex 8.125 7 10.3146
      vertex 4.875 4 10.3146
      vertex 4.875 7 10.3146
    endloop
  endfacet
  facet normal 0.866027 0 -0.499998
    outer loop
      vertex 4.875 4 10.3146
      vertex 3.25 7 7.5
      vertex 4.875 7 10.3146
    endloop
  endfacet
  facet normal 0.866027 0 -0.499998
    outer loop
      vertex 3.25 7 7.5
      vertex 4.875 4 10.3146
      vertex 3.25 4 7.5
    endloop
  endfacet
  facet normal -0.866027 0 -0.499998
    outer loop
      vertex 9.75 4 7.5
      vertex 8.125 7 10.3146
      vertex 9.75 7 7.5
    endloop
  endfacet
  facet normal -0.866027 -0 -0.499998
    outer loop
      vertex 8.125 7 10.3146
      vertex 9.75 4 7.5
      vertex 8.125 4 10.3146
    endloop
  endfacet
  facet normal -0.707107 0.707107 0
    outer loop
      vertex 0 32.3934 0
      vertex 10.6066 43 4
      vertex 10.6066 43 0
    endloop
  endfacet
  facet normal -0.707107 0.707107 0
    outer loop
      vertex 10.6066 43 4
      vertex 0 32.3934 0
      vertex 0 32.3934 4
    endloop
  endfacet
  facet normal 1 -0 0
    outer loop
      vertex 76 7 4
      vertex 76 32.3934 0
      vertex 76 32.3934 4
    endloop
  endfacet
  facet normal 1 0 0
    outer loop
      vertex 76 0 0
      vertex 76 7 4
      vertex 76 0 4
    endloop
  endfacet
  facet normal 1 0 0
    outer loop
      vertex 76 7 4
      vertex 76 0 0
      vertex 76 32.3934 0
    endloop
  endfacet
  facet normal -0 0 1
    outer loop
      vertex 44.9266 39.5365 4
      vertex 64.5 25 4
      vertex 65.3934 43 4
    endloop
  endfacet
  facet normal 0 0 1
    outer loop
      vertex 64.5 25 4
      vertex 44.9266 39.5365 4
      vertex 47.65 25 4
    endloop
  endfacet
  facet normal 0 0 1
    outer loop
      vertex 44.9266 39.5365 4
      vertex 65.3934 43 4
      vertex 45 40 4
    endloop
  endfacet
  facet normal 0 0 1
    outer loop
      vertex 65.3934 43 4
      vertex 44.9266 40.4635 4
      vertex 45 40 4
    endloop
  endfacet
  facet normal 0 0 1
    outer loop
      vertex 65.3934 43 4
      vertex 44.7135 40.8817 4
      vertex 44.9266 40.4635 4
    endloop
  endfacet
  facet normal 0 0 1
    outer loop
      vertex 65.3934 43 4
      vertex 44.3817 41.2135 4
      vertex 44.7135 40.8817 4
    endloop
  endfacet
  facet normal 0 0 1
    outer loop
      vertex 65.3934 43 4
      vertex 43.9635 41.4266 4
      vertex 44.3817 41.2135 4
    endloop
  endfacet
  facet normal -0 0 1
    outer loop
      vertex 40.5 43 4
      vertex 43.9635 41.4266 4
      vertex 65.3934 43 4
    endloop
  endfacet
  facet normal 0 0 1
    outer loop
      vertex 42.0734 40.4635 4
      vertex 40.5 43 4
      vertex 42 40 4
    endloop
  endfacet
  facet normal 0 0 1
    outer loop
      vertex 42.2865 40.8817 4
      vertex 40.5 43 4
      vertex 42.0734 40.4635 4
    endloop
  endfacet
  facet normal 0 0 1
    outer loop
      vertex 42.6183 41.2135 4
      vertex 40.5 43 4
      vertex 42.2865 40.8817 4
    endloop
  endfacet
  facet normal 0 0 1
    outer loop
      vertex 43.0365 41.4266 4
      vertex 40.5 43 4
      vertex 42.6183 41.2135 4
    endloop
  endfacet
  facet normal 0 0 1
    outer loop
      vertex 43.5 41.5 4
      vertex 40.5 43 4
      vertex 43.0365 41.4266 4
    endloop
  endfacet
  facet normal 0 0 1
    outer loop
      vertex 43.9635 41.4266 4
      vertex 40.5 43 4
      vertex 43.5 41.5 4
    endloop
  endfacet
  facet normal 0 0 1
    outer loop
      vertex 64.5 25 4
      vertex 76 32.3934 4
      vertex 65.3934 43 4
    endloop
  endfacet
  facet normal 0 0 1
    outer loop
      vertex 76 32.3934 4
      vertex 64.5 25 4
      vertex 76 7 4
    endloop
  endfacet
  facet normal 0 0 1
    outer loop
      vertex 76 7 4
      vertex 64.5 25 4
      vertex 64.5 7 4
    endloop
  endfacet
  facet normal -0 0 1
    outer loop
      vertex 44.7135 39.1183 4
      vertex 47.65 25 4
      vertex 44.9266 39.5365 4
    endloop
  endfacet
  facet normal -0 0 1
    outer loop
      vertex 44.3817 38.7865 4
      vertex 47.65 25 4
      vertex 44.7135 39.1183 4
    endloop
  endfacet
  facet normal -0 0 1
    outer loop
      vertex 43.9635 38.5734 4
      vertex 47.65 25 4
      vertex 44.3817 38.7865 4
    endloop
  endfacet
  facet normal -0 0 1
    outer loop
      vertex 43.5 38.5 4
      vertex 47.65 25 4
      vertex 43.9635 38.5734 4
    endloop
  endfacet
  facet normal 0 0 1
    outer loop
      vertex 43.0365 38.5734 4
      vertex 47.65 25 4
      vertex 43.5 38.5 4
    endloop
  endfacet
  facet normal 0 0 1
    outer loop
      vertex 47.65 25 4
      vertex 43.0365 38.5734 4
      vertex 40.5 20.15 4
    endloop
  endfacet
  facet normal 0 0 1
    outer loop
      vertex 40.5 20.15 4
      vertex 43.0365 38.5734 4
      vertex 42.6183 38.7865 4
    endloop
  endfacet
  facet normal 0 0 1
    outer loop
      vertex 40.5 20.15 4
      vertex 42.6183 38.7865 4
      vertex 42.2865 39.1183 4
    endloop
  endfacet
  facet normal 0 0 1
    outer loop
      vertex 40.5 20.15 4
      vertex 42.2865 39.1183 4
      vertex 42.0734 39.5365 4
    endloop
  endfacet
  facet normal 0 0 1
    outer loop
      vertex 40.5 43 4
      vertex 42.0734 39.5365 4
      vertex 42 40 4
    endloop
  endfacet
  facet normal 0 0 1
    outer loop
      vertex 40.5 20.15 4
      vertex 42.0734 39.5365 4
      vertex 40.5 43 4
    endloop
  endfacet
  facet normal 0 0 1
    outer loop
      vertex 47.65 25 4
      vertex 40.5 20.15 4
      vertex 47.65 20.15 4
    endloop
  endfacet
  facet normal -0 0 1
    outer loop
      vertex 40.5 4.85 4
      vertex 47.65 0 4
      vertex 47.65 4.85 4
    endloop
  endfacet
  facet normal 0 0 1
    outer loop
      vertex 47.65 0 4
      vertex 40.5 4.85 4
      vertex 40.5 0 4
    endloop
  endfacet
  facet normal -1 0 0
    outer loop
      vertex 40.5 0 0
      vertex 40.5 4.85 4
      vertex 40.5 4.85 0
    endloop
  endfacet
  facet normal -1 -0 0
    outer loop
      vertex 40.5 4.85 4
      vertex 40.5 0 0
      vertex 40.5 0 4
    endloop
  endfacet
  facet normal -1 0 0
    outer loop
      vertex 40.5 20.15 0
      vertex 40.5 43 4
      vertex 40.5 43 0
    endloop
  endfacet
  facet normal -1 -0 0
    outer loop
      vertex 40.5 43 4
      vertex 40.5 20.15 0
      vertex 40.5 20.15 4
    endloop
  endfacet
  facet normal 0 1 -0
    outer loop
      vertex 65.3934 43 0
      vertex 40.5 43 4
      vertex 65.3934 43 4
    endloop
  endfacet
  facet normal 0 1 0
    outer loop
      vertex 40.5 43 4
      vertex 65.3934 43 0
      vertex 40.5 43 0
    endloop
  endfacet
  facet normal 0 0 -1
    outer loop
      vertex 65.3934 43 0
      vertex 44.9266 39.5365 0
      vertex 45 40 0
    endloop
  endfacet
  facet normal 0 0 -1
    outer loop
      vertex 65.3934 43 0
      vertex 44.7135 39.1183 0
      vertex 44.9266 39.5365 0
    endloop
  endfacet
  facet normal 0 0 -1
    outer loop
      vertex 47.65 20.15 0
      vertex 44.3817 38.7865 0
      vertex 44.7135 39.1183 0
    endloop
  endfacet
  facet normal 0 0 -1
    outer loop
      vertex 47.65 20.15 0
      vertex 43.9635 38.5734 0
      vertex 44.3817 38.7865 0
    endloop
  endfacet
  facet normal 0 0 -1
    outer loop
      vertex 47.65 20.15 0
      vertex 43.5 38.5 0
      vertex 43.9635 38.5734 0
    endloop
  endfacet
  facet normal 0 0 -1
    outer loop
      vertex 40.5 20.15 0
      vertex 43.5 38.5 0
      vertex 47.65 20.15 0
    endloop
  endfacet
  facet normal -0 0 -1
    outer loop
      vertex 43.5 38.5 0
      vertex 40.5 20.15 0
      vertex 43.0365 38.5734 0
    endloop
  endfacet
  facet normal -0 0 -1
    outer loop
      vertex 43.0365 38.5734 0
      vertex 40.5 20.15 0
      vertex 42.6183 38.7865 0
    endloop
  endfacet
  facet normal -0 0 -1
    outer loop
      vertex 42.6183 38.7865 0
      vertex 40.5 20.15 0
      vertex 42.2865 39.1183 0
    endloop
  endfacet
  facet normal 0 0 -1
    outer loop
      vertex 40.5 43 0
      vertex 42.0734 39.5365 0
      vertex 40.5 20.15 0
    endloop
  endfacet
  facet normal -0 0 -1
    outer loop
      vertex 42.2865 39.1183 0
      vertex 40.5 20.15 0
      vertex 42.0734 39.5365 0
    endloop
  endfacet
  facet normal 0 0 -1
    outer loop
      vertex 47.65 20.15 0
      vertex 76 32.3934 0
      vertex 76 0 0
    endloop
  endfacet
  facet normal 0 0 -1
    outer loop
      vertex 47.65 20.15 0
      vertex 76 0 0
      vertex 47.65 4.85 0
    endloop
  endfacet
  facet normal 0 0 -1
    outer loop
      vertex 40.5 0 0
      vertex 47.65 4.85 0
      vertex 76 0 0
    endloop
  endfacet
  facet normal -0 0 -1
    outer loop
      vertex 47.65 4.85 0
      vertex 40.5 0 0
      vertex 40.5 4.85 0
    endloop
  endfacet
  facet normal -0 0 -1
    outer loop
      vertex 76 32.3934 0
      vertex 47.65 20.15 0
      vertex 65.3934 43 0
    endloop
  endfacet
  facet normal 0 0 -1
    outer loop
      vertex 44.7135 39.1183 0
      vertex 65.3934 43 0
      vertex 47.65 20.15 0
    endloop
  endfacet
  facet normal 0 0 -1
    outer loop
      vertex 44.9266 40.4635 0
      vertex 65.3934 43 0
      vertex 45 40 0
    endloop
  endfacet
  facet normal 0 0 -1
    outer loop
      vertex 44.7135 40.8817 0
      vertex 65.3934 43 0
      vertex 44.9266 40.4635 0
    endloop
  endfacet
  facet normal 0 0 -1
    outer loop
      vertex 44.3817 41.2135 0
      vertex 65.3934 43 0
      vertex 44.7135 40.8817 0
    endloop
  endfacet
  facet normal 0 0 -1
    outer loop
      vertex 43.9635 41.4266 0
      vertex 65.3934 43 0
      vertex 44.3817 41.2135 0
    endloop
  endfacet
  facet normal 0 0 -1
    outer loop
      vertex 40.5 43 0
      vertex 43.9635 41.4266 0
      vertex 43.5 41.5 0
    endloop
  endfacet
  facet normal 0 0 -1
    outer loop
      vertex 43.9635 41.4266 0
      vertex 40.5 43 0
      vertex 65.3934 43 0
    endloop
  endfacet
  facet normal 0 0 -1
    outer loop
      vertex 43.0365 41.4266 0
      vertex 40.5 43 0
      vertex 43.5 41.5 0
    endloop
  endfacet
  facet normal 0 0 -1
    outer loop
      vertex 42.6183 41.2135 0
      vertex 40.5 43 0
      vertex 43.0365 41.4266 0
    endloop
  endfacet
  facet normal 0 0 -1
    outer loop
      vertex 42.2865 40.8817 0
      vertex 40.5 43 0
      vertex 42.6183 41.2135 0
    endloop
  endfacet
  facet normal 0 0 -1
    outer loop
      vertex 42.0734 40.4635 0
      vertex 40.5 43 0
      vertex 42.2865 40.8817 0
    endloop
  endfacet
  facet normal 0 0 -1
    outer loop
      vertex 42 40 0
      vertex 40.5 43 0
      vertex 42.0734 40.4635 0
    endloop
  endfacet
  facet normal 0 0 -1
    outer loop
      vertex 42.0734 39.5365 0
      vertex 40.5 43 0
      vertex 42 40 0
    endloop
  endfacet
  facet normal 0 -1 0
    outer loop
      vertex 40.5 0 0
      vertex 47.65 0 4
      vertex 40.5 0 4
    endloop
  endfacet
  facet normal 0 -1 0
    outer loop
      vertex 76 0 0
      vertex 47.65 0 4
      vertex 40.5 0 0
    endloop
  endfacet
  facet normal 0 -1 0
    outer loop
      vertex 47.65 0 4
      vertex 76 0 0
      vertex 76 0 4
    endloop
  endfacet
  facet normal 0 -1 0
    outer loop
      vertex 47.65 0 4
      vertex 59.65 0 15
      vertex 47.65 0 15
    endloop
  endfacet
  facet normal 0 -1 0
    outer loop
      vertex 63.1641 0 7.02979
      vertex 69.0983 0 6.26363
      vertex 68.4483 0 6.73588
    endloop
  endfacet
  facet normal 0 -1 0
    outer loop
      vertex 76 0 4
      vertex 69.0983 0 6.26363
      vertex 47.65 0 4
    endloop
  endfacet
  facet normal 0 -1 -0
    outer loop
      vertex 63.1641 0 7.02979
      vertex 47.65 0 4
      vertex 69.0983 0 6.26363
    endloop
  endfacet
  facet normal 0 -1 -0
    outer loop
      vertex 59.65 0 15
      vertex 47.65 0 4
      vertex 63.1641 0 7.02979
    endloop
  endfacet
  facet normal 0 -1 0
    outer loop
      vertex 66 0 11
      vertex 69.0983 0 8.73637
      vertex 73 0 11
    endloop
  endfacet
  facet normal 0 -1 0
    outer loop
      vertex 66 0 11
      vertex 68.4483 0 8.26412
      vertex 69.0983 0 8.73637
    endloop
  endfacet
  facet normal 0 -1 0
    outer loop
      vertex 66 0 11
      vertex 68.2 0 7.5
      vertex 68.4483 0 8.26412
    endloop
  endfacet
  facet normal 0 -1 0
    outer loop
      vertex 63.1641 0 7.02979
      vertex 68.2 0 7.5
      vertex 66 0 11
    endloop
  endfacet
  facet normal 0 -1 -0
    outer loop
      vertex 68.2 0 7.5
      vertex 63.1641 0 7.02979
      vertex 68.4483 0 6.73588
    endloop
  endfacet
  facet normal 0 -1 0
    outer loop
      vertex 69.9017 0 8.73637
      vertex 73 0 11
      vertex 69.0983 0 8.73637
    endloop
  endfacet
  facet normal 0 -1 0
    outer loop
      vertex 70.5517 0 8.26412
      vertex 73 0 11
      vertex 69.9017 0 8.73637
    endloop
  endfacet
  facet normal 0 -1 0
    outer loop
      vertex 70.8 0 7.5
      vertex 73 0 11
      vertex 70.5517 0 8.26412
    endloop
  endfacet
  facet normal 0 -1 0
    outer loop
      vertex 76 0 4
      vertex 70.8 0 7.5
      vertex 70.5517 0 6.73588
    endloop
  endfacet
  facet normal 0 -1 0
    outer loop
      vertex 70.8 0 7.5
      vertex 76 0 4
      vertex 73 0 11
    endloop
  endfacet
  facet normal 0 -1 0
    outer loop
      vertex 69.9017 0 6.26363
      vertex 76 0 4
      vertex 70.5517 0 6.73588
    endloop
  endfacet
  facet normal 0 -1 0
    outer loop
      vertex 69.0983 0 6.26363
      vertex 76 0 4
      vertex 69.9017 0 6.26363
    endloop
  endfacet
  facet normal -0.81373 0 0.581243
    outer loop
      vertex 63.1641 0 7.02979
      vertex 66 7 11
      vertex 63.1641 7 7.02979
    endloop
  endfacet
  facet normal -0.81373 0 0.581243
    outer loop
      vertex 66 7 11
      vertex 63.1641 0 7.02979
      vertex 66 0 11
    endloop
  endfacet
  facet normal 0 1 0
    outer loop
      vertex 73 7 11
      vertex 71.125 7 10.3146
      vertex 66 7 11
    endloop
  endfacet
  facet normal 0 1 0
    outer loop
      vertex 73 7 11
      vertex 72.75 7 7.5
      vertex 71.125 7 10.3146
    endloop
  endfacet
  facet normal 0 1 0
    outer loop
      vertex 64.5 7 4
      vertex 71.125 7 4.68542
      vertex 76 7 4
    endloop
  endfacet
  facet normal 0 1 0
    outer loop
      vertex 72.75 7 7.5
      vertex 76 7 4
      vertex 71.125 7 4.68542
    endloop
  endfacet
  facet normal 0 1 0
    outer loop
      vertex 76 7 4
      vertex 72.75 7 7.5
      vertex 73 7 11
    endloop
  endfacet
  facet normal 0 1 -0
    outer loop
      vertex 67.875 7 10.3146
      vertex 66 7 11
      vertex 71.125 7 10.3146
    endloop
  endfacet
  facet normal 0 1 -0
    outer loop
      vertex 66.25 7 7.5
      vertex 66 7 11
      vertex 67.875 7 10.3146
    endloop
  endfacet
  facet normal 0 1 0
    outer loop
      vertex 66.25 7 7.5
      vertex 63.1641 7 7.02979
      vertex 66 7 11
    endloop
  endfacet
  facet normal 0 1 0
    outer loop
      vertex 64.5 7 4
      vertex 66.25 7 7.5
      vertex 67.875 7 4.68542
    endloop
  endfacet
  facet normal 0 1 0
    outer loop
      vertex 66.25 7 7.5
      vertex 64.5 7 4
      vertex 63.1641 7 7.02979
    endloop
  endfacet
  facet normal 0 1 0
    outer loop
      vertex 71.125 7 4.68542
      vertex 64.5 7 4
      vertex 67.875 7 4.68542
    endloop
  endfacet
  facet normal -0 0 1
    outer loop
      vertex 66 7 11
      vertex 73 0 11
      vertex 73 7 11
    endloop
  endfacet
  facet normal 0 0 1
    outer loop
      vertex 73 0 11
      vertex 66 7 11
      vertex 66 0 11
    endloop
  endfacet
  facet normal 0.919145 -0 0.393919
    outer loop
      vertex 73 0 11
      vertex 76 7 4
      vertex 73 7 11
    endloop
  endfacet
  facet normal 0.919145 0 0.393919
    outer loop
      vertex 76 7 4
      vertex 73 0 11
      vertex 76 0 4
    endloop
  endfacet
  facet normal -0 0 1
    outer loop
      vertex 57.1678 16.4776 15
      vertex 58.3697 8.13187 15
      vertex 58.3697 16.8681 15
    endloop
  endfacet
  facet normal 0 0 1
    outer loop
      vertex 57.1678 16.4776 15
      vertex 57.1678 8.52239 15
      vertex 58.3697 8.13187 15
    endloop
  endfacet
  facet normal -0 0 1
    outer loop
      vertex 49.1678 16.4776 15
      vertex 57.1678 8.52239 15
      vertex 57.1678 16.4776 15
    endloop
  endfacet
  facet normal 0 0 1
    outer loop
      vertex 49.1678 16.4776 15
      vertex 49.1678 8.52239 15
      vertex 57.1678 8.52239 15
    endloop
  endfacet
  facet normal 0 0 1
    outer loop
      vertex 48.425 17.5 15
      vertex 49.1678 8.52239 15
      vertex 49.1678 16.4776 15
    endloop
  endfacet
  facet normal 0 0 1
    outer loop
      vertex 49.1678 8.52239 15
      vertex 48.425 17.5 15
      vertex 48.425 7.5 15
    endloop
  endfacet
  facet normal 0 0 1
    outer loop
      vertex 58.3697 16.8681 15
      vertex 59.65 25 15
      vertex 58.3697 18.1319 15
    endloop
  endfacet
  facet normal 0 0 1
    outer loop
      vertex 59.65 25 15
      vertex 57.1678 18.5224 15
      vertex 58.3697 18.1319 15
    endloop
  endfacet
  facet normal -0 0 1
    outer loop
      vertex 47.65 25 15
      vertex 57.1678 18.5224 15
      vertex 59.65 25 15
    endloop
  endfacet
  facet normal 0 0 1
    outer loop
      vertex 49.1678 18.5224 15
      vertex 47.65 20.15 15
      vertex 48.425 17.5 15
    endloop
  endfacet
  facet normal -0 0 1
    outer loop
      vertex 47.65 20.15 15
      vertex 49.1678 18.5224 15
      vertex 47.65 25 15
    endloop
  endfacet
  facet normal 0 0 1
    outer loop
      vertex 57.1678 18.5224 15
      vertex 47.65 25 15
      vertex 49.1678 18.5224 15
    endloop
  endfacet
  facet normal 0 0 1
    outer loop
      vertex 59.65 25 15
      vertex 58.3697 16.8681 15
      vertex 59.65 0 15
    endloop
  endfacet
  facet normal -0 0 1
    outer loop
      vertex 58.3697 8.13187 15
      vertex 59.65 0 15
      vertex 58.3697 16.8681 15
    endloop
  endfacet
  facet normal -0 0 1
    outer loop
      vertex 58.3697 6.86813 15
      vertex 59.65 0 15
      vertex 58.3697 8.13187 15
    endloop
  endfacet
  facet normal -0 0 1
    outer loop
      vertex 57.1678 6.47761 15
      vertex 59.65 0 15
      vertex 58.3697 6.86813 15
    endloop
  endfacet
  facet normal 0 0 1
    outer loop
      vertex 47.65 0 15
      vertex 57.1678 6.47761 15
      vertex 49.1678 6.47761 15
    endloop
  endfacet
  facet normal 0 0 1
    outer loop
      vertex 48.425 17.5 15
      vertex 47.65 20.15 15
      vertex 48.425 7.5 15
    endloop
  endfacet
  facet normal 0 0 1
    outer loop
      vertex 47.65 4.85 15
      vertex 48.425 7.5 15
      vertex 47.65 20.15 15
    endloop
  endfacet
  facet normal 0 0 1
    outer loop
      vertex 47.65 4.85 15
      vertex 49.1678 6.47761 15
      vertex 48.425 7.5 15
    endloop
  endfacet
  facet normal 0 0 1
    outer loop
      vertex 47.65 0 15
      vertex 49.1678 6.47761 15
      vertex 47.65 4.85 15
    endloop
  endfacet
  facet normal 0 0 1
    outer loop
      vertex 57.1678 6.47761 15
      vertex 47.65 0 15
      vertex 59.65 0 15
    endloop
  endfacet
  facet normal -1 0 0
    outer loop
      vertex 47.65 0 4
      vertex 47.65 4.85 15
      vertex 47.65 4.85 4
    endloop
  endfacet
  facet normal -1 -0 0
    outer loop
      vertex 47.65 4.85 15
      vertex 47.65 0 4
      vertex 47.65 0 15
    endloop
  endfacet
  facet normal -1 0 0
    outer loop
      vertex 47.65 20.15 4
      vertex 47.65 25 15
      vertex 47.65 25 4
    endloop
  endfacet
  facet normal -1 -0 0
    outer loop
      vertex 47.65 25 15
      vertex 47.65 20.15 4
      vertex 47.65 20.15 15
    endloop
  endfacet
  facet normal -1 0 0
    outer loop
      vertex 47.65 4.85 4
      vertex 47.65 20.15 4
      vertex 47.65 20.15 0
    endloop
  endfacet
  facet normal -1 0 0
    outer loop
      vertex 47.65 4.85 4
      vertex 47.65 20.15 0
      vertex 47.65 4.85 0
    endloop
  endfacet
  facet normal -1 0 0
    outer loop
      vertex 47.65 20.15 4
      vertex 47.65 4.85 4
      vertex 47.65 20.15 15
    endloop
  endfacet
  facet normal -1 -0 0
    outer loop
      vertex 47.65 20.15 15
      vertex 47.65 4.85 4
      vertex 47.65 4.85 15
    endloop
  endfacet
  facet normal 0 1 0
    outer loop
      vertex 47.65 25 4
      vertex 59.65 25 15
      vertex 64.5 25 4
    endloop
  endfacet
  facet normal 0 1 0
    outer loop
      vertex 59.65 25 15
      vertex 47.65 25 4
      vertex 47.65 25 15
    endloop
  endfacet
  facet normal 0.915008 -1.93399e-06 0.403435
    outer loop
      vertex 59.65 25 15
      vertex 63.1641 7 7.02979
      vertex 64.5 25 4
    endloop
  endfacet
  facet normal 0.91501 -0 0.403432
    outer loop
      vertex 59.65 0 15
      vertex 63.1641 7 7.02979
      vertex 59.65 25 15
    endloop
  endfacet
  facet normal 0.91501 0 0.403432
    outer loop
      vertex 63.1641 7 7.02979
      vertex 59.65 0 15
      vertex 63.1641 0 7.02979
    endloop
  endfacet
  facet normal 0.915004 0 0.403445
    outer loop
      vertex 64.5 25 4
      vertex 63.1641 7 7.02979
      vertex 64.5 7 4
    endloop
  endfacet
  facet normal 0 -1 0
    outer loop
      vertex 49.2682 8.21329 5
      vertex 57.2682 8.21329 13
      vertex 49.2682 8.21329 13
    endloop
  endfacet
  facet normal 0 -1 -0
    outer loop
      vertex 57.2682 8.21329 13
      vertex 49.2682 8.21329 5
      vertex 57.2682 8.21329 5
    endloop
  endfacet
  facet normal -0.308989 -0.951066 0
    outer loop
      vertex 57.2682 8.21329 5
      vertex 58.1068 7.94084 13
      vertex 57.2682 8.21329 13
    endloop
  endfacet
  facet normal -0.308989 -0.951066 -0
    outer loop
      vertex 58.1068 7.94084 13
      vertex 57.2682 8.21329 5
      vertex 58.1068 7.94084 5
    endloop
  endfacet
  facet normal 0.809036 -0.587759 0
    outer loop
      vertex 48.75 7.5 13
      vertex 49.2682 8.21329 5
      vertex 49.2682 8.21329 13
    endloop
  endfacet
  facet normal 0.809036 -0.587759 0
    outer loop
      vertex 49.2682 8.21329 5
      vertex 48.75 7.5 13
      vertex 48.75 7.5 5
    endloop
  endfacet
  facet normal 0 0 1
    outer loop
      vertex 57.2682 8.21329 5
      vertex 58.1068 7.05916 5
      vertex 58.1068 7.94084 5
    endloop
  endfacet
  facet normal 0 0 1
    outer loop
      vertex 57.2682 8.21329 5
      vertex 57.2682 6.78671 5
      vertex 58.1068 7.05916 5
    endloop
  endfacet
  facet normal -0 0 1
    outer loop
      vertex 49.2682 8.21329 5
      vertex 57.2682 6.78671 5
      vertex 57.2682 8.21329 5
    endloop
  endfacet
  facet normal 0 0 1
    outer loop
      vertex 49.2682 8.21329 5
      vertex 49.2682 6.78671 5
      vertex 57.2682 6.78671 5
    endloop
  endfacet
  facet normal 0 -0 1
    outer loop
      vertex 49.2682 6.78671 5
      vertex 49.2682 8.21329 5
      vertex 48.75 7.5 5
    endloop
  endfacet
  facet normal 0 1 -0
    outer loop
      vertex 57.2682 6.78671 5
      vertex 49.2682 6.78671 13
      vertex 57.2682 6.78671 13
    endloop
  endfacet
  facet normal 0 1 0
    outer loop
      vertex 49.2682 6.78671 13
      vertex 57.2682 6.78671 5
      vertex 49.2682 6.78671 5
    endloop
  endfacet
  facet normal 0.809036 0.587759 0
    outer loop
      vertex 49.2682 6.78671 13
      vertex 48.75 7.5 5
      vertex 48.75 7.5 13
    endloop
  endfacet
  facet normal 0.809036 0.587759 0
    outer loop
      vertex 48.75 7.5 5
      vertex 49.2682 6.78671 13
      vertex 49.2682 6.78671 5
    endloop
  endfacet
  facet normal -1 0 0
    outer loop
      vertex 58.1068 7.05916 5
      vertex 58.1068 7.94084 13
      vertex 58.1068 7.94084 5
    endloop
  endfacet
  facet normal -1 -0 0
    outer loop
      vertex 58.1068 7.94084 13
      vertex 58.1068 7.05916 5
      vertex 58.1068 7.05916 13
    endloop
  endfacet
  facet normal -0.308989 0.951066 0
    outer loop
      vertex 58.1068 7.05916 5
      vertex 57.2682 6.78671 13
      vertex 58.1068 7.05916 13
    endloop
  endfacet
  facet normal -0.308989 0.951066 0
    outer loop
      vertex 57.2682 6.78671 13
      vertex 58.1068 7.05916 5
      vertex 57.2682 6.78671 5
    endloop
  endfacet
  facet normal 0 -1 0
    outer loop
      vertex 49.1678 8.52239 13
      vertex 57.1678 8.52239 15
      vertex 49.1678 8.52239 15
    endloop
  endfacet
  facet normal 0 -1 -0
    outer loop
      vertex 57.1678 8.52239 15
      vertex 49.1678 8.52239 13
      vertex 57.1678 8.52239 13
    endloop
  endfacet
  facet normal -0.309016 -0.951057 0
    outer loop
      vertex 57.1678 8.52239 13
      vertex 58.3697 8.13187 15
      vertex 57.1678 8.52239 15
    endloop
  endfacet
  facet normal -0.309016 -0.951057 -0
    outer loop
      vertex 58.3697 8.13187 15
      vertex 57.1678 8.52239 13
      vertex 58.3697 8.13187 13
    endloop
  endfacet
  facet normal 0.809021 -0.58778 0
    outer loop
      vertex 48.425 7.5 15
      vertex 49.1678 8.52239 13
      vertex 49.1678 8.52239 15
    endloop
  endfacet
  facet normal 0.809021 -0.58778 0
    outer loop
      vertex 49.1678 8.52239 13
      vertex 48.425 7.5 15
      vertex 48.425 7.5 13
    endloop
  endfacet
  facet normal 0 0 1
    outer loop
      vertex 58.3697 8.13187 13
      vertex 58.1068 7.94084 13
      vertex 58.3697 6.86813 13
    endloop
  endfacet
  facet normal 0 0 1
    outer loop
      vertex 58.3697 8.13187 13
      vertex 57.2682 8.21329 13
      vertex 58.1068 7.94084 13
    endloop
  endfacet
  facet normal 0 0 1
    outer loop
      vertex 57.1678 8.52239 13
      vertex 57.2682 8.21329 13
      vertex 58.3697 8.13187 13
    endloop
  endfacet
  facet normal 0 0 1
    outer loop
      vertex 57.1678 8.52239 13
      vertex 49.2682 8.21329 13
      vertex 57.2682 8.21329 13
    endloop
  endfacet
  facet normal -0 0 1
    outer loop
      vertex 49.1678 8.52239 13
      vertex 49.2682 8.21329 13
      vertex 57.1678 8.52239 13
    endloop
  endfacet
  facet normal 0 0 1
    outer loop
      vertex 49.1678 8.52239 13
      vertex 48.75 7.5 13
      vertex 49.2682 8.21329 13
    endloop
  endfacet
  facet normal 0 -0 1
    outer loop
      vertex 48.75 7.5 13
      vertex 49.1678 8.52239 13
      vertex 48.425 7.5 13
    endloop
  endfacet
  facet normal -0 0 1
    outer loop
      vertex 58.1068 7.05916 13
      vertex 58.3697 6.86813 13
      vertex 58.1068 7.94084 13
    endloop
  endfacet
  facet normal 0 0 1
    outer loop
      vertex 57.2682 6.78671 13
      vertex 58.3697 6.86813 13
      vertex 58.1068 7.05916 13
    endloop
  endfacet
  facet normal -0 0 1
    outer loop
      vertex 57.2682 6.78671 13
      vertex 57.1678 6.47761 13
      vertex 58.3697 6.86813 13
    endloop
  endfacet
  facet normal -0 0 1
    outer loop
      vertex 49.2682 6.78671 13
      vertex 57.1678 6.47761 13
      vertex 57.2682 6.78671 13
    endloop
  endfacet
  facet normal 0 0 1
    outer loop
      vertex 49.2682 6.78671 13
      vertex 49.1678 6.47761 13
      vertex 57.1678 6.47761 13
    endloop
  endfacet
  facet normal 0 0 1
    outer loop
      vertex 48.75 7.5 13
      vertex 49.1678 6.47761 13
      vertex 49.2682 6.78671 13
    endloop
  endfacet
  facet normal 0 0 1
    outer loop
      vertex 49.1678 6.47761 13
      vertex 48.75 7.5 13
      vertex 48.425 7.5 13
    endloop
  endfacet
  facet normal 0 1 -0
    outer loop
      vertex 57.1678 6.47761 13
      vertex 49.1678 6.47761 15
      vertex 57.1678 6.47761 15
    endloop
  endfacet
  facet normal 0 1 0
    outer loop
      vertex 49.1678 6.47761 15
      vertex 57.1678 6.47761 13
      vertex 49.1678 6.47761 13
    endloop
  endfacet
  facet normal 0.809021 0.58778 0
    outer loop
      vertex 49.1678 6.47761 15
      vertex 48.425 7.5 13
      vertex 48.425 7.5 15
    endloop
  endfacet
  facet normal 0.809021 0.58778 0
    outer loop
      vertex 48.425 7.5 13
      vertex 49.1678 6.47761 15
      vertex 49.1678 6.47761 13
    endloop
  endfacet
  facet normal -1 0 0
    outer loop
      vertex 58.3697 6.86813 13
      vertex 58.3697 8.13187 15
      vertex 58.3697 8.13187 13
    endloop
  endfacet
  facet normal -1 -0 0
    outer loop
      vertex 58.3697 8.13187 15
      vertex 58.3697 6.86813 13
      vertex 58.3697 6.86813 15
    endloop
  endfacet
  facet normal -0.309016 0.951057 0
    outer loop
      vertex 58.3697 6.86813 13
      vertex 57.1678 6.47761 15
      vertex 58.3697 6.86813 15
    endloop
  endfacet
  facet normal -0.309016 0.951057 0
    outer loop
      vertex 57.1678 6.47761 15
      vertex 58.3697 6.86813 13
      vertex 57.1678 6.47761 13
    endloop
  endfacet
  facet normal 0 -1 0
    outer loop
      vertex 49.2682 18.2133 5
      vertex 57.2682 18.2133 13
      vertex 49.2682 18.2133 13
    endloop
  endfacet
  facet normal 0 -1 -0
    outer loop
      vertex 57.2682 18.2133 13
      vertex 49.2682 18.2133 5
      vertex 57.2682 18.2133 5
    endloop
  endfacet
  facet normal -0.30904 -0.951049 0
    outer loop
      vertex 57.2682 18.2133 5
      vertex 58.1068 17.9408 13
      vertex 57.2682 18.2133 13
    endloop
  endfacet
  facet normal -0.30904 -0.951049 -0
    outer loop
      vertex 58.1068 17.9408 13
      vertex 57.2682 18.2133 5
      vertex 58.1068 17.9408 5
    endloop
  endfacet
  facet normal 0.80904 -0.587753 0
    outer loop
      vertex 48.75 17.5 13
      vertex 49.2682 18.2133 5
      vertex 49.2682 18.2133 13
    endloop
  endfacet
  facet normal 0.80904 -0.587753 0
    outer loop
      vertex 49.2682 18.2133 5
      vertex 48.75 17.5 13
      vertex 48.75 17.5 5
    endloop
  endfacet
  facet normal 0 0 1
    outer loop
      vertex 57.2682 18.2133 5
      vertex 58.1068 17.0592 5
      vertex 58.1068 17.9408 5
    endloop
  endfacet
  facet normal 0 0 1
    outer loop
      vertex 57.2682 18.2133 5
      vertex 57.2682 16.7867 5
      vertex 58.1068 17.0592 5
    endloop
  endfacet
  facet normal -0 0 1
    outer loop
      vertex 49.2682 18.2133 5
      vertex 57.2682 16.7867 5
      vertex 57.2682 18.2133 5
    endloop
  endfacet
  facet normal 0 0 1
    outer loop
      vertex 49.2682 18.2133 5
      vertex 49.2682 16.7867 5
      vertex 57.2682 16.7867 5
    endloop
  endfacet
  facet normal 0 -0 1
    outer loop
      vertex 49.2682 16.7867 5
      vertex 49.2682 18.2133 5
      vertex 48.75 17.5 5
    endloop
  endfacet
  facet normal 0 1 -0
    outer loop
      vertex 57.2682 16.7867 5
      vertex 49.2682 16.7867 13
      vertex 57.2682 16.7867 13
    endloop
  endfacet
  facet normal 0 1 0
    outer loop
      vertex 49.2682 16.7867 13
      vertex 57.2682 16.7867 5
      vertex 49.2682 16.7867 5
    endloop
  endfacet
  facet normal 0.80904 0.587753 0
    outer loop
      vertex 49.2682 16.7867 13
      vertex 48.75 17.5 5
      vertex 48.75 17.5 13
    endloop
  endfacet
  facet normal 0.80904 0.587753 0
    outer loop
      vertex 48.75 17.5 5
      vertex 49.2682 16.7867 13
      vertex 49.2682 16.7867 5
    endloop
  endfacet
  facet normal -1 0 0
    outer loop
      vertex 58.1068 17.0592 5
      vertex 58.1068 17.9408 13
      vertex 58.1068 17.9408 5
    endloop
  endfacet
  facet normal -1 -0 0
    outer loop
      vertex 58.1068 17.9408 13
      vertex 58.1068 17.0592 5
      vertex 58.1068 17.0592 13
    endloop
  endfacet
  facet normal -0.30904 0.951049 0
    outer loop
      vertex 58.1068 17.0592 5
      vertex 57.2682 16.7867 13
      vertex 58.1068 17.0592 13
    endloop
  endfacet
  facet normal -0.30904 0.951049 0
    outer loop
      vertex 57.2682 16.7867 13
      vertex 58.1068 17.0592 5
      vertex 57.2682 16.7867 5
    endloop
  endfacet
  facet normal 0 -1 0
    outer loop
      vertex 49.1678 18.5224 13
      vertex 57.1678 18.5224 15
      vertex 49.1678 18.5224 15
    endloop
  endfacet
  facet normal 0 -1 -0
    outer loop
      vertex 57.1678 18.5224 15
      vertex 49.1678 18.5224 13
      vertex 57.1678 18.5224 13
    endloop
  endfacet
  facet normal -0.309002 -0.951061 0
    outer loop
      vertex 57.1678 18.5224 13
      vertex 58.3697 18.1319 15
      vertex 57.1678 18.5224 15
    endloop
  endfacet
  facet normal -0.309002 -0.951061 -0
    outer loop
      vertex 58.3697 18.1319 15
      vertex 57.1678 18.5224 13
      vertex 58.3697 18.1319 13
    endloop
  endfacet
  facet normal 0.809023 -0.587776 0
    outer loop
      vertex 48.425 17.5 15
      vertex 49.1678 18.5224 13
      vertex 49.1678 18.5224 15
    endloop
  endfacet
  facet normal 0.809023 -0.587776 0
    outer loop
      vertex 49.1678 18.5224 13
      vertex 48.425 17.5 15
      vertex 48.425 17.5 13
    endloop
  endfacet
  facet normal 0 0 1
    outer loop
      vertex 58.3697 18.1319 13
      vertex 58.1068 17.9408 13
      vertex 58.3697 16.8681 13
    endloop
  endfacet
  facet normal 0 0 1
    outer loop
      vertex 58.3697 18.1319 13
      vertex 57.2682 18.2133 13
      vertex 58.1068 17.9408 13
    endloop
  endfacet
  facet normal 0 0 1
    outer loop
      vertex 57.1678 18.5224 13
      vertex 57.2682 18.2133 13
      vertex 58.3697 18.1319 13
    endloop
  endfacet
  facet normal 0 0 1
    outer loop
      vertex 57.1678 18.5224 13
      vertex 49.2682 18.2133 13
      vertex 57.2682 18.2133 13
    endloop
  endfacet
  facet normal -0 0 1
    outer loop
      vertex 49.1678 18.5224 13
      vertex 49.2682 18.2133 13
      vertex 57.1678 18.5224 13
    endloop
  endfacet
  facet normal 0 0 1
    outer loop
      vertex 49.1678 18.5224 13
      vertex 48.75 17.5 13
      vertex 49.2682 18.2133 13
    endloop
  endfacet
  facet normal 0 -0 1
    outer loop
      vertex 48.75 17.5 13
      vertex 49.1678 18.5224 13
      vertex 48.425 17.5 13
    endloop
  endfacet
  facet normal -0 0 1
    outer loop
      vertex 58.1068 17.0592 13
      vertex 58.3697 16.8681 13
      vertex 58.1068 17.9408 13
    endloop
  endfacet
  facet normal 0 0 1
    outer loop
      vertex 57.2682 16.7867 13
      vertex 58.3697 16.8681 13
      vertex 58.1068 17.0592 13
    endloop
  endfacet
  facet normal -0 0 1
    outer loop
      vertex 57.2682 16.7867 13
      vertex 57.1678 16.4776 13
      vertex 58.3697 16.8681 13
    endloop
  endfacet
  facet normal -0 0 1
    outer loop
      vertex 49.2682 16.7867 13
      vertex 57.1678 16.4776 13
      vertex 57.2682 16.7867 13
    endloop
  endfacet
  facet normal 0 0 1
    outer loop
      vertex 49.2682 16.7867 13
      vertex 49.1678 16.4776 13
      vertex 57.1678 16.4776 13
    endloop
  endfacet
  facet normal 0 0 1
    outer loop
      vertex 48.75 17.5 13
      vertex 49.1678 16.4776 13
      vertex 49.2682 16.7867 13
    endloop
  endfacet
  facet normal 0 0 1
    outer loop
      vertex 49.1678 16.4776 13
      vertex 48.75 17.5 13
      vertex 48.425 17.5 13
    endloop
  endfacet
  facet normal 0 1 -0
    outer loop
      vertex 57.1678 16.4776 13
      vertex 49.1678 16.4776 15
      vertex 57.1678 16.4776 15
    endloop
  endfacet
  facet normal 0 1 0
    outer loop
      vertex 49.1678 16.4776 15
      vertex 57.1678 16.4776 13
      vertex 49.1678 16.4776 13
    endloop
  endfacet
  facet normal 0.809023 0.587776 0
    outer loop
      vertex 49.1678 16.4776 15
      vertex 48.425 17.5 13
      vertex 48.425 17.5 15
    endloop
  endfacet
  facet normal 0.809023 0.587776 0
    outer loop
      vertex 48.425 17.5 13
      vertex 49.1678 16.4776 15
      vertex 49.1678 16.4776 13
    endloop
  endfacet
  facet normal -1 0 0
    outer loop
      vertex 58.3697 16.8681 13
      vertex 58.3697 18.1319 15
      vertex 58.3697 18.1319 13
    endloop
  endfacet
  facet normal -1 -0 0
    outer loop
      vertex 58.3697 18.1319 15
      vertex 58.3697 16.8681 13
      vertex 58.3697 16.8681 15
    endloop
  endfacet
  facet normal -0.309002 0.951061 0
    outer loop
      vertex 58.3697 16.8681 13
      vertex 57.1678 16.4776 15
      vertex 58.3697 16.8681 15
    endloop
  endfacet
  facet normal -0.309002 0.951061 0
    outer loop
      vertex 57.1678 16.4776 15
      vertex 58.3697 16.8681 13
      vertex 57.1678 16.4776 13
    endloop
  endfacet
  facet normal 0 -1 0
    outer loop
      vertex 40.5 20.15 0
      vertex 47.65 20.15 4
      vertex 40.5 20.15 4
    endloop
  endfacet
  facet normal 0 -1 -0
    outer loop
      vertex 47.65 20.15 4
      vertex 40.5 20.15 0
      vertex 47.65 20.15 0
    endloop
  endfacet
  facet normal 0 1 -0
    outer loop
      vertex 47.65 4.85 0
      vertex 40.5 4.85 4
      vertex 47.65 4.85 4
    endloop
  endfacet
  facet normal 0 1 0
    outer loop
      vertex 40.5 4.85 4
      vertex 47.65 4.85 0
      vertex 40.5 4.85 0
    endloop
  endfacet
  facet normal 0.987692 -0.156411 0
    outer loop
      vertex 42 40 4
      vertex 42.0734 40.4635 0
      vertex 42.0734 40.4635 4
    endloop
  endfacet
  facet normal 0.987692 -0.156411 0
    outer loop
      vertex 42.0734 40.4635 0
      vertex 42 40 4
      vertex 42 40 0
    endloop
  endfacet
  facet normal -0.156411 -0.987692 0
    outer loop
      vertex 43.5 41.5 0
      vertex 43.9635 41.4266 4
      vertex 43.5 41.5 4
    endloop
  endfacet
  facet normal -0.156411 -0.987692 -0
    outer loop
      vertex 43.9635 41.4266 4
      vertex 43.5 41.5 0
      vertex 43.9635 41.4266 0
    endloop
  endfacet
  facet normal 0.156411 0.987692 -0
    outer loop
      vertex 43.5 38.5 0
      vertex 43.0365 38.5734 4
      vertex 43.5 38.5 4
    endloop
  endfacet
  facet normal 0.156411 0.987692 0
    outer loop
      vertex 43.0365 38.5734 4
      vertex 43.5 38.5 0
      vertex 43.0365 38.5734 0
    endloop
  endfacet
  facet normal 0.707107 -0.707107 0
    outer loop
      vertex 42.2865 40.8817 4
      vertex 42.6183 41.2135 0
      vertex 42.6183 41.2135 4
    endloop
  endfacet
  facet normal 0.707107 -0.707107 0
    outer loop
      vertex 42.6183 41.2135 0
      vertex 42.2865 40.8817 4
      vertex 42.2865 40.8817 0
    endloop
  endfacet
  facet normal 0.890992 -0.454018 0
    outer loop
      vertex 42.0734 40.4635 4
      vertex 42.2865 40.8817 0
      vertex 42.2865 40.8817 4
    endloop
  endfacet
  facet normal 0.890992 -0.454018 0
    outer loop
      vertex 42.2865 40.8817 0
      vertex 42.0734 40.4635 4
      vertex 42.0734 40.4635 0
    endloop
  endfacet
  facet normal -0.707107 -0.707107 0
    outer loop
      vertex 44.7135 40.8817 0
      vertex 44.3817 41.2135 4
      vertex 44.3817 41.2135 0
    endloop
  endfacet
  facet normal -0.707107 -0.707107 0
    outer loop
      vertex 44.3817 41.2135 4
      vertex 44.7135 40.8817 0
      vertex 44.7135 40.8817 4
    endloop
  endfacet
  facet normal -0.890992 -0.454018 0
    outer loop
      vertex 44.9266 40.4635 0
      vertex 44.7135 40.8817 4
      vertex 44.7135 40.8817 0
    endloop
  endfacet
  facet normal -0.890992 -0.454018 0
    outer loop
      vertex 44.7135 40.8817 4
      vertex 44.9266 40.4635 0
      vertex 44.9266 40.4635 4
    endloop
  endfacet
  facet normal -0.454018 -0.890992 0
    outer loop
      vertex 43.9635 41.4266 0
      vertex 44.3817 41.2135 4
      vertex 43.9635 41.4266 4
    endloop
  endfacet
  facet normal -0.454018 -0.890992 -0
    outer loop
      vertex 44.3817 41.2135 4
      vertex 43.9635 41.4266 0
      vertex 44.3817 41.2135 0
    endloop
  endfacet
  facet normal 0.454018 0.890992 -0
    outer loop
      vertex 43.0365 38.5734 0
      vertex 42.6183 38.7865 4
      vertex 43.0365 38.5734 4
    endloop
  endfacet
  facet normal 0.454018 0.890992 0
    outer loop
      vertex 42.6183 38.7865 4
      vertex 43.0365 38.5734 0
      vertex 42.6183 38.7865 0
    endloop
  endfacet
  facet normal 0.890992 0.454018 0
    outer loop
      vertex 42.2865 39.1183 4
      vertex 42.0734 39.5365 0
      vertex 42.0734 39.5365 4
    endloop
  endfacet
  facet normal 0.890992 0.454018 0
    outer loop
      vertex 42.0734 39.5365 0
      vertex 42.2865 39.1183 4
      vertex 42.2865 39.1183 0
    endloop
  endfacet
  facet normal -0.454018 0.890992 0
    outer loop
      vertex 44.3817 38.7865 0
      vertex 43.9635 38.5734 4
      vertex 44.3817 38.7865 4
    endloop
  endfacet
  facet normal -0.454018 0.890992 0
    outer loop
      vertex 43.9635 38.5734 4
      vertex 44.3817 38.7865 0
      vertex 43.9635 38.5734 0
    endloop
  endfacet
  facet normal -0.890992 0.454018 0
    outer loop
      vertex 44.7135 39.1183 0
      vertex 44.9266 39.5365 4
      vertex 44.9266 39.5365 0
    endloop
  endfacet
  facet normal -0.890992 0.454018 0
    outer loop
      vertex 44.9266 39.5365 4
      vertex 44.7135 39.1183 0
      vertex 44.7135 39.1183 4
    endloop
  endfacet
  facet normal 0.156411 -0.987692 0
    outer loop
      vertex 43.0365 41.4266 0
      vertex 43.5 41.5 4
      vertex 43.0365 41.4266 4
    endloop
  endfacet
  facet normal 0.156411 -0.987692 0
    outer loop
      vertex 43.5 41.5 4
      vertex 43.0365 41.4266 0
      vertex 43.5 41.5 0
    endloop
  endfacet
  facet normal 0.454018 -0.890992 0
    outer loop
      vertex 42.6183 41.2135 0
      vertex 43.0365 41.4266 4
      vertex 42.6183 41.2135 4
    endloop
  endfacet
  facet normal 0.454018 -0.890992 0
    outer loop
      vertex 43.0365 41.4266 4
      vertex 42.6183 41.2135 0
      vertex 43.0365 41.4266 0
    endloop
  endfacet
  facet normal -0.987692 -0.156411 0
    outer loop
      vertex 45 40 0
      vertex 44.9266 40.4635 4
      vertex 44.9266 40.4635 0
    endloop
  endfacet
  facet normal -0.987692 -0.156411 0
    outer loop
      vertex 44.9266 40.4635 4
      vertex 45 40 0
      vertex 45 40 4
    endloop
  endfacet
  facet normal 0.707107 0.707107 -0
    outer loop
      vertex 42.6183 38.7865 0
      vertex 42.2865 39.1183 4
      vertex 42.6183 38.7865 4
    endloop
  endfacet
  facet normal 0.707107 0.707107 0
    outer loop
      vertex 42.2865 39.1183 4
      vertex 42.6183 38.7865 0
      vertex 42.2865 39.1183 0
    endloop
  endfacet
  facet normal -0.156411 0.987692 0
    outer loop
      vertex 43.9635 38.5734 0
      vertex 43.5 38.5 4
      vertex 43.9635 38.5734 4
    endloop
  endfacet
  facet normal -0.156411 0.987692 0
    outer loop
      vertex 43.5 38.5 4
      vertex 43.9635 38.5734 0
      vertex 43.5 38.5 0
    endloop
  endfacet
  facet normal -0.707107 0.707107 0
    outer loop
      vertex 44.3817 38.7865 0
      vertex 44.7135 39.1183 4
      vertex 44.7135 39.1183 0
    endloop
  endfacet
  facet normal -0.707107 0.707107 0
    outer loop
      vertex 44.7135 39.1183 4
      vertex 44.3817 38.7865 0
      vertex 44.3817 38.7865 4
    endloop
  endfacet
  facet normal -0.987692 0.156411 0
    outer loop
      vertex 44.9266 39.5365 0
      vertex 45 40 4
      vertex 45 40 0
    endloop
  endfacet
  facet normal -0.987692 0.156411 0
    outer loop
      vertex 45 40 4
      vertex 44.9266 39.5365 0
      vertex 44.9266 39.5365 4
    endloop
  endfacet
  facet normal 0.987692 0.156411 0
    outer loop
      vertex 42.0734 39.5365 4
      vertex 42 40 0
      vertex 42 40 4
    endloop
  endfacet
  facet normal 0.987692 0.156411 0
    outer loop
      vertex 42 40 0
      vertex 42.0734 39.5365 4
      vertex 42.0734 39.5365 0
    endloop
  endfacet
  facet normal 0.951048 -0 0.309042
    outer loop
      vertex 68.2 0 7.5
      vertex 68.4483 4 6.73588
      vertex 68.2 4 7.5
    endloop
  endfacet
  facet normal 0.951048 0 0.309042
    outer loop
      vertex 68.4483 4 6.73588
      vertex 68.2 0 7.5
      vertex 68.4483 0 6.73588
    endloop
  endfacet
  facet normal -0.951048 0 0.309042
    outer loop
      vertex 70.5517 0 6.73588
      vertex 70.8 4 7.5
      vertex 70.5517 4 6.73588
    endloop
  endfacet
  facet normal -0.951048 0 0.309042
    outer loop
      vertex 70.8 4 7.5
      vertex 70.5517 0 6.73588
      vertex 70.8 0 7.5
    endloop
  endfacet
  facet normal 0 0 -1
    outer loop
      vertex 69.0983 0 8.73637
      vertex 69.9017 4 8.73637
      vertex 69.9017 0 8.73637
    endloop
  endfacet
  facet normal -0 0 -1
    outer loop
      vertex 69.9017 4 8.73637
      vertex 69.0983 0 8.73637
      vertex 69.0983 4 8.73637
    endloop
  endfacet
  facet normal -0 0 1
    outer loop
      vertex 69.0983 4 6.26363
      vertex 69.9017 0 6.26363
      vertex 69.9017 4 6.26363
    endloop
  endfacet
  facet normal 0 0 1
    outer loop
      vertex 69.9017 0 6.26363
      vertex 69.0983 4 6.26363
      vertex 69.0983 0 6.26363
    endloop
  endfacet
  facet normal 0.587783 0 0.809019
    outer loop
      vertex 68.4483 4 6.73588
      vertex 69.0983 0 6.26363
      vertex 69.0983 4 6.26363
    endloop
  endfacet
  facet normal 0.587783 0 0.809019
    outer loop
      vertex 69.0983 0 6.26363
      vertex 68.4483 4 6.73588
      vertex 68.4483 0 6.73588
    endloop
  endfacet
  facet normal -0.587783 0 0.809019
    outer loop
      vertex 69.9017 4 6.26363
      vertex 70.5517 0 6.73588
      vertex 70.5517 4 6.73588
    endloop
  endfacet
  facet normal -0.587783 0 0.809019
    outer loop
      vertex 70.5517 0 6.73588
      vertex 69.9017 4 6.26363
      vertex 69.9017 0 6.26363
    endloop
  endfacet
  facet normal 0.951048 0 -0.309042
    outer loop
      vertex 68.4483 0 8.26412
      vertex 68.2 4 7.5
      vertex 68.4483 4 8.26412
    endloop
  endfacet
  facet normal 0.951048 0 -0.309042
    outer loop
      vertex 68.2 4 7.5
      vertex 68.4483 0 8.26412
      vertex 68.2 0 7.5
    endloop
  endfacet
  facet normal -0.951048 0 -0.309042
    outer loop
      vertex 70.8 0 7.5
      vertex 70.5517 4 8.26412
      vertex 70.8 4 7.5
    endloop
  endfacet
  facet normal -0.951048 -0 -0.309042
    outer loop
      vertex 70.5517 4 8.26412
      vertex 70.8 0 7.5
      vertex 70.5517 0 8.26412
    endloop
  endfacet
  facet normal 0.587783 0 -0.809019
    outer loop
      vertex 68.4483 0 8.26412
      vertex 69.0983 4 8.73637
      vertex 69.0983 0 8.73637
    endloop
  endfacet
  facet normal 0.587783 0 -0.809019
    outer loop
      vertex 69.0983 4 8.73637
      vertex 68.4483 0 8.26412
      vertex 68.4483 4 8.26412
    endloop
  endfacet
  facet normal -0.587783 0 -0.809019
    outer loop
      vertex 69.9017 0 8.73637
      vertex 70.5517 4 8.26412
      vertex 70.5517 0 8.26412
    endloop
  endfacet
  facet normal -0.587783 0 -0.809019
    outer loop
      vertex 70.5517 4 8.26412
      vertex 69.9017 0 8.73637
      vertex 69.9017 4 8.73637
    endloop
  endfacet
  facet normal 0.866025 -0 0.5
    outer loop
      vertex 66.25 4 7.5
      vertex 67.875 7 4.68542
      vertex 66.25 7 7.5
    endloop
  endfacet
  facet normal 0.866025 0 0.5
    outer loop
      vertex 67.875 7 4.68542
      vertex 66.25 4 7.5
      vertex 67.875 4 4.68542
    endloop
  endfacet
  facet normal -0.866025 0 0.5
    outer loop
      vertex 71.125 4 4.68542
      vertex 72.75 7 7.5
      vertex 71.125 7 4.68542
    endloop
  endfacet
  facet normal -0.866025 0 0.5
    outer loop
      vertex 72.75 7 7.5
      vertex 71.125 4 4.68542
      vertex 72.75 4 7.5
    endloop
  endfacet
  facet normal -0 0 1
    outer loop
      vertex 67.875 7 4.68542
      vertex 71.125 4 4.68542
      vertex 71.125 7 4.68542
    endloop
  endfacet
  facet normal 0 0 1
    outer loop
      vertex 71.125 4 4.68542
      vertex 67.875 7 4.68542
      vertex 67.875 4 4.68542
    endloop
  endfacet
  facet normal 0 1 0
    outer loop
      vertex 71.125 4 10.3146
      vertex 69.9017 4 8.73637
      vertex 67.875 4 10.3146
    endloop
  endfacet
  facet normal 0 1 0
    outer loop
      vertex 71.125 4 10.3146
      vertex 70.5517 4 8.26412
      vertex 69.9017 4 8.73637
    endloop
  endfacet
  facet normal 0 1 0
    outer loop
      vertex 72.75 4 7.5
      vertex 70.5517 4 8.26412
      vertex 71.125 4 10.3146
    endloop
  endfacet
  facet normal 0 1 0
    outer loop
      vertex 72.75 4 7.5
      vertex 70.8 4 7.5
      vertex 70.5517 4 8.26412
    endloop
  endfacet
  facet normal 0 1 0
    outer loop
      vertex 72.75 4 7.5
      vertex 70.5517 4 6.73588
      vertex 70.8 4 7.5
    endloop
  endfacet
  facet normal 0 1 -0
    outer loop
      vertex 71.125 4 4.68542
      vertex 70.5517 4 6.73588
      vertex 72.75 4 7.5
    endloop
  endfacet
  facet normal 0 1 0
    outer loop
      vertex 69.9017 4 6.26363
      vertex 71.125 4 4.68542
      vertex 69.0983 4 6.26363
    endloop
  endfacet
  facet normal 0 1 0
    outer loop
      vertex 70.5517 4 6.73588
      vertex 71.125 4 4.68542
      vertex 69.9017 4 6.26363
    endloop
  endfacet
  facet normal 0 1 -0
    outer loop
      vertex 69.0983 4 8.73637
      vertex 67.875 4 10.3146
      vertex 69.9017 4 8.73637
    endloop
  endfacet
  facet normal 0 1 -0
    outer loop
      vertex 68.4483 4 8.26412
      vertex 67.875 4 10.3146
      vertex 69.0983 4 8.73637
    endloop
  endfacet
  facet normal 0 1 0
    outer loop
      vertex 66.25 4 7.5
      vertex 68.4483 4 8.26412
      vertex 68.2 4 7.5
    endloop
  endfacet
  facet normal 0 1 0
    outer loop
      vertex 68.4483 4 8.26412
      vertex 66.25 4 7.5
      vertex 67.875 4 10.3146
    endloop
  endfacet
  facet normal 0 1 0
    outer loop
      vertex 68.4483 4 6.73588
      vertex 66.25 4 7.5
      vertex 68.2 4 7.5
    endloop
  endfacet
  facet normal 0 1 0
    outer loop
      vertex 67.875 4 4.68542
      vertex 68.4483 4 6.73588
      vertex 69.0983 4 6.26363
    endloop
  endfacet
  facet normal 0 1 0
    outer loop
      vertex 67.875 4 4.68542
      vertex 69.0983 4 6.26363
      vertex 71.125 4 4.68542
    endloop
  endfacet
  facet normal 0 1 0
    outer loop
      vertex 68.4483 4 6.73588
      vertex 67.875 4 4.68542
      vertex 66.25 4 7.5
    endloop
  endfacet
  facet normal 0 0 -1
    outer loop
      vertex 67.875 4 10.3146
      vertex 71.125 7 10.3146
      vertex 71.125 4 10.3146
    endloop
  endfacet
  facet normal -0 0 -1
    outer loop
      vertex 71.125 7 10.3146
      vertex 67.875 4 10.3146
      vertex 67.875 7 10.3146
    endloop
  endfacet
  facet normal -0.866027 0 -0.499998
    outer loop
      vertex 72.75 4 7.5
      vertex 71.125 7 10.3146
      vertex 72.75 7 7.5
    endloop
  endfacet
  facet normal -0.866027 -0 -0.499998
    outer loop
      vertex 71.125 7 10.3146
      vertex 72.75 4 7.5
      vertex 71.125 4 10.3146
    endloop
  endfacet
  facet normal 0.866027 0 -0.499998
    outer loop
      vertex 67.875 4 10.3146
      vertex 66.25 7 7.5
      vertex 67.875 7 10.3146
    endloop
  endfacet
  facet normal 0.866027 0 -0.499998
    outer loop
      vertex 66.25 7 7.5
      vertex 67.875 4 10.3146
      vertex 66.25 4 7.5
    endloop
  endfacet
  facet normal 0.707107 0.707107 0
    outer loop
      vertex 76 32.3934 4
      vertex 65.3934 43 0
      vertex 65.3934 43 4
    endloop
  endfacet
  facet normal 0.707107 0.707107 0
    outer loop
      vertex 65.3934 43 0
      vertex 76 32.3934 4
      vertex 76 32.3934 0
    endloop
  endfacet
endsolid OpenSCAD_Model
