solid OpenSCAD_Model
  facet normal -0.55557 0 0.83147
    outer loop
      vertex 11.6123 24 3.02179
      vertex 12.1314 7.5 3.36863
      vertex 12.1314 24 3.36863
    endloop
  endfacet
  facet normal -0.55557 0 0.83147
    outer loop
      vertex 12.1314 7.5 3.36863
      vertex 11.6123 24 3.02179
      vertex 11.6123 7.5 3.02179
    endloop
  endfacet
  facet normal -0.55557 0 0.83147
    outer loop
      vertex 11.6123 5 3.02179
      vertex 12.1314 0 3.36863
      vertex 12.1314 5 3.36863
    endloop
  endfacet
  facet normal -0.55557 0 0.83147
    outer loop
      vertex 12.1314 0 3.36863
      vertex 11.6123 5 3.02179
      vertex 11.6123 0 3.02179
    endloop
  endfacet
  facet normal -0.980785 0 0.19509
    outer loop
      vertex 12.4782 7.5 3.88771
      vertex 12.6 24 4.5
      vertex 12.4782 24 3.88771
    endloop
  endfacet
  facet normal -0.980785 0 0.19509
    outer loop
      vertex 12.6 24 4.5
      vertex 12.4782 7.5 3.88771
      vertex 12.6 7.5 4.5
    endloop
  endfacet
  facet normal -0.980785 0 0.19509
    outer loop
      vertex 12.4782 0 3.88771
      vertex 12.6 5 4.5
      vertex 12.4782 5 3.88771
    endloop
  endfacet
  facet normal -0.980785 0 0.19509
    outer loop
      vertex 12.6 5 4.5
      vertex 12.4782 0 3.88771
      vertex 12.6 0 4.5
    endloop
  endfacet
  facet normal 0.980785 -0 0.19509
    outer loop
      vertex 9.4 7.5 4.5
      vertex 9.52179 24 3.88771
      vertex 9.4 24 4.5
    endloop
  endfacet
  facet normal 0.980785 0 0.19509
    outer loop
      vertex 9.52179 24 3.88771
      vertex 9.4 7.5 4.5
      vertex 9.52179 7.5 3.88771
    endloop
  endfacet
  facet normal 0.980785 -0 0.19509
    outer loop
      vertex 9.4 0 4.5
      vertex 9.52179 5 3.88771
      vertex 9.4 5 4.5
    endloop
  endfacet
  facet normal 0.980785 0 0.19509
    outer loop
      vertex 9.52179 5 3.88771
      vertex 9.4 0 4.5
      vertex 9.52179 0 3.88771
    endloop
  endfacet
  facet normal 0.980785 0 -0.19509
    outer loop
      vertex 9.52179 7.5 5.11229
      vertex 9.4 24 4.5
      vertex 9.52179 24 5.11229
    endloop
  endfacet
  facet normal 0.980785 0 -0.19509
    outer loop
      vertex 9.4 24 4.5
      vertex 9.52179 7.5 5.11229
      vertex 9.4 7.5 4.5
    endloop
  endfacet
  facet normal 0.980785 0 -0.19509
    outer loop
      vertex 9.52179 0 5.11229
      vertex 9.4 5 4.5
      vertex 9.52179 5 5.11229
    endloop
  endfacet
  facet normal 0.980785 0 -0.19509
    outer loop
      vertex 9.4 5 4.5
      vertex 9.52179 0 5.11229
      vertex 9.4 0 4.5
    endloop
  endfacet
  facet normal 0.19509 0 0.980785
    outer loop
      vertex 10.3877 24 3.02179
      vertex 11 7.5 2.9
      vertex 11 24 2.9
    endloop
  endfacet
  facet normal 0.19509 0 0.980785
    outer loop
      vertex 11 7.5 2.9
      vertex 10.3877 24 3.02179
      vertex 10.3877 7.5 3.02179
    endloop
  endfacet
  facet normal 0.19509 0 0.980785
    outer loop
      vertex 10.3877 5 3.02179
      vertex 11 0 2.9
      vertex 11 5 2.9
    endloop
  endfacet
  facet normal 0.19509 0 0.980785
    outer loop
      vertex 11 0 2.9
      vertex 10.3877 5 3.02179
      vertex 10.3877 0 3.02179
    endloop
  endfacet
  facet normal 0.55557 0 0.83147
    outer loop
      vertex 9.86863 24 3.36863
      vertex 10.3877 7.5 3.02179
      vertex 10.3877 24 3.02179
    endloop
  endfacet
  facet normal 0.55557 0 0.83147
    outer loop
      vertex 10.3877 7.5 3.02179
      vertex 9.86863 24 3.36863
      vertex 9.86863 7.5 3.36863
    endloop
  endfacet
  facet normal 0.55557 0 0.83147
    outer loop
      vertex 9.86863 5 3.36863
      vertex 10.3877 0 3.02179
      vertex 10.3877 5 3.02179
    endloop
  endfacet
  facet normal 0.55557 0 0.83147
    outer loop
      vertex 10.3877 0 3.02179
      vertex 9.86863 5 3.36863
      vertex 9.86863 0 3.36863
    endloop
  endfacet
  facet normal -0.19509 0 0.980785
    outer loop
      vertex 11 24 2.9
      vertex 11.6123 7.5 3.02179
      vertex 11.6123 24 3.02179
    endloop
  endfacet
  facet normal -0.19509 0 0.980785
    outer loop
      vertex 11.6123 7.5 3.02179
      vertex 11 24 2.9
      vertex 11 7.5 2.9
    endloop
  endfacet
  facet normal -0.19509 0 0.980785
    outer loop
      vertex 11 5 2.9
      vertex 11.6123 0 3.02179
      vertex 11.6123 5 3.02179
    endloop
  endfacet
  facet normal -0.19509 0 0.980785
    outer loop
      vertex 11.6123 0 3.02179
      vertex 11 5 2.9
      vertex 11 0 2.9
    endloop
  endfacet
  facet normal -0.980785 0 -0.19509
    outer loop
      vertex 12.6 7.5 4.5
      vertex 12.4782 24 5.11229
      vertex 12.6 24 4.5
    endloop
  endfacet
  facet normal -0.980785 -0 -0.19509
    outer loop
      vertex 12.4782 24 5.11229
      vertex 12.6 7.5 4.5
      vertex 12.4782 7.5 5.11229
    endloop
  endfacet
  facet normal -0.980785 0 -0.19509
    outer loop
      vertex 12.6 0 4.5
      vertex 12.4782 5 5.11229
      vertex 12.6 5 4.5
    endloop
  endfacet
  facet normal -0.980785 -0 -0.19509
    outer loop
      vertex 12.4782 5 5.11229
      vertex 12.6 0 4.5
      vertex 12.4782 0 5.11229
    endloop
  endfacet
  facet normal 0 -1 0
    outer loop
      vertex 10.3877 24 5.97821
      vertex 11.6123 24 5.97821
      vertex 11 24 6.1
    endloop
  endfacet
  facet normal 0 -1 0
    outer loop
      vertex 9.86863 24 5.63137
      vertex 11.6123 24 5.97821
      vertex 10.3877 24 5.97821
    endloop
  endfacet
  facet normal 0 -1 0
    outer loop
      vertex 9.86863 24 5.63137
      vertex 12.1314 24 5.63137
      vertex 11.6123 24 5.97821
    endloop
  endfacet
  facet normal 0 -1 0
    outer loop
      vertex 9.52179 24 5.11229
      vertex 12.1314 24 5.63137
      vertex 9.86863 24 5.63137
    endloop
  endfacet
  facet normal 0 -1 0
    outer loop
      vertex 9.52179 24 5.11229
      vertex 12.4782 24 5.11229
      vertex 12.1314 24 5.63137
    endloop
  endfacet
  facet normal 0 -1 0
    outer loop
      vertex 9.4 24 4.5
      vertex 12.4782 24 5.11229
      vertex 9.52179 24 5.11229
    endloop
  endfacet
  facet normal 0 -1 0
    outer loop
      vertex 9.4 24 4.5
      vertex 12.6 24 4.5
      vertex 12.4782 24 5.11229
    endloop
  endfacet
  facet normal 0 -1 0
    outer loop
      vertex 9.52179 24 3.88771
      vertex 12.6 24 4.5
      vertex 9.4 24 4.5
    endloop
  endfacet
  facet normal 0 -1 0
    outer loop
      vertex 9.52179 24 3.88771
      vertex 12.4782 24 3.88771
      vertex 12.6 24 4.5
    endloop
  endfacet
  facet normal 0 -1 0
    outer loop
      vertex 9.86863 24 3.36863
      vertex 12.4782 24 3.88771
      vertex 9.52179 24 3.88771
    endloop
  endfacet
  facet normal 0 -1 0
    outer loop
      vertex 9.86863 24 3.36863
      vertex 12.1314 24 3.36863
      vertex 12.4782 24 3.88771
    endloop
  endfacet
  facet normal 0 -1 0
    outer loop
      vertex 10.3877 24 3.02179
      vertex 12.1314 24 3.36863
      vertex 9.86863 24 3.36863
    endloop
  endfacet
  facet normal 0 -1 0
    outer loop
      vertex 10.3877 24 3.02179
      vertex 11.6123 24 3.02179
      vertex 12.1314 24 3.36863
    endloop
  endfacet
  facet normal -0 -1 0
    outer loop
      vertex 11.6123 24 3.02179
      vertex 10.3877 24 3.02179
      vertex 11 24 2.9
    endloop
  endfacet
  facet normal 0.83147 -0 0.55557
    outer loop
      vertex 9.52179 7.5 3.88771
      vertex 9.86863 24 3.36863
      vertex 9.52179 24 3.88771
    endloop
  endfacet
  facet normal 0.83147 0 0.55557
    outer loop
      vertex 9.86863 24 3.36863
      vertex 9.52179 7.5 3.88771
      vertex 9.86863 7.5 3.36863
    endloop
  endfacet
  facet normal 0.83147 -0 0.55557
    outer loop
      vertex 9.52179 0 3.88771
      vertex 9.86863 5 3.36863
      vertex 9.52179 5 3.88771
    endloop
  endfacet
  facet normal 0.83147 0 0.55557
    outer loop
      vertex 9.86863 5 3.36863
      vertex 9.52179 0 3.88771
      vertex 9.86863 0 3.36863
    endloop
  endfacet
  facet normal -0.83147 0 0.55557
    outer loop
      vertex 12.1314 7.5 3.36863
      vertex 12.4782 24 3.88771
      vertex 12.1314 24 3.36863
    endloop
  endfacet
  facet normal -0.83147 0 0.55557
    outer loop
      vertex 12.4782 24 3.88771
      vertex 12.1314 7.5 3.36863
      vertex 12.4782 7.5 3.88771
    endloop
  endfacet
  facet normal -0.83147 0 0.55557
    outer loop
      vertex 12.1314 0 3.36863
      vertex 12.4782 5 3.88771
      vertex 12.1314 5 3.36863
    endloop
  endfacet
  facet normal -0.83147 0 0.55557
    outer loop
      vertex 12.4782 5 3.88771
      vertex 12.1314 0 3.36863
      vertex 12.4782 0 3.88771
    endloop
  endfacet
  facet normal 0.83147 0 -0.55557
    outer loop
      vertex 9.86863 7.5 5.63137
      vertex 9.52179 24 5.11229
      vertex 9.86863 24 5.63137
    endloop
  endfacet
  facet normal 0.83147 0 -0.55557
    outer loop
      vertex 9.52179 24 5.11229
      vertex 9.86863 7.5 5.63137
      vertex 9.52179 7.5 5.11229
    endloop
  endfacet
  facet normal 0.83147 0 -0.55557
    outer loop
      vertex 9.86863 0 5.63137
      vertex 9.52179 5 5.11229
      vertex 9.86863 5 5.63137
    endloop
  endfacet
  facet normal 0.83147 0 -0.55557
    outer loop
      vertex 9.52179 5 5.11229
      vertex 9.86863 0 5.63137
      vertex 9.52179 0 5.11229
    endloop
  endfacet
  facet normal -0.55557 0 -0.83147
    outer loop
      vertex 11.6123 7.5 5.97821
      vertex 12.1314 24 5.63137
      vertex 12.1314 7.5 5.63137
    endloop
  endfacet
  facet normal -0.55557 0 -0.83147
    outer loop
      vertex 12.1314 24 5.63137
      vertex 11.6123 7.5 5.97821
      vertex 11.6123 24 5.97821
    endloop
  endfacet
  facet normal -0.55557 0 -0.83147
    outer loop
      vertex 11.6123 0 5.97821
      vertex 12.1314 5 5.63137
      vertex 12.1314 0 5.63137
    endloop
  endfacet
  facet normal -0.55557 0 -0.83147
    outer loop
      vertex 12.1314 5 5.63137
      vertex 11.6123 0 5.97821
      vertex 11.6123 5 5.97821
    endloop
  endfacet
  facet normal -0.83147 0 -0.55557
    outer loop
      vertex 12.4782 7.5 5.11229
      vertex 12.1314 24 5.63137
      vertex 12.4782 24 5.11229
    endloop
  endfacet
  facet normal -0.83147 -0 -0.55557
    outer loop
      vertex 12.1314 24 5.63137
      vertex 12.4782 7.5 5.11229
      vertex 12.1314 7.5 5.63137
    endloop
  endfacet
  facet normal -0.83147 0 -0.55557
    outer loop
      vertex 12.4782 0 5.11229
      vertex 12.1314 5 5.63137
      vertex 12.4782 5 5.11229
    endloop
  endfacet
  facet normal -0.83147 -0 -0.55557
    outer loop
      vertex 12.1314 5 5.63137
      vertex 12.4782 0 5.11229
      vertex 12.1314 0 5.63137
    endloop
  endfacet
  facet normal -0.19509 0 -0.980785
    outer loop
      vertex 11 7.5 6.1
      vertex 11.6123 24 5.97821
      vertex 11.6123 7.5 5.97821
    endloop
  endfacet
  facet normal -0.19509 0 -0.980785
    outer loop
      vertex 11.6123 24 5.97821
      vertex 11 7.5 6.1
      vertex 11 24 6.1
    endloop
  endfacet
  facet normal -0.19509 0 -0.980785
    outer loop
      vertex 11 0 6.1
      vertex 11.6123 5 5.97821
      vertex 11.6123 0 5.97821
    endloop
  endfacet
  facet normal -0.19509 0 -0.980785
    outer loop
      vertex 11.6123 5 5.97821
      vertex 11 0 6.1
      vertex 11 5 6.1
    endloop
  endfacet
  facet normal 0.19509 0 -0.980785
    outer loop
      vertex 10.3877 7.5 5.97821
      vertex 11 24 6.1
      vertex 11 7.5 6.1
    endloop
  endfacet
  facet normal 0.19509 0 -0.980785
    outer loop
      vertex 11 24 6.1
      vertex 10.3877 7.5 5.97821
      vertex 10.3877 24 5.97821
    endloop
  endfacet
  facet normal 0.19509 0 -0.980785
    outer loop
      vertex 10.3877 0 5.97821
      vertex 11 5 6.1
      vertex 11 0 6.1
    endloop
  endfacet
  facet normal 0.19509 0 -0.980785
    outer loop
      vertex 11 5 6.1
      vertex 10.3877 0 5.97821
      vertex 10.3877 5 5.97821
    endloop
  endfacet
  facet normal 0.55557 0 -0.83147
    outer loop
      vertex 9.86863 7.5 5.63137
      vertex 10.3877 24 5.97821
      vertex 10.3877 7.5 5.97821
    endloop
  endfacet
  facet normal 0.55557 0 -0.83147
    outer loop
      vertex 10.3877 24 5.97821
      vertex 9.86863 7.5 5.63137
      vertex 9.86863 24 5.63137
    endloop
  endfacet
  facet normal 0.55557 0 -0.83147
    outer loop
      vertex 9.86863 0 5.63137
      vertex 10.3877 5 5.97821
      vertex 10.3877 0 5.97821
    endloop
  endfacet
  facet normal 0.55557 0 -0.83147
    outer loop
      vertex 10.3877 5 5.97821
      vertex 9.86863 0 5.63137
      vertex 9.86863 5 5.63137
    endloop
  endfacet
  facet normal 0 1 0
    outer loop
      vertex 13.8579 5 9
      vertex 11 5 6.1
      vertex 8.14212 5 9
    endloop
  endfacet
  facet normal 0 1 0
    outer loop
      vertex 13.8579 5 9
      vertex 11.6123 5 5.97821
      vertex 11 5 6.1
    endloop
  endfacet
  facet normal 0 1 0
    outer loop
      vertex 13.8579 5 9
      vertex 12.1314 5 5.63137
      vertex 11.6123 5 5.97821
    endloop
  endfacet
  facet normal 0 1 0
    outer loop
      vertex 13.8579 5 9
      vertex 12.4782 5 5.11229
      vertex 12.1314 5 5.63137
    endloop
  endfacet
  facet normal 0 1 0
    outer loop
      vertex 13.8579 5 9
      vertex 12.6 5 4.5
      vertex 12.4782 5 5.11229
    endloop
  endfacet
  facet normal 0 1 -0
    outer loop
      vertex 13.8579 5 0
      vertex 12.6 5 4.5
      vertex 13.8579 5 9
    endloop
  endfacet
  facet normal 0 1 0
    outer loop
      vertex 11.6123 5 3.02179
      vertex 13.8579 5 0
      vertex 11 5 2.9
    endloop
  endfacet
  facet normal 0 1 0
    outer loop
      vertex 12.1314 5 3.36863
      vertex 13.8579 5 0
      vertex 11.6123 5 3.02179
    endloop
  endfacet
  facet normal 0 1 0
    outer loop
      vertex 12.4782 5 3.88771
      vertex 13.8579 5 0
      vertex 12.1314 5 3.36863
    endloop
  endfacet
  facet normal 0 1 0
    outer loop
      vertex 12.6 5 4.5
      vertex 13.8579 5 0
      vertex 12.4782 5 3.88771
    endloop
  endfacet
  facet normal 0 1 -0
    outer loop
      vertex 10.3877 5 5.97821
      vertex 8.14212 5 9
      vertex 11 5 6.1
    endloop
  endfacet
  facet normal 0 1 -0
    outer loop
      vertex 9.86863 5 5.63137
      vertex 8.14212 5 9
      vertex 10.3877 5 5.97821
    endloop
  endfacet
  facet normal 0 1 -0
    outer loop
      vertex 9.52179 5 5.11229
      vertex 8.14212 5 9
      vertex 9.86863 5 5.63137
    endloop
  endfacet
  facet normal 0 1 -0
    outer loop
      vertex 9.4 5 4.5
      vertex 8.14212 5 9
      vertex 9.52179 5 5.11229
    endloop
  endfacet
  facet normal 0 1 0
    outer loop
      vertex 8.14212 5 0
      vertex 9.4 5 4.5
      vertex 9.52179 5 3.88771
    endloop
  endfacet
  facet normal 0 1 0
    outer loop
      vertex 8.14212 5 0
      vertex 11 5 2.9
      vertex 13.8579 5 0
    endloop
  endfacet
  facet normal 0 1 0
    outer loop
      vertex 11 5 2.9
      vertex 8.14212 5 0
      vertex 10.3877 5 3.02179
    endloop
  endfacet
  facet normal 0 1 0
    outer loop
      vertex 9.4 5 4.5
      vertex 8.14212 5 0
      vertex 8.14212 5 9
    endloop
  endfacet
  facet normal 0 1 0
    outer loop
      vertex 9.86863 5 3.36863
      vertex 8.14212 5 0
      vertex 9.52179 5 3.88771
    endloop
  endfacet
  facet normal 0 1 0
    outer loop
      vertex 10.3877 5 3.02179
      vertex 8.14212 5 0
      vertex 9.86863 5 3.36863
    endloop
  endfacet
  facet normal 1 -0 0
    outer loop
      vertex 8.14212 5 9
      vertex 8.14212 7.5 0
      vertex 8.14212 7.5 9
    endloop
  endfacet
  facet normal 1 0 0
    outer loop
      vertex 8.14212 7.5 0
      vertex 8.14212 5 9
      vertex 8.14212 5 0
    endloop
  endfacet
  facet normal 0 -1 0
    outer loop
      vertex 8.14212 7.5 9
      vertex 11 7.5 6.1
      vertex 13.8579 7.5 9
    endloop
  endfacet
  facet normal 0 -1 0
    outer loop
      vertex 8.14212 7.5 9
      vertex 10.3877 7.5 5.97821
      vertex 11 7.5 6.1
    endloop
  endfacet
  facet normal 0 -1 0
    outer loop
      vertex 8.14212 7.5 9
      vertex 9.86863 7.5 5.63137
      vertex 10.3877 7.5 5.97821
    endloop
  endfacet
  facet normal 0 -1 0
    outer loop
      vertex 8.14212 7.5 9
      vertex 9.52179 7.5 5.11229
      vertex 9.86863 7.5 5.63137
    endloop
  endfacet
  facet normal 0 -1 0
    outer loop
      vertex 8.14212 7.5 9
      vertex 9.4 7.5 4.5
      vertex 9.52179 7.5 5.11229
    endloop
  endfacet
  facet normal 0 -1 0
    outer loop
      vertex 8.14212 7.5 0
      vertex 9.4 7.5 4.5
      vertex 8.14212 7.5 9
    endloop
  endfacet
  facet normal 0 -1 -0
    outer loop
      vertex 10.3877 7.5 3.02179
      vertex 8.14212 7.5 0
      vertex 11 7.5 2.9
    endloop
  endfacet
  facet normal 0 -1 -0
    outer loop
      vertex 9.86863 7.5 3.36863
      vertex 8.14212 7.5 0
      vertex 10.3877 7.5 3.02179
    endloop
  endfacet
  facet normal 0 -1 -0
    outer loop
      vertex 9.52179 7.5 3.88771
      vertex 8.14212 7.5 0
      vertex 9.86863 7.5 3.36863
    endloop
  endfacet
  facet normal 0 -1 -0
    outer loop
      vertex 9.4 7.5 4.5
      vertex 8.14212 7.5 0
      vertex 9.52179 7.5 3.88771
    endloop
  endfacet
  facet normal 0 -1 0
    outer loop
      vertex 11.6123 7.5 5.97821
      vertex 13.8579 7.5 9
      vertex 11 7.5 6.1
    endloop
  endfacet
  facet normal 0 -1 0
    outer loop
      vertex 12.1314 7.5 5.63137
      vertex 13.8579 7.5 9
      vertex 11.6123 7.5 5.97821
    endloop
  endfacet
  facet normal 0 -1 0
    outer loop
      vertex 12.4782 7.5 5.11229
      vertex 13.8579 7.5 9
      vertex 12.1314 7.5 5.63137
    endloop
  endfacet
  facet normal 0 -1 0
    outer loop
      vertex 12.6 7.5 4.5
      vertex 13.8579 7.5 9
      vertex 12.4782 7.5 5.11229
    endloop
  endfacet
  facet normal 0 -1 0
    outer loop
      vertex 13.8579 7.5 0
      vertex 12.6 7.5 4.5
      vertex 12.4782 7.5 3.88771
    endloop
  endfacet
  facet normal 0 -1 0
    outer loop
      vertex 13.8579 7.5 0
      vertex 11 7.5 2.9
      vertex 8.14212 7.5 0
    endloop
  endfacet
  facet normal 0 -1 0
    outer loop
      vertex 11 7.5 2.9
      vertex 13.8579 7.5 0
      vertex 11.6123 7.5 3.02179
    endloop
  endfacet
  facet normal 0 -1 0
    outer loop
      vertex 12.6 7.5 4.5
      vertex 13.8579 7.5 0
      vertex 13.8579 7.5 9
    endloop
  endfacet
  facet normal 0 -1 0
    outer loop
      vertex 12.1314 7.5 3.36863
      vertex 13.8579 7.5 0
      vertex 12.4782 7.5 3.88771
    endloop
  endfacet
  facet normal 0 -1 0
    outer loop
      vertex 11.6123 7.5 3.02179
      vertex 13.8579 7.5 0
      vertex 12.1314 7.5 3.36863
    endloop
  endfacet
  facet normal -1 0 0
    outer loop
      vertex 13.8579 5 0
      vertex 13.8579 7.5 9
      vertex 13.8579 7.5 0
    endloop
  endfacet
  facet normal -1 -0 0
    outer loop
      vertex 13.8579 7.5 9
      vertex 13.8579 5 0
      vertex 13.8579 5 9
    endloop
  endfacet
  facet normal -0.55557 0 0.83147
    outer loop
      vertex 27.6123 24 3.02179
      vertex 28.1314 7.5 3.36863
      vertex 28.1314 24 3.36863
    endloop
  endfacet
  facet normal -0.55557 0 0.83147
    outer loop
      vertex 28.1314 7.5 3.36863
      vertex 27.6123 24 3.02179
      vertex 27.6123 7.5 3.02179
    endloop
  endfacet
  facet normal -0.55557 0 0.83147
    outer loop
      vertex 27.6123 5 3.02179
      vertex 28.1314 0 3.36863
      vertex 28.1314 5 3.36863
    endloop
  endfacet
  facet normal -0.55557 0 0.83147
    outer loop
      vertex 28.1314 0 3.36863
      vertex 27.6123 5 3.02179
      vertex 27.6123 0 3.02179
    endloop
  endfacet
  facet normal -0.980786 0 0.195089
    outer loop
      vertex 28.4782 7.5 3.88771
      vertex 28.6 24 4.5
      vertex 28.4782 24 3.88771
    endloop
  endfacet
  facet normal -0.980786 0 0.195089
    outer loop
      vertex 28.6 24 4.5
      vertex 28.4782 7.5 3.88771
      vertex 28.6 7.5 4.5
    endloop
  endfacet
  facet normal -0.980786 0 0.195089
    outer loop
      vertex 28.4782 0 3.88771
      vertex 28.6 5 4.5
      vertex 28.4782 5 3.88771
    endloop
  endfacet
  facet normal -0.980786 0 0.195089
    outer loop
      vertex 28.6 5 4.5
      vertex 28.4782 0 3.88771
      vertex 28.6 0 4.5
    endloop
  endfacet
  facet normal 0.980785 -0 0.195092
    outer loop
      vertex 25.4 7.5 4.5
      vertex 25.5218 24 3.88771
      vertex 25.4 24 4.5
    endloop
  endfacet
  facet normal 0.980785 0 0.195092
    outer loop
      vertex 25.5218 24 3.88771
      vertex 25.4 7.5 4.5
      vertex 25.5218 7.5 3.88771
    endloop
  endfacet
  facet normal 0.980785 -0 0.195092
    outer loop
      vertex 25.4 0 4.5
      vertex 25.5218 5 3.88771
      vertex 25.4 5 4.5
    endloop
  endfacet
  facet normal 0.980785 0 0.195092
    outer loop
      vertex 25.5218 5 3.88771
      vertex 25.4 0 4.5
      vertex 25.5218 0 3.88771
    endloop
  endfacet
  facet normal 0.980785 0 -0.195092
    outer loop
      vertex 25.5218 7.5 5.11229
      vertex 25.4 24 4.5
      vertex 25.5218 24 5.11229
    endloop
  endfacet
  facet normal 0.980785 0 -0.195092
    outer loop
      vertex 25.4 24 4.5
      vertex 25.5218 7.5 5.11229
      vertex 25.4 7.5 4.5
    endloop
  endfacet
  facet normal 0.980785 0 -0.195092
    outer loop
      vertex 25.5218 0 5.11229
      vertex 25.4 5 4.5
      vertex 25.5218 5 5.11229
    endloop
  endfacet
  facet normal 0.980785 0 -0.195092
    outer loop
      vertex 25.4 5 4.5
      vertex 25.5218 0 5.11229
      vertex 25.4 0 4.5
    endloop
  endfacet
  facet normal 0.19509 0 0.980785
    outer loop
      vertex 26.3877 24 3.02179
      vertex 27 7.5 2.9
      vertex 27 24 2.9
    endloop
  endfacet
  facet normal 0.19509 0 0.980785
    outer loop
      vertex 27 7.5 2.9
      vertex 26.3877 24 3.02179
      vertex 26.3877 7.5 3.02179
    endloop
  endfacet
  facet normal 0.19509 0 0.980785
    outer loop
      vertex 26.3877 5 3.02179
      vertex 27 0 2.9
      vertex 27 5 2.9
    endloop
  endfacet
  facet normal 0.19509 0 0.980785
    outer loop
      vertex 27 0 2.9
      vertex 26.3877 5 3.02179
      vertex 26.3877 0 3.02179
    endloop
  endfacet
  facet normal 0.55557 0 0.83147
    outer loop
      vertex 25.8686 24 3.36863
      vertex 26.3877 7.5 3.02179
      vertex 26.3877 24 3.02179
    endloop
  endfacet
  facet normal 0.55557 0 0.83147
    outer loop
      vertex 26.3877 7.5 3.02179
      vertex 25.8686 24 3.36863
      vertex 25.8686 7.5 3.36863
    endloop
  endfacet
  facet normal 0.55557 0 0.83147
    outer loop
      vertex 25.8686 5 3.36863
      vertex 26.3877 0 3.02179
      vertex 26.3877 5 3.02179
    endloop
  endfacet
  facet normal 0.55557 0 0.83147
    outer loop
      vertex 26.3877 0 3.02179
      vertex 25.8686 5 3.36863
      vertex 25.8686 0 3.36863
    endloop
  endfacet
  facet normal -0.19509 0 0.980785
    outer loop
      vertex 27 24 2.9
      vertex 27.6123 7.5 3.02179
      vertex 27.6123 24 3.02179
    endloop
  endfacet
  facet normal -0.19509 0 0.980785
    outer loop
      vertex 27.6123 7.5 3.02179
      vertex 27 24 2.9
      vertex 27 7.5 2.9
    endloop
  endfacet
  facet normal -0.19509 0 0.980785
    outer loop
      vertex 27 5 2.9
      vertex 27.6123 0 3.02179
      vertex 27.6123 5 3.02179
    endloop
  endfacet
  facet normal -0.19509 0 0.980785
    outer loop
      vertex 27.6123 0 3.02179
      vertex 27 5 2.9
      vertex 27 0 2.9
    endloop
  endfacet
  facet normal -0.980786 0 -0.195089
    outer loop
      vertex 28.6 7.5 4.5
      vertex 28.4782 24 5.11229
      vertex 28.6 24 4.5
    endloop
  endfacet
  facet normal -0.980786 -0 -0.195089
    outer loop
      vertex 28.4782 24 5.11229
      vertex 28.6 7.5 4.5
      vertex 28.4782 7.5 5.11229
    endloop
  endfacet
  facet normal -0.980786 0 -0.195089
    outer loop
      vertex 28.6 0 4.5
      vertex 28.4782 5 5.11229
      vertex 28.6 5 4.5
    endloop
  endfacet
  facet normal -0.980786 -0 -0.195089
    outer loop
      vertex 28.4782 5 5.11229
      vertex 28.6 0 4.5
      vertex 28.4782 0 5.11229
    endloop
  endfacet
  facet normal 0 -1 0
    outer loop
      vertex 26.3877 24 5.97821
      vertex 27.6123 24 5.97821
      vertex 27 24 6.1
    endloop
  endfacet
  facet normal 0 -1 0
    outer loop
      vertex 25.8686 24 5.63137
      vertex 27.6123 24 5.97821
      vertex 26.3877 24 5.97821
    endloop
  endfacet
  facet normal 0 -1 0
    outer loop
      vertex 25.8686 24 5.63137
      vertex 28.1314 24 5.63137
      vertex 27.6123 24 5.97821
    endloop
  endfacet
  facet normal 0 -1 0
    outer loop
      vertex 25.5218 24 5.11229
      vertex 28.1314 24 5.63137
      vertex 25.8686 24 5.63137
    endloop
  endfacet
  facet normal 0 -1 0
    outer loop
      vertex 25.5218 24 5.11229
      vertex 28.4782 24 5.11229
      vertex 28.1314 24 5.63137
    endloop
  endfacet
  facet normal 0 -1 0
    outer loop
      vertex 25.4 24 4.5
      vertex 28.4782 24 5.11229
      vertex 25.5218 24 5.11229
    endloop
  endfacet
  facet normal 0 -1 0
    outer loop
      vertex 25.4 24 4.5
      vertex 28.6 24 4.5
      vertex 28.4782 24 5.11229
    endloop
  endfacet
  facet normal 0 -1 0
    outer loop
      vertex 25.5218 24 3.88771
      vertex 28.6 24 4.5
      vertex 25.4 24 4.5
    endloop
  endfacet
  facet normal 0 -1 0
    outer loop
      vertex 25.5218 24 3.88771
      vertex 28.4782 24 3.88771
      vertex 28.6 24 4.5
    endloop
  endfacet
  facet normal 0 -1 0
    outer loop
      vertex 25.8686 24 3.36863
      vertex 28.4782 24 3.88771
      vertex 25.5218 24 3.88771
    endloop
  endfacet
  facet normal 0 -1 0
    outer loop
      vertex 25.8686 24 3.36863
      vertex 28.1314 24 3.36863
      vertex 28.4782 24 3.88771
    endloop
  endfacet
  facet normal 0 -1 0
    outer loop
      vertex 26.3877 24 3.02179
      vertex 28.1314 24 3.36863
      vertex 25.8686 24 3.36863
    endloop
  endfacet
  facet normal 0 -1 0
    outer loop
      vertex 26.3877 24 3.02179
      vertex 27.6123 24 3.02179
      vertex 28.1314 24 3.36863
    endloop
  endfacet
  facet normal -0 -1 0
    outer loop
      vertex 27.6123 24 3.02179
      vertex 26.3877 24 3.02179
      vertex 27 24 2.9
    endloop
  endfacet
  facet normal 0.83147 -0 0.55557
    outer loop
      vertex 25.5218 7.5 3.88771
      vertex 25.8686 24 3.36863
      vertex 25.5218 24 3.88771
    endloop
  endfacet
  facet normal 0.83147 0 0.55557
    outer loop
      vertex 25.8686 24 3.36863
      vertex 25.5218 7.5 3.88771
      vertex 25.8686 7.5 3.36863
    endloop
  endfacet
  facet normal 0.83147 -0 0.55557
    outer loop
      vertex 25.5218 0 3.88771
      vertex 25.8686 5 3.36863
      vertex 25.5218 5 3.88771
    endloop
  endfacet
  facet normal 0.83147 0 0.55557
    outer loop
      vertex 25.8686 5 3.36863
      vertex 25.5218 0 3.88771
      vertex 25.8686 0 3.36863
    endloop
  endfacet
  facet normal -0.83147 0 0.55557
    outer loop
      vertex 28.1314 7.5 3.36863
      vertex 28.4782 24 3.88771
      vertex 28.1314 24 3.36863
    endloop
  endfacet
  facet normal -0.83147 0 0.55557
    outer loop
      vertex 28.4782 24 3.88771
      vertex 28.1314 7.5 3.36863
      vertex 28.4782 7.5 3.88771
    endloop
  endfacet
  facet normal -0.83147 0 0.55557
    outer loop
      vertex 28.1314 0 3.36863
      vertex 28.4782 5 3.88771
      vertex 28.1314 5 3.36863
    endloop
  endfacet
  facet normal -0.83147 0 0.55557
    outer loop
      vertex 28.4782 5 3.88771
      vertex 28.1314 0 3.36863
      vertex 28.4782 0 3.88771
    endloop
  endfacet
  facet normal 0.83147 0 -0.55557
    outer loop
      vertex 25.8686 7.5 5.63137
      vertex 25.5218 24 5.11229
      vertex 25.8686 24 5.63137
    endloop
  endfacet
  facet normal 0.83147 0 -0.55557
    outer loop
      vertex 25.5218 24 5.11229
      vertex 25.8686 7.5 5.63137
      vertex 25.5218 7.5 5.11229
    endloop
  endfacet
  facet normal 0.83147 0 -0.55557
    outer loop
      vertex 25.8686 0 5.63137
      vertex 25.5218 5 5.11229
      vertex 25.8686 5 5.63137
    endloop
  endfacet
  facet normal 0.83147 0 -0.55557
    outer loop
      vertex 25.5218 5 5.11229
      vertex 25.8686 0 5.63137
      vertex 25.5218 0 5.11229
    endloop
  endfacet
  facet normal -0.55557 0 -0.83147
    outer loop
      vertex 27.6123 7.5 5.97821
      vertex 28.1314 24 5.63137
      vertex 28.1314 7.5 5.63137
    endloop
  endfacet
  facet normal -0.55557 0 -0.83147
    outer loop
      vertex 28.1314 24 5.63137
      vertex 27.6123 7.5 5.97821
      vertex 27.6123 24 5.97821
    endloop
  endfacet
  facet normal -0.55557 0 -0.83147
    outer loop
      vertex 27.6123 0 5.97821
      vertex 28.1314 5 5.63137
      vertex 28.1314 0 5.63137
    endloop
  endfacet
  facet normal -0.55557 0 -0.83147
    outer loop
      vertex 28.1314 5 5.63137
      vertex 27.6123 0 5.97821
      vertex 27.6123 5 5.97821
    endloop
  endfacet
  facet normal -0.83147 0 -0.55557
    outer loop
      vertex 28.4782 7.5 5.11229
      vertex 28.1314 24 5.63137
      vertex 28.4782 24 5.11229
    endloop
  endfacet
  facet normal -0.83147 -0 -0.55557
    outer loop
      vertex 28.1314 24 5.63137
      vertex 28.4782 7.5 5.11229
      vertex 28.1314 7.5 5.63137
    endloop
  endfacet
  facet normal -0.83147 0 -0.55557
    outer loop
      vertex 28.4782 0 5.11229
      vertex 28.1314 5 5.63137
      vertex 28.4782 5 5.11229
    endloop
  endfacet
  facet normal -0.83147 -0 -0.55557
    outer loop
      vertex 28.1314 5 5.63137
      vertex 28.4782 0 5.11229
      vertex 28.1314 0 5.63137
    endloop
  endfacet
  facet normal -0.19509 0 -0.980785
    outer loop
      vertex 27 7.5 6.1
      vertex 27.6123 24 5.97821
      vertex 27.6123 7.5 5.97821
    endloop
  endfacet
  facet normal -0.19509 0 -0.980785
    outer loop
      vertex 27.6123 24 5.97821
      vertex 27 7.5 6.1
      vertex 27 24 6.1
    endloop
  endfacet
  facet normal -0.19509 0 -0.980785
    outer loop
      vertex 27 0 6.1
      vertex 27.6123 5 5.97821
      vertex 27.6123 0 5.97821
    endloop
  endfacet
  facet normal -0.19509 0 -0.980785
    outer loop
      vertex 27.6123 5 5.97821
      vertex 27 0 6.1
      vertex 27 5 6.1
    endloop
  endfacet
  facet normal 0.19509 0 -0.980785
    outer loop
      vertex 26.3877 7.5 5.97821
      vertex 27 24 6.1
      vertex 27 7.5 6.1
    endloop
  endfacet
  facet normal 0.19509 0 -0.980785
    outer loop
      vertex 27 24 6.1
      vertex 26.3877 7.5 5.97821
      vertex 26.3877 24 5.97821
    endloop
  endfacet
  facet normal 0.19509 0 -0.980785
    outer loop
      vertex 26.3877 0 5.97821
      vertex 27 5 6.1
      vertex 27 0 6.1
    endloop
  endfacet
  facet normal 0.19509 0 -0.980785
    outer loop
      vertex 27 5 6.1
      vertex 26.3877 0 5.97821
      vertex 26.3877 5 5.97821
    endloop
  endfacet
  facet normal 0.55557 0 -0.83147
    outer loop
      vertex 25.8686 7.5 5.63137
      vertex 26.3877 24 5.97821
      vertex 26.3877 7.5 5.97821
    endloop
  endfacet
  facet normal 0.55557 0 -0.83147
    outer loop
      vertex 26.3877 24 5.97821
      vertex 25.8686 7.5 5.63137
      vertex 25.8686 24 5.63137
    endloop
  endfacet
  facet normal 0.55557 0 -0.83147
    outer loop
      vertex 25.8686 0 5.63137
      vertex 26.3877 5 5.97821
      vertex 26.3877 0 5.97821
    endloop
  endfacet
  facet normal 0.55557 0 -0.83147
    outer loop
      vertex 26.3877 5 5.97821
      vertex 25.8686 0 5.63137
      vertex 25.8686 5 5.63137
    endloop
  endfacet
  facet normal 0 1 0
    outer loop
      vertex 29.8579 5 9
      vertex 27 5 6.1
      vertex 24.1421 5 9
    endloop
  endfacet
  facet normal 0 1 0
    outer loop
      vertex 29.8579 5 9
      vertex 27.6123 5 5.97821
      vertex 27 5 6.1
    endloop
  endfacet
  facet normal 0 1 0
    outer loop
      vertex 29.8579 5 9
      vertex 28.1314 5 5.63137
      vertex 27.6123 5 5.97821
    endloop
  endfacet
  facet normal 0 1 0
    outer loop
      vertex 29.8579 5 9
      vertex 28.4782 5 5.11229
      vertex 28.1314 5 5.63137
    endloop
  endfacet
  facet normal 0 1 0
    outer loop
      vertex 29.8579 5 9
      vertex 28.6 5 4.5
      vertex 28.4782 5 5.11229
    endloop
  endfacet
  facet normal 0 1 -0
    outer loop
      vertex 29.8579 5 0
      vertex 28.6 5 4.5
      vertex 29.8579 5 9
    endloop
  endfacet
  facet normal 0 1 0
    outer loop
      vertex 27.6123 5 3.02179
      vertex 29.8579 5 0
      vertex 27 5 2.9
    endloop
  endfacet
  facet normal 0 1 0
    outer loop
      vertex 28.1314 5 3.36863
      vertex 29.8579 5 0
      vertex 27.6123 5 3.02179
    endloop
  endfacet
  facet normal 0 1 0
    outer loop
      vertex 28.4782 5 3.88771
      vertex 29.8579 5 0
      vertex 28.1314 5 3.36863
    endloop
  endfacet
  facet normal 0 1 0
    outer loop
      vertex 28.6 5 4.5
      vertex 29.8579 5 0
      vertex 28.4782 5 3.88771
    endloop
  endfacet
  facet normal 0 1 -0
    outer loop
      vertex 26.3877 5 5.97821
      vertex 24.1421 5 9
      vertex 27 5 6.1
    endloop
  endfacet
  facet normal 0 1 -0
    outer loop
      vertex 25.8686 5 5.63137
      vertex 24.1421 5 9
      vertex 26.3877 5 5.97821
    endloop
  endfacet
  facet normal 0 1 -0
    outer loop
      vertex 25.5218 5 5.11229
      vertex 24.1421 5 9
      vertex 25.8686 5 5.63137
    endloop
  endfacet
  facet normal 0 1 -0
    outer loop
      vertex 25.4 5 4.5
      vertex 24.1421 5 9
      vertex 25.5218 5 5.11229
    endloop
  endfacet
  facet normal 0 1 0
    outer loop
      vertex 24.1421 5 0
      vertex 25.4 5 4.5
      vertex 25.5218 5 3.88771
    endloop
  endfacet
  facet normal 0 1 0
    outer loop
      vertex 24.1421 5 0
      vertex 27 5 2.9
      vertex 29.8579 5 0
    endloop
  endfacet
  facet normal 0 1 0
    outer loop
      vertex 27 5 2.9
      vertex 24.1421 5 0
      vertex 26.3877 5 3.02179
    endloop
  endfacet
  facet normal 0 1 0
    outer loop
      vertex 25.4 5 4.5
      vertex 24.1421 5 0
      vertex 24.1421 5 9
    endloop
  endfacet
  facet normal 0 1 0
    outer loop
      vertex 25.8686 5 3.36863
      vertex 24.1421 5 0
      vertex 25.5218 5 3.88771
    endloop
  endfacet
  facet normal 0 1 0
    outer loop
      vertex 26.3877 5 3.02179
      vertex 24.1421 5 0
      vertex 25.8686 5 3.36863
    endloop
  endfacet
  facet normal -1 0 0
    outer loop
      vertex 29.8579 5 0
      vertex 29.8579 7.5 9
      vertex 29.8579 7.5 0
    endloop
  endfacet
  facet normal -1 -0 0
    outer loop
      vertex 29.8579 7.5 9
      vertex 29.8579 5 0
      vertex 29.8579 5 9
    endloop
  endfacet
  facet normal 1 -0 0
    outer loop
      vertex 24.1421 5 9
      vertex 24.1421 7.5 0
      vertex 24.1421 7.5 9
    endloop
  endfacet
  facet normal 1 0 0
    outer loop
      vertex 24.1421 7.5 0
      vertex 24.1421 5 9
      vertex 24.1421 5 0
    endloop
  endfacet
  facet normal 0 -1 0
    outer loop
      vertex 24.1421 7.5 9
      vertex 27 7.5 6.1
      vertex 29.8579 7.5 9
    endloop
  endfacet
  facet normal 0 -1 0
    outer loop
      vertex 24.1421 7.5 9
      vertex 26.3877 7.5 5.97821
      vertex 27 7.5 6.1
    endloop
  endfacet
  facet normal 0 -1 0
    outer loop
      vertex 24.1421 7.5 9
      vertex 25.8686 7.5 5.63137
      vertex 26.3877 7.5 5.97821
    endloop
  endfacet
  facet normal 0 -1 0
    outer loop
      vertex 24.1421 7.5 9
      vertex 25.5218 7.5 5.11229
      vertex 25.8686 7.5 5.63137
    endloop
  endfacet
  facet normal 0 -1 0
    outer loop
      vertex 24.1421 7.5 9
      vertex 25.4 7.5 4.5
      vertex 25.5218 7.5 5.11229
    endloop
  endfacet
  facet normal 0 -1 0
    outer loop
      vertex 24.1421 7.5 0
      vertex 25.4 7.5 4.5
      vertex 24.1421 7.5 9
    endloop
  endfacet
  facet normal 0 -1 -0
    outer loop
      vertex 26.3877 7.5 3.02179
      vertex 24.1421 7.5 0
      vertex 27 7.5 2.9
    endloop
  endfacet
  facet normal 0 -1 -0
    outer loop
      vertex 25.8686 7.5 3.36863
      vertex 24.1421 7.5 0
      vertex 26.3877 7.5 3.02179
    endloop
  endfacet
  facet normal 0 -1 -0
    outer loop
      vertex 25.5218 7.5 3.88771
      vertex 24.1421 7.5 0
      vertex 25.8686 7.5 3.36863
    endloop
  endfacet
  facet normal 0 -1 -0
    outer loop
      vertex 25.4 7.5 4.5
      vertex 24.1421 7.5 0
      vertex 25.5218 7.5 3.88771
    endloop
  endfacet
  facet normal 0 -1 0
    outer loop
      vertex 27.6123 7.5 5.97821
      vertex 29.8579 7.5 9
      vertex 27 7.5 6.1
    endloop
  endfacet
  facet normal 0 -1 0
    outer loop
      vertex 28.1314 7.5 5.63137
      vertex 29.8579 7.5 9
      vertex 27.6123 7.5 5.97821
    endloop
  endfacet
  facet normal 0 -1 0
    outer loop
      vertex 28.4782 7.5 5.11229
      vertex 29.8579 7.5 9
      vertex 28.1314 7.5 5.63137
    endloop
  endfacet
  facet normal 0 -1 0
    outer loop
      vertex 28.6 7.5 4.5
      vertex 29.8579 7.5 9
      vertex 28.4782 7.5 5.11229
    endloop
  endfacet
  facet normal 0 -1 0
    outer loop
      vertex 29.8579 7.5 0
      vertex 28.6 7.5 4.5
      vertex 28.4782 7.5 3.88771
    endloop
  endfacet
  facet normal 0 -1 0
    outer loop
      vertex 29.8579 7.5 0
      vertex 27 7.5 2.9
      vertex 24.1421 7.5 0
    endloop
  endfacet
  facet normal 0 -1 0
    outer loop
      vertex 27 7.5 2.9
      vertex 29.8579 7.5 0
      vertex 27.6123 7.5 3.02179
    endloop
  endfacet
  facet normal 0 -1 0
    outer loop
      vertex 28.6 7.5 4.5
      vertex 29.8579 7.5 0
      vertex 29.8579 7.5 9
    endloop
  endfacet
  facet normal 0 -1 0
    outer loop
      vertex 28.1314 7.5 3.36863
      vertex 29.8579 7.5 0
      vertex 28.4782 7.5 3.88771
    endloop
  endfacet
  facet normal 0 -1 0
    outer loop
      vertex 27.6123 7.5 3.02179
      vertex 29.8579 7.5 0
      vertex 28.1314 7.5 3.36863
    endloop
  endfacet
  facet normal -1 0 0
    outer loop
      vertex 0 0 0
      vertex 0 51 9
      vertex 0 51 0
    endloop
  endfacet
  facet normal -1 -0 0
    outer loop
      vertex 0 51 9
      vertex 0 0 0
      vertex 0 0 9
    endloop
  endfacet
  facet normal 0 0 1
    outer loop
      vertex 38 51 9
      vertex 29.8579 7.5 9
      vertex 38 0 9
    endloop
  endfacet
  facet normal 0 0 1
    outer loop
      vertex 38 51 9
      vertex 24.1421 7.5 9
      vertex 29.8579 7.5 9
    endloop
  endfacet
  facet normal 0 0 1
    outer loop
      vertex 24.1421 7.5 9
      vertex 13.8579 7.5 9
      vertex 24.1421 5 9
    endloop
  endfacet
  facet normal 0 0 1
    outer loop
      vertex 38 51 9
      vertex 13.8579 7.5 9
      vertex 24.1421 7.5 9
    endloop
  endfacet
  facet normal -0 0 1
    outer loop
      vertex 0 51 9
      vertex 13.8579 7.5 9
      vertex 38 51 9
    endloop
  endfacet
  facet normal 0 0 1
    outer loop
      vertex 0 0 9
      vertex 8.14212 7.5 9
      vertex 0 51 9
    endloop
  endfacet
  facet normal 0 0 1
    outer loop
      vertex 13.8579 7.5 9
      vertex 0 51 9
      vertex 8.14212 7.5 9
    endloop
  endfacet
  facet normal -0 0 1
    outer loop
      vertex 29.8579 5 9
      vertex 38 0 9
      vertex 29.8579 7.5 9
    endloop
  endfacet
  facet normal -0 0 1
    outer loop
      vertex 24.1421 5 9
      vertex 38 0 9
      vertex 29.8579 5 9
    endloop
  endfacet
  facet normal 0 0 1
    outer loop
      vertex 13.8579 5 9
      vertex 24.1421 5 9
      vertex 13.8579 7.5 9
    endloop
  endfacet
  facet normal 0 0 1
    outer loop
      vertex 24.1421 5 9
      vertex 13.8579 5 9
      vertex 38 0 9
    endloop
  endfacet
  facet normal 0 0 1
    outer loop
      vertex 0 0 9
      vertex 13.8579 5 9
      vertex 8.14212 5 9
    endloop
  endfacet
  facet normal 0 0 1
    outer loop
      vertex 13.8579 5 9
      vertex 0 0 9
      vertex 38 0 9
    endloop
  endfacet
  facet normal 0 0 1
    outer loop
      vertex 8.14212 7.5 9
      vertex 0 0 9
      vertex 8.14212 5 9
    endloop
  endfacet
  facet normal 1 -0 0
    outer loop
      vertex 38 0 9
      vertex 38 51 0
      vertex 38 51 9
    endloop
  endfacet
  facet normal 1 0 0
    outer loop
      vertex 38 51 0
      vertex 38 0 9
      vertex 38 0 0
    endloop
  endfacet
  facet normal 0 0 -1
    outer loop
      vertex 29.8579 7.5 0
      vertex 38 0 0
      vertex 29.8579 5 0
    endloop
  endfacet
  facet normal 0 0 -1
    outer loop
      vertex 38 0 0
      vertex 24.1421 5 0
      vertex 29.8579 5 0
    endloop
  endfacet
  facet normal 0 0 -1
    outer loop
      vertex 24.1421 5 0
      vertex 13.8579 5 0
      vertex 24.1421 7.5 0
    endloop
  endfacet
  facet normal 0 0 -1
    outer loop
      vertex 38 0 0
      vertex 13.8579 5 0
      vertex 24.1421 5 0
    endloop
  endfacet
  facet normal 0 0 -1
    outer loop
      vertex 0 0 0
      vertex 13.8579 5 0
      vertex 38 0 0
    endloop
  endfacet
  facet normal -0 0 -1
    outer loop
      vertex 8.14212 5 0
      vertex 0 0 0
      vertex 8.14212 7.5 0
    endloop
  endfacet
  facet normal -0 0 -1
    outer loop
      vertex 13.8579 5 0
      vertex 0 0 0
      vertex 8.14212 5 0
    endloop
  endfacet
  facet normal 0 0 -1
    outer loop
      vertex 38 0 0
      vertex 29.8579 7.5 0
      vertex 38 51 0
    endloop
  endfacet
  facet normal 0 0 -1
    outer loop
      vertex 24.1421 7.5 0
      vertex 38 51 0
      vertex 29.8579 7.5 0
    endloop
  endfacet
  facet normal 0 0 -1
    outer loop
      vertex 13.8579 7.5 0
      vertex 24.1421 7.5 0
      vertex 13.8579 5 0
    endloop
  endfacet
  facet normal 0 0 -1
    outer loop
      vertex 24.1421 7.5 0
      vertex 13.8579 7.5 0
      vertex 38 51 0
    endloop
  endfacet
  facet normal 0 0 -1
    outer loop
      vertex 0 51 0
      vertex 13.8579 7.5 0
      vertex 8.14212 7.5 0
    endloop
  endfacet
  facet normal 0 0 -1
    outer loop
      vertex 0 51 0
      vertex 8.14212 7.5 0
      vertex 0 0 0
    endloop
  endfacet
  facet normal 0 0 -1
    outer loop
      vertex 13.8579 7.5 0
      vertex 0 51 0
      vertex 38 51 0
    endloop
  endfacet
  facet normal 0 -1 0
    outer loop
      vertex 11.6123 0 5.97821
      vertex 27 0 6.1
      vertex 11 0 6.1
    endloop
  endfacet
  facet normal 0 -1 0
    outer loop
      vertex 11.6123 0 5.97821
      vertex 26.3877 0 5.97821
      vertex 27 0 6.1
    endloop
  endfacet
  facet normal 0 -1 0
    outer loop
      vertex 12.1314 0 5.63137
      vertex 26.3877 0 5.97821
      vertex 11.6123 0 5.97821
    endloop
  endfacet
  facet normal 0 -1 0
    outer loop
      vertex 12.1314 0 5.63137
      vertex 25.8686 0 5.63137
      vertex 26.3877 0 5.97821
    endloop
  endfacet
  facet normal 0 -1 0
    outer loop
      vertex 12.4782 0 5.11229
      vertex 25.8686 0 5.63137
      vertex 12.1314 0 5.63137
    endloop
  endfacet
  facet normal 0 -1 0
    outer loop
      vertex 12.4782 0 5.11229
      vertex 25.5218 0 5.11229
      vertex 25.8686 0 5.63137
    endloop
  endfacet
  facet normal 0 -1 0
    outer loop
      vertex 12.6 0 4.5
      vertex 25.5218 0 5.11229
      vertex 12.4782 0 5.11229
    endloop
  endfacet
  facet normal 0 -1 0
    outer loop
      vertex 12.6 0 4.5
      vertex 25.4 0 4.5
      vertex 25.5218 0 5.11229
    endloop
  endfacet
  facet normal 0 -1 0
    outer loop
      vertex 12.4782 0 3.88771
      vertex 25.4 0 4.5
      vertex 12.6 0 4.5
    endloop
  endfacet
  facet normal 0 -1 0
    outer loop
      vertex 12.4782 0 3.88771
      vertex 25.5218 0 3.88771
      vertex 25.4 0 4.5
    endloop
  endfacet
  facet normal 0 -1 0
    outer loop
      vertex 12.1314 0 3.36863
      vertex 25.5218 0 3.88771
      vertex 12.4782 0 3.88771
    endloop
  endfacet
  facet normal 0 -1 0
    outer loop
      vertex 12.1314 0 3.36863
      vertex 25.8686 0 3.36863
      vertex 25.5218 0 3.88771
    endloop
  endfacet
  facet normal 0 -1 0
    outer loop
      vertex 11.6123 0 3.02179
      vertex 25.8686 0 3.36863
      vertex 12.1314 0 3.36863
    endloop
  endfacet
  facet normal 0 -1 0
    outer loop
      vertex 11.6123 0 3.02179
      vertex 26.3877 0 3.02179
      vertex 25.8686 0 3.36863
    endloop
  endfacet
  facet normal 0 -1 0
    outer loop
      vertex 11 0 2.9
      vertex 26.3877 0 3.02179
      vertex 11.6123 0 3.02179
    endloop
  endfacet
  facet normal 0 -1 -0
    outer loop
      vertex 26.3877 0 3.02179
      vertex 11 0 2.9
      vertex 27 0 2.9
    endloop
  endfacet
  facet normal 0 -1 0
    outer loop
      vertex 0 0 9
      vertex 11 0 6.1
      vertex 38 0 9
    endloop
  endfacet
  facet normal 0 -1 0
    outer loop
      vertex 0 0 9
      vertex 10.3877 0 5.97821
      vertex 11 0 6.1
    endloop
  endfacet
  facet normal 0 -1 0
    outer loop
      vertex 0 0 9
      vertex 9.86863 0 5.63137
      vertex 10.3877 0 5.97821
    endloop
  endfacet
  facet normal 0 -1 0
    outer loop
      vertex 0 0 9
      vertex 9.52179 0 5.11229
      vertex 9.86863 0 5.63137
    endloop
  endfacet
  facet normal 0 -1 0
    outer loop
      vertex 0 0 9
      vertex 9.4 0 4.5
      vertex 9.52179 0 5.11229
    endloop
  endfacet
  facet normal 0 -1 0
    outer loop
      vertex 0 0 0
      vertex 9.4 0 4.5
      vertex 0 0 9
    endloop
  endfacet
  facet normal 0 -1 -0
    outer loop
      vertex 9.4 0 4.5
      vertex 0 0 0
      vertex 9.52179 0 3.88771
    endloop
  endfacet
  facet normal 0 -1 -0
    outer loop
      vertex 9.52179 0 3.88771
      vertex 0 0 0
      vertex 9.86863 0 3.36863
    endloop
  endfacet
  facet normal 0 -1 -0
    outer loop
      vertex 11 0 2.9
      vertex 0 0 0
      vertex 27 0 2.9
    endloop
  endfacet
  facet normal 0 -1 -0
    outer loop
      vertex 10.3877 0 3.02179
      vertex 0 0 0
      vertex 11 0 2.9
    endloop
  endfacet
  facet normal 0 -1 -0
    outer loop
      vertex 9.86863 0 3.36863
      vertex 0 0 0
      vertex 10.3877 0 3.02179
    endloop
  endfacet
  facet normal 0 -1 0
    outer loop
      vertex 27 0 6.1
      vertex 38 0 9
      vertex 11 0 6.1
    endloop
  endfacet
  facet normal 0 -1 0
    outer loop
      vertex 27.6123 0 5.97821
      vertex 38 0 9
      vertex 27 0 6.1
    endloop
  endfacet
  facet normal 0 -1 0
    outer loop
      vertex 28.1314 0 5.63137
      vertex 38 0 9
      vertex 27.6123 0 5.97821
    endloop
  endfacet
  facet normal 0 -1 0
    outer loop
      vertex 28.4782 0 5.11229
      vertex 38 0 9
      vertex 28.1314 0 5.63137
    endloop
  endfacet
  facet normal 0 -1 0
    outer loop
      vertex 28.6 0 4.5
      vertex 38 0 9
      vertex 28.4782 0 5.11229
    endloop
  endfacet
  facet normal 0 -1 0
    outer loop
      vertex 38 0 0
      vertex 28.6 0 4.5
      vertex 28.4782 0 3.88771
    endloop
  endfacet
  facet normal 0 -1 0
    outer loop
      vertex 38 0 0
      vertex 28.4782 0 3.88771
      vertex 28.1314 0 3.36863
    endloop
  endfacet
  facet normal 0 -1 0
    outer loop
      vertex 38 0 0
      vertex 28.1314 0 3.36863
      vertex 27.6123 0 3.02179
    endloop
  endfacet
  facet normal 0 -1 0
    outer loop
      vertex 28.6 0 4.5
      vertex 38 0 0
      vertex 38 0 9
    endloop
  endfacet
  facet normal 0 -1 0
    outer loop
      vertex 27 0 2.9
      vertex 38 0 0
      vertex 27.6123 0 3.02179
    endloop
  endfacet
  facet normal 0 -1 0
    outer loop
      vertex 38 0 0
      vertex 27 0 2.9
      vertex 0 0 0
    endloop
  endfacet
  facet normal 0 1 -0
    outer loop
      vertex 38 51 0
      vertex 0 51 9
      vertex 38 51 9
    endloop
  endfacet
  facet normal 0 1 0
    outer loop
      vertex 0 51 9
      vertex 38 51 0
      vertex 0 51 0
    endloop
  endfacet
endsolid OpenSCAD_Model
