solid OpenSCAD_Model
  facet normal -1 0 0
    outer loop
      vertex -31.5 9.5 2
      vertex -31.5 24 15
      vertex -31.5 24 -1
    endloop
  endfacet
  facet normal -1 -0 0
    outer loop
      vertex -31.5 24 15
      vertex -31.5 9.5 2
      vertex -31.5 11.5 15
    endloop
  endfacet
  facet normal -1 0 0
    outer loop
      vertex -31.5 0 -1
      vertex -31.5 9.5 2
      vertex -31.5 24 -1
    endloop
  endfacet
  facet normal -1 0 0
    outer loop
      vertex -31.5 8.5 2
      vertex -31.5 6.5 3
      vertex -31.5 8.5 3
    endloop
  endfacet
  facet normal -1 0 0
    outer loop
      vertex -31.5 0 15
      vertex -31.5 6.5 14
      vertex -31.5 6.5 3
    endloop
  endfacet
  facet normal -1 -0 0
    outer loop
      vertex -31.5 9.5 2
      vertex -31.5 0 -1
      vertex -31.5 8.5 2
    endloop
  endfacet
  facet normal -1 0 0
    outer loop
      vertex -31.5 0 -1
      vertex -31.5 6.5 3
      vertex -31.5 8.5 2
    endloop
  endfacet
  facet normal -1 0 0
    outer loop
      vertex -31.5 0 15
      vertex -31.5 6.5 3
      vertex -31.5 0 -1
    endloop
  endfacet
  facet normal -1 0 0
    outer loop
      vertex -31.5 6.5 14
      vertex -31.5 0 15
      vertex -31.5 5.5 15
    endloop
  endfacet
  facet normal -1 0 0
    outer loop
      vertex -31.5 11.5 15
      vertex -31.5 9.5 2
      vertex -31.5 9.5 13
    endloop
  endfacet
  facet normal 0 0 1
    outer loop
      vertex 0 28 15
      vertex -8.5 24 15
      vertex 0 24 15
    endloop
  endfacet
  facet normal 0 0 1
    outer loop
      vertex -8.5 24 15
      vertex -31.5 24 15
      vertex -8.5 11.5 15
    endloop
  endfacet
  facet normal 0 0 1
    outer loop
      vertex 0 28 15
      vertex -31.5 24 15
      vertex -8.5 24 15
    endloop
  endfacet
  facet normal -0 0 1
    outer loop
      vertex -40 28 15
      vertex -31.5 24 15
      vertex 0 28 15
    endloop
  endfacet
  facet normal 0 0 1
    outer loop
      vertex -31.5 24 15
      vertex -40 28 15
      vertex -40 24 15
    endloop
  endfacet
  facet normal 0 0 1
    outer loop
      vertex -8.5 11.5 15
      vertex -31.5 24 15
      vertex -31.5 11.5 15
    endloop
  endfacet
  facet normal -0 0 1
    outer loop
      vertex -31.5 5.5 15
      vertex -22 0 15
      vertex -22 5.5 15
    endloop
  endfacet
  facet normal 0 0 1
    outer loop
      vertex -22 0 15
      vertex -31.5 5.5 15
      vertex -31.5 0 15
    endloop
  endfacet
  facet normal -0 0 1
    outer loop
      vertex -18 5.5 15
      vertex -8.5 0 15
      vertex -8.5 5.5 15
    endloop
  endfacet
  facet normal 0 0 1
    outer loop
      vertex -8.5 0 15
      vertex -18 5.5 15
      vertex -18 0 15
    endloop
  endfacet
  facet normal 1 -0 0
    outer loop
      vertex -8.5 0 15
      vertex -8.5 8.5 12
      vertex -8.5 5.5 15
    endloop
  endfacet
  facet normal 1 0 0
    outer loop
      vertex -8.5 9.5 2
      vertex -8.5 24 15
      vertex -8.5 11.5 15
    endloop
  endfacet
  facet normal 1 0 0
    outer loop
      vertex -8.5 9.5 2
      vertex -8.5 11.5 15
      vertex -8.5 9.5 13
    endloop
  endfacet
  facet normal 1 0 0
    outer loop
      vertex -8.5 24 15
      vertex -8.5 9.5 2
      vertex -8.5 24 -1
    endloop
  endfacet
  facet normal 1 0 0
    outer loop
      vertex -8.5 0 -1
      vertex -8.5 9.5 2
      vertex -8.5 8.5 2
    endloop
  endfacet
  facet normal 1 0 0
    outer loop
      vertex -8.5 8.5 12
      vertex -8.5 0 15
      vertex -8.5 8.5 2
    endloop
  endfacet
  facet normal 1 0 0
    outer loop
      vertex -8.5 9.5 2
      vertex -8.5 0 -1
      vertex -8.5 24 -1
    endloop
  endfacet
  facet normal 1 0 0
    outer loop
      vertex -8.5 0 -1
      vertex -8.5 8.5 2
      vertex -8.5 0 15
    endloop
  endfacet
  facet normal 0 0 -1
    outer loop
      vertex -8.5 0 -1
      vertex -31.5 0 -1
      vertex -8.5 24 -1
    endloop
  endfacet
  facet normal 0 0 -1
    outer loop
      vertex -8.5 24 -1
      vertex 0 28 -1
      vertex 0 24 -1
    endloop
  endfacet
  facet normal 0 0 -1
    outer loop
      vertex -31.5 24 -1
      vertex -8.5 24 -1
      vertex -31.5 0 -1
    endloop
  endfacet
  facet normal 0 0 -1
    outer loop
      vertex -31.5 24 -1
      vertex 0 28 -1
      vertex -8.5 24 -1
    endloop
  endfacet
  facet normal 0 0 -1
    outer loop
      vertex -40 28 -1
      vertex -31.5 24 -1
      vertex -40 24 -1
    endloop
  endfacet
  facet normal 0 0 -1
    outer loop
      vertex -31.5 24 -1
      vertex -40 28 -1
      vertex 0 28 -1
    endloop
  endfacet
  facet normal 0 -1 0
    outer loop
      vertex -31.5 0 15
      vertex -22 0 3
      vertex -22 0 15
    endloop
  endfacet
  facet normal 0 -1 -0
    outer loop
      vertex -22 0 3
      vertex -31.5 0 -1
      vertex -18 0 3
    endloop
  endfacet
  facet normal 0 -1 0
    outer loop
      vertex -31.5 0 -1
      vertex -22 0 3
      vertex -31.5 0 15
    endloop
  endfacet
  facet normal 0 -1 0
    outer loop
      vertex -18 0 3
      vertex -8.5 0 15
      vertex -18 0 15
    endloop
  endfacet
  facet normal 0 -1 0
    outer loop
      vertex -18 0 3
      vertex -8.5 0 -1
      vertex -8.5 0 15
    endloop
  endfacet
  facet normal 0 -1 0
    outer loop
      vertex -8.5 0 -1
      vertex -18 0 3
      vertex -31.5 0 -1
    endloop
  endfacet
  facet normal 0 1 -0
    outer loop
      vertex -34.1247 28 8.49923
      vertex -40 28 15
      vertex -5.87533 28 8.49923
    endloop
  endfacet
  facet normal 0 1 0
    outer loop
      vertex -40 28 15
      vertex -34.1247 28 8.49923
      vertex -34.9747 28 9.1168
    endloop
  endfacet
  facet normal 0 1 -0
    outer loop
      vertex -6.2 28 7.5
      vertex -34.1247 28 8.49923
      vertex -5.87533 28 8.49923
    endloop
  endfacet
  facet normal 0 1 0
    outer loop
      vertex -6.2 28 7.5
      vertex -33.8 28 7.5
      vertex -34.1247 28 8.49923
    endloop
  endfacet
  facet normal 0 1 0
    outer loop
      vertex -5.87533 28 6.50076
      vertex -33.8 28 7.5
      vertex -6.2 28 7.5
    endloop
  endfacet
  facet normal 0 1 0
    outer loop
      vertex -5.87533 28 6.50076
      vertex -34.1247 28 6.50076
      vertex -33.8 28 7.5
    endloop
  endfacet
  facet normal 0 1 0
    outer loop
      vertex 0 28 -1
      vertex -5.87533 28 6.50076
      vertex -5.02533 28 5.8832
    endloop
  endfacet
  facet normal 0 1 0
    outer loop
      vertex -5.87533 28 6.50076
      vertex 0 28 -1
      vertex -34.1247 28 6.50076
    endloop
  endfacet
  facet normal 0 1 0
    outer loop
      vertex -5.02533 28 9.1168
      vertex 0 28 15
      vertex -3.97467 28 9.1168
    endloop
  endfacet
  facet normal 0 1 0
    outer loop
      vertex 0 28 15
      vertex -3.12467 28 8.49923
      vertex -3.97467 28 9.1168
    endloop
  endfacet
  facet normal 0 1 0
    outer loop
      vertex 0 28 15
      vertex -2.8 28 7.5
      vertex -3.12467 28 8.49923
    endloop
  endfacet
  facet normal 0 1 -0
    outer loop
      vertex 0 28 -1
      vertex -2.8 28 7.5
      vertex 0 28 15
    endloop
  endfacet
  facet normal 0 1 0
    outer loop
      vertex 0 28 -1
      vertex -5.02533 28 5.8832
      vertex -3.97467 28 5.8832
    endloop
  endfacet
  facet normal 0 1 0
    outer loop
      vertex -40 28 -1
      vertex -34.1247 28 6.50076
      vertex 0 28 -1
    endloop
  endfacet
  facet normal 0 1 0
    outer loop
      vertex -34.1247 28 6.50076
      vertex -40 28 -1
      vertex -34.9747 28 5.8832
    endloop
  endfacet
  facet normal 0 1 0
    outer loop
      vertex -3.12467 28 6.50076
      vertex 0 28 -1
      vertex -3.97467 28 5.8832
    endloop
  endfacet
  facet normal 0 1 0
    outer loop
      vertex -2.8 28 7.5
      vertex 0 28 -1
      vertex -3.12467 28 6.50076
    endloop
  endfacet
  facet normal 0 1 0
    outer loop
      vertex -5.87533 28 8.49923
      vertex 0 28 15
      vertex -5.02533 28 9.1168
    endloop
  endfacet
  facet normal 0 1 0
    outer loop
      vertex 0 28 15
      vertex -5.87533 28 8.49923
      vertex -40 28 15
    endloop
  endfacet
  facet normal 0 1 -0
    outer loop
      vertex -36.0253 28 9.1168
      vertex -40 28 15
      vertex -34.9747 28 9.1168
    endloop
  endfacet
  facet normal 0 1 -0
    outer loop
      vertex -36.8753 28 8.49923
      vertex -40 28 15
      vertex -36.0253 28 9.1168
    endloop
  endfacet
  facet normal 0 1 -0
    outer loop
      vertex -37.2 28 7.5
      vertex -40 28 15
      vertex -36.8753 28 8.49923
    endloop
  endfacet
  facet normal 0 1 0
    outer loop
      vertex -40 28 -1
      vertex -37.2 28 7.5
      vertex -36.8753 28 6.50076
    endloop
  endfacet
  facet normal 0 1 0
    outer loop
      vertex -37.2 28 7.5
      vertex -40 28 -1
      vertex -40 28 15
    endloop
  endfacet
  facet normal 0 1 0
    outer loop
      vertex -36.0253 28 5.8832
      vertex -40 28 -1
      vertex -36.8753 28 6.50076
    endloop
  endfacet
  facet normal 0 1 0
    outer loop
      vertex -34.9747 28 5.8832
      vertex -40 28 -1
      vertex -36.0253 28 5.8832
    endloop
  endfacet
  facet normal -1 0 0
    outer loop
      vertex -40 24 -1
      vertex -40 28 15
      vertex -40 28 -1
    endloop
  endfacet
  facet normal -1 -0 0
    outer loop
      vertex -40 28 15
      vertex -40 24 -1
      vertex -40 24 15
    endloop
  endfacet
  facet normal 1 -0 0
    outer loop
      vertex 0 24 15
      vertex 0 28 -1
      vertex 0 28 15
    endloop
  endfacet
  facet normal 1 0 0
    outer loop
      vertex 0 28 -1
      vertex 0 24 15
      vertex 0 24 -1
    endloop
  endfacet
  facet normal 0 -1 0
    outer loop
      vertex -40 24 15
      vertex -36.0253 24 9.1168
      vertex -31.5 24 15
    endloop
  endfacet
  facet normal 0 -1 0
    outer loop
      vertex -40 24 15
      vertex -36.8753 24 8.49923
      vertex -36.0253 24 9.1168
    endloop
  endfacet
  facet normal 0 -1 0
    outer loop
      vertex -40 24 15
      vertex -37.2 24 7.5
      vertex -36.8753 24 8.49923
    endloop
  endfacet
  facet normal 0 -1 0
    outer loop
      vertex -40 24 -1
      vertex -37.2 24 7.5
      vertex -40 24 15
    endloop
  endfacet
  facet normal 0 -1 0
    outer loop
      vertex -31.5 24 -1
      vertex -36.0253 24 5.8832
      vertex -40 24 -1
    endloop
  endfacet
  facet normal 0 -1 -0
    outer loop
      vertex -36.8753 24 6.50076
      vertex -40 24 -1
      vertex -36.0253 24 5.8832
    endloop
  endfacet
  facet normal 0 -1 -0
    outer loop
      vertex -37.2 24 7.5
      vertex -40 24 -1
      vertex -36.8753 24 6.50076
    endloop
  endfacet
  facet normal 0 -1 0
    outer loop
      vertex -34.9747 24 9.1168
      vertex -31.5 24 15
      vertex -36.0253 24 9.1168
    endloop
  endfacet
  facet normal 0 -1 0
    outer loop
      vertex -34.1247 24 8.49923
      vertex -31.5 24 15
      vertex -34.9747 24 9.1168
    endloop
  endfacet
  facet normal 0 -1 0
    outer loop
      vertex -33.8 24 7.5
      vertex -31.5 24 15
      vertex -34.1247 24 8.49923
    endloop
  endfacet
  facet normal 0 -1 0
    outer loop
      vertex -36.0253 24 5.8832
      vertex -31.5 24 -1
      vertex -34.9747 24 5.8832
    endloop
  endfacet
  facet normal 0 -1 0
    outer loop
      vertex -33.8 24 7.5
      vertex -31.5 24 -1
      vertex -31.5 24 15
    endloop
  endfacet
  facet normal 0 -1 0
    outer loop
      vertex -34.1247 24 6.50076
      vertex -31.5 24 -1
      vertex -33.8 24 7.5
    endloop
  endfacet
  facet normal 0 -1 0
    outer loop
      vertex -34.9747 24 5.8832
      vertex -31.5 24 -1
      vertex -34.1247 24 6.50076
    endloop
  endfacet
  facet normal 0 -1 0
    outer loop
      vertex -3.97467 24 9.1168
      vertex -8.5 24 15
      vertex -5.02533 24 9.1168
    endloop
  endfacet
  facet normal 0 -1 0
    outer loop
      vertex -8.5 24 15
      vertex -5.87533 24 8.49923
      vertex -5.02533 24 9.1168
    endloop
  endfacet
  facet normal 0 -1 0
    outer loop
      vertex -8.5 24 15
      vertex -6.2 24 7.5
      vertex -5.87533 24 8.49923
    endloop
  endfacet
  facet normal 0 -1 -0
    outer loop
      vertex -5.02533 24 5.8832
      vertex -8.5 24 -1
      vertex -3.97467 24 5.8832
    endloop
  endfacet
  facet normal 0 -1 -0
    outer loop
      vertex -5.87533 24 6.50076
      vertex -8.5 24 -1
      vertex -5.02533 24 5.8832
    endloop
  endfacet
  facet normal 0 -1 -0
    outer loop
      vertex -6.2 24 7.5
      vertex -8.5 24 -1
      vertex -5.87533 24 6.50076
    endloop
  endfacet
  facet normal 0 -1 0
    outer loop
      vertex -8.5 24 -1
      vertex -6.2 24 7.5
      vertex -8.5 24 15
    endloop
  endfacet
  facet normal 0 -1 0
    outer loop
      vertex -8.5 24 15
      vertex -3.97467 24 9.1168
      vertex 0 24 15
    endloop
  endfacet
  facet normal 0 -1 0
    outer loop
      vertex -3.12467 24 8.49923
      vertex 0 24 15
      vertex -3.97467 24 9.1168
    endloop
  endfacet
  facet normal 0 -1 0
    outer loop
      vertex -2.8 24 7.5
      vertex 0 24 15
      vertex -3.12467 24 8.49923
    endloop
  endfacet
  facet normal 0 -1 0
    outer loop
      vertex 0 24 -1
      vertex -2.8 24 7.5
      vertex -3.12467 24 6.50076
    endloop
  endfacet
  facet normal 0 -1 0
    outer loop
      vertex 0 24 -1
      vertex -3.97467 24 5.8832
      vertex -8.5 24 -1
    endloop
  endfacet
  facet normal 0 -1 0
    outer loop
      vertex -2.8 24 7.5
      vertex 0 24 -1
      vertex 0 24 15
    endloop
  endfacet
  facet normal 0 -1 0
    outer loop
      vertex -3.97467 24 5.8832
      vertex 0 24 -1
      vertex -3.12467 24 6.50076
    endloop
  endfacet
  facet normal 0 -1 0
    outer loop
      vertex -31.5 9.5 13
      vertex -22 9.5 3
      vertex -22 9.5 13
    endloop
  endfacet
  facet normal 0 -1 -0
    outer loop
      vertex -22 9.5 3
      vertex -31.5 9.5 2
      vertex -18 9.5 3
    endloop
  endfacet
  facet normal 0 -1 0
    outer loop
      vertex -31.5 9.5 2
      vertex -22 9.5 3
      vertex -31.5 9.5 13
    endloop
  endfacet
  facet normal 0 -1 0
    outer loop
      vertex -18 9.5 3
      vertex -8.5 9.5 13
      vertex -18 9.5 13
    endloop
  endfacet
  facet normal 0 -1 0
    outer loop
      vertex -18 9.5 3
      vertex -8.5 9.5 2
      vertex -8.5 9.5 13
    endloop
  endfacet
  facet normal 0 -1 0
    outer loop
      vertex -8.5 9.5 2
      vertex -18 9.5 3
      vertex -31.5 9.5 2
    endloop
  endfacet
  facet normal 1 0 0
    outer loop
      vertex -10.2 6.5 3
      vertex -10.2 8.5 12
      vertex -10.2 6.5 14
    endloop
  endfacet
  facet normal 1 0 0
    outer loop
      vertex -10.2 8.5 12
      vertex -10.2 6.5 3
      vertex -10.2 8.5 3
    endloop
  endfacet
  facet normal -1 0 0
    outer loop
      vertex -9 6.5 3
      vertex -9 8.5 12
      vertex -9 8.5 3
    endloop
  endfacet
  facet normal -1 -0 0
    outer loop
      vertex -9 8.5 12
      vertex -9 6.5 3
      vertex -9 6.5 14
    endloop
  endfacet
  facet normal -0 0 1
    outer loop
      vertex -10.2 8.5 3
      vertex -9 6.5 3
      vertex -9 8.5 3
    endloop
  endfacet
  facet normal 0 0 1
    outer loop
      vertex -9 6.5 3
      vertex -10.2 8.5 3
      vertex -10.2 6.5 3
    endloop
  endfacet
  facet normal 0 1 -0
    outer loop
      vertex -9 6.5 3
      vertex -10.2 6.5 14
      vertex -9 6.5 14
    endloop
  endfacet
  facet normal 0 1 0
    outer loop
      vertex -10.2 6.5 14
      vertex -9 6.5 3
      vertex -10.2 6.5 3
    endloop
  endfacet
  facet normal 1 0 0
    outer loop
      vertex -12.2 6.5 3
      vertex -12.2 8.5 12
      vertex -12.2 6.5 14
    endloop
  endfacet
  facet normal 1 0 0
    outer loop
      vertex -12.2 8.5 12
      vertex -12.2 6.5 3
      vertex -12.2 8.5 3
    endloop
  endfacet
  facet normal -1 0 0
    outer loop
      vertex -11 6.5 3
      vertex -11 8.5 12
      vertex -11 8.5 3
    endloop
  endfacet
  facet normal -1 -0 0
    outer loop
      vertex -11 8.5 12
      vertex -11 6.5 3
      vertex -11 6.5 14
    endloop
  endfacet
  facet normal -0 0 1
    outer loop
      vertex -12.2 8.5 3
      vertex -11 6.5 3
      vertex -11 8.5 3
    endloop
  endfacet
  facet normal 0 0 1
    outer loop
      vertex -11 6.5 3
      vertex -12.2 8.5 3
      vertex -12.2 6.5 3
    endloop
  endfacet
  facet normal 0 1 -0
    outer loop
      vertex -11 6.5 3
      vertex -12.2 6.5 14
      vertex -11 6.5 14
    endloop
  endfacet
  facet normal 0 1 0
    outer loop
      vertex -12.2 6.5 14
      vertex -11 6.5 3
      vertex -12.2 6.5 3
    endloop
  endfacet
  facet normal 1 0 0
    outer loop
      vertex -14.2 6.5 3
      vertex -14.2 8.5 12
      vertex -14.2 6.5 14
    endloop
  endfacet
  facet normal 1 0 0
    outer loop
      vertex -14.2 8.5 12
      vertex -14.2 6.5 3
      vertex -14.2 8.5 3
    endloop
  endfacet
  facet normal -1 0 0
    outer loop
      vertex -13 6.5 3
      vertex -13 8.5 12
      vertex -13 8.5 3
    endloop
  endfacet
  facet normal -1 -0 0
    outer loop
      vertex -13 8.5 12
      vertex -13 6.5 3
      vertex -13 6.5 14
    endloop
  endfacet
  facet normal -0 0 1
    outer loop
      vertex -14.2 8.5 3
      vertex -13 6.5 3
      vertex -13 8.5 3
    endloop
  endfacet
  facet normal 0 0 1
    outer loop
      vertex -13 6.5 3
      vertex -14.2 8.5 3
      vertex -14.2 6.5 3
    endloop
  endfacet
  facet normal 0 1 -0
    outer loop
      vertex -13 6.5 3
      vertex -14.2 6.5 14
      vertex -13 6.5 14
    endloop
  endfacet
  facet normal 0 1 0
    outer loop
      vertex -14.2 6.5 14
      vertex -13 6.5 3
      vertex -14.2 6.5 3
    endloop
  endfacet
  facet normal 1 0 0
    outer loop
      vertex -16.2 6.5 3
      vertex -16.2 8.5 12
      vertex -16.2 6.5 14
    endloop
  endfacet
  facet normal 1 0 0
    outer loop
      vertex -16.2 8.5 12
      vertex -16.2 6.5 3
      vertex -16.2 8.5 3
    endloop
  endfacet
  facet normal -1 0 0
    outer loop
      vertex -15 6.5 3
      vertex -15 8.5 12
      vertex -15 8.5 3
    endloop
  endfacet
  facet normal -1 -0 0
    outer loop
      vertex -15 8.5 12
      vertex -15 6.5 3
      vertex -15 6.5 14
    endloop
  endfacet
  facet normal -0 0 1
    outer loop
      vertex -16.2 8.5 3
      vertex -15 6.5 3
      vertex -15 8.5 3
    endloop
  endfacet
  facet normal 0 0 1
    outer loop
      vertex -15 6.5 3
      vertex -16.2 8.5 3
      vertex -16.2 6.5 3
    endloop
  endfacet
  facet normal 0 1 -0
    outer loop
      vertex -15 6.5 3
      vertex -16.2 6.5 14
      vertex -15 6.5 14
    endloop
  endfacet
  facet normal 0 1 0
    outer loop
      vertex -16.2 6.5 14
      vertex -15 6.5 3
      vertex -16.2 6.5 3
    endloop
  endfacet
  facet normal -1 0 0
    outer loop
      vertex -17 6.5 3
      vertex -17 8.5 12
      vertex -17 8.5 3
    endloop
  endfacet
  facet normal -1 -0 0
    outer loop
      vertex -17 8.5 12
      vertex -17 6.5 3
      vertex -17 6.5 14
    endloop
  endfacet
  facet normal -0 0 1
    outer loop
      vertex -22 10 3
      vertex -18 9.5 3
      vertex -18 10 3
    endloop
  endfacet
  facet normal 0 0 1
    outer loop
      vertex -18 9.5 3
      vertex -22 10 3
      vertex -22 9.5 3
    endloop
  endfacet
  facet normal 0 0 1
    outer loop
      vertex -17 8.5 3
      vertex -18 6.5 3
      vertex -17 6.5 3
    endloop
  endfacet
  facet normal 0 0 1
    outer loop
      vertex -18 6.5 3
      vertex -22 6.5 3
      vertex -18 0 3
    endloop
  endfacet
  facet normal -0 0 1
    outer loop
      vertex -22.2 8.5 3
      vertex -18 6.5 3
      vertex -17 8.5 3
    endloop
  endfacet
  facet normal 0 0 1
    outer loop
      vertex -18 6.5 3
      vertex -22.2 8.5 3
      vertex -22 6.5 3
    endloop
  endfacet
  facet normal 0 0 1
    outer loop
      vertex -22 6.5 3
      vertex -22.2 8.5 3
      vertex -22.2 6.5 3
    endloop
  endfacet
  facet normal 0 0 1
    outer loop
      vertex -18 0 3
      vertex -22 6.5 3
      vertex -22 0 3
    endloop
  endfacet
  facet normal 0 1 -0
    outer loop
      vertex -17 6.5 3
      vertex -18 6.5 14
      vertex -17 6.5 14
    endloop
  endfacet
  facet normal 0 1 0
    outer loop
      vertex -18 6.5 14
      vertex -17 6.5 3
      vertex -18 6.5 3
    endloop
  endfacet
  facet normal 1 0 0
    outer loop
      vertex -22.2 6.5 3
      vertex -22.2 8.5 12
      vertex -22.2 6.5 14
    endloop
  endfacet
  facet normal 1 0 0
    outer loop
      vertex -22.2 8.5 12
      vertex -22.2 6.5 3
      vertex -22.2 8.5 3
    endloop
  endfacet
  facet normal 0 1 -0
    outer loop
      vertex -22 6.5 3
      vertex -22.2 6.5 14
      vertex -22 6.5 14
    endloop
  endfacet
  facet normal 0 1 0
    outer loop
      vertex -22.2 6.5 14
      vertex -22 6.5 3
      vertex -22.2 6.5 3
    endloop
  endfacet
  facet normal 1 0 0
    outer loop
      vertex -24.2 6.5 3
      vertex -24.2 8.5 12
      vertex -24.2 6.5 14
    endloop
  endfacet
  facet normal 1 0 0
    outer loop
      vertex -24.2 8.5 12
      vertex -24.2 6.5 3
      vertex -24.2 8.5 3
    endloop
  endfacet
  facet normal -1 0 0
    outer loop
      vertex -23 6.5 3
      vertex -23 8.5 12
      vertex -23 8.5 3
    endloop
  endfacet
  facet normal -1 -0 0
    outer loop
      vertex -23 8.5 12
      vertex -23 6.5 3
      vertex -23 6.5 14
    endloop
  endfacet
  facet normal -0 0 1
    outer loop
      vertex -24.2 8.5 3
      vertex -23 6.5 3
      vertex -23 8.5 3
    endloop
  endfacet
  facet normal 0 0 1
    outer loop
      vertex -23 6.5 3
      vertex -24.2 8.5 3
      vertex -24.2 6.5 3
    endloop
  endfacet
  facet normal 0 1 -0
    outer loop
      vertex -23 6.5 3
      vertex -24.2 6.5 14
      vertex -23 6.5 14
    endloop
  endfacet
  facet normal 0 1 0
    outer loop
      vertex -24.2 6.5 14
      vertex -23 6.5 3
      vertex -24.2 6.5 3
    endloop
  endfacet
  facet normal 1 0 0
    outer loop
      vertex -26.2 6.5 3
      vertex -26.2 8.5 12
      vertex -26.2 6.5 14
    endloop
  endfacet
  facet normal 1 0 0
    outer loop
      vertex -26.2 8.5 12
      vertex -26.2 6.5 3
      vertex -26.2 8.5 3
    endloop
  endfacet
  facet normal -1 0 0
    outer loop
      vertex -25 6.5 3
      vertex -25 8.5 12
      vertex -25 8.5 3
    endloop
  endfacet
  facet normal -1 -0 0
    outer loop
      vertex -25 8.5 12
      vertex -25 6.5 3
      vertex -25 6.5 14
    endloop
  endfacet
  facet normal -0 0 1
    outer loop
      vertex -26.2 8.5 3
      vertex -25 6.5 3
      vertex -25 8.5 3
    endloop
  endfacet
  facet normal 0 0 1
    outer loop
      vertex -25 6.5 3
      vertex -26.2 8.5 3
      vertex -26.2 6.5 3
    endloop
  endfacet
  facet normal 0 1 -0
    outer loop
      vertex -25 6.5 3
      vertex -26.2 6.5 14
      vertex -25 6.5 14
    endloop
  endfacet
  facet normal 0 1 0
    outer loop
      vertex -26.2 6.5 14
      vertex -25 6.5 3
      vertex -26.2 6.5 3
    endloop
  endfacet
  facet normal 1 0 0
    outer loop
      vertex -28.2 6.5 3
      vertex -28.2 8.5 12
      vertex -28.2 6.5 14
    endloop
  endfacet
  facet normal 1 0 0
    outer loop
      vertex -28.2 8.5 12
      vertex -28.2 6.5 3
      vertex -28.2 8.5 3
    endloop
  endfacet
  facet normal -1 0 0
    outer loop
      vertex -27 6.5 3
      vertex -27 8.5 12
      vertex -27 8.5 3
    endloop
  endfacet
  facet normal -1 -0 0
    outer loop
      vertex -27 8.5 12
      vertex -27 6.5 3
      vertex -27 6.5 14
    endloop
  endfacet
  facet normal -0 0 1
    outer loop
      vertex -28.2 8.5 3
      vertex -27 6.5 3
      vertex -27 8.5 3
    endloop
  endfacet
  facet normal 0 0 1
    outer loop
      vertex -27 6.5 3
      vertex -28.2 8.5 3
      vertex -28.2 6.5 3
    endloop
  endfacet
  facet normal 0 1 -0
    outer loop
      vertex -27 6.5 3
      vertex -28.2 6.5 14
      vertex -27 6.5 14
    endloop
  endfacet
  facet normal 0 1 0
    outer loop
      vertex -28.2 6.5 14
      vertex -27 6.5 3
      vertex -28.2 6.5 3
    endloop
  endfacet
  facet normal 1 0 0
    outer loop
      vertex -30.2 6.5 3
      vertex -30.2 8.5 12
      vertex -30.2 6.5 14
    endloop
  endfacet
  facet normal 1 0 0
    outer loop
      vertex -30.2 8.5 12
      vertex -30.2 6.5 3
      vertex -30.2 8.5 3
    endloop
  endfacet
  facet normal -1 0 0
    outer loop
      vertex -29 6.5 3
      vertex -29 8.5 12
      vertex -29 8.5 3
    endloop
  endfacet
  facet normal -1 -0 0
    outer loop
      vertex -29 8.5 12
      vertex -29 6.5 3
      vertex -29 6.5 14
    endloop
  endfacet
  facet normal -0 0 1
    outer loop
      vertex -30.2 8.5 3
      vertex -29 6.5 3
      vertex -29 8.5 3
    endloop
  endfacet
  facet normal 0 0 1
    outer loop
      vertex -29 6.5 3
      vertex -30.2 8.5 3
      vertex -30.2 6.5 3
    endloop
  endfacet
  facet normal 0 1 -0
    outer loop
      vertex -29 6.5 3
      vertex -30.2 6.5 14
      vertex -29 6.5 14
    endloop
  endfacet
  facet normal 0 1 0
    outer loop
      vertex -30.2 6.5 14
      vertex -29 6.5 3
      vertex -30.2 6.5 3
    endloop
  endfacet
  facet normal -1 0 0
    outer loop
      vertex -31 6.5 3
      vertex -31 8.5 12
      vertex -31 8.5 3
    endloop
  endfacet
  facet normal -1 -0 0
    outer loop
      vertex -31 8.5 12
      vertex -31 6.5 3
      vertex -31 6.5 14
    endloop
  endfacet
  facet normal -0 0 1
    outer loop
      vertex -31.5 8.5 3
      vertex -31 6.5 3
      vertex -31 8.5 3
    endloop
  endfacet
  facet normal 0 0 1
    outer loop
      vertex -31 6.5 3
      vertex -31.5 8.5 3
      vertex -31.5 6.5 3
    endloop
  endfacet
  facet normal 0 1 -0
    outer loop
      vertex -31 6.5 3
      vertex -31.5 6.5 14
      vertex -31 6.5 14
    endloop
  endfacet
  facet normal 0 1 0
    outer loop
      vertex -31.5 6.5 14
      vertex -31 6.5 3
      vertex -31.5 6.5 3
    endloop
  endfacet
  facet normal -0 0 1
    outer loop
      vertex -31.5 9.5 2
      vertex -8.5 8.5 2
      vertex -8.5 9.5 2
    endloop
  endfacet
  facet normal 0 0 1
    outer loop
      vertex -8.5 8.5 2
      vertex -31.5 9.5 2
      vertex -31.5 8.5 2
    endloop
  endfacet
  facet normal 0 1 0
    outer loop
      vertex -8.5 8.5 12
      vertex -9 8.5 3
      vertex -9 8.5 12
    endloop
  endfacet
  facet normal 0 1 0
    outer loop
      vertex -8.5 8.5 2
      vertex -10.2 8.5 3
      vertex -9 8.5 3
    endloop
  endfacet
  facet normal 0 1 0
    outer loop
      vertex -10.2 8.5 3
      vertex -8.5 8.5 2
      vertex -11 8.5 3
    endloop
  endfacet
  facet normal 0 1 0
    outer loop
      vertex -11 8.5 3
      vertex -8.5 8.5 2
      vertex -12.2 8.5 3
    endloop
  endfacet
  facet normal 0 1 0
    outer loop
      vertex -12.2 8.5 3
      vertex -8.5 8.5 2
      vertex -13 8.5 3
    endloop
  endfacet
  facet normal 0 1 0
    outer loop
      vertex -13 8.5 3
      vertex -8.5 8.5 2
      vertex -14.2 8.5 3
    endloop
  endfacet
  facet normal 0 1 0
    outer loop
      vertex -14.2 8.5 3
      vertex -8.5 8.5 2
      vertex -15 8.5 3
    endloop
  endfacet
  facet normal 0 1 0
    outer loop
      vertex -15 8.5 3
      vertex -8.5 8.5 2
      vertex -16.2 8.5 3
    endloop
  endfacet
  facet normal 0 1 0
    outer loop
      vertex -16.2 8.5 3
      vertex -8.5 8.5 2
      vertex -17 8.5 3
    endloop
  endfacet
  facet normal 0 1 0
    outer loop
      vertex -17 8.5 3
      vertex -8.5 8.5 2
      vertex -22.2 8.5 3
    endloop
  endfacet
  facet normal 0 1 0
    outer loop
      vertex -31.5 8.5 2
      vertex -22.2 8.5 3
      vertex -8.5 8.5 2
    endloop
  endfacet
  facet normal 0 1 0
    outer loop
      vertex -22.2 8.5 3
      vertex -31.5 8.5 2
      vertex -23 8.5 3
    endloop
  endfacet
  facet normal 0 1 0
    outer loop
      vertex -23 8.5 3
      vertex -31.5 8.5 2
      vertex -24.2 8.5 3
    endloop
  endfacet
  facet normal 0 1 0
    outer loop
      vertex -24.2 8.5 3
      vertex -31.5 8.5 2
      vertex -25 8.5 3
    endloop
  endfacet
  facet normal 0 1 0
    outer loop
      vertex -25 8.5 3
      vertex -31.5 8.5 2
      vertex -26.2 8.5 3
    endloop
  endfacet
  facet normal 0 1 0
    outer loop
      vertex -26.2 8.5 3
      vertex -31.5 8.5 2
      vertex -27 8.5 3
    endloop
  endfacet
  facet normal 0 1 0
    outer loop
      vertex -27 8.5 3
      vertex -31.5 8.5 2
      vertex -28.2 8.5 3
    endloop
  endfacet
  facet normal 0 1 0
    outer loop
      vertex -28.2 8.5 3
      vertex -31.5 8.5 2
      vertex -29 8.5 3
    endloop
  endfacet
  facet normal 0 1 0
    outer loop
      vertex -30.2 8.5 3
      vertex -31.5 8.5 2
      vertex -31 8.5 3
    endloop
  endfacet
  facet normal 0 1 -0
    outer loop
      vertex -8.5 8.5 2
      vertex -9 8.5 3
      vertex -8.5 8.5 12
    endloop
  endfacet
  facet normal 0 1 0
    outer loop
      vertex -29 8.5 3
      vertex -31.5 8.5 2
      vertex -30.2 8.5 3
    endloop
  endfacet
  facet normal 0 1 0
    outer loop
      vertex -31 8.5 3
      vertex -31.5 8.5 2
      vertex -31.5 8.5 3
    endloop
  endfacet
  facet normal 0 1 -0
    outer loop
      vertex -10.2 8.5 3
      vertex -11 8.5 12
      vertex -10.2 8.5 12
    endloop
  endfacet
  facet normal 0 1 0
    outer loop
      vertex -11 8.5 12
      vertex -10.2 8.5 3
      vertex -11 8.5 3
    endloop
  endfacet
  facet normal 0 1 -0
    outer loop
      vertex -12.2 8.5 3
      vertex -13 8.5 12
      vertex -12.2 8.5 12
    endloop
  endfacet
  facet normal 0 1 0
    outer loop
      vertex -13 8.5 12
      vertex -12.2 8.5 3
      vertex -13 8.5 3
    endloop
  endfacet
  facet normal 0 1 -0
    outer loop
      vertex -14.2 8.5 3
      vertex -15 8.5 12
      vertex -14.2 8.5 12
    endloop
  endfacet
  facet normal 0 1 0
    outer loop
      vertex -15 8.5 12
      vertex -14.2 8.5 3
      vertex -15 8.5 3
    endloop
  endfacet
  facet normal 0 1 -0
    outer loop
      vertex -16.2 8.5 3
      vertex -17 8.5 12
      vertex -16.2 8.5 12
    endloop
  endfacet
  facet normal 0 1 0
    outer loop
      vertex -17 8.5 12
      vertex -16.2 8.5 3
      vertex -17 8.5 3
    endloop
  endfacet
  facet normal 0 1 -0
    outer loop
      vertex -22.2 8.5 3
      vertex -23 8.5 12
      vertex -22.2 8.5 12
    endloop
  endfacet
  facet normal 0 1 0
    outer loop
      vertex -23 8.5 12
      vertex -22.2 8.5 3
      vertex -23 8.5 3
    endloop
  endfacet
  facet normal 0 1 -0
    outer loop
      vertex -24.2 8.5 3
      vertex -25 8.5 12
      vertex -24.2 8.5 12
    endloop
  endfacet
  facet normal 0 1 0
    outer loop
      vertex -25 8.5 12
      vertex -24.2 8.5 3
      vertex -25 8.5 3
    endloop
  endfacet
  facet normal 0 1 -0
    outer loop
      vertex -26.2 8.5 3
      vertex -27 8.5 12
      vertex -26.2 8.5 12
    endloop
  endfacet
  facet normal 0 1 0
    outer loop
      vertex -27 8.5 12
      vertex -26.2 8.5 3
      vertex -27 8.5 3
    endloop
  endfacet
  facet normal 0 1 -0
    outer loop
      vertex -28.2 8.5 3
      vertex -29 8.5 12
      vertex -28.2 8.5 12
    endloop
  endfacet
  facet normal 0 1 0
    outer loop
      vertex -29 8.5 12
      vertex -28.2 8.5 3
      vertex -29 8.5 3
    endloop
  endfacet
  facet normal 0 1 -0
    outer loop
      vertex -30.2 8.5 3
      vertex -31 8.5 12
      vertex -30.2 8.5 12
    endloop
  endfacet
  facet normal 0 1 0
    outer loop
      vertex -31 8.5 12
      vertex -30.2 8.5 3
      vertex -31 8.5 3
    endloop
  endfacet
  facet normal 0 0.707107 0.707107
    outer loop
      vertex -30.2 8.5 12
      vertex -31 6.5 14
      vertex -30.2 6.5 14
    endloop
  endfacet
  facet normal 0 0.707107 0.707107
    outer loop
      vertex -31 6.5 14
      vertex -30.2 8.5 12
      vertex -31 8.5 12
    endloop
  endfacet
  facet normal 0 0.707107 0.707107
    outer loop
      vertex -28.2 8.5 12
      vertex -29 6.5 14
      vertex -28.2 6.5 14
    endloop
  endfacet
  facet normal 0 0.707107 0.707107
    outer loop
      vertex -29 6.5 14
      vertex -28.2 8.5 12
      vertex -29 8.5 12
    endloop
  endfacet
  facet normal 0 0.707107 0.707107
    outer loop
      vertex -26.2 8.5 12
      vertex -27 6.5 14
      vertex -26.2 6.5 14
    endloop
  endfacet
  facet normal 0 0.707107 0.707107
    outer loop
      vertex -27 6.5 14
      vertex -26.2 8.5 12
      vertex -27 8.5 12
    endloop
  endfacet
  facet normal 0 0.707107 0.707107
    outer loop
      vertex -24.2 8.5 12
      vertex -25 6.5 14
      vertex -24.2 6.5 14
    endloop
  endfacet
  facet normal 0 0.707107 0.707107
    outer loop
      vertex -25 6.5 14
      vertex -24.2 8.5 12
      vertex -25 8.5 12
    endloop
  endfacet
  facet normal 0 0.707107 0.707107
    outer loop
      vertex -22.2 8.5 12
      vertex -23 6.5 14
      vertex -22.2 6.5 14
    endloop
  endfacet
  facet normal 0 0.707107 0.707107
    outer loop
      vertex -23 6.5 14
      vertex -22.2 8.5 12
      vertex -23 8.5 12
    endloop
  endfacet
  facet normal -0 0.707107 0.707107
    outer loop
      vertex -22.2 6.5 14
      vertex -22 5.5 15
      vertex -22 6.5 14
    endloop
  endfacet
  facet normal -0 0.707107 0.707107
    outer loop
      vertex -23 6.5 14
      vertex -22 5.5 15
      vertex -22.2 6.5 14
    endloop
  endfacet
  facet normal -0 0.707107 0.707107
    outer loop
      vertex -24.2 6.5 14
      vertex -22 5.5 15
      vertex -23 6.5 14
    endloop
  endfacet
  facet normal -0 0.707107 0.707107
    outer loop
      vertex -25 6.5 14
      vertex -22 5.5 15
      vertex -24.2 6.5 14
    endloop
  endfacet
  facet normal -0 0.707107 0.707107
    outer loop
      vertex -26.2 6.5 14
      vertex -22 5.5 15
      vertex -25 6.5 14
    endloop
  endfacet
  facet normal -0 0.707107 0.707107
    outer loop
      vertex -27 6.5 14
      vertex -22 5.5 15
      vertex -26.2 6.5 14
    endloop
  endfacet
  facet normal 0 0.707107 0.707107
    outer loop
      vertex -22 5.5 15
      vertex -27 6.5 14
      vertex -31.5 5.5 15
    endloop
  endfacet
  facet normal -0 0.707107 0.707107
    outer loop
      vertex -28.2 6.5 14
      vertex -31.5 5.5 15
      vertex -27 6.5 14
    endloop
  endfacet
  facet normal -0 0.707107 0.707107
    outer loop
      vertex -29 6.5 14
      vertex -31.5 5.5 15
      vertex -28.2 6.5 14
    endloop
  endfacet
  facet normal -0 0.707107 0.707107
    outer loop
      vertex -30.2 6.5 14
      vertex -31.5 5.5 15
      vertex -29 6.5 14
    endloop
  endfacet
  facet normal -0 0.707107 0.707107
    outer loop
      vertex -31 6.5 14
      vertex -31.5 5.5 15
      vertex -30.2 6.5 14
    endloop
  endfacet
  facet normal 0 0.707107 0.707107
    outer loop
      vertex -31.5 5.5 15
      vertex -31 6.5 14
      vertex -31.5 6.5 14
    endloop
  endfacet
  facet normal 0 0.707107 0.707107
    outer loop
      vertex -16.2 8.5 12
      vertex -17 6.5 14
      vertex -16.2 6.5 14
    endloop
  endfacet
  facet normal 0 0.707107 0.707107
    outer loop
      vertex -17 6.5 14
      vertex -16.2 8.5 12
      vertex -17 8.5 12
    endloop
  endfacet
  facet normal 0 0.707107 0.707107
    outer loop
      vertex -14.2 8.5 12
      vertex -15 6.5 14
      vertex -14.2 6.5 14
    endloop
  endfacet
  facet normal 0 0.707107 0.707107
    outer loop
      vertex -15 6.5 14
      vertex -14.2 8.5 12
      vertex -15 8.5 12
    endloop
  endfacet
  facet normal 0 0.707107 0.707107
    outer loop
      vertex -12.2 8.5 12
      vertex -13 6.5 14
      vertex -12.2 6.5 14
    endloop
  endfacet
  facet normal 0 0.707107 0.707107
    outer loop
      vertex -13 6.5 14
      vertex -12.2 8.5 12
      vertex -13 8.5 12
    endloop
  endfacet
  facet normal 0 0.707107 0.707107
    outer loop
      vertex -10.2 8.5 12
      vertex -11 6.5 14
      vertex -10.2 6.5 14
    endloop
  endfacet
  facet normal 0 0.707107 0.707107
    outer loop
      vertex -11 6.5 14
      vertex -10.2 8.5 12
      vertex -11 8.5 12
    endloop
  endfacet
  facet normal -0 0.707107 0.707107
    outer loop
      vertex -10.2 6.5 14
      vertex -8.5 5.5 15
      vertex -9 6.5 14
    endloop
  endfacet
  facet normal 0 0.707107 0.707107
    outer loop
      vertex -8.5 8.5 12
      vertex -9 6.5 14
      vertex -8.5 5.5 15
    endloop
  endfacet
  facet normal 0 0.707107 0.707107
    outer loop
      vertex -9 6.5 14
      vertex -8.5 8.5 12
      vertex -9 8.5 12
    endloop
  endfacet
  facet normal -0 0.707107 0.707107
    outer loop
      vertex -11 6.5 14
      vertex -8.5 5.5 15
      vertex -10.2 6.5 14
    endloop
  endfacet
  facet normal -0 0.707107 0.707107
    outer loop
      vertex -12.2 6.5 14
      vertex -8.5 5.5 15
      vertex -11 6.5 14
    endloop
  endfacet
  facet normal -0 0.707107 0.707107
    outer loop
      vertex -13 6.5 14
      vertex -8.5 5.5 15
      vertex -12.2 6.5 14
    endloop
  endfacet
  facet normal 0 0.707107 0.707107
    outer loop
      vertex -8.5 5.5 15
      vertex -13 6.5 14
      vertex -18 5.5 15
    endloop
  endfacet
  facet normal -0 0.707107 0.707107
    outer loop
      vertex -14.2 6.5 14
      vertex -18 5.5 15
      vertex -13 6.5 14
    endloop
  endfacet
  facet normal -0 0.707107 0.707107
    outer loop
      vertex -15 6.5 14
      vertex -18 5.5 15
      vertex -14.2 6.5 14
    endloop
  endfacet
  facet normal -0 0.707107 0.707107
    outer loop
      vertex -16.2 6.5 14
      vertex -18 5.5 15
      vertex -15 6.5 14
    endloop
  endfacet
  facet normal -0 0.707107 0.707107
    outer loop
      vertex -17 6.5 14
      vertex -18 5.5 15
      vertex -16.2 6.5 14
    endloop
  endfacet
  facet normal 0 0.707107 0.707107
    outer loop
      vertex -18 5.5 15
      vertex -17 6.5 14
      vertex -18 6.5 14
    endloop
  endfacet
  facet normal 0 -0.707107 0.707107
    outer loop
      vertex -31.5 11.5 15
      vertex -22 10 13.5
      vertex -8.5 11.5 15
    endloop
  endfacet
  facet normal 0 -0.707107 0.707107
    outer loop
      vertex -31.5 9.5 13
      vertex -22 10 13.5
      vertex -31.5 11.5 15
    endloop
  endfacet
  facet normal 0 -0.707107 0.707107
    outer loop
      vertex -22 10 13.5
      vertex -31.5 9.5 13
      vertex -22 9.5 13
    endloop
  endfacet
  facet normal 0 -0.707107 0.707107
    outer loop
      vertex -18 10 13.5
      vertex -8.5 11.5 15
      vertex -22 10 13.5
    endloop
  endfacet
  facet normal 0 -0.707107 0.707107
    outer loop
      vertex -8.5 9.5 13
      vertex -18 10 13.5
      vertex -18 9.5 13
    endloop
  endfacet
  facet normal 0 -0.707107 0.707107
    outer loop
      vertex -18 10 13.5
      vertex -8.5 9.5 13
      vertex -8.5 11.5 15
    endloop
  endfacet
  facet normal 1 -0 0
    outer loop
      vertex -22 9.5 13
      vertex -22 10 3
      vertex -22 10 13.5
    endloop
  endfacet
  facet normal 1 0 0
    outer loop
      vertex -22 10 3
      vertex -22 9.5 13
      vertex -22 9.5 3
    endloop
  endfacet
  facet normal 1 -0 0
    outer loop
      vertex -22 0 15
      vertex -22 6.5 14
      vertex -22 5.5 15
    endloop
  endfacet
  facet normal 1 0 0
    outer loop
      vertex -22 6.5 14
      vertex -22 0 15
      vertex -22 0 3
    endloop
  endfacet
  facet normal 1 0 0
    outer loop
      vertex -22 6.5 14
      vertex -22 0 3
      vertex -22 6.5 3
    endloop
  endfacet
  facet normal -1 0 0
    outer loop
      vertex -18 9.5 13
      vertex -18 10 3
      vertex -18 9.5 3
    endloop
  endfacet
  facet normal -1 0 0
    outer loop
      vertex -18 10 3
      vertex -18 9.5 13
      vertex -18 10 13.5
    endloop
  endfacet
  facet normal -1 0 0
    outer loop
      vertex -18 0 3
      vertex -18 6.5 14
      vertex -18 6.5 3
    endloop
  endfacet
  facet normal -1 0 0
    outer loop
      vertex -18 0 15
      vertex -18 6.5 14
      vertex -18 0 3
    endloop
  endfacet
  facet normal -1 0 0
    outer loop
      vertex -18 6.5 14
      vertex -18 0 15
      vertex -18 5.5 15
    endloop
  endfacet
  facet normal 0 -1 0
    outer loop
      vertex -22 10 3
      vertex -18 10 13.5
      vertex -22 10 13.5
    endloop
  endfacet
  facet normal 0 -1 -0
    outer loop
      vertex -18 10 13.5
      vertex -22 10 3
      vertex -18 10 3
    endloop
  endfacet
  facet normal -0.951056 0 0.309017
    outer loop
      vertex -3.12467 24 6.50076
      vertex -2.8 28 7.5
      vertex -3.12467 28 6.50076
    endloop
  endfacet
  facet normal -0.951056 0 0.309017
    outer loop
      vertex -2.8 28 7.5
      vertex -3.12467 24 6.50076
      vertex -2.8 24 7.5
    endloop
  endfacet
  facet normal 0.951056 -0 0.309017
    outer loop
      vertex -6.2 24 7.5
      vertex -5.87533 28 6.50076
      vertex -6.2 28 7.5
    endloop
  endfacet
  facet normal 0.951056 0 0.309017
    outer loop
      vertex -5.87533 28 6.50076
      vertex -6.2 24 7.5
      vertex -5.87533 24 6.50076
    endloop
  endfacet
  facet normal 0 0 -1
    outer loop
      vertex -5.02533 24 9.1168
      vertex -3.97467 28 9.1168
      vertex -3.97467 24 9.1168
    endloop
  endfacet
  facet normal -0 0 -1
    outer loop
      vertex -3.97467 28 9.1168
      vertex -5.02533 24 9.1168
      vertex -5.02533 28 9.1168
    endloop
  endfacet
  facet normal -0 0 1
    outer loop
      vertex -5.02533 28 5.8832
      vertex -3.97467 24 5.8832
      vertex -3.97467 28 5.8832
    endloop
  endfacet
  facet normal 0 0 1
    outer loop
      vertex -3.97467 24 5.8832
      vertex -5.02533 28 5.8832
      vertex -5.02533 24 5.8832
    endloop
  endfacet
  facet normal -0.587786 0 0.809017
    outer loop
      vertex -3.97467 28 5.8832
      vertex -3.12467 24 6.50076
      vertex -3.12467 28 6.50076
    endloop
  endfacet
  facet normal -0.587786 0 0.809017
    outer loop
      vertex -3.12467 24 6.50076
      vertex -3.97467 28 5.8832
      vertex -3.97467 24 5.8832
    endloop
  endfacet
  facet normal 0.587786 0 0.809017
    outer loop
      vertex -5.87533 28 6.50076
      vertex -5.02533 24 5.8832
      vertex -5.02533 28 5.8832
    endloop
  endfacet
  facet normal 0.587786 0 0.809017
    outer loop
      vertex -5.02533 24 5.8832
      vertex -5.87533 28 6.50076
      vertex -5.87533 24 6.50076
    endloop
  endfacet
  facet normal -0.951056 0 -0.309018
    outer loop
      vertex -2.8 24 7.5
      vertex -3.12467 28 8.49923
      vertex -2.8 28 7.5
    endloop
  endfacet
  facet normal -0.951056 -0 -0.309018
    outer loop
      vertex -3.12467 28 8.49923
      vertex -2.8 24 7.5
      vertex -3.12467 24 8.49923
    endloop
  endfacet
  facet normal 0.951056 0 -0.309018
    outer loop
      vertex -5.87533 24 8.49923
      vertex -6.2 28 7.5
      vertex -5.87533 28 8.49923
    endloop
  endfacet
  facet normal 0.951056 0 -0.309018
    outer loop
      vertex -6.2 28 7.5
      vertex -5.87533 24 8.49923
      vertex -6.2 24 7.5
    endloop
  endfacet
  facet normal -0.587786 0 -0.809017
    outer loop
      vertex -3.97467 24 9.1168
      vertex -3.12467 28 8.49923
      vertex -3.12467 24 8.49923
    endloop
  endfacet
  facet normal -0.587786 0 -0.809017
    outer loop
      vertex -3.12467 28 8.49923
      vertex -3.97467 24 9.1168
      vertex -3.97467 28 9.1168
    endloop
  endfacet
  facet normal 0.587786 0 -0.809017
    outer loop
      vertex -5.87533 24 8.49923
      vertex -5.02533 28 9.1168
      vertex -5.02533 24 9.1168
    endloop
  endfacet
  facet normal 0.587786 0 -0.809017
    outer loop
      vertex -5.02533 28 9.1168
      vertex -5.87533 24 8.49923
      vertex -5.87533 28 8.49923
    endloop
  endfacet
  facet normal -0.951056 0 0.309018
    outer loop
      vertex -34.1247 24 6.50076
      vertex -33.8 28 7.5
      vertex -34.1247 28 6.50076
    endloop
  endfacet
  facet normal -0.951056 0 0.309018
    outer loop
      vertex -33.8 28 7.5
      vertex -34.1247 24 6.50076
      vertex -33.8 24 7.5
    endloop
  endfacet
  facet normal 0.951056 -0 0.309018
    outer loop
      vertex -37.2 24 7.5
      vertex -36.8753 28 6.50076
      vertex -37.2 28 7.5
    endloop
  endfacet
  facet normal 0.951056 0 0.309018
    outer loop
      vertex -36.8753 28 6.50076
      vertex -37.2 24 7.5
      vertex -36.8753 24 6.50076
    endloop
  endfacet
  facet normal -0 0 1
    outer loop
      vertex -36.0253 28 5.8832
      vertex -34.9747 24 5.8832
      vertex -34.9747 28 5.8832
    endloop
  endfacet
  facet normal 0 0 1
    outer loop
      vertex -34.9747 24 5.8832
      vertex -36.0253 28 5.8832
      vertex -36.0253 24 5.8832
    endloop
  endfacet
  facet normal -0.587786 0 0.809016
    outer loop
      vertex -34.9747 28 5.8832
      vertex -34.1247 24 6.50076
      vertex -34.1247 28 6.50076
    endloop
  endfacet
  facet normal -0.587786 0 0.809016
    outer loop
      vertex -34.1247 24 6.50076
      vertex -34.9747 28 5.8832
      vertex -34.9747 24 5.8832
    endloop
  endfacet
  facet normal 0.587786 0 0.809016
    outer loop
      vertex -36.8753 28 6.50076
      vertex -36.0253 24 5.8832
      vertex -36.0253 28 5.8832
    endloop
  endfacet
  facet normal 0.587786 0 0.809016
    outer loop
      vertex -36.0253 24 5.8832
      vertex -36.8753 28 6.50076
      vertex -36.8753 24 6.50076
    endloop
  endfacet
  facet normal -0.951056 0 -0.309019
    outer loop
      vertex -33.8 24 7.5
      vertex -34.1247 28 8.49923
      vertex -33.8 28 7.5
    endloop
  endfacet
  facet normal -0.951056 -0 -0.309019
    outer loop
      vertex -34.1247 28 8.49923
      vertex -33.8 24 7.5
      vertex -34.1247 24 8.49923
    endloop
  endfacet
  facet normal 0.951056 0 -0.309019
    outer loop
      vertex -36.8753 24 8.49923
      vertex -37.2 28 7.5
      vertex -36.8753 28 8.49923
    endloop
  endfacet
  facet normal 0.951056 0 -0.309019
    outer loop
      vertex -37.2 28 7.5
      vertex -36.8753 24 8.49923
      vertex -37.2 24 7.5
    endloop
  endfacet
  facet normal 0 0 -1
    outer loop
      vertex -36.0253 24 9.1168
      vertex -34.9747 28 9.1168
      vertex -34.9747 24 9.1168
    endloop
  endfacet
  facet normal -0 0 -1
    outer loop
      vertex -34.9747 28 9.1168
      vertex -36.0253 24 9.1168
      vertex -36.0253 28 9.1168
    endloop
  endfacet
  facet normal -0.587786 0 -0.809016
    outer loop
      vertex -34.9747 24 9.1168
      vertex -34.1247 28 8.49923
      vertex -34.1247 24 8.49923
    endloop
  endfacet
  facet normal -0.587786 0 -0.809016
    outer loop
      vertex -34.1247 28 8.49923
      vertex -34.9747 24 9.1168
      vertex -34.9747 28 9.1168
    endloop
  endfacet
  facet normal 0.587786 0 -0.809016
    outer loop
      vertex -36.8753 24 8.49923
      vertex -36.0253 28 9.1168
      vertex -36.0253 24 9.1168
    endloop
  endfacet
  facet normal 0.587786 0 -0.809016
    outer loop
      vertex -36.0253 28 9.1168
      vertex -36.8753 24 8.49923
      vertex -36.8753 28 8.49923
    endloop
  endfacet
endsolid OpenSCAD_Model
