solid OpenSCAD_Model
  facet normal -0.939693 -0.34202 0
    outer loop
      vertex 12.25 4.5 0
      vertex 11.6066 6.26767 6
      vertex 11.6066 6.26767 0
    endloop
  endfacet
  facet normal -0.939693 -0.34202 0
    outer loop
      vertex 11.6066 6.26767 6
      vertex 12.25 4.5 0
      vertex 12.25 4.5 6
    endloop
  endfacet
  facet normal 1 -0 0
    outer loop
      vertex 6.91584 3.55944 6
      vertex 6.91584 5.44055 0
      vertex 6.91584 5.44055 6
    endloop
  endfacet
  facet normal 1 0 0
    outer loop
      vertex 6.91584 5.44055 0
      vertex 6.91584 3.55944 6
      vertex 6.91584 3.55944 0
    endloop
  endfacet
  facet normal 0.173648 -0.984808 0
    outer loop
      vertex 8.125 6.88157 0
      vertex 9.97753 7.20822 6
      vertex 8.125 6.88157 6
    endloop
  endfacet
  facet normal 0.173648 -0.984808 0
    outer loop
      vertex 9.97753 7.20822 6
      vertex 8.125 6.88157 0
      vertex 9.97753 7.20822 0
    endloop
  endfacet
  facet normal -0.5 -0.866026 0
    outer loop
      vertex 9.97753 7.20822 0
      vertex 11.6066 6.26767 6
      vertex 9.97753 7.20822 6
    endloop
  endfacet
  facet normal -0.5 -0.866026 -0
    outer loop
      vertex 11.6066 6.26767 6
      vertex 9.97753 7.20822 0
      vertex 11.6066 6.26767 0
    endloop
  endfacet
  facet normal 0.766044 -0.642788 0
    outer loop
      vertex 6.91584 5.44055 6
      vertex 8.125 6.88157 0
      vertex 8.125 6.88157 6
    endloop
  endfacet
  facet normal 0.766044 -0.642788 0
    outer loop
      vertex 8.125 6.88157 0
      vertex 6.91584 5.44055 6
      vertex 6.91584 5.44055 0
    endloop
  endfacet
  facet normal -0.939693 0.34202 0
    outer loop
      vertex 11.6066 2.73233 0
      vertex 12.25 4.5 6
      vertex 12.25 4.5 0
    endloop
  endfacet
  facet normal -0.939693 0.34202 0
    outer loop
      vertex 12.25 4.5 6
      vertex 11.6066 2.73233 0
      vertex 11.6066 2.73233 6
    endloop
  endfacet
  facet normal -0.5 0.866026 0
    outer loop
      vertex 11.6066 2.73233 0
      vertex 9.97753 1.79178 6
      vertex 11.6066 2.73233 6
    endloop
  endfacet
  facet normal -0.5 0.866026 0
    outer loop
      vertex 9.97753 1.79178 6
      vertex 11.6066 2.73233 0
      vertex 9.97753 1.79178 0
    endloop
  endfacet
  facet normal 0.173648 0.984808 -0
    outer loop
      vertex 9.97753 1.79178 0
      vertex 8.125 2.11843 6
      vertex 9.97753 1.79178 6
    endloop
  endfacet
  facet normal 0.173648 0.984808 0
    outer loop
      vertex 8.125 2.11843 6
      vertex 9.97753 1.79178 0
      vertex 8.125 2.11843 0
    endloop
  endfacet
  facet normal 0.766045 0.642787 0
    outer loop
      vertex 8.125 2.11843 6
      vertex 6.91584 3.55944 0
      vertex 6.91584 3.55944 6
    endloop
  endfacet
  facet normal 0.766045 0.642787 0
    outer loop
      vertex 6.91584 3.55944 0
      vertex 8.125 2.11843 6
      vertex 8.125 2.11843 0
    endloop
  endfacet
  facet normal -0.939693 -0.34202 0
    outer loop
      vertex 12.25 32.5 0
      vertex 11.6066 34.2677 6
      vertex 11.6066 34.2677 0
    endloop
  endfacet
  facet normal -0.939693 -0.34202 0
    outer loop
      vertex 11.6066 34.2677 6
      vertex 12.25 32.5 0
      vertex 12.25 32.5 6
    endloop
  endfacet
  facet normal 1 -0 0
    outer loop
      vertex 6.91584 31.5594 6
      vertex 6.91584 33.4406 0
      vertex 6.91584 33.4406 6
    endloop
  endfacet
  facet normal 1 0 0
    outer loop
      vertex 6.91584 33.4406 0
      vertex 6.91584 31.5594 6
      vertex 6.91584 31.5594 0
    endloop
  endfacet
  facet normal 0.173649 -0.984808 0
    outer loop
      vertex 8.125 34.8816 0
      vertex 9.97753 35.2082 6
      vertex 8.125 34.8816 6
    endloop
  endfacet
  facet normal 0.173649 -0.984808 0
    outer loop
      vertex 9.97753 35.2082 6
      vertex 8.125 34.8816 0
      vertex 9.97753 35.2082 0
    endloop
  endfacet
  facet normal -0.5 -0.866025 0
    outer loop
      vertex 9.97753 35.2082 0
      vertex 11.6066 34.2677 6
      vertex 9.97753 35.2082 6
    endloop
  endfacet
  facet normal -0.5 -0.866025 -0
    outer loop
      vertex 11.6066 34.2677 6
      vertex 9.97753 35.2082 0
      vertex 11.6066 34.2677 0
    endloop
  endfacet
  facet normal 0.766044 -0.642788 0
    outer loop
      vertex 6.91584 33.4406 6
      vertex 8.125 34.8816 0
      vertex 8.125 34.8816 6
    endloop
  endfacet
  facet normal 0.766044 -0.642788 0
    outer loop
      vertex 8.125 34.8816 0
      vertex 6.91584 33.4406 6
      vertex 6.91584 33.4406 0
    endloop
  endfacet
  facet normal -0.5 0.866025 0
    outer loop
      vertex 11.6066 30.7323 0
      vertex 9.97753 29.7918 6
      vertex 11.6066 30.7323 6
    endloop
  endfacet
  facet normal -0.5 0.866025 0
    outer loop
      vertex 9.97753 29.7918 6
      vertex 11.6066 30.7323 0
      vertex 9.97753 29.7918 0
    endloop
  endfacet
  facet normal -0.939693 0.34202 0
    outer loop
      vertex 11.6066 30.7323 0
      vertex 12.25 32.5 6
      vertex 12.25 32.5 0
    endloop
  endfacet
  facet normal -0.939693 0.34202 0
    outer loop
      vertex 12.25 32.5 6
      vertex 11.6066 30.7323 0
      vertex 11.6066 30.7323 6
    endloop
  endfacet
  facet normal 0.173649 0.984808 -0
    outer loop
      vertex 9.97753 29.7918 0
      vertex 8.125 30.1184 6
      vertex 9.97753 29.7918 6
    endloop
  endfacet
  facet normal 0.173649 0.984808 0
    outer loop
      vertex 8.125 30.1184 6
      vertex 9.97753 29.7918 0
      vertex 8.125 30.1184 0
    endloop
  endfacet
  facet normal 0.766044 0.642788 0
    outer loop
      vertex 8.125 30.1184 6
      vertex 6.91584 31.5594 0
      vertex 6.91584 31.5594 6
    endloop
  endfacet
  facet normal 0.766044 0.642788 0
    outer loop
      vertex 6.91584 31.5594 0
      vertex 8.125 30.1184 6
      vertex 8.125 30.1184 0
    endloop
  endfacet
  facet normal -0.939692 -0.342021 0
    outer loop
      vertex 33.25 4.5 0
      vertex 32.6066 6.26767 6
      vertex 32.6066 6.26767 0
    endloop
  endfacet
  facet normal -0.939692 -0.342021 0
    outer loop
      vertex 32.6066 6.26767 6
      vertex 33.25 4.5 0
      vertex 33.25 4.5 6
    endloop
  endfacet
  facet normal 1 -0 0
    outer loop
      vertex 27.9158 3.55944 6
      vertex 27.9158 5.44055 0
      vertex 27.9158 5.44055 6
    endloop
  endfacet
  facet normal 1 0 0
    outer loop
      vertex 27.9158 5.44055 0
      vertex 27.9158 3.55944 6
      vertex 27.9158 3.55944 0
    endloop
  endfacet
  facet normal 0.173648 -0.984808 0
    outer loop
      vertex 29.125 6.88157 0
      vertex 30.9775 7.20822 6
      vertex 29.125 6.88157 6
    endloop
  endfacet
  facet normal 0.173648 -0.984808 0
    outer loop
      vertex 30.9775 7.20822 6
      vertex 29.125 6.88157 0
      vertex 30.9775 7.20822 0
    endloop
  endfacet
  facet normal -0.5 -0.866026 0
    outer loop
      vertex 30.9775 7.20822 0
      vertex 32.6066 6.26767 6
      vertex 30.9775 7.20822 6
    endloop
  endfacet
  facet normal -0.5 -0.866026 -0
    outer loop
      vertex 32.6066 6.26767 6
      vertex 30.9775 7.20822 0
      vertex 32.6066 6.26767 0
    endloop
  endfacet
  facet normal 0.766044 -0.642788 0
    outer loop
      vertex 27.9158 5.44055 6
      vertex 29.125 6.88157 0
      vertex 29.125 6.88157 6
    endloop
  endfacet
  facet normal 0.766044 -0.642788 0
    outer loop
      vertex 29.125 6.88157 0
      vertex 27.9158 5.44055 6
      vertex 27.9158 5.44055 0
    endloop
  endfacet
  facet normal -0.5 0.866026 0
    outer loop
      vertex 32.6066 2.73233 0
      vertex 30.9775 1.79178 6
      vertex 32.6066 2.73233 6
    endloop
  endfacet
  facet normal -0.5 0.866026 0
    outer loop
      vertex 30.9775 1.79178 6
      vertex 32.6066 2.73233 0
      vertex 30.9775 1.79178 0
    endloop
  endfacet
  facet normal 0.766044 0.642788 0
    outer loop
      vertex 29.125 2.11843 6
      vertex 27.9158 3.55944 0
      vertex 27.9158 3.55944 6
    endloop
  endfacet
  facet normal 0.766044 0.642788 0
    outer loop
      vertex 27.9158 3.55944 0
      vertex 29.125 2.11843 6
      vertex 29.125 2.11843 0
    endloop
  endfacet
  facet normal -0.939692 0.342021 0
    outer loop
      vertex 32.6066 2.73233 0
      vertex 33.25 4.5 6
      vertex 33.25 4.5 0
    endloop
  endfacet
  facet normal -0.939692 0.342021 0
    outer loop
      vertex 33.25 4.5 6
      vertex 32.6066 2.73233 0
      vertex 32.6066 2.73233 6
    endloop
  endfacet
  facet normal 0.173648 0.984808 -0
    outer loop
      vertex 30.9775 1.79178 0
      vertex 29.125 2.11843 6
      vertex 30.9775 1.79178 6
    endloop
  endfacet
  facet normal 0.173648 0.984808 0
    outer loop
      vertex 29.125 2.11843 6
      vertex 30.9775 1.79178 0
      vertex 29.125 2.11843 0
    endloop
  endfacet
  facet normal -0.939692 -0.342021 0
    outer loop
      vertex 33.25 32.5 0
      vertex 32.6066 34.2677 6
      vertex 32.6066 34.2677 0
    endloop
  endfacet
  facet normal -0.939692 -0.342021 0
    outer loop
      vertex 32.6066 34.2677 6
      vertex 33.25 32.5 0
      vertex 33.25 32.5 6
    endloop
  endfacet
  facet normal 1 -0 0
    outer loop
      vertex 27.9158 31.5594 6
      vertex 27.9158 33.4406 0
      vertex 27.9158 33.4406 6
    endloop
  endfacet
  facet normal 1 0 0
    outer loop
      vertex 27.9158 33.4406 0
      vertex 27.9158 31.5594 6
      vertex 27.9158 31.5594 0
    endloop
  endfacet
  facet normal 0.173649 -0.984808 0
    outer loop
      vertex 29.125 34.8816 0
      vertex 30.9775 35.2082 6
      vertex 29.125 34.8816 6
    endloop
  endfacet
  facet normal 0.173649 -0.984808 0
    outer loop
      vertex 30.9775 35.2082 6
      vertex 29.125 34.8816 0
      vertex 30.9775 35.2082 0
    endloop
  endfacet
  facet normal -0.5 -0.866025 0
    outer loop
      vertex 30.9775 35.2082 0
      vertex 32.6066 34.2677 6
      vertex 30.9775 35.2082 6
    endloop
  endfacet
  facet normal -0.5 -0.866025 -0
    outer loop
      vertex 32.6066 34.2677 6
      vertex 30.9775 35.2082 0
      vertex 32.6066 34.2677 0
    endloop
  endfacet
  facet normal 0.766044 -0.642788 0
    outer loop
      vertex 27.9158 33.4406 6
      vertex 29.125 34.8816 0
      vertex 29.125 34.8816 6
    endloop
  endfacet
  facet normal 0.766044 -0.642788 0
    outer loop
      vertex 29.125 34.8816 0
      vertex 27.9158 33.4406 6
      vertex 27.9158 33.4406 0
    endloop
  endfacet
  facet normal -0.939692 0.342021 0
    outer loop
      vertex 32.6066 30.7323 0
      vertex 33.25 32.5 6
      vertex 33.25 32.5 0
    endloop
  endfacet
  facet normal -0.939692 0.342021 0
    outer loop
      vertex 33.25 32.5 6
      vertex 32.6066 30.7323 0
      vertex 32.6066 30.7323 6
    endloop
  endfacet
  facet normal -0.5 0.866025 0
    outer loop
      vertex 32.6066 30.7323 0
      vertex 30.9775 29.7918 6
      vertex 32.6066 30.7323 6
    endloop
  endfacet
  facet normal -0.5 0.866025 0
    outer loop
      vertex 30.9775 29.7918 6
      vertex 32.6066 30.7323 0
      vertex 30.9775 29.7918 0
    endloop
  endfacet
  facet normal 0.766044 0.642788 0
    outer loop
      vertex 29.125 30.1184 6
      vertex 27.9158 31.5594 0
      vertex 27.9158 31.5594 6
    endloop
  endfacet
  facet normal 0.766044 0.642788 0
    outer loop
      vertex 27.9158 31.5594 0
      vertex 29.125 30.1184 6
      vertex 29.125 30.1184 0
    endloop
  endfacet
  facet normal 0.173649 0.984808 -0
    outer loop
      vertex 30.9775 29.7918 0
      vertex 29.125 30.1184 6
      vertex 30.9775 29.7918 6
    endloop
  endfacet
  facet normal 0.173649 0.984808 0
    outer loop
      vertex 29.125 30.1184 6
      vertex 30.9775 29.7918 0
      vertex 29.125 30.1184 0
    endloop
  endfacet
  facet normal -1 0 0
    outer loop
      vertex 0 0 0
      vertex 0 37 6
      vertex 0 37 0
    endloop
  endfacet
  facet normal -1 -0 0
    outer loop
      vertex 0 37 6
      vertex 0 0 0
      vertex 0 0 6
    endloop
  endfacet
  facet normal 0 0 1
    outer loop
      vertex 11.6066 6.26767 6
      vertex 29.125 6.88157 6
      vertex 11.6066 30.7323 6
    endloop
  endfacet
  facet normal 0 0 1
    outer loop
      vertex 29.125 6.88157 6
      vertex 11.6066 6.26767 6
      vertex 12.25 4.5 6
    endloop
  endfacet
  facet normal -0 0 1
    outer loop
      vertex 9.97753 29.7918 6
      vertex 11.6066 6.26767 6
      vertex 11.6066 30.7323 6
    endloop
  endfacet
  facet normal 0 0 1
    outer loop
      vertex 9.97753 29.7918 6
      vertex 9.97753 7.20822 6
      vertex 11.6066 6.26767 6
    endloop
  endfacet
  facet normal 0 0 1
    outer loop
      vertex 9.97753 29.7918 6
      vertex 8.125 6.88157 6
      vertex 9.97753 7.20822 6
    endloop
  endfacet
  facet normal 0 0 1
    outer loop
      vertex 8.125 30.1184 6
      vertex 8.125 6.88157 6
      vertex 9.97753 29.7918 6
    endloop
  endfacet
  facet normal 0 0 1
    outer loop
      vertex 6.91584 31.5594 6
      vertex 8.125 6.88157 6
      vertex 8.125 30.1184 6
    endloop
  endfacet
  facet normal 0 0 1
    outer loop
      vertex 8.125 6.88157 6
      vertex 6.91584 31.5594 6
      vertex 6.91584 5.44055 6
    endloop
  endfacet
  facet normal 0 0 1
    outer loop
      vertex 32.6066 6.26767 6
      vertex 52.25 18.5 6
      vertex 32.6066 30.7323 6
    endloop
  endfacet
  facet normal 0 0 1
    outer loop
      vertex 52.25 18.5 6
      vertex 32.6066 6.26767 6
      vertex 33.25 4.5 6
    endloop
  endfacet
  facet normal -0 0 1
    outer loop
      vertex 30.9775 29.7918 6
      vertex 32.6066 6.26767 6
      vertex 32.6066 30.7323 6
    endloop
  endfacet
  facet normal 0 0 1
    outer loop
      vertex 30.9775 29.7918 6
      vertex 30.9775 7.20822 6
      vertex 32.6066 6.26767 6
    endloop
  endfacet
  facet normal 0 0 1
    outer loop
      vertex 29.125 30.1184 6
      vertex 30.9775 7.20822 6
      vertex 30.9775 29.7918 6
    endloop
  endfacet
  facet normal 0 0 1
    outer loop
      vertex 29.125 30.1184 6
      vertex 29.125 6.88157 6
      vertex 30.9775 7.20822 6
    endloop
  endfacet
  facet normal 0 0 1
    outer loop
      vertex 11.6066 30.7323 6
      vertex 27.9158 31.5594 6
      vertex 12.25 32.5 6
    endloop
  endfacet
  facet normal 0 0 1
    outer loop
      vertex 27.9158 31.5594 6
      vertex 11.6066 30.7323 6
      vertex 29.125 30.1184 6
    endloop
  endfacet
  facet normal 0 0 1
    outer loop
      vertex 60 37 6
      vertex 57.75 18.5 6
      vertex 60 0 6
    endloop
  endfacet
  facet normal 0 0 1
    outer loop
      vertex 60 37 6
      vertex 56.375 20.8816 6
      vertex 57.75 18.5 6
    endloop
  endfacet
  facet normal 0 0 1
    outer loop
      vertex 60 37 6
      vertex 53.625 20.8816 6
      vertex 56.375 20.8816 6
    endloop
  endfacet
  facet normal -0 0 1
    outer loop
      vertex 33.25 32.5 6
      vertex 53.625 20.8816 6
      vertex 60 37 6
    endloop
  endfacet
  facet normal -0 0 1
    outer loop
      vertex 32.6066 30.7323 6
      vertex 53.625 20.8816 6
      vertex 33.25 32.5 6
    endloop
  endfacet
  facet normal 0 0 1
    outer loop
      vertex 60 37 6
      vertex 32.6066 34.2677 6
      vertex 33.25 32.5 6
    endloop
  endfacet
  facet normal 0 0 1
    outer loop
      vertex 60 37 6
      vertex 30.9775 35.2082 6
      vertex 32.6066 34.2677 6
    endloop
  endfacet
  facet normal -0 0 1
    outer loop
      vertex 12.25 32.5 6
      vertex 27.9158 31.5594 6
      vertex 27.9158 33.4406 6
    endloop
  endfacet
  facet normal 0 0 1
    outer loop
      vertex 29.125 30.1184 6
      vertex 11.6066 30.7323 6
      vertex 29.125 6.88157 6
    endloop
  endfacet
  facet normal 0 0 1
    outer loop
      vertex 29.125 6.88157 6
      vertex 12.25 4.5 6
      vertex 27.9158 5.44055 6
    endloop
  endfacet
  facet normal -0 0 1
    outer loop
      vertex 11.6066 34.2677 6
      vertex 27.9158 33.4406 6
      vertex 29.125 34.8816 6
    endloop
  endfacet
  facet normal -0 0 1
    outer loop
      vertex 9.97753 35.2082 6
      vertex 29.125 34.8816 6
      vertex 30.9775 35.2082 6
    endloop
  endfacet
  facet normal 0 0 1
    outer loop
      vertex 27.9158 33.4406 6
      vertex 11.6066 34.2677 6
      vertex 12.25 32.5 6
    endloop
  endfacet
  facet normal -0 0 1
    outer loop
      vertex 0 37 6
      vertex 30.9775 35.2082 6
      vertex 60 37 6
    endloop
  endfacet
  facet normal 0 0 1
    outer loop
      vertex 29.125 34.8816 6
      vertex 9.97753 35.2082 6
      vertex 11.6066 34.2677 6
    endloop
  endfacet
  facet normal 0 0 1
    outer loop
      vertex 0 37 6
      vertex 6.91584 31.5594 6
      vertex 6.91584 33.4406 6
    endloop
  endfacet
  facet normal 0 0 1
    outer loop
      vertex 6.91584 31.5594 6
      vertex 0 37 6
      vertex 6.91584 5.44055 6
    endloop
  endfacet
  facet normal 0 0 1
    outer loop
      vertex 0 0 6
      vertex 6.91584 5.44055 6
      vertex 0 37 6
    endloop
  endfacet
  facet normal 0 0 1
    outer loop
      vertex 8.125 34.8816 6
      vertex 0 37 6
      vertex 6.91584 33.4406 6
    endloop
  endfacet
  facet normal 0 0 1
    outer loop
      vertex 9.97753 35.2082 6
      vertex 0 37 6
      vertex 8.125 34.8816 6
    endloop
  endfacet
  facet normal 0 0 1
    outer loop
      vertex 30.9775 35.2082 6
      vertex 0 37 6
      vertex 9.97753 35.2082 6
    endloop
  endfacet
  facet normal -0 0 1
    outer loop
      vertex 56.375 16.1184 6
      vertex 60 0 6
      vertex 57.75 18.5 6
    endloop
  endfacet
  facet normal -0 0 1
    outer loop
      vertex 53.625 16.1184 6
      vertex 60 0 6
      vertex 56.375 16.1184 6
    endloop
  endfacet
  facet normal 0 0 1
    outer loop
      vertex 33.25 4.5 6
      vertex 53.625 16.1184 6
      vertex 52.25 18.5 6
    endloop
  endfacet
  facet normal 0 0 1
    outer loop
      vertex 53.625 20.8816 6
      vertex 32.6066 30.7323 6
      vertex 52.25 18.5 6
    endloop
  endfacet
  facet normal 0 0 1
    outer loop
      vertex 53.625 16.1184 6
      vertex 33.25 4.5 6
      vertex 60 0 6
    endloop
  endfacet
  facet normal -0 0 1
    outer loop
      vertex 32.6066 2.73233 6
      vertex 60 0 6
      vertex 33.25 4.5 6
    endloop
  endfacet
  facet normal -0 0 1
    outer loop
      vertex 30.9775 1.79178 6
      vertex 60 0 6
      vertex 32.6066 2.73233 6
    endloop
  endfacet
  facet normal 0 0 1
    outer loop
      vertex 27.9158 5.44055 6
      vertex 12.25 4.5 6
      vertex 27.9158 3.55944 6
    endloop
  endfacet
  facet normal 0 0 1
    outer loop
      vertex 11.6066 2.73233 6
      vertex 27.9158 3.55944 6
      vertex 12.25 4.5 6
    endloop
  endfacet
  facet normal 0 0 1
    outer loop
      vertex 27.9158 3.55944 6
      vertex 11.6066 2.73233 6
      vertex 29.125 2.11843 6
    endloop
  endfacet
  facet normal 0 0 1
    outer loop
      vertex 9.97753 1.79178 6
      vertex 29.125 2.11843 6
      vertex 11.6066 2.73233 6
    endloop
  endfacet
  facet normal 0 0 1
    outer loop
      vertex 29.125 2.11843 6
      vertex 9.97753 1.79178 6
      vertex 30.9775 1.79178 6
    endloop
  endfacet
  facet normal 0 0 1
    outer loop
      vertex 0 0 6
      vertex 30.9775 1.79178 6
      vertex 9.97753 1.79178 6
    endloop
  endfacet
  facet normal 0 0 1
    outer loop
      vertex 30.9775 1.79178 6
      vertex 0 0 6
      vertex 60 0 6
    endloop
  endfacet
  facet normal 0 0 1
    outer loop
      vertex 8.125 2.11843 6
      vertex 0 0 6
      vertex 9.97753 1.79178 6
    endloop
  endfacet
  facet normal 0 0 1
    outer loop
      vertex 6.91584 3.55944 6
      vertex 0 0 6
      vertex 8.125 2.11843 6
    endloop
  endfacet
  facet normal 0 0 1
    outer loop
      vertex 6.91584 5.44055 6
      vertex 0 0 6
      vertex 6.91584 3.55944 6
    endloop
  endfacet
  facet normal 1 -0 0
    outer loop
      vertex 60 0 6
      vertex 60 37 0
      vertex 60 37 6
    endloop
  endfacet
  facet normal 1 0 0
    outer loop
      vertex 60 37 0
      vertex 60 0 6
      vertex 60 0 0
    endloop
  endfacet
  facet normal 0 1 -0
    outer loop
      vertex 60 37 0
      vertex 0 37 6
      vertex 60 37 6
    endloop
  endfacet
  facet normal 0 1 0
    outer loop
      vertex 0 37 6
      vertex 60 37 0
      vertex 0 37 0
    endloop
  endfacet
  facet normal 0 0 -1
    outer loop
      vertex 11.6066 30.7323 0
      vertex 29.125 30.1184 0
      vertex 11.6066 6.26767 0
    endloop
  endfacet
  facet normal 0 0 -1
    outer loop
      vertex 29.125 30.1184 0
      vertex 11.6066 30.7323 0
      vertex 12.25 32.5 0
    endloop
  endfacet
  facet normal 0 0 -1
    outer loop
      vertex 9.97753 7.20822 0
      vertex 11.6066 30.7323 0
      vertex 11.6066 6.26767 0
    endloop
  endfacet
  facet normal 0 0 -1
    outer loop
      vertex 9.97753 7.20822 0
      vertex 9.97753 29.7918 0
      vertex 11.6066 30.7323 0
    endloop
  endfacet
  facet normal 0 0 -1
    outer loop
      vertex 8.125 6.88157 0
      vertex 9.97753 29.7918 0
      vertex 9.97753 7.20822 0
    endloop
  endfacet
  facet normal 0 0 -1
    outer loop
      vertex 8.125 6.88157 0
      vertex 8.125 30.1184 0
      vertex 9.97753 29.7918 0
    endloop
  endfacet
  facet normal 0 0 -1
    outer loop
      vertex 6.91584 5.44055 0
      vertex 8.125 30.1184 0
      vertex 8.125 6.88157 0
    endloop
  endfacet
  facet normal -0 0 -1
    outer loop
      vertex 8.125 30.1184 0
      vertex 6.91584 5.44055 0
      vertex 6.91584 31.5594 0
    endloop
  endfacet
  facet normal 0 0 -1
    outer loop
      vertex 32.6066 30.7323 0
      vertex 53.3861 18.8431 0
      vertex 32.6066 6.26767 0
    endloop
  endfacet
  facet normal 0 0 -1
    outer loop
      vertex 53.3861 18.8431 0
      vertex 32.6066 30.7323 0
      vertex 33.25 32.5 0
    endloop
  endfacet
  facet normal 0 0 -1
    outer loop
      vertex 30.9775 7.20822 0
      vertex 32.6066 30.7323 0
      vertex 32.6066 6.26767 0
    endloop
  endfacet
  facet normal 0 0 -1
    outer loop
      vertex 30.9775 7.20822 0
      vertex 30.9775 29.7918 0
      vertex 32.6066 30.7323 0
    endloop
  endfacet
  facet normal 0 0 -1
    outer loop
      vertex 29.125 6.88157 0
      vertex 30.9775 29.7918 0
      vertex 30.9775 7.20822 0
    endloop
  endfacet
  facet normal 0 0 -1
    outer loop
      vertex 29.125 6.88157 0
      vertex 29.125 30.1184 0
      vertex 30.9775 29.7918 0
    endloop
  endfacet
  facet normal 0 0 -1
    outer loop
      vertex 11.6066 6.26767 0
      vertex 27.9158 5.44055 0
      vertex 12.25 4.5 0
    endloop
  endfacet
  facet normal 0 0 -1
    outer loop
      vertex 27.9158 5.44055 0
      vertex 11.6066 6.26767 0
      vertex 29.125 6.88157 0
    endloop
  endfacet
  facet normal 0 0 -1
    outer loop
      vertex 60 0 0
      vertex 56.65 18.5 0
      vertex 60 37 0
    endloop
  endfacet
  facet normal 0 0 -1
    outer loop
      vertex 60 0 0
      vertex 56.5074 17.8289 0
      vertex 56.65 18.5 0
    endloop
  endfacet
  facet normal 0 0 -1
    outer loop
      vertex 60 0 0
      vertex 56.1041 17.2738 0
      vertex 56.5074 17.8289 0
    endloop
  endfacet
  facet normal 0 0 -1
    outer loop
      vertex 60 0 0
      vertex 55.5099 16.9308 0
      vertex 56.1041 17.2738 0
    endloop
  endfacet
  facet normal 0 0 -1
    outer loop
      vertex 60 0 0
      vertex 54.8275 16.859 0
      vertex 55.5099 16.9308 0
    endloop
  endfacet
  facet normal 0 0 -1
    outer loop
      vertex 60 0 0
      vertex 54.175 17.0711 0
      vertex 54.8275 16.859 0
    endloop
  endfacet
  facet normal 0 0 -1
    outer loop
      vertex 33.25 4.5 0
      vertex 54.175 17.0711 0
      vertex 60 0 0
    endloop
  endfacet
  facet normal -0 0 -1
    outer loop
      vertex 54.175 17.0711 0
      vertex 33.25 4.5 0
      vertex 53.6651 17.5302 0
    endloop
  endfacet
  facet normal -0 0 -1
    outer loop
      vertex 53.6651 17.5302 0
      vertex 32.6066 6.26767 0
      vertex 53.3861 18.1569 0
    endloop
  endfacet
  facet normal 0 0 -1
    outer loop
      vertex 32.6066 6.26767 0
      vertex 53.6651 17.5302 0
      vertex 33.25 4.5 0
    endloop
  endfacet
  facet normal 0 0 -1
    outer loop
      vertex 60 0 0
      vertex 32.6066 2.73233 0
      vertex 33.25 4.5 0
    endloop
  endfacet
  facet normal 0 0 -1
    outer loop
      vertex 60 0 0
      vertex 30.9775 1.79178 0
      vertex 32.6066 2.73233 0
    endloop
  endfacet
  facet normal 0 0 -1
    outer loop
      vertex 12.25 4.5 0
      vertex 27.9158 5.44055 0
      vertex 27.9158 3.55944 0
    endloop
  endfacet
  facet normal -0 0 -1
    outer loop
      vertex 29.125 6.88157 0
      vertex 11.6066 6.26767 0
      vertex 29.125 30.1184 0
    endloop
  endfacet
  facet normal 0 0 -1
    outer loop
      vertex 29.125 30.1184 0
      vertex 12.25 32.5 0
      vertex 27.9158 31.5594 0
    endloop
  endfacet
  facet normal 0 0 -1
    outer loop
      vertex 11.6066 2.73233 0
      vertex 27.9158 3.55944 0
      vertex 29.125 2.11843 0
    endloop
  endfacet
  facet normal 0 0 -1
    outer loop
      vertex 9.97753 1.79178 0
      vertex 29.125 2.11843 0
      vertex 30.9775 1.79178 0
    endloop
  endfacet
  facet normal -0 0 -1
    outer loop
      vertex 27.9158 3.55944 0
      vertex 11.6066 2.73233 0
      vertex 12.25 4.5 0
    endloop
  endfacet
  facet normal 0 0 -1
    outer loop
      vertex 0 0 0
      vertex 30.9775 1.79178 0
      vertex 60 0 0
    endloop
  endfacet
  facet normal -0 0 -1
    outer loop
      vertex 29.125 2.11843 0
      vertex 9.97753 1.79178 0
      vertex 11.6066 2.73233 0
    endloop
  endfacet
  facet normal 0 0 -1
    outer loop
      vertex 0 0 0
      vertex 6.91584 5.44055 0
      vertex 6.91584 3.55944 0
    endloop
  endfacet
  facet normal -0 0 -1
    outer loop
      vertex 6.91584 5.44055 0
      vertex 0 0 0
      vertex 6.91584 31.5594 0
    endloop
  endfacet
  facet normal 0 0 -1
    outer loop
      vertex 0 37 0
      vertex 6.91584 31.5594 0
      vertex 0 0 0
    endloop
  endfacet
  facet normal -0 0 -1
    outer loop
      vertex 8.125 2.11843 0
      vertex 0 0 0
      vertex 6.91584 3.55944 0
    endloop
  endfacet
  facet normal -0 0 -1
    outer loop
      vertex 9.97753 1.79178 0
      vertex 0 0 0
      vertex 8.125 2.11843 0
    endloop
  endfacet
  facet normal -0 0 -1
    outer loop
      vertex 30.9775 1.79178 0
      vertex 0 0 0
      vertex 9.97753 1.79178 0
    endloop
  endfacet
  facet normal 0 0 -1
    outer loop
      vertex 56.5074 19.1711 0
      vertex 60 37 0
      vertex 56.65 18.5 0
    endloop
  endfacet
  facet normal 0 0 -1
    outer loop
      vertex 56.1041 19.7262 0
      vertex 60 37 0
      vertex 56.5074 19.1711 0
    endloop
  endfacet
  facet normal 0 0 -1
    outer loop
      vertex 55.5099 20.0692 0
      vertex 60 37 0
      vertex 56.1041 19.7262 0
    endloop
  endfacet
  facet normal 0 0 -1
    outer loop
      vertex 54.8275 20.141 0
      vertex 60 37 0
      vertex 55.5099 20.0692 0
    endloop
  endfacet
  facet normal 0 0 -1
    outer loop
      vertex 54.175 19.9289 0
      vertex 60 37 0
      vertex 54.8275 20.141 0
    endloop
  endfacet
  facet normal 0 0 -1
    outer loop
      vertex 33.25 32.5 0
      vertex 54.175 19.9289 0
      vertex 53.6651 19.4698 0
    endloop
  endfacet
  facet normal 0 0 -1
    outer loop
      vertex 33.25 32.5 0
      vertex 53.6651 19.4698 0
      vertex 53.3861 18.8431 0
    endloop
  endfacet
  facet normal -0 0 -1
    outer loop
      vertex 53.3861 18.1569 0
      vertex 32.6066 6.26767 0
      vertex 53.3861 18.8431 0
    endloop
  endfacet
  facet normal 0 0 -1
    outer loop
      vertex 54.175 19.9289 0
      vertex 33.25 32.5 0
      vertex 60 37 0
    endloop
  endfacet
  facet normal 0 0 -1
    outer loop
      vertex 32.6066 34.2677 0
      vertex 60 37 0
      vertex 33.25 32.5 0
    endloop
  endfacet
  facet normal 0 0 -1
    outer loop
      vertex 30.9775 35.2082 0
      vertex 60 37 0
      vertex 32.6066 34.2677 0
    endloop
  endfacet
  facet normal 0 0 -1
    outer loop
      vertex 27.9158 31.5594 0
      vertex 12.25 32.5 0
      vertex 27.9158 33.4406 0
    endloop
  endfacet
  facet normal 0 0 -1
    outer loop
      vertex 11.6066 34.2677 0
      vertex 27.9158 33.4406 0
      vertex 12.25 32.5 0
    endloop
  endfacet
  facet normal 0 0 -1
    outer loop
      vertex 27.9158 33.4406 0
      vertex 11.6066 34.2677 0
      vertex 29.125 34.8816 0
    endloop
  endfacet
  facet normal 0 0 -1
    outer loop
      vertex 9.97753 35.2082 0
      vertex 29.125 34.8816 0
      vertex 11.6066 34.2677 0
    endloop
  endfacet
  facet normal 0 0 -1
    outer loop
      vertex 29.125 34.8816 0
      vertex 9.97753 35.2082 0
      vertex 30.9775 35.2082 0
    endloop
  endfacet
  facet normal 0 0 -1
    outer loop
      vertex 0 37 0
      vertex 30.9775 35.2082 0
      vertex 9.97753 35.2082 0
    endloop
  endfacet
  facet normal 0 0 -1
    outer loop
      vertex 30.9775 35.2082 0
      vertex 0 37 0
      vertex 60 37 0
    endloop
  endfacet
  facet normal 0 0 -1
    outer loop
      vertex 8.125 34.8816 0
      vertex 0 37 0
      vertex 9.97753 35.2082 0
    endloop
  endfacet
  facet normal 0 0 -1
    outer loop
      vertex 6.91584 33.4406 0
      vertex 0 37 0
      vertex 8.125 34.8816 0
    endloop
  endfacet
  facet normal 0 0 -1
    outer loop
      vertex 6.91584 31.5594 0
      vertex 0 37 0
      vertex 6.91584 33.4406 0
    endloop
  endfacet
  facet normal 0 -1 0
    outer loop
      vertex 0 0 0
      vertex 60 0 6
      vertex 0 0 6
    endloop
  endfacet
  facet normal 0 -1 -0
    outer loop
      vertex 60 0 6
      vertex 0 0 0
      vertex 60 0 0
    endloop
  endfacet
  facet normal -0.978147 -0.207912 0
    outer loop
      vertex 56.65 18.5 0
      vertex 56.5074 19.1711 4
      vertex 56.5074 19.1711 0
    endloop
  endfacet
  facet normal -0.978147 -0.207912 0
    outer loop
      vertex 56.5074 19.1711 4
      vertex 56.65 18.5 0
      vertex 56.65 18.5 4
    endloop
  endfacet
  facet normal 1 -0 0
    outer loop
      vertex 53.3861 18.1569 4
      vertex 53.3861 18.8431 0
      vertex 53.3861 18.8431 4
    endloop
  endfacet
  facet normal 1 0 0
    outer loop
      vertex 53.3861 18.8431 0
      vertex 53.3861 18.1569 4
      vertex 53.3861 18.1569 0
    endloop
  endfacet
  facet normal 0.913544 0.406741 0
    outer loop
      vertex 53.6651 17.5302 4
      vertex 53.3861 18.1569 0
      vertex 53.3861 18.1569 4
    endloop
  endfacet
  facet normal 0.913544 0.406741 0
    outer loop
      vertex 53.3861 18.1569 0
      vertex 53.6651 17.5302 4
      vertex 53.6651 17.5302 0
    endloop
  endfacet
  facet normal 0.309016 -0.951057 0
    outer loop
      vertex 54.175 19.9289 0
      vertex 54.8275 20.141 4
      vertex 54.175 19.9289 4
    endloop
  endfacet
  facet normal 0.309016 -0.951057 0
    outer loop
      vertex 54.8275 20.141 4
      vertex 54.175 19.9289 0
      vertex 54.8275 20.141 0
    endloop
  endfacet
  facet normal 0.669132 -0.743143 0
    outer loop
      vertex 53.6651 19.4698 0
      vertex 54.175 19.9289 4
      vertex 53.6651 19.4698 4
    endloop
  endfacet
  facet normal 0.669132 -0.743143 0
    outer loop
      vertex 54.175 19.9289 4
      vertex 53.6651 19.4698 0
      vertex 54.175 19.9289 0
    endloop
  endfacet
  facet normal -0.499999 -0.866026 0
    outer loop
      vertex 55.5099 20.0692 0
      vertex 56.1041 19.7262 4
      vertex 55.5099 20.0692 4
    endloop
  endfacet
  facet normal -0.499999 -0.866026 -0
    outer loop
      vertex 56.1041 19.7262 4
      vertex 55.5099 20.0692 0
      vertex 56.1041 19.7262 0
    endloop
  endfacet
  facet normal -0.809016 -0.587787 0
    outer loop
      vertex 56.5074 19.1711 0
      vertex 56.1041 19.7262 4
      vertex 56.1041 19.7262 0
    endloop
  endfacet
  facet normal -0.809016 -0.587787 0
    outer loop
      vertex 56.1041 19.7262 4
      vertex 56.5074 19.1711 0
      vertex 56.5074 19.1711 4
    endloop
  endfacet
  facet normal -0.10453 -0.994522 0
    outer loop
      vertex 54.8275 20.141 0
      vertex 55.5099 20.0692 4
      vertex 54.8275 20.141 4
    endloop
  endfacet
  facet normal -0.10453 -0.994522 -0
    outer loop
      vertex 55.5099 20.0692 4
      vertex 54.8275 20.141 0
      vertex 55.5099 20.0692 0
    endloop
  endfacet
  facet normal 0.913544 -0.40674 0
    outer loop
      vertex 53.3861 18.8431 4
      vertex 53.6651 19.4698 0
      vertex 53.6651 19.4698 4
    endloop
  endfacet
  facet normal 0.913544 -0.40674 0
    outer loop
      vertex 53.6651 19.4698 0
      vertex 53.3861 18.8431 4
      vertex 53.3861 18.8431 0
    endloop
  endfacet
  facet normal 0.309013 0.951058 -0
    outer loop
      vertex 54.8275 16.859 0
      vertex 54.175 17.0711 4
      vertex 54.8275 16.859 4
    endloop
  endfacet
  facet normal 0.309013 0.951058 0
    outer loop
      vertex 54.175 17.0711 4
      vertex 54.8275 16.859 0
      vertex 54.175 17.0711 0
    endloop
  endfacet
  facet normal 0.669134 0.743142 -0
    outer loop
      vertex 54.175 17.0711 0
      vertex 53.6651 17.5302 4
      vertex 54.175 17.0711 4
    endloop
  endfacet
  facet normal 0.669134 0.743142 0
    outer loop
      vertex 53.6651 17.5302 4
      vertex 54.175 17.0711 0
      vertex 53.6651 17.5302 0
    endloop
  endfacet
  facet normal -0.500001 0.866025 0
    outer loop
      vertex 56.1041 17.2738 0
      vertex 55.5099 16.9308 4
      vertex 56.1041 17.2738 4
    endloop
  endfacet
  facet normal -0.500001 0.866025 0
    outer loop
      vertex 55.5099 16.9308 4
      vertex 56.1041 17.2738 0
      vertex 55.5099 16.9308 0
    endloop
  endfacet
  facet normal -0.809016 0.587787 0
    outer loop
      vertex 56.1041 17.2738 0
      vertex 56.5074 17.8289 4
      vertex 56.5074 17.8289 0
    endloop
  endfacet
  facet normal -0.809016 0.587787 0
    outer loop
      vertex 56.5074 17.8289 4
      vertex 56.1041 17.2738 0
      vertex 56.1041 17.2738 4
    endloop
  endfacet
  facet normal -0.978147 0.207912 0
    outer loop
      vertex 56.5074 17.8289 0
      vertex 56.65 18.5 4
      vertex 56.65 18.5 0
    endloop
  endfacet
  facet normal -0.978147 0.207912 0
    outer loop
      vertex 56.65 18.5 4
      vertex 56.5074 17.8289 0
      vertex 56.5074 17.8289 4
    endloop
  endfacet
  facet normal -0.104527 0.994522 0
    outer loop
      vertex 55.5099 16.9308 0
      vertex 54.8275 16.859 4
      vertex 55.5099 16.9308 4
    endloop
  endfacet
  facet normal -0.104527 0.994522 0
    outer loop
      vertex 54.8275 16.859 4
      vertex 55.5099 16.9308 0
      vertex 54.8275 16.859 0
    endloop
  endfacet
  facet normal 0 0 1
    outer loop
      vertex 57.75 18.5 4
      vertex 56.5074 19.1711 4
      vertex 56.65 18.5 4
    endloop
  endfacet
  facet normal 0 0 1
    outer loop
      vertex 56.375 20.8816 4
      vertex 56.5074 19.1711 4
      vertex 57.75 18.5 4
    endloop
  endfacet
  facet normal 0 0 1
    outer loop
      vertex 56.375 20.8816 4
      vertex 56.1041 19.7262 4
      vertex 56.5074 19.1711 4
    endloop
  endfacet
  facet normal 0 0 1
    outer loop
      vertex 56.375 20.8816 4
      vertex 55.5099 20.0692 4
      vertex 56.1041 19.7262 4
    endloop
  endfacet
  facet normal 0 0 1
    outer loop
      vertex 56.375 20.8816 4
      vertex 54.8275 20.141 4
      vertex 55.5099 20.0692 4
    endloop
  endfacet
  facet normal -0 0 1
    outer loop
      vertex 53.625 20.8816 4
      vertex 54.8275 20.141 4
      vertex 56.375 20.8816 4
    endloop
  endfacet
  facet normal 0 0 1
    outer loop
      vertex 54.8275 20.141 4
      vertex 53.625 20.8816 4
      vertex 54.175 19.9289 4
    endloop
  endfacet
  facet normal 0 0 1
    outer loop
      vertex 53.625 20.8816 4
      vertex 53.6651 19.4698 4
      vertex 54.175 19.9289 4
    endloop
  endfacet
  facet normal 0 0 1
    outer loop
      vertex 52.25 18.5 4
      vertex 53.6651 19.4698 4
      vertex 53.625 20.8816 4
    endloop
  endfacet
  facet normal 0 0 1
    outer loop
      vertex 53.3861 18.8431 4
      vertex 52.25 18.5 4
      vertex 53.3861 18.1569 4
    endloop
  endfacet
  facet normal 0 0 1
    outer loop
      vertex 53.6651 19.4698 4
      vertex 52.25 18.5 4
      vertex 53.3861 18.8431 4
    endloop
  endfacet
  facet normal 0 0 1
    outer loop
      vertex 56.5074 17.8289 4
      vertex 57.75 18.5 4
      vertex 56.65 18.5 4
    endloop
  endfacet
  facet normal -0 0 1
    outer loop
      vertex 56.5074 17.8289 4
      vertex 56.375 16.1184 4
      vertex 57.75 18.5 4
    endloop
  endfacet
  facet normal -0 0 1
    outer loop
      vertex 56.1041 17.2738 4
      vertex 56.375 16.1184 4
      vertex 56.5074 17.8289 4
    endloop
  endfacet
  facet normal -0 0 1
    outer loop
      vertex 55.5099 16.9308 4
      vertex 56.375 16.1184 4
      vertex 56.1041 17.2738 4
    endloop
  endfacet
  facet normal -0 0 1
    outer loop
      vertex 54.8275 16.859 4
      vertex 56.375 16.1184 4
      vertex 55.5099 16.9308 4
    endloop
  endfacet
  facet normal 0 0 1
    outer loop
      vertex 53.625 16.1184 4
      vertex 54.8275 16.859 4
      vertex 54.175 17.0711 4
    endloop
  endfacet
  facet normal 0 0 1
    outer loop
      vertex 54.8275 16.859 4
      vertex 53.625 16.1184 4
      vertex 56.375 16.1184 4
    endloop
  endfacet
  facet normal 0 0 1
    outer loop
      vertex 53.6651 17.5302 4
      vertex 53.625 16.1184 4
      vertex 54.175 17.0711 4
    endloop
  endfacet
  facet normal 0 0 1
    outer loop
      vertex 52.25 18.5 4
      vertex 53.6651 17.5302 4
      vertex 53.3861 18.1569 4
    endloop
  endfacet
  facet normal 0 0 1
    outer loop
      vertex 53.6651 17.5302 4
      vertex 52.25 18.5 4
      vertex 53.625 16.1184 4
    endloop
  endfacet
  facet normal -0.866025 -0.5 0
    outer loop
      vertex 57.75 18.5 4
      vertex 56.375 20.8816 6
      vertex 56.375 20.8816 4
    endloop
  endfacet
  facet normal -0.866025 -0.5 0
    outer loop
      vertex 56.375 20.8816 6
      vertex 57.75 18.5 4
      vertex 57.75 18.5 6
    endloop
  endfacet
  facet normal 0 1 -0
    outer loop
      vertex 56.375 16.1184 4
      vertex 53.625 16.1184 6
      vertex 56.375 16.1184 6
    endloop
  endfacet
  facet normal 0 1 0
    outer loop
      vertex 53.625 16.1184 6
      vertex 56.375 16.1184 4
      vertex 53.625 16.1184 4
    endloop
  endfacet
  facet normal 0.866025 -0.5 0
    outer loop
      vertex 52.25 18.5 6
      vertex 53.625 20.8816 4
      vertex 53.625 20.8816 6
    endloop
  endfacet
  facet normal 0.866025 -0.5 0
    outer loop
      vertex 53.625 20.8816 4
      vertex 52.25 18.5 6
      vertex 52.25 18.5 4
    endloop
  endfacet
  facet normal 0 -1 0
    outer loop
      vertex 53.625 20.8816 4
      vertex 56.375 20.8816 6
      vertex 53.625 20.8816 6
    endloop
  endfacet
  facet normal 0 -1 -0
    outer loop
      vertex 56.375 20.8816 6
      vertex 53.625 20.8816 4
      vertex 56.375 20.8816 4
    endloop
  endfacet
  facet normal 0.866025 0.5 0
    outer loop
      vertex 53.625 16.1184 6
      vertex 52.25 18.5 4
      vertex 52.25 18.5 6
    endloop
  endfacet
  facet normal 0.866025 0.5 0
    outer loop
      vertex 52.25 18.5 4
      vertex 53.625 16.1184 6
      vertex 53.625 16.1184 4
    endloop
  endfacet
  facet normal -0.866025 0.5 0
    outer loop
      vertex 56.375 16.1184 4
      vertex 57.75 18.5 6
      vertex 57.75 18.5 4
    endloop
  endfacet
  facet normal -0.866025 0.5 0
    outer loop
      vertex 57.75 18.5 6
      vertex 56.375 16.1184 4
      vertex 56.375 16.1184 6
    endloop
  endfacet
endsolid OpenSCAD_Model
