solid OpenSCAD_Model
  facet normal 0.939693 -0.34202 0
    outer loop
      vertex -12.25 4.5 7
      vertex -11.6066 6.26767 0
      vertex -11.6066 6.26767 7
    endloop
  endfacet
  facet normal 0.939693 -0.34202 0
    outer loop
      vertex -11.6066 6.26767 0
      vertex -12.25 4.5 7
      vertex -12.25 4.5 0
    endloop
  endfacet
  facet normal -1 0 0
    outer loop
      vertex -6.91584 3.55944 0
      vertex -6.91584 5.44055 7
      vertex -6.91584 5.44055 0
    endloop
  endfacet
  facet normal -1 -0 0
    outer loop
      vertex -6.91584 5.44055 7
      vertex -6.91584 3.55944 0
      vertex -6.91584 3.55944 7
    endloop
  endfacet
  facet normal -0.173648 -0.984808 0
    outer loop
      vertex -9.97753 7.20822 0
      vertex -8.125 6.88157 7
      vertex -9.97753 7.20822 7
    endloop
  endfacet
  facet normal -0.173648 -0.984808 -0
    outer loop
      vertex -8.125 6.88157 7
      vertex -9.97753 7.20822 0
      vertex -8.125 6.88157 0
    endloop
  endfacet
  facet normal 0.5 -0.866026 0
    outer loop
      vertex -11.6066 6.26767 0
      vertex -9.97753 7.20822 7
      vertex -11.6066 6.26767 7
    endloop
  endfacet
  facet normal 0.5 -0.866026 0
    outer loop
      vertex -9.97753 7.20822 7
      vertex -11.6066 6.26767 0
      vertex -9.97753 7.20822 0
    endloop
  endfacet
  facet normal -0.766044 -0.642788 0
    outer loop
      vertex -6.91584 5.44055 0
      vertex -8.125 6.88157 7
      vertex -8.125 6.88157 0
    endloop
  endfacet
  facet normal -0.766044 -0.642788 0
    outer loop
      vertex -8.125 6.88157 7
      vertex -6.91584 5.44055 0
      vertex -6.91584 5.44055 7
    endloop
  endfacet
  facet normal 0.5 0.866026 -0
    outer loop
      vertex -9.97753 1.79178 0
      vertex -11.6066 2.73233 7
      vertex -9.97753 1.79178 7
    endloop
  endfacet
  facet normal 0.5 0.866026 0
    outer loop
      vertex -11.6066 2.73233 7
      vertex -9.97753 1.79178 0
      vertex -11.6066 2.73233 0
    endloop
  endfacet
  facet normal -0.766045 0.642787 0
    outer loop
      vertex -8.125 2.11843 0
      vertex -6.91584 3.55944 7
      vertex -6.91584 3.55944 0
    endloop
  endfacet
  facet normal -0.766045 0.642787 0
    outer loop
      vertex -6.91584 3.55944 7
      vertex -8.125 2.11843 0
      vertex -8.125 2.11843 7
    endloop
  endfacet
  facet normal 0.939693 0.34202 0
    outer loop
      vertex -11.6066 2.73233 7
      vertex -12.25 4.5 0
      vertex -12.25 4.5 7
    endloop
  endfacet
  facet normal 0.939693 0.34202 0
    outer loop
      vertex -12.25 4.5 0
      vertex -11.6066 2.73233 7
      vertex -11.6066 2.73233 0
    endloop
  endfacet
  facet normal -0.173648 0.984808 0
    outer loop
      vertex -8.125 2.11843 0
      vertex -9.97753 1.79178 7
      vertex -8.125 2.11843 7
    endloop
  endfacet
  facet normal -0.173648 0.984808 0
    outer loop
      vertex -9.97753 1.79178 7
      vertex -8.125 2.11843 0
      vertex -9.97753 1.79178 0
    endloop
  endfacet
  facet normal 0.939693 -0.34202 0
    outer loop
      vertex -12.25 32.5 7
      vertex -11.6066 34.2677 0
      vertex -11.6066 34.2677 7
    endloop
  endfacet
  facet normal 0.939693 -0.34202 0
    outer loop
      vertex -11.6066 34.2677 0
      vertex -12.25 32.5 7
      vertex -12.25 32.5 0
    endloop
  endfacet
  facet normal -1 0 0
    outer loop
      vertex -6.91584 31.5594 0
      vertex -6.91584 33.4406 7
      vertex -6.91584 33.4406 0
    endloop
  endfacet
  facet normal -1 -0 0
    outer loop
      vertex -6.91584 33.4406 7
      vertex -6.91584 31.5594 0
      vertex -6.91584 31.5594 7
    endloop
  endfacet
  facet normal -0.173649 -0.984808 0
    outer loop
      vertex -9.97753 35.2082 0
      vertex -8.125 34.8816 7
      vertex -9.97753 35.2082 7
    endloop
  endfacet
  facet normal -0.173649 -0.984808 -0
    outer loop
      vertex -8.125 34.8816 7
      vertex -9.97753 35.2082 0
      vertex -8.125 34.8816 0
    endloop
  endfacet
  facet normal 0.5 -0.866025 0
    outer loop
      vertex -11.6066 34.2677 0
      vertex -9.97753 35.2082 7
      vertex -11.6066 34.2677 7
    endloop
  endfacet
  facet normal 0.5 -0.866025 0
    outer loop
      vertex -9.97753 35.2082 7
      vertex -11.6066 34.2677 0
      vertex -9.97753 35.2082 0
    endloop
  endfacet
  facet normal -0.766044 -0.642788 0
    outer loop
      vertex -6.91584 33.4406 0
      vertex -8.125 34.8816 7
      vertex -8.125 34.8816 0
    endloop
  endfacet
  facet normal -0.766044 -0.642788 0
    outer loop
      vertex -8.125 34.8816 7
      vertex -6.91584 33.4406 0
      vertex -6.91584 33.4406 7
    endloop
  endfacet
  facet normal 0.5 0.866025 -0
    outer loop
      vertex -9.97753 29.7918 0
      vertex -11.6066 30.7323 7
      vertex -9.97753 29.7918 7
    endloop
  endfacet
  facet normal 0.5 0.866025 0
    outer loop
      vertex -11.6066 30.7323 7
      vertex -9.97753 29.7918 0
      vertex -11.6066 30.7323 0
    endloop
  endfacet
  facet normal 0.939693 0.34202 0
    outer loop
      vertex -11.6066 30.7323 7
      vertex -12.25 32.5 0
      vertex -12.25 32.5 7
    endloop
  endfacet
  facet normal 0.939693 0.34202 0
    outer loop
      vertex -12.25 32.5 0
      vertex -11.6066 30.7323 7
      vertex -11.6066 30.7323 0
    endloop
  endfacet
  facet normal -0.173649 0.984808 0
    outer loop
      vertex -8.125 30.1184 0
      vertex -9.97753 29.7918 7
      vertex -8.125 30.1184 7
    endloop
  endfacet
  facet normal -0.173649 0.984808 0
    outer loop
      vertex -9.97753 29.7918 7
      vertex -8.125 30.1184 0
      vertex -9.97753 29.7918 0
    endloop
  endfacet
  facet normal -0.766044 0.642788 0
    outer loop
      vertex -8.125 30.1184 0
      vertex -6.91584 31.5594 7
      vertex -6.91584 31.5594 0
    endloop
  endfacet
  facet normal -0.766044 0.642788 0
    outer loop
      vertex -6.91584 31.5594 7
      vertex -8.125 30.1184 0
      vertex -8.125 30.1184 7
    endloop
  endfacet
  facet normal 0.939692 -0.342021 0
    outer loop
      vertex -33.25 4.5 7
      vertex -32.6066 6.26767 0
      vertex -32.6066 6.26767 7
    endloop
  endfacet
  facet normal 0.939692 -0.342021 0
    outer loop
      vertex -32.6066 6.26767 0
      vertex -33.25 4.5 7
      vertex -33.25 4.5 0
    endloop
  endfacet
  facet normal -1 0 0
    outer loop
      vertex -27.9158 3.55944 0
      vertex -27.9158 5.44055 7
      vertex -27.9158 5.44055 0
    endloop
  endfacet
  facet normal -1 -0 0
    outer loop
      vertex -27.9158 5.44055 7
      vertex -27.9158 3.55944 0
      vertex -27.9158 3.55944 7
    endloop
  endfacet
  facet normal -0.173648 -0.984808 0
    outer loop
      vertex -30.9775 7.20822 0
      vertex -29.125 6.88157 7
      vertex -30.9775 7.20822 7
    endloop
  endfacet
  facet normal -0.173648 -0.984808 -0
    outer loop
      vertex -29.125 6.88157 7
      vertex -30.9775 7.20822 0
      vertex -29.125 6.88157 0
    endloop
  endfacet
  facet normal 0.5 -0.866026 0
    outer loop
      vertex -32.6066 6.26767 0
      vertex -30.9775 7.20822 7
      vertex -32.6066 6.26767 7
    endloop
  endfacet
  facet normal 0.5 -0.866026 0
    outer loop
      vertex -30.9775 7.20822 7
      vertex -32.6066 6.26767 0
      vertex -30.9775 7.20822 0
    endloop
  endfacet
  facet normal -0.766044 -0.642788 0
    outer loop
      vertex -27.9158 5.44055 0
      vertex -29.125 6.88157 7
      vertex -29.125 6.88157 0
    endloop
  endfacet
  facet normal -0.766044 -0.642788 0
    outer loop
      vertex -29.125 6.88157 7
      vertex -27.9158 5.44055 0
      vertex -27.9158 5.44055 7
    endloop
  endfacet
  facet normal 0.5 0.866026 -0
    outer loop
      vertex -30.9775 1.79178 0
      vertex -32.6066 2.73233 7
      vertex -30.9775 1.79178 7
    endloop
  endfacet
  facet normal 0.5 0.866026 0
    outer loop
      vertex -32.6066 2.73233 7
      vertex -30.9775 1.79178 0
      vertex -32.6066 2.73233 0
    endloop
  endfacet
  facet normal 0.939692 0.342021 0
    outer loop
      vertex -32.6066 2.73233 7
      vertex -33.25 4.5 0
      vertex -33.25 4.5 7
    endloop
  endfacet
  facet normal 0.939692 0.342021 0
    outer loop
      vertex -33.25 4.5 0
      vertex -32.6066 2.73233 7
      vertex -32.6066 2.73233 0
    endloop
  endfacet
  facet normal -0.173648 0.984808 0
    outer loop
      vertex -29.125 2.11843 0
      vertex -30.9775 1.79178 7
      vertex -29.125 2.11843 7
    endloop
  endfacet
  facet normal -0.173648 0.984808 0
    outer loop
      vertex -30.9775 1.79178 7
      vertex -29.125 2.11843 0
      vertex -30.9775 1.79178 0
    endloop
  endfacet
  facet normal -0.766044 0.642788 0
    outer loop
      vertex -29.125 2.11843 0
      vertex -27.9158 3.55944 7
      vertex -27.9158 3.55944 0
    endloop
  endfacet
  facet normal -0.766044 0.642788 0
    outer loop
      vertex -27.9158 3.55944 7
      vertex -29.125 2.11843 0
      vertex -29.125 2.11843 7
    endloop
  endfacet
  facet normal 0.939692 -0.342021 0
    outer loop
      vertex -33.25 32.5 7
      vertex -32.6066 34.2677 0
      vertex -32.6066 34.2677 7
    endloop
  endfacet
  facet normal 0.939692 -0.342021 0
    outer loop
      vertex -32.6066 34.2677 0
      vertex -33.25 32.5 7
      vertex -33.25 32.5 0
    endloop
  endfacet
  facet normal -1 0 0
    outer loop
      vertex -27.9158 31.5594 0
      vertex -27.9158 33.4406 7
      vertex -27.9158 33.4406 0
    endloop
  endfacet
  facet normal -1 -0 0
    outer loop
      vertex -27.9158 33.4406 7
      vertex -27.9158 31.5594 0
      vertex -27.9158 31.5594 7
    endloop
  endfacet
  facet normal -0.173649 -0.984808 0
    outer loop
      vertex -30.9775 35.2082 0
      vertex -29.125 34.8816 7
      vertex -30.9775 35.2082 7
    endloop
  endfacet
  facet normal -0.173649 -0.984808 -0
    outer loop
      vertex -29.125 34.8816 7
      vertex -30.9775 35.2082 0
      vertex -29.125 34.8816 0
    endloop
  endfacet
  facet normal 0.5 -0.866025 0
    outer loop
      vertex -32.6066 34.2677 0
      vertex -30.9775 35.2082 7
      vertex -32.6066 34.2677 7
    endloop
  endfacet
  facet normal 0.5 -0.866025 0
    outer loop
      vertex -30.9775 35.2082 7
      vertex -32.6066 34.2677 0
      vertex -30.9775 35.2082 0
    endloop
  endfacet
  facet normal -0.766044 -0.642788 0
    outer loop
      vertex -27.9158 33.4406 0
      vertex -29.125 34.8816 7
      vertex -29.125 34.8816 0
    endloop
  endfacet
  facet normal -0.766044 -0.642788 0
    outer loop
      vertex -29.125 34.8816 7
      vertex -27.9158 33.4406 0
      vertex -27.9158 33.4406 7
    endloop
  endfacet
  facet normal 0.5 0.866025 -0
    outer loop
      vertex -30.9775 29.7918 0
      vertex -32.6066 30.7323 7
      vertex -30.9775 29.7918 7
    endloop
  endfacet
  facet normal 0.5 0.866025 0
    outer loop
      vertex -32.6066 30.7323 7
      vertex -30.9775 29.7918 0
      vertex -32.6066 30.7323 0
    endloop
  endfacet
  facet normal 0.939692 0.342021 0
    outer loop
      vertex -32.6066 30.7323 7
      vertex -33.25 32.5 0
      vertex -33.25 32.5 7
    endloop
  endfacet
  facet normal 0.939692 0.342021 0
    outer loop
      vertex -33.25 32.5 0
      vertex -32.6066 30.7323 7
      vertex -32.6066 30.7323 0
    endloop
  endfacet
  facet normal -0.173649 0.984808 0
    outer loop
      vertex -29.125 30.1184 0
      vertex -30.9775 29.7918 7
      vertex -29.125 30.1184 7
    endloop
  endfacet
  facet normal -0.173649 0.984808 0
    outer loop
      vertex -30.9775 29.7918 7
      vertex -29.125 30.1184 0
      vertex -30.9775 29.7918 0
    endloop
  endfacet
  facet normal -0.766044 0.642788 0
    outer loop
      vertex -29.125 30.1184 0
      vertex -27.9158 31.5594 7
      vertex -27.9158 31.5594 0
    endloop
  endfacet
  facet normal -0.766044 0.642788 0
    outer loop
      vertex -27.9158 31.5594 7
      vertex -29.125 30.1184 0
      vertex -29.125 30.1184 7
    endloop
  endfacet
  facet normal 0.866025 -0.5 0
    outer loop
      vertex -11.15 47 5
      vertex -10.325 48.4289 0
      vertex -10.325 48.4289 5
    endloop
  endfacet
  facet normal 0.866025 -0.5 0
    outer loop
      vertex -10.325 48.4289 0
      vertex -11.15 47 5
      vertex -11.15 47 0
    endloop
  endfacet
  facet normal 0 -1 0
    outer loop
      vertex -10.325 48.4289 0
      vertex -8.675 48.4289 5
      vertex -10.325 48.4289 5
    endloop
  endfacet
  facet normal 0 -1 -0
    outer loop
      vertex -8.675 48.4289 5
      vertex -10.325 48.4289 0
      vertex -8.675 48.4289 0
    endloop
  endfacet
  facet normal 0 1 -0
    outer loop
      vertex -8.675 45.5711 0
      vertex -10.325 45.5711 5
      vertex -8.675 45.5711 5
    endloop
  endfacet
  facet normal 0 1 0
    outer loop
      vertex -10.325 45.5711 5
      vertex -8.675 45.5711 0
      vertex -10.325 45.5711 0
    endloop
  endfacet
  facet normal -0.866025 -0.5 0
    outer loop
      vertex -7.85 47 0
      vertex -8.675 48.4289 5
      vertex -8.675 48.4289 0
    endloop
  endfacet
  facet normal -0.866025 -0.5 0
    outer loop
      vertex -8.675 48.4289 5
      vertex -7.85 47 0
      vertex -7.85 47 5
    endloop
  endfacet
  facet normal 0.866026 0.499999 0
    outer loop
      vertex -10.325 45.5711 5
      vertex -11.15 47 0
      vertex -11.15 47 5
    endloop
  endfacet
  facet normal 0.866026 0.499999 0
    outer loop
      vertex -11.15 47 0
      vertex -10.325 45.5711 5
      vertex -10.325 45.5711 0
    endloop
  endfacet
  facet normal -0.866026 0.499999 0
    outer loop
      vertex -8.675 45.5711 0
      vertex -7.85 47 5
      vertex -7.85 47 0
    endloop
  endfacet
  facet normal -0.866026 0.499999 0
    outer loop
      vertex -7.85 47 5
      vertex -8.675 45.5711 0
      vertex -8.675 45.5711 5
    endloop
  endfacet
  facet normal 0.866025 -0.5 0
    outer loop
      vertex -12.5 47 7
      vertex -11 49.5981 5
      vertex -11 49.5981 7
    endloop
  endfacet
  facet normal 0.866025 -0.5 0
    outer loop
      vertex -11 49.5981 5
      vertex -12.5 47 7
      vertex -12.5 47 5
    endloop
  endfacet
  facet normal -0.866026 0.5 0
    outer loop
      vertex -8 44.4019 5
      vertex -6.5 47 7
      vertex -6.5 47 5
    endloop
  endfacet
  facet normal -0.866026 0.5 0
    outer loop
      vertex -6.5 47 7
      vertex -8 44.4019 5
      vertex -8 44.4019 7
    endloop
  endfacet
  facet normal 0 -1 0
    outer loop
      vertex -11 49.5981 5
      vertex -8 49.5981 7
      vertex -11 49.5981 7
    endloop
  endfacet
  facet normal 0 -1 -0
    outer loop
      vertex -8 49.5981 7
      vertex -11 49.5981 5
      vertex -8 49.5981 5
    endloop
  endfacet
  facet normal 0 1 -0
    outer loop
      vertex -8 44.4019 5
      vertex -11 44.4019 7
      vertex -8 44.4019 7
    endloop
  endfacet
  facet normal 0 1 0
    outer loop
      vertex -11 44.4019 7
      vertex -8 44.4019 5
      vertex -11 44.4019 5
    endloop
  endfacet
  facet normal -0.866025 -0.5 0
    outer loop
      vertex -6.5 47 5
      vertex -8 49.5981 7
      vertex -8 49.5981 5
    endloop
  endfacet
  facet normal -0.866025 -0.5 0
    outer loop
      vertex -8 49.5981 7
      vertex -6.5 47 5
      vertex -6.5 47 7
    endloop
  endfacet
  facet normal 0 0 1
    outer loop
      vertex -8 49.5981 5
      vertex -7.85 47 5
      vertex -6.5 47 5
    endloop
  endfacet
  facet normal 0 0 1
    outer loop
      vertex -8 49.5981 5
      vertex -8.675 48.4289 5
      vertex -7.85 47 5
    endloop
  endfacet
  facet normal 0 0 1
    outer loop
      vertex -8 49.5981 5
      vertex -10.325 48.4289 5
      vertex -8.675 48.4289 5
    endloop
  endfacet
  facet normal -0 0 1
    outer loop
      vertex -11 49.5981 5
      vertex -10.325 48.4289 5
      vertex -8 49.5981 5
    endloop
  endfacet
  facet normal 0 0 1
    outer loop
      vertex -11 49.5981 5
      vertex -11.15 47 5
      vertex -10.325 48.4289 5
    endloop
  endfacet
  facet normal 0 -0 1
    outer loop
      vertex -11.15 47 5
      vertex -11 49.5981 5
      vertex -12.5 47 5
    endloop
  endfacet
  facet normal -0 0 1
    outer loop
      vertex -7.85 47 5
      vertex -8 44.4019 5
      vertex -6.5 47 5
    endloop
  endfacet
  facet normal -0 0 1
    outer loop
      vertex -8.675 45.5711 5
      vertex -8 44.4019 5
      vertex -7.85 47 5
    endloop
  endfacet
  facet normal -0 0 1
    outer loop
      vertex -10.325 45.5711 5
      vertex -8 44.4019 5
      vertex -8.675 45.5711 5
    endloop
  endfacet
  facet normal 0 0 1
    outer loop
      vertex -10.325 45.5711 5
      vertex -11 44.4019 5
      vertex -8 44.4019 5
    endloop
  endfacet
  facet normal 0 0 1
    outer loop
      vertex -11.15 47 5
      vertex -11 44.4019 5
      vertex -10.325 45.5711 5
    endloop
  endfacet
  facet normal 0 0 1
    outer loop
      vertex -11 44.4019 5
      vertex -11.15 47 5
      vertex -12.5 47 5
    endloop
  endfacet
  facet normal 0.866025 0.5 0
    outer loop
      vertex -11 44.4019 7
      vertex -12.5 47 5
      vertex -12.5 47 7
    endloop
  endfacet
  facet normal 0.866025 0.5 0
    outer loop
      vertex -12.5 47 5
      vertex -11 44.4019 7
      vertex -11 44.4019 5
    endloop
  endfacet
  facet normal 0.866025 -0.500001 0
    outer loop
      vertex -52.15 47 5
      vertex -51.325 48.4289 0
      vertex -51.325 48.4289 5
    endloop
  endfacet
  facet normal 0.866025 -0.500001 0
    outer loop
      vertex -51.325 48.4289 0
      vertex -52.15 47 5
      vertex -52.15 47 0
    endloop
  endfacet
  facet normal 0 -1 0
    outer loop
      vertex -51.325 48.4289 0
      vertex -49.675 48.4289 5
      vertex -51.325 48.4289 5
    endloop
  endfacet
  facet normal 0 -1 -0
    outer loop
      vertex -49.675 48.4289 5
      vertex -51.325 48.4289 0
      vertex -49.675 48.4289 0
    endloop
  endfacet
  facet normal 0 1 -0
    outer loop
      vertex -49.675 45.5711 0
      vertex -51.325 45.5711 5
      vertex -49.675 45.5711 5
    endloop
  endfacet
  facet normal 0 1 0
    outer loop
      vertex -51.325 45.5711 5
      vertex -49.675 45.5711 0
      vertex -51.325 45.5711 0
    endloop
  endfacet
  facet normal -0.866025 -0.500001 0
    outer loop
      vertex -48.85 47 0
      vertex -49.675 48.4289 5
      vertex -49.675 48.4289 0
    endloop
  endfacet
  facet normal -0.866025 -0.500001 0
    outer loop
      vertex -49.675 48.4289 5
      vertex -48.85 47 0
      vertex -48.85 47 5
    endloop
  endfacet
  facet normal 0.866025 0.5 0
    outer loop
      vertex -51.325 45.5711 5
      vertex -52.15 47 0
      vertex -52.15 47 5
    endloop
  endfacet
  facet normal 0.866025 0.5 0
    outer loop
      vertex -52.15 47 0
      vertex -51.325 45.5711 5
      vertex -51.325 45.5711 0
    endloop
  endfacet
  facet normal -0.866025 0.5 0
    outer loop
      vertex -49.675 45.5711 0
      vertex -48.85 47 5
      vertex -48.85 47 0
    endloop
  endfacet
  facet normal -0.866025 0.5 0
    outer loop
      vertex -48.85 47 5
      vertex -49.675 45.5711 0
      vertex -49.675 45.5711 5
    endloop
  endfacet
  facet normal 0 0 1
    outer loop
      vertex -49 49.5981 5
      vertex -48.85 47 5
      vertex -47.5 47 5
    endloop
  endfacet
  facet normal 0 0 1
    outer loop
      vertex -49 49.5981 5
      vertex -49.675 48.4289 5
      vertex -48.85 47 5
    endloop
  endfacet
  facet normal 0 0 1
    outer loop
      vertex -49 49.5981 5
      vertex -51.325 48.4289 5
      vertex -49.675 48.4289 5
    endloop
  endfacet
  facet normal -0 0 1
    outer loop
      vertex -52 49.5981 5
      vertex -51.325 48.4289 5
      vertex -49 49.5981 5
    endloop
  endfacet
  facet normal 0 0 1
    outer loop
      vertex -52 49.5981 5
      vertex -52.15 47 5
      vertex -51.325 48.4289 5
    endloop
  endfacet
  facet normal 0 -0 1
    outer loop
      vertex -52.15 47 5
      vertex -52 49.5981 5
      vertex -53.5 47 5
    endloop
  endfacet
  facet normal -0 0 1
    outer loop
      vertex -48.85 47 5
      vertex -49 44.4019 5
      vertex -47.5 47 5
    endloop
  endfacet
  facet normal -0 0 1
    outer loop
      vertex -49.675 45.5711 5
      vertex -49 44.4019 5
      vertex -48.85 47 5
    endloop
  endfacet
  facet normal -0 0 1
    outer loop
      vertex -51.325 45.5711 5
      vertex -49 44.4019 5
      vertex -49.675 45.5711 5
    endloop
  endfacet
  facet normal 0 0 1
    outer loop
      vertex -51.325 45.5711 5
      vertex -52 44.4019 5
      vertex -49 44.4019 5
    endloop
  endfacet
  facet normal 0 0 1
    outer loop
      vertex -52.15 47 5
      vertex -52 44.4019 5
      vertex -51.325 45.5711 5
    endloop
  endfacet
  facet normal 0 0 1
    outer loop
      vertex -52 44.4019 5
      vertex -52.15 47 5
      vertex -53.5 47 5
    endloop
  endfacet
  facet normal 0.866025 -0.5 0
    outer loop
      vertex -53.5 47 7
      vertex -52 49.5981 5
      vertex -52 49.5981 7
    endloop
  endfacet
  facet normal 0.866025 -0.5 0
    outer loop
      vertex -52 49.5981 5
      vertex -53.5 47 7
      vertex -53.5 47 5
    endloop
  endfacet
  facet normal 0 1 -0
    outer loop
      vertex -49 44.4019 5
      vertex -52 44.4019 7
      vertex -49 44.4019 7
    endloop
  endfacet
  facet normal 0 1 0
    outer loop
      vertex -52 44.4019 7
      vertex -49 44.4019 5
      vertex -52 44.4019 5
    endloop
  endfacet
  facet normal -0.866025 -0.5 0
    outer loop
      vertex -47.5 47 5
      vertex -49 49.5981 7
      vertex -49 49.5981 5
    endloop
  endfacet
  facet normal -0.866025 -0.5 0
    outer loop
      vertex -49 49.5981 7
      vertex -47.5 47 5
      vertex -47.5 47 7
    endloop
  endfacet
  facet normal 0 -1 0
    outer loop
      vertex -52 49.5981 5
      vertex -49 49.5981 7
      vertex -52 49.5981 7
    endloop
  endfacet
  facet normal 0 -1 -0
    outer loop
      vertex -49 49.5981 7
      vertex -52 49.5981 5
      vertex -49 49.5981 5
    endloop
  endfacet
  facet normal -0.866025 0.5 0
    outer loop
      vertex -49 44.4019 5
      vertex -47.5 47 7
      vertex -47.5 47 5
    endloop
  endfacet
  facet normal -0.866025 0.5 0
    outer loop
      vertex -47.5 47 7
      vertex -49 44.4019 5
      vertex -49 44.4019 7
    endloop
  endfacet
  facet normal 0.866025 0.5 0
    outer loop
      vertex -52 44.4019 7
      vertex -53.5 47 5
      vertex -53.5 47 7
    endloop
  endfacet
  facet normal 0.866025 0.5 0
    outer loop
      vertex -53.5 47 5
      vertex -52 44.4019 7
      vertex -52 44.4019 5
    endloop
  endfacet
  facet normal 1 -0 0
    outer loop
      vertex 0 0 7
      vertex 0 57 0
      vertex 0 57 7
    endloop
  endfacet
  facet normal 1 0 0
    outer loop
      vertex 0 57 0
      vertex 0 0 7
      vertex 0 0 0
    endloop
  endfacet
  facet normal -0 0 1
    outer loop
      vertex -8.125 30.1184 7
      vertex -6.91584 5.44055 7
      vertex -6.91584 31.5594 7
    endloop
  endfacet
  facet normal 0 0 1
    outer loop
      vertex -8.125 30.1184 7
      vertex -8.125 6.88157 7
      vertex -6.91584 5.44055 7
    endloop
  endfacet
  facet normal -0 0 1
    outer loop
      vertex -9.97753 29.7918 7
      vertex -8.125 6.88157 7
      vertex -8.125 30.1184 7
    endloop
  endfacet
  facet normal 0 0 1
    outer loop
      vertex -9.97753 29.7918 7
      vertex -9.97753 7.20822 7
      vertex -8.125 6.88157 7
    endloop
  endfacet
  facet normal 0 0 1
    outer loop
      vertex -11.6066 30.7323 7
      vertex -9.97753 7.20822 7
      vertex -9.97753 29.7918 7
    endloop
  endfacet
  facet normal 0 0 1
    outer loop
      vertex -11.6066 30.7323 7
      vertex -11.6066 6.26767 7
      vertex -9.97753 7.20822 7
    endloop
  endfacet
  facet normal -0 0 1
    outer loop
      vertex -27.9158 31.5594 7
      vertex -11.6066 30.7323 7
      vertex -12.25 32.5 7
    endloop
  endfacet
  facet normal 0 0 1
    outer loop
      vertex -11.6066 30.7323 7
      vertex -29.125 30.1184 7
      vertex -11.6066 6.26767 7
    endloop
  endfacet
  facet normal -0 0 1
    outer loop
      vertex -8 44.4019 7
      vertex -6.91584 33.4406 7
      vertex -6.5 47 7
    endloop
  endfacet
  facet normal 0 0 1
    outer loop
      vertex -8 44.4019 7
      vertex -8.125 34.8816 7
      vertex -6.91584 33.4406 7
    endloop
  endfacet
  facet normal 0 0 1
    outer loop
      vertex -8 44.4019 7
      vertex -9.97753 35.2082 7
      vertex -8.125 34.8816 7
    endloop
  endfacet
  facet normal -0 0 1
    outer loop
      vertex -11 44.4019 7
      vertex -9.97753 35.2082 7
      vertex -8 44.4019 7
    endloop
  endfacet
  facet normal 0 0 1
    outer loop
      vertex -11 44.4019 7
      vertex -11.6066 34.2677 7
      vertex -9.97753 35.2082 7
    endloop
  endfacet
  facet normal 0 0 1
    outer loop
      vertex -27.9158 33.4406 7
      vertex -11.6066 34.2677 7
      vertex -11 44.4019 7
    endloop
  endfacet
  facet normal 0 0 1
    outer loop
      vertex -11.6066 34.2677 7
      vertex -27.9158 33.4406 7
      vertex -12.25 32.5 7
    endloop
  endfacet
  facet normal 0 0 1
    outer loop
      vertex -27.9158 33.4406 7
      vertex -11 44.4019 7
      vertex -12.5 47 7
    endloop
  endfacet
  facet normal 0 0 1
    outer loop
      vertex -6.91584 33.4406 7
      vertex 0 57 7
      vertex -6.5 47 7
    endloop
  endfacet
  facet normal 0 0 1
    outer loop
      vertex 0 57 7
      vertex -8 49.5981 7
      vertex -6.5 47 7
    endloop
  endfacet
  facet normal 0 0 1
    outer loop
      vertex 0 57 7
      vertex -11 49.5981 7
      vertex -8 49.5981 7
    endloop
  endfacet
  facet normal 0 0 1
    outer loop
      vertex -47.5 47 7
      vertex -12.5 47 7
      vertex -11 49.5981 7
    endloop
  endfacet
  facet normal 0 0 1
    outer loop
      vertex -12.5 47 7
      vertex -29.125 34.8816 7
      vertex -27.9158 33.4406 7
    endloop
  endfacet
  facet normal 0 0 1
    outer loop
      vertex -12.5 47 7
      vertex -30.9775 35.2082 7
      vertex -29.125 34.8816 7
    endloop
  endfacet
  facet normal 0 0 1
    outer loop
      vertex -12.5 47 7
      vertex -47.5 47 7
      vertex -30.9775 35.2082 7
    endloop
  endfacet
  facet normal 0 0 1
    outer loop
      vertex -33.25 32.5 7
      vertex -52 28.5 7
      vertex -32.6066 30.7323 7
    endloop
  endfacet
  facet normal -0 0 1
    outer loop
      vertex -49 44.4019 7
      vertex -32.6066 34.2677 7
      vertex -47.5 47 7
    endloop
  endfacet
  facet normal 0 0 1
    outer loop
      vertex -30.9775 35.2082 7
      vertex -47.5 47 7
      vertex -32.6066 34.2677 7
    endloop
  endfacet
  facet normal 0 0 1
    outer loop
      vertex -49 49.5981 7
      vertex -11 49.5981 7
      vertex 0 57 7
    endloop
  endfacet
  facet normal 0 0 1
    outer loop
      vertex -11 49.5981 7
      vertex -49 49.5981 7
      vertex -47.5 47 7
    endloop
  endfacet
  facet normal -0 0 1
    outer loop
      vertex -60 57 7
      vertex -49 49.5981 7
      vertex 0 57 7
    endloop
  endfacet
  facet normal 0 0 1
    outer loop
      vertex -52 44.4019 7
      vertex -56.5 31.0981 7
      vertex -53.5 31.0981 7
    endloop
  endfacet
  facet normal 0 0 1
    outer loop
      vertex -60 57 7
      vertex -56.5 31.0981 7
      vertex -53.5 47 7
    endloop
  endfacet
  facet normal 0 0 1
    outer loop
      vertex -56.5 31.0981 7
      vertex -60 57 7
      vertex -58 28.5 7
    endloop
  endfacet
  facet normal 0 0 1
    outer loop
      vertex -52 49.5981 7
      vertex -60 57 7
      vertex -53.5 47 7
    endloop
  endfacet
  facet normal 0 0 1
    outer loop
      vertex -49 49.5981 7
      vertex -60 57 7
      vertex -52 49.5981 7
    endloop
  endfacet
  facet normal 0 0 1
    outer loop
      vertex -6.91584 31.5594 7
      vertex 0 57 7
      vertex -6.91584 33.4406 7
    endloop
  endfacet
  facet normal 0 0 1
    outer loop
      vertex 0 57 7
      vertex -6.91584 31.5594 7
      vertex 0 0 7
    endloop
  endfacet
  facet normal -0 0 1
    outer loop
      vertex -6.91584 5.44055 7
      vertex 0 0 7
      vertex -6.91584 31.5594 7
    endloop
  endfacet
  facet normal -0 0 1
    outer loop
      vertex -6.91584 3.55944 7
      vertex 0 0 7
      vertex -6.91584 5.44055 7
    endloop
  endfacet
  facet normal -0 0 1
    outer loop
      vertex -8.125 2.11843 7
      vertex 0 0 7
      vertex -6.91584 3.55944 7
    endloop
  endfacet
  facet normal -0 0 1
    outer loop
      vertex -9.97753 1.79178 7
      vertex 0 0 7
      vertex -8.125 2.11843 7
    endloop
  endfacet
  facet normal 0 0 1
    outer loop
      vertex -12.25 32.5 7
      vertex -27.9158 33.4406 7
      vertex -27.9158 31.5594 7
    endloop
  endfacet
  facet normal 0 0 1
    outer loop
      vertex -11.6066 30.7323 7
      vertex -27.9158 31.5594 7
      vertex -29.125 30.1184 7
    endloop
  endfacet
  facet normal -0 0 1
    outer loop
      vertex -29.125 6.88157 7
      vertex -11.6066 6.26767 7
      vertex -29.125 30.1184 7
    endloop
  endfacet
  facet normal 0 -0 1
    outer loop
      vertex -27.9158 5.44055 7
      vertex -11.6066 6.26767 7
      vertex -29.125 6.88157 7
    endloop
  endfacet
  facet normal 0 0 1
    outer loop
      vertex -12.25 4.5 7
      vertex -27.9158 3.55944 7
      vertex -11.6066 2.73233 7
    endloop
  endfacet
  facet normal 0 0 1
    outer loop
      vertex -29.125 2.11843 7
      vertex -11.6066 2.73233 7
      vertex -27.9158 3.55944 7
    endloop
  endfacet
  facet normal 0 0 1
    outer loop
      vertex -11.6066 2.73233 7
      vertex -29.125 2.11843 7
      vertex -9.97753 1.79178 7
    endloop
  endfacet
  facet normal 0 0 1
    outer loop
      vertex -30.9775 1.79178 7
      vertex -9.97753 1.79178 7
      vertex -29.125 2.11843 7
    endloop
  endfacet
  facet normal 0 0 1
    outer loop
      vertex -9.97753 1.79178 7
      vertex -30.9775 1.79178 7
      vertex 0 0 7
    endloop
  endfacet
  facet normal 0 0 1
    outer loop
      vertex -53.5 25.9019 7
      vertex -32.6066 30.7323 7
      vertex -52 28.5 7
    endloop
  endfacet
  facet normal 0 0 1
    outer loop
      vertex -32.6066 30.7323 7
      vertex -53.5 25.9019 7
      vertex -32.6066 6.26767 7
    endloop
  endfacet
  facet normal 0 0 1
    outer loop
      vertex -53.5 31.0981 7
      vertex -49 44.4019 7
      vertex -52 44.4019 7
    endloop
  endfacet
  facet normal 0 0 1
    outer loop
      vertex -32.6066 6.26767 7
      vertex -53.5 25.9019 7
      vertex -33.25 4.5 7
    endloop
  endfacet
  facet normal 0 0 1
    outer loop
      vertex -60 0 7
      vertex -33.25 4.5 7
      vertex -53.5 25.9019 7
    endloop
  endfacet
  facet normal 0 0 1
    outer loop
      vertex -60 0 7
      vertex -53.5 25.9019 7
      vertex -56.5 25.9019 7
    endloop
  endfacet
  facet normal 0 0 1
    outer loop
      vertex -30.9775 1.79178 7
      vertex -60 0 7
      vertex 0 0 7
    endloop
  endfacet
  facet normal 0 0 1
    outer loop
      vertex -32.6066 2.73233 7
      vertex -60 0 7
      vertex -30.9775 1.79178 7
    endloop
  endfacet
  facet normal 0 0 1
    outer loop
      vertex -33.25 4.5 7
      vertex -60 0 7
      vertex -32.6066 2.73233 7
    endloop
  endfacet
  facet normal 0 0 1
    outer loop
      vertex -58 28.5 7
      vertex -60 0 7
      vertex -56.5 25.9019 7
    endloop
  endfacet
  facet normal 0 0 1
    outer loop
      vertex -60 0 7
      vertex -58 28.5 7
      vertex -60 57 7
    endloop
  endfacet
  facet normal 0 0 1
    outer loop
      vertex -56.5 31.0981 7
      vertex -52 44.4019 7
      vertex -53.5 47 7
    endloop
  endfacet
  facet normal 0 0 1
    outer loop
      vertex -49 44.4019 7
      vertex -53.5 31.0981 7
      vertex -52 28.5 7
    endloop
  endfacet
  facet normal 0 0 1
    outer loop
      vertex -11.6066 6.26767 7
      vertex -27.9158 5.44055 7
      vertex -12.25 4.5 7
    endloop
  endfacet
  facet normal 0 0 1
    outer loop
      vertex -27.9158 3.55944 7
      vertex -12.25 4.5 7
      vertex -27.9158 5.44055 7
    endloop
  endfacet
  facet normal -0 0 1
    outer loop
      vertex -30.9775 29.7918 7
      vertex -29.125 6.88157 7
      vertex -29.125 30.1184 7
    endloop
  endfacet
  facet normal 0 0 1
    outer loop
      vertex -30.9775 29.7918 7
      vertex -30.9775 7.20822 7
      vertex -29.125 6.88157 7
    endloop
  endfacet
  facet normal 0 0 1
    outer loop
      vertex -32.6066 30.7323 7
      vertex -30.9775 7.20822 7
      vertex -30.9775 29.7918 7
    endloop
  endfacet
  facet normal 0 0 1
    outer loop
      vertex -32.6066 30.7323 7
      vertex -32.6066 6.26767 7
      vertex -30.9775 7.20822 7
    endloop
  endfacet
  facet normal 0 0 1
    outer loop
      vertex -32.6066 34.2677 7
      vertex -49 44.4019 7
      vertex -33.25 32.5 7
    endloop
  endfacet
  facet normal 0 0 1
    outer loop
      vertex -52 28.5 7
      vertex -33.25 32.5 7
      vertex -49 44.4019 7
    endloop
  endfacet
  facet normal -1 0 0
    outer loop
      vertex -60 0 0
      vertex -60 57 7
      vertex -60 57 0
    endloop
  endfacet
  facet normal -1 -0 0
    outer loop
      vertex -60 57 7
      vertex -60 0 0
      vertex -60 0 7
    endloop
  endfacet
  facet normal 0 0 -1
    outer loop
      vertex -8.675 45.5711 0
      vertex -6.91584 33.4406 0
      vertex -8.125 34.8816 0
    endloop
  endfacet
  facet normal 0 0 -1
    outer loop
      vertex -6.91584 33.4406 0
      vertex -8.675 45.5711 0
      vertex -7.85 47 0
    endloop
  endfacet
  facet normal 0 0 -1
    outer loop
      vertex -9.97753 35.2082 0
      vertex -8.675 45.5711 0
      vertex -8.125 34.8816 0
    endloop
  endfacet
  facet normal 0 0 -1
    outer loop
      vertex -9.97753 35.2082 0
      vertex -10.325 45.5711 0
      vertex -8.675 45.5711 0
    endloop
  endfacet
  facet normal 0 0 -1
    outer loop
      vertex -11.6066 34.2677 0
      vertex -10.325 45.5711 0
      vertex -9.97753 35.2082 0
    endloop
  endfacet
  facet normal -0 0 -1
    outer loop
      vertex -10.325 45.5711 0
      vertex -11.6066 34.2677 0
      vertex -11.15 47 0
    endloop
  endfacet
  facet normal 0 0 -1
    outer loop
      vertex -6.91584 5.44055 0
      vertex -8.125 30.1184 0
      vertex -6.91584 31.5594 0
    endloop
  endfacet
  facet normal 0 0 -1
    outer loop
      vertex -8.125 6.88157 0
      vertex -8.125 30.1184 0
      vertex -6.91584 5.44055 0
    endloop
  endfacet
  facet normal 0 0 -1
    outer loop
      vertex -9.97753 7.20822 0
      vertex -8.125 30.1184 0
      vertex -8.125 6.88157 0
    endloop
  endfacet
  facet normal 0 0 -1
    outer loop
      vertex -9.97753 7.20822 0
      vertex -9.97753 29.7918 0
      vertex -8.125 30.1184 0
    endloop
  endfacet
  facet normal 0 0 -1
    outer loop
      vertex -11.6066 6.26767 0
      vertex -9.97753 29.7918 0
      vertex -9.97753 7.20822 0
    endloop
  endfacet
  facet normal 0 0 -1
    outer loop
      vertex -11.6066 6.26767 0
      vertex -11.6066 30.7323 0
      vertex -9.97753 29.7918 0
    endloop
  endfacet
  facet normal 0 0 -1
    outer loop
      vertex -27.9158 5.44055 0
      vertex -11.6066 6.26767 0
      vertex -12.25 4.5 0
    endloop
  endfacet
  facet normal 0 0 -1
    outer loop
      vertex -11.6066 6.26767 0
      vertex -29.125 6.88157 0
      vertex -11.6066 30.7323 0
    endloop
  endfacet
  facet normal 0 0 -1
    outer loop
      vertex -6.91584 5.44055 0
      vertex 0 0 0
      vertex -6.91584 3.55944 0
    endloop
  endfacet
  facet normal 0 0 -1
    outer loop
      vertex 0 0 0
      vertex -8.125 2.11843 0
      vertex -6.91584 3.55944 0
    endloop
  endfacet
  facet normal 0 0 -1
    outer loop
      vertex 0 0 0
      vertex -9.97753 1.79178 0
      vertex -8.125 2.11843 0
    endloop
  endfacet
  facet normal 0 0 -1
    outer loop
      vertex -27.9158 5.44055 0
      vertex -12.25 4.5 0
      vertex -27.9158 3.55944 0
    endloop
  endfacet
  facet normal 0 0 -1
    outer loop
      vertex -11.6066 2.73233 0
      vertex -27.9158 3.55944 0
      vertex -12.25 4.5 0
    endloop
  endfacet
  facet normal 0 0 -1
    outer loop
      vertex -29.125 2.11843 0
      vertex -11.6066 2.73233 0
      vertex -9.97753 1.79178 0
    endloop
  endfacet
  facet normal 0 0 -1
    outer loop
      vertex -30.9775 1.79178 0
      vertex -9.97753 1.79178 0
      vertex 0 0 0
    endloop
  endfacet
  facet normal -0 0 -1
    outer loop
      vertex -11.6066 2.73233 0
      vertex -29.125 2.11843 0
      vertex -27.9158 3.55944 0
    endloop
  endfacet
  facet normal 0 0 -1
    outer loop
      vertex -9.97753 1.79178 0
      vertex -30.9775 1.79178 0
      vertex -29.125 2.11843 0
    endloop
  endfacet
  facet normal 0 0 -1
    outer loop
      vertex -32.6066 30.7323 0
      vertex -48.85 47 0
      vertex -33.25 32.5 0
    endloop
  endfacet
  facet normal 0 0 -1
    outer loop
      vertex -60 0 0
      vertex -33.25 4.5 0
      vertex -32.6066 2.73233 0
    endloop
  endfacet
  facet normal 0 0 -1
    outer loop
      vertex -32.6066 6.26767 0
      vertex -49.675 45.5711 0
      vertex -48.85 47 0
    endloop
  endfacet
  facet normal 0 0 -1
    outer loop
      vertex -32.6066 6.26767 0
      vertex -53.3861 28.8431 0
      vertex -49.675 45.5711 0
    endloop
  endfacet
  facet normal 0 0 -1
    outer loop
      vertex -53.6651 29.4698 0
      vertex -49.675 45.5711 0
      vertex -53.3861 28.8431 0
    endloop
  endfacet
  facet normal 0 0 -1
    outer loop
      vertex -32.6066 6.26767 0
      vertex -53.3861 28.1569 0
      vertex -53.3861 28.8431 0
    endloop
  endfacet
  facet normal 0 0 -1
    outer loop
      vertex -32.6066 6.26767 0
      vertex -53.6651 27.5302 0
      vertex -53.3861 28.1569 0
    endloop
  endfacet
  facet normal 0 0 -1
    outer loop
      vertex -32.6066 6.26767 0
      vertex -54.175 27.0711 0
      vertex -53.6651 27.5302 0
    endloop
  endfacet
  facet normal -0 0 -1
    outer loop
      vertex -32.6066 6.26767 0
      vertex -60 0 0
      vertex -54.175 27.0711 0
    endloop
  endfacet
  facet normal 0 0 -1
    outer loop
      vertex -54.175 27.0711 0
      vertex -60 0 0
      vertex -54.8275 26.859 0
    endloop
  endfacet
  facet normal -0 0 -1
    outer loop
      vertex -54.8275 26.859 0
      vertex -60 0 0
      vertex -55.5099 26.9308 0
    endloop
  endfacet
  facet normal -0 0 -1
    outer loop
      vertex -56.5074 27.8289 0
      vertex -60 0 0
      vertex -56.65 28.5 0
    endloop
  endfacet
  facet normal -0 0 -1
    outer loop
      vertex -56.1041 27.2738 0
      vertex -60 0 0
      vertex -56.5074 27.8289 0
    endloop
  endfacet
  facet normal -0 0 -1
    outer loop
      vertex -55.5099 26.9308 0
      vertex -60 0 0
      vertex -56.1041 27.2738 0
    endloop
  endfacet
  facet normal -0 0 -1
    outer loop
      vertex -30.9775 1.79178 0
      vertex -60 0 0
      vertex -32.6066 2.73233 0
    endloop
  endfacet
  facet normal 0 0 -1
    outer loop
      vertex -60 0 0
      vertex -30.9775 1.79178 0
      vertex 0 0 0
    endloop
  endfacet
  facet normal 0 0 -1
    outer loop
      vertex -6.91584 31.5594 0
      vertex 0 0 0
      vertex -6.91584 5.44055 0
    endloop
  endfacet
  facet normal 0 0 -1
    outer loop
      vertex 0 0 0
      vertex -6.91584 31.5594 0
      vertex 0 57 0
    endloop
  endfacet
  facet normal 0 0 -1
    outer loop
      vertex -6.91584 33.4406 0
      vertex 0 57 0
      vertex -6.91584 31.5594 0
    endloop
  endfacet
  facet normal 0 0 -1
    outer loop
      vertex -7.85 47 0
      vertex 0 57 0
      vertex -6.91584 33.4406 0
    endloop
  endfacet
  facet normal 0 0 -1
    outer loop
      vertex -8.675 48.4289 0
      vertex 0 57 0
      vertex -7.85 47 0
    endloop
  endfacet
  facet normal 0 0 -1
    outer loop
      vertex -10.325 48.4289 0
      vertex 0 57 0
      vertex -8.675 48.4289 0
    endloop
  endfacet
  facet normal 0 0 -1
    outer loop
      vertex -27.9158 33.4406 0
      vertex -11.6066 34.2677 0
      vertex -12.25 32.5 0
    endloop
  endfacet
  facet normal -0 0 -1
    outer loop
      vertex -11.6066 6.26767 0
      vertex -27.9158 5.44055 0
      vertex -29.125 6.88157 0
    endloop
  endfacet
  facet normal 0 0 -1
    outer loop
      vertex -29.125 30.1184 0
      vertex -11.6066 30.7323 0
      vertex -29.125 6.88157 0
    endloop
  endfacet
  facet normal 0 0 -1
    outer loop
      vertex -27.9158 33.4406 0
      vertex -12.25 32.5 0
      vertex -27.9158 31.5594 0
    endloop
  endfacet
  facet normal -0 0 -1
    outer loop
      vertex -11.6066 34.2677 0
      vertex -27.9158 33.4406 0
      vertex -11.15 47 0
    endloop
  endfacet
  facet normal 0 0 -1
    outer loop
      vertex -29.125 34.8816 0
      vertex -11.15 47 0
      vertex -27.9158 33.4406 0
    endloop
  endfacet
  facet normal 0 0 -1
    outer loop
      vertex -30.9775 35.2082 0
      vertex -11.15 47 0
      vertex -29.125 34.8816 0
    endloop
  endfacet
  facet normal 0 0 -1
    outer loop
      vertex -48.85 47 0
      vertex -11.15 47 0
      vertex -30.9775 35.2082 0
    endloop
  endfacet
  facet normal 0 0 -1
    outer loop
      vertex -11.15 47 0
      vertex -48.85 47 0
      vertex -10.325 48.4289 0
    endloop
  endfacet
  facet normal 0 0 -1
    outer loop
      vertex -48.85 47 0
      vertex -30.9775 35.2082 0
      vertex -32.6066 34.2677 0
    endloop
  endfacet
  facet normal 0 0 -1
    outer loop
      vertex -48.85 47 0
      vertex -32.6066 34.2677 0
      vertex -33.25 32.5 0
    endloop
  endfacet
  facet normal -0 0 -1
    outer loop
      vertex -10.325 48.4289 0
      vertex -48.85 47 0
      vertex -49.675 48.4289 0
    endloop
  endfacet
  facet normal 0 0 -1
    outer loop
      vertex -10.325 48.4289 0
      vertex -49.675 48.4289 0
      vertex 0 57 0
    endloop
  endfacet
  facet normal 0 0 -1
    outer loop
      vertex -60 57 0
      vertex -49.675 48.4289 0
      vertex -51.325 48.4289 0
    endloop
  endfacet
  facet normal 0 0 -1
    outer loop
      vertex -54.175 29.9289 0
      vertex -49.675 45.5711 0
      vertex -53.6651 29.4698 0
    endloop
  endfacet
  facet normal -0 0 -1
    outer loop
      vertex -49.675 45.5711 0
      vertex -54.175 29.9289 0
      vertex -51.325 45.5711 0
    endloop
  endfacet
  facet normal 0 0 -1
    outer loop
      vertex -54.8275 30.141 0
      vertex -51.325 45.5711 0
      vertex -54.175 29.9289 0
    endloop
  endfacet
  facet normal 0 0 -1
    outer loop
      vertex -55.5099 30.0692 0
      vertex -51.325 45.5711 0
      vertex -54.8275 30.141 0
    endloop
  endfacet
  facet normal 0 0 -1
    outer loop
      vertex -56.1041 29.7262 0
      vertex -51.325 45.5711 0
      vertex -55.5099 30.0692 0
    endloop
  endfacet
  facet normal -0 0 -1
    outer loop
      vertex -51.325 45.5711 0
      vertex -56.1041 29.7262 0
      vertex -52.15 47 0
    endloop
  endfacet
  facet normal 0 0 -1
    outer loop
      vertex -60 57 0
      vertex -56.1041 29.7262 0
      vertex -56.5074 29.1711 0
    endloop
  endfacet
  facet normal 0 0 -1
    outer loop
      vertex -49.675 48.4289 0
      vertex -60 57 0
      vertex 0 57 0
    endloop
  endfacet
  facet normal 0 0 -1
    outer loop
      vertex -52.15 47 0
      vertex -60 57 0
      vertex -51.325 48.4289 0
    endloop
  endfacet
  facet normal 0 0 -1
    outer loop
      vertex -56.1041 29.7262 0
      vertex -60 57 0
      vertex -52.15 47 0
    endloop
  endfacet
  facet normal 0 0 -1
    outer loop
      vertex -56.65 28.5 0
      vertex -60 57 0
      vertex -56.5074 29.1711 0
    endloop
  endfacet
  facet normal 0 0 -1
    outer loop
      vertex -60 57 0
      vertex -56.65 28.5 0
      vertex -60 0 0
    endloop
  endfacet
  facet normal 0 -0 -1
    outer loop
      vertex -27.9158 31.5594 0
      vertex -11.6066 30.7323 0
      vertex -29.125 30.1184 0
    endloop
  endfacet
  facet normal 0 0 -1
    outer loop
      vertex -11.6066 30.7323 0
      vertex -27.9158 31.5594 0
      vertex -12.25 32.5 0
    endloop
  endfacet
  facet normal 0 0 -1
    outer loop
      vertex -30.9775 7.20822 0
      vertex -29.125 30.1184 0
      vertex -29.125 6.88157 0
    endloop
  endfacet
  facet normal 0 0 -1
    outer loop
      vertex -30.9775 7.20822 0
      vertex -30.9775 29.7918 0
      vertex -29.125 30.1184 0
    endloop
  endfacet
  facet normal 0 0 -1
    outer loop
      vertex -32.6066 6.26767 0
      vertex -30.9775 29.7918 0
      vertex -30.9775 7.20822 0
    endloop
  endfacet
  facet normal 0 0 -1
    outer loop
      vertex -32.6066 6.26767 0
      vertex -32.6066 30.7323 0
      vertex -30.9775 29.7918 0
    endloop
  endfacet
  facet normal 0 0 -1
    outer loop
      vertex -60 0 0
      vertex -32.6066 6.26767 0
      vertex -33.25 4.5 0
    endloop
  endfacet
  facet normal 0 0 -1
    outer loop
      vertex -32.6066 6.26767 0
      vertex -48.85 47 0
      vertex -32.6066 30.7323 0
    endloop
  endfacet
  facet normal 0 -1 0
    outer loop
      vertex -60 0 0
      vertex 0 0 7
      vertex -60 0 7
    endloop
  endfacet
  facet normal 0 -1 -0
    outer loop
      vertex 0 0 7
      vertex -60 0 0
      vertex 0 0 0
    endloop
  endfacet
  facet normal 0 1 -0
    outer loop
      vertex 0 57 0
      vertex -60 57 7
      vertex 0 57 7
    endloop
  endfacet
  facet normal 0 1 0
    outer loop
      vertex -60 57 7
      vertex 0 57 0
      vertex -60 57 0
    endloop
  endfacet
  facet normal 0.978147 -0.207912 0
    outer loop
      vertex -56.65 28.5 5
      vertex -56.5074 29.1711 0
      vertex -56.5074 29.1711 5
    endloop
  endfacet
  facet normal 0.978147 -0.207912 0
    outer loop
      vertex -56.5074 29.1711 0
      vertex -56.65 28.5 5
      vertex -56.65 28.5 0
    endloop
  endfacet
  facet normal -1 0 0
    outer loop
      vertex -53.3861 28.1569 0
      vertex -53.3861 28.8431 5
      vertex -53.3861 28.8431 0
    endloop
  endfacet
  facet normal -1 -0 0
    outer loop
      vertex -53.3861 28.8431 5
      vertex -53.3861 28.1569 0
      vertex -53.3861 28.1569 5
    endloop
  endfacet
  facet normal -0.309016 -0.951057 0
    outer loop
      vertex -54.8275 30.141 0
      vertex -54.175 29.9289 5
      vertex -54.8275 30.141 5
    endloop
  endfacet
  facet normal -0.309016 -0.951057 -0
    outer loop
      vertex -54.175 29.9289 5
      vertex -54.8275 30.141 0
      vertex -54.175 29.9289 0
    endloop
  endfacet
  facet normal -0.669132 -0.743143 0
    outer loop
      vertex -54.175 29.9289 0
      vertex -53.6651 29.4698 5
      vertex -54.175 29.9289 5
    endloop
  endfacet
  facet normal -0.669132 -0.743143 -0
    outer loop
      vertex -53.6651 29.4698 5
      vertex -54.175 29.9289 0
      vertex -53.6651 29.4698 0
    endloop
  endfacet
  facet normal 0.104527 0.994522 -0
    outer loop
      vertex -54.8275 26.859 0
      vertex -55.5099 26.9308 5
      vertex -54.8275 26.859 5
    endloop
  endfacet
  facet normal 0.104527 0.994522 0
    outer loop
      vertex -55.5099 26.9308 5
      vertex -54.8275 26.859 0
      vertex -55.5099 26.9308 0
    endloop
  endfacet
  facet normal 0.500001 0.866025 -0
    outer loop
      vertex -55.5099 26.9308 0
      vertex -56.1041 27.2738 5
      vertex -55.5099 26.9308 5
    endloop
  endfacet
  facet normal 0.500001 0.866025 0
    outer loop
      vertex -56.1041 27.2738 5
      vertex -55.5099 26.9308 0
      vertex -56.1041 27.2738 0
    endloop
  endfacet
  facet normal 0.499999 -0.866026 0
    outer loop
      vertex -56.1041 29.7262 0
      vertex -55.5099 30.0692 5
      vertex -56.1041 29.7262 5
    endloop
  endfacet
  facet normal 0.499999 -0.866026 0
    outer loop
      vertex -55.5099 30.0692 5
      vertex -56.1041 29.7262 0
      vertex -55.5099 30.0692 0
    endloop
  endfacet
  facet normal 0.809016 -0.587787 0
    outer loop
      vertex -56.5074 29.1711 5
      vertex -56.1041 29.7262 0
      vertex -56.1041 29.7262 5
    endloop
  endfacet
  facet normal 0.809016 -0.587787 0
    outer loop
      vertex -56.1041 29.7262 0
      vertex -56.5074 29.1711 5
      vertex -56.5074 29.1711 0
    endloop
  endfacet
  facet normal 0.10453 -0.994522 0
    outer loop
      vertex -55.5099 30.0692 0
      vertex -54.8275 30.141 5
      vertex -55.5099 30.0692 5
    endloop
  endfacet
  facet normal 0.10453 -0.994522 0
    outer loop
      vertex -54.8275 30.141 5
      vertex -55.5099 30.0692 0
      vertex -54.8275 30.141 0
    endloop
  endfacet
  facet normal -0.913544 -0.40674 0
    outer loop
      vertex -53.3861 28.8431 0
      vertex -53.6651 29.4698 5
      vertex -53.6651 29.4698 0
    endloop
  endfacet
  facet normal -0.913544 -0.40674 0
    outer loop
      vertex -53.6651 29.4698 5
      vertex -53.3861 28.8431 0
      vertex -53.3861 28.8431 5
    endloop
  endfacet
  facet normal 0.978147 0.207912 0
    outer loop
      vertex -56.5074 27.8289 5
      vertex -56.65 28.5 0
      vertex -56.65 28.5 5
    endloop
  endfacet
  facet normal 0.978147 0.207912 0
    outer loop
      vertex -56.65 28.5 0
      vertex -56.5074 27.8289 5
      vertex -56.5074 27.8289 0
    endloop
  endfacet
  facet normal -0.309013 0.951058 0
    outer loop
      vertex -54.175 27.0711 0
      vertex -54.8275 26.859 5
      vertex -54.175 27.0711 5
    endloop
  endfacet
  facet normal -0.309013 0.951058 0
    outer loop
      vertex -54.8275 26.859 5
      vertex -54.175 27.0711 0
      vertex -54.8275 26.859 0
    endloop
  endfacet
  facet normal 0.809016 0.587787 0
    outer loop
      vertex -56.1041 27.2738 5
      vertex -56.5074 27.8289 0
      vertex -56.5074 27.8289 5
    endloop
  endfacet
  facet normal 0.809016 0.587787 0
    outer loop
      vertex -56.5074 27.8289 0
      vertex -56.1041 27.2738 5
      vertex -56.1041 27.2738 0
    endloop
  endfacet
  facet normal -0.669134 0.743142 0
    outer loop
      vertex -53.6651 27.5302 0
      vertex -54.175 27.0711 5
      vertex -53.6651 27.5302 5
    endloop
  endfacet
  facet normal -0.669134 0.743142 0
    outer loop
      vertex -54.175 27.0711 5
      vertex -53.6651 27.5302 0
      vertex -54.175 27.0711 0
    endloop
  endfacet
  facet normal -0.913544 0.406741 0
    outer loop
      vertex -53.6651 27.5302 0
      vertex -53.3861 28.1569 5
      vertex -53.3861 28.1569 0
    endloop
  endfacet
  facet normal -0.913544 0.406741 0
    outer loop
      vertex -53.3861 28.1569 5
      vertex -53.6651 27.5302 0
      vertex -53.6651 27.5302 5
    endloop
  endfacet
  facet normal -0 0 1
    outer loop
      vertex -53.6651 29.4698 5
      vertex -52 28.5 5
      vertex -53.5 31.0981 5
    endloop
  endfacet
  facet normal 0 0 1
    outer loop
      vertex -52 28.5 5
      vertex -53.6651 29.4698 5
      vertex -53.3861 28.8431 5
    endloop
  endfacet
  facet normal 0 0 1
    outer loop
      vertex -53.5 31.0981 5
      vertex -54.175 29.9289 5
      vertex -53.6651 29.4698 5
    endloop
  endfacet
  facet normal 0 0 1
    outer loop
      vertex -53.5 31.0981 5
      vertex -54.8275 30.141 5
      vertex -54.175 29.9289 5
    endloop
  endfacet
  facet normal -0 0 1
    outer loop
      vertex -56.5 31.0981 5
      vertex -54.8275 30.141 5
      vertex -53.5 31.0981 5
    endloop
  endfacet
  facet normal 0 0 1
    outer loop
      vertex -54.8275 30.141 5
      vertex -56.5 31.0981 5
      vertex -55.5099 30.0692 5
    endloop
  endfacet
  facet normal 0 0 1
    outer loop
      vertex -56.5 31.0981 5
      vertex -56.1041 29.7262 5
      vertex -55.5099 30.0692 5
    endloop
  endfacet
  facet normal 0 0 1
    outer loop
      vertex -56.5 31.0981 5
      vertex -56.5074 29.1711 5
      vertex -56.1041 29.7262 5
    endloop
  endfacet
  facet normal 0 0 1
    outer loop
      vertex -58 28.5 5
      vertex -56.5074 29.1711 5
      vertex -56.5 31.0981 5
    endloop
  endfacet
  facet normal 0 0 1
    outer loop
      vertex -56.5074 29.1711 5
      vertex -58 28.5 5
      vertex -56.65 28.5 5
    endloop
  endfacet
  facet normal 0 0 1
    outer loop
      vertex -53.3861 28.1569 5
      vertex -52 28.5 5
      vertex -53.3861 28.8431 5
    endloop
  endfacet
  facet normal 0 0 1
    outer loop
      vertex -53.6651 27.5302 5
      vertex -52 28.5 5
      vertex -53.3861 28.1569 5
    endloop
  endfacet
  facet normal 0 0 1
    outer loop
      vertex -52 28.5 5
      vertex -53.6651 27.5302 5
      vertex -53.5 25.9019 5
    endloop
  endfacet
  facet normal -0 0 1
    outer loop
      vertex -54.175 27.0711 5
      vertex -53.5 25.9019 5
      vertex -53.6651 27.5302 5
    endloop
  endfacet
  facet normal -0 0 1
    outer loop
      vertex -54.8275 26.859 5
      vertex -53.5 25.9019 5
      vertex -54.175 27.0711 5
    endloop
  endfacet
  facet normal 0 0 1
    outer loop
      vertex -56.5 25.9019 5
      vertex -54.8275 26.859 5
      vertex -55.5099 26.9308 5
    endloop
  endfacet
  facet normal 0 0 1
    outer loop
      vertex -54.8275 26.859 5
      vertex -56.5 25.9019 5
      vertex -53.5 25.9019 5
    endloop
  endfacet
  facet normal 0 0 1
    outer loop
      vertex -56.1041 27.2738 5
      vertex -56.5 25.9019 5
      vertex -55.5099 26.9308 5
    endloop
  endfacet
  facet normal 0 0 1
    outer loop
      vertex -56.5074 27.8289 5
      vertex -56.5 25.9019 5
      vertex -56.1041 27.2738 5
    endloop
  endfacet
  facet normal -0 0 1
    outer loop
      vertex -58 28.5 5
      vertex -56.5074 27.8289 5
      vertex -56.65 28.5 5
    endloop
  endfacet
  facet normal 0 0 1
    outer loop
      vertex -56.5074 27.8289 5
      vertex -58 28.5 5
      vertex -56.5 25.9019 5
    endloop
  endfacet
  facet normal 0.866025 -0.5 0
    outer loop
      vertex -58 28.5 7
      vertex -56.5 31.0981 5
      vertex -56.5 31.0981 7
    endloop
  endfacet
  facet normal 0.866025 -0.5 0
    outer loop
      vertex -56.5 31.0981 5
      vertex -58 28.5 7
      vertex -58 28.5 5
    endloop
  endfacet
  facet normal 0 1 -0
    outer loop
      vertex -53.5 25.9019 5
      vertex -56.5 25.9019 7
      vertex -53.5 25.9019 7
    endloop
  endfacet
  facet normal 0 1 0
    outer loop
      vertex -56.5 25.9019 7
      vertex -53.5 25.9019 5
      vertex -56.5 25.9019 5
    endloop
  endfacet
  facet normal -0.866025 -0.5 0
    outer loop
      vertex -52 28.5 5
      vertex -53.5 31.0981 7
      vertex -53.5 31.0981 5
    endloop
  endfacet
  facet normal -0.866025 -0.5 0
    outer loop
      vertex -53.5 31.0981 7
      vertex -52 28.5 5
      vertex -52 28.5 7
    endloop
  endfacet
  facet normal 0 -1 0
    outer loop
      vertex -56.5 31.0981 5
      vertex -53.5 31.0981 7
      vertex -56.5 31.0981 7
    endloop
  endfacet
  facet normal 0 -1 -0
    outer loop
      vertex -53.5 31.0981 7
      vertex -56.5 31.0981 5
      vertex -53.5 31.0981 5
    endloop
  endfacet
  facet normal -0.866025 0.5 0
    outer loop
      vertex -53.5 25.9019 5
      vertex -52 28.5 7
      vertex -52 28.5 5
    endloop
  endfacet
  facet normal -0.866025 0.5 0
    outer loop
      vertex -52 28.5 7
      vertex -53.5 25.9019 5
      vertex -53.5 25.9019 7
    endloop
  endfacet
  facet normal 0.866025 0.5 0
    outer loop
      vertex -56.5 25.9019 7
      vertex -58 28.5 5
      vertex -58 28.5 7
    endloop
  endfacet
  facet normal 0.866025 0.5 0
    outer loop
      vertex -58 28.5 5
      vertex -56.5 25.9019 7
      vertex -56.5 25.9019 5
    endloop
  endfacet
endsolid OpenSCAD_Model
