solid OpenSCAD_Model
  facet normal -0.939693 -0.34202 0
    outer loop
      vertex 12.25 4.5 0
      vertex 11.6066 6.26767 7
      vertex 11.6066 6.26767 0
    endloop
  endfacet
  facet normal -0.939693 -0.34202 0
    outer loop
      vertex 11.6066 6.26767 7
      vertex 12.25 4.5 0
      vertex 12.25 4.5 7
    endloop
  endfacet
  facet normal 1 -0 0
    outer loop
      vertex 6.91584 3.55944 7
      vertex 6.91584 5.44055 0
      vertex 6.91584 5.44055 7
    endloop
  endfacet
  facet normal 1 0 0
    outer loop
      vertex 6.91584 5.44055 0
      vertex 6.91584 3.55944 7
      vertex 6.91584 3.55944 0
    endloop
  endfacet
  facet normal 0.173648 -0.984808 0
    outer loop
      vertex 8.125 6.88157 0
      vertex 9.97753 7.20822 7
      vertex 8.125 6.88157 7
    endloop
  endfacet
  facet normal 0.173648 -0.984808 0
    outer loop
      vertex 9.97753 7.20822 7
      vertex 8.125 6.88157 0
      vertex 9.97753 7.20822 0
    endloop
  endfacet
  facet normal -0.5 -0.866026 0
    outer loop
      vertex 9.97753 7.20822 0
      vertex 11.6066 6.26767 7
      vertex 9.97753 7.20822 7
    endloop
  endfacet
  facet normal -0.5 -0.866026 -0
    outer loop
      vertex 11.6066 6.26767 7
      vertex 9.97753 7.20822 0
      vertex 11.6066 6.26767 0
    endloop
  endfacet
  facet normal 0.766044 -0.642788 0
    outer loop
      vertex 6.91584 5.44055 7
      vertex 8.125 6.88157 0
      vertex 8.125 6.88157 7
    endloop
  endfacet
  facet normal 0.766044 -0.642788 0
    outer loop
      vertex 8.125 6.88157 0
      vertex 6.91584 5.44055 7
      vertex 6.91584 5.44055 0
    endloop
  endfacet
  facet normal -0.939693 0.34202 0
    outer loop
      vertex 11.6066 2.73233 0
      vertex 12.25 4.5 7
      vertex 12.25 4.5 0
    endloop
  endfacet
  facet normal -0.939693 0.34202 0
    outer loop
      vertex 12.25 4.5 7
      vertex 11.6066 2.73233 0
      vertex 11.6066 2.73233 7
    endloop
  endfacet
  facet normal -0.5 0.866026 0
    outer loop
      vertex 11.6066 2.73233 0
      vertex 9.97753 1.79178 7
      vertex 11.6066 2.73233 7
    endloop
  endfacet
  facet normal -0.5 0.866026 0
    outer loop
      vertex 9.97753 1.79178 7
      vertex 11.6066 2.73233 0
      vertex 9.97753 1.79178 0
    endloop
  endfacet
  facet normal 0.173648 0.984808 -0
    outer loop
      vertex 9.97753 1.79178 0
      vertex 8.125 2.11843 7
      vertex 9.97753 1.79178 7
    endloop
  endfacet
  facet normal 0.173648 0.984808 0
    outer loop
      vertex 8.125 2.11843 7
      vertex 9.97753 1.79178 0
      vertex 8.125 2.11843 0
    endloop
  endfacet
  facet normal 0.766045 0.642787 0
    outer loop
      vertex 8.125 2.11843 7
      vertex 6.91584 3.55944 0
      vertex 6.91584 3.55944 7
    endloop
  endfacet
  facet normal 0.766045 0.642787 0
    outer loop
      vertex 6.91584 3.55944 0
      vertex 8.125 2.11843 7
      vertex 8.125 2.11843 0
    endloop
  endfacet
  facet normal -0.939693 -0.34202 0
    outer loop
      vertex 12.25 32.5 0
      vertex 11.6066 34.2677 7
      vertex 11.6066 34.2677 0
    endloop
  endfacet
  facet normal -0.939693 -0.34202 0
    outer loop
      vertex 11.6066 34.2677 7
      vertex 12.25 32.5 0
      vertex 12.25 32.5 7
    endloop
  endfacet
  facet normal 1 -0 0
    outer loop
      vertex 6.91584 31.5594 7
      vertex 6.91584 33.4406 0
      vertex 6.91584 33.4406 7
    endloop
  endfacet
  facet normal 1 0 0
    outer loop
      vertex 6.91584 33.4406 0
      vertex 6.91584 31.5594 7
      vertex 6.91584 31.5594 0
    endloop
  endfacet
  facet normal 0.173649 -0.984808 0
    outer loop
      vertex 8.125 34.8816 0
      vertex 9.97753 35.2082 7
      vertex 8.125 34.8816 7
    endloop
  endfacet
  facet normal 0.173649 -0.984808 0
    outer loop
      vertex 9.97753 35.2082 7
      vertex 8.125 34.8816 0
      vertex 9.97753 35.2082 0
    endloop
  endfacet
  facet normal -0.5 -0.866025 0
    outer loop
      vertex 9.97753 35.2082 0
      vertex 11.6066 34.2677 7
      vertex 9.97753 35.2082 7
    endloop
  endfacet
  facet normal -0.5 -0.866025 -0
    outer loop
      vertex 11.6066 34.2677 7
      vertex 9.97753 35.2082 0
      vertex 11.6066 34.2677 0
    endloop
  endfacet
  facet normal 0.766044 -0.642788 0
    outer loop
      vertex 6.91584 33.4406 7
      vertex 8.125 34.8816 0
      vertex 8.125 34.8816 7
    endloop
  endfacet
  facet normal 0.766044 -0.642788 0
    outer loop
      vertex 8.125 34.8816 0
      vertex 6.91584 33.4406 7
      vertex 6.91584 33.4406 0
    endloop
  endfacet
  facet normal -0.939693 0.34202 0
    outer loop
      vertex 11.6066 30.7323 0
      vertex 12.25 32.5 7
      vertex 12.25 32.5 0
    endloop
  endfacet
  facet normal -0.939693 0.34202 0
    outer loop
      vertex 12.25 32.5 7
      vertex 11.6066 30.7323 0
      vertex 11.6066 30.7323 7
    endloop
  endfacet
  facet normal -0.5 0.866025 0
    outer loop
      vertex 11.6066 30.7323 0
      vertex 9.97753 29.7918 7
      vertex 11.6066 30.7323 7
    endloop
  endfacet
  facet normal -0.5 0.866025 0
    outer loop
      vertex 9.97753 29.7918 7
      vertex 11.6066 30.7323 0
      vertex 9.97753 29.7918 0
    endloop
  endfacet
  facet normal 0.766044 0.642788 0
    outer loop
      vertex 8.125 30.1184 7
      vertex 6.91584 31.5594 0
      vertex 6.91584 31.5594 7
    endloop
  endfacet
  facet normal 0.766044 0.642788 0
    outer loop
      vertex 6.91584 31.5594 0
      vertex 8.125 30.1184 7
      vertex 8.125 30.1184 0
    endloop
  endfacet
  facet normal 0.173649 0.984808 -0
    outer loop
      vertex 9.97753 29.7918 0
      vertex 8.125 30.1184 7
      vertex 9.97753 29.7918 7
    endloop
  endfacet
  facet normal 0.173649 0.984808 0
    outer loop
      vertex 8.125 30.1184 7
      vertex 9.97753 29.7918 0
      vertex 8.125 30.1184 0
    endloop
  endfacet
  facet normal -0.939692 -0.342021 0
    outer loop
      vertex 33.25 4.5 0
      vertex 32.6066 6.26767 7
      vertex 32.6066 6.26767 0
    endloop
  endfacet
  facet normal -0.939692 -0.342021 0
    outer loop
      vertex 32.6066 6.26767 7
      vertex 33.25 4.5 0
      vertex 33.25 4.5 7
    endloop
  endfacet
  facet normal 1 -0 0
    outer loop
      vertex 27.9158 3.55944 7
      vertex 27.9158 5.44055 0
      vertex 27.9158 5.44055 7
    endloop
  endfacet
  facet normal 1 0 0
    outer loop
      vertex 27.9158 5.44055 0
      vertex 27.9158 3.55944 7
      vertex 27.9158 3.55944 0
    endloop
  endfacet
  facet normal 0.173648 -0.984808 0
    outer loop
      vertex 29.125 6.88157 0
      vertex 30.9775 7.20822 7
      vertex 29.125 6.88157 7
    endloop
  endfacet
  facet normal 0.173648 -0.984808 0
    outer loop
      vertex 30.9775 7.20822 7
      vertex 29.125 6.88157 0
      vertex 30.9775 7.20822 0
    endloop
  endfacet
  facet normal -0.5 -0.866026 0
    outer loop
      vertex 30.9775 7.20822 0
      vertex 32.6066 6.26767 7
      vertex 30.9775 7.20822 7
    endloop
  endfacet
  facet normal -0.5 -0.866026 -0
    outer loop
      vertex 32.6066 6.26767 7
      vertex 30.9775 7.20822 0
      vertex 32.6066 6.26767 0
    endloop
  endfacet
  facet normal 0.766044 -0.642788 0
    outer loop
      vertex 27.9158 5.44055 7
      vertex 29.125 6.88157 0
      vertex 29.125 6.88157 7
    endloop
  endfacet
  facet normal 0.766044 -0.642788 0
    outer loop
      vertex 29.125 6.88157 0
      vertex 27.9158 5.44055 7
      vertex 27.9158 5.44055 0
    endloop
  endfacet
  facet normal 0.766044 0.642788 0
    outer loop
      vertex 29.125 2.11843 7
      vertex 27.9158 3.55944 0
      vertex 27.9158 3.55944 7
    endloop
  endfacet
  facet normal 0.766044 0.642788 0
    outer loop
      vertex 27.9158 3.55944 0
      vertex 29.125 2.11843 7
      vertex 29.125 2.11843 0
    endloop
  endfacet
  facet normal -0.939692 0.342021 0
    outer loop
      vertex 32.6066 2.73233 0
      vertex 33.25 4.5 7
      vertex 33.25 4.5 0
    endloop
  endfacet
  facet normal -0.939692 0.342021 0
    outer loop
      vertex 33.25 4.5 7
      vertex 32.6066 2.73233 0
      vertex 32.6066 2.73233 7
    endloop
  endfacet
  facet normal 0.173648 0.984808 -0
    outer loop
      vertex 30.9775 1.79178 0
      vertex 29.125 2.11843 7
      vertex 30.9775 1.79178 7
    endloop
  endfacet
  facet normal 0.173648 0.984808 0
    outer loop
      vertex 29.125 2.11843 7
      vertex 30.9775 1.79178 0
      vertex 29.125 2.11843 0
    endloop
  endfacet
  facet normal -0.5 0.866026 0
    outer loop
      vertex 32.6066 2.73233 0
      vertex 30.9775 1.79178 7
      vertex 32.6066 2.73233 7
    endloop
  endfacet
  facet normal -0.5 0.866026 0
    outer loop
      vertex 30.9775 1.79178 7
      vertex 32.6066 2.73233 0
      vertex 30.9775 1.79178 0
    endloop
  endfacet
  facet normal -0.939692 -0.342021 0
    outer loop
      vertex 33.25 32.5 0
      vertex 32.6066 34.2677 7
      vertex 32.6066 34.2677 0
    endloop
  endfacet
  facet normal -0.939692 -0.342021 0
    outer loop
      vertex 32.6066 34.2677 7
      vertex 33.25 32.5 0
      vertex 33.25 32.5 7
    endloop
  endfacet
  facet normal 1 -0 0
    outer loop
      vertex 27.9158 31.5594 7
      vertex 27.9158 33.4406 0
      vertex 27.9158 33.4406 7
    endloop
  endfacet
  facet normal 1 0 0
    outer loop
      vertex 27.9158 33.4406 0
      vertex 27.9158 31.5594 7
      vertex 27.9158 31.5594 0
    endloop
  endfacet
  facet normal 0.173649 -0.984808 0
    outer loop
      vertex 29.125 34.8816 0
      vertex 30.9775 35.2082 7
      vertex 29.125 34.8816 7
    endloop
  endfacet
  facet normal 0.173649 -0.984808 0
    outer loop
      vertex 30.9775 35.2082 7
      vertex 29.125 34.8816 0
      vertex 30.9775 35.2082 0
    endloop
  endfacet
  facet normal -0.5 -0.866025 0
    outer loop
      vertex 30.9775 35.2082 0
      vertex 32.6066 34.2677 7
      vertex 30.9775 35.2082 7
    endloop
  endfacet
  facet normal -0.5 -0.866025 -0
    outer loop
      vertex 32.6066 34.2677 7
      vertex 30.9775 35.2082 0
      vertex 32.6066 34.2677 0
    endloop
  endfacet
  facet normal 0.766044 -0.642788 0
    outer loop
      vertex 27.9158 33.4406 7
      vertex 29.125 34.8816 0
      vertex 29.125 34.8816 7
    endloop
  endfacet
  facet normal 0.766044 -0.642788 0
    outer loop
      vertex 29.125 34.8816 0
      vertex 27.9158 33.4406 7
      vertex 27.9158 33.4406 0
    endloop
  endfacet
  facet normal -0.939692 0.342021 0
    outer loop
      vertex 32.6066 30.7323 0
      vertex 33.25 32.5 7
      vertex 33.25 32.5 0
    endloop
  endfacet
  facet normal -0.939692 0.342021 0
    outer loop
      vertex 33.25 32.5 7
      vertex 32.6066 30.7323 0
      vertex 32.6066 30.7323 7
    endloop
  endfacet
  facet normal -0.5 0.866025 0
    outer loop
      vertex 32.6066 30.7323 0
      vertex 30.9775 29.7918 7
      vertex 32.6066 30.7323 7
    endloop
  endfacet
  facet normal -0.5 0.866025 0
    outer loop
      vertex 30.9775 29.7918 7
      vertex 32.6066 30.7323 0
      vertex 30.9775 29.7918 0
    endloop
  endfacet
  facet normal 0.766044 0.642788 0
    outer loop
      vertex 29.125 30.1184 7
      vertex 27.9158 31.5594 0
      vertex 27.9158 31.5594 7
    endloop
  endfacet
  facet normal 0.766044 0.642788 0
    outer loop
      vertex 27.9158 31.5594 0
      vertex 29.125 30.1184 7
      vertex 29.125 30.1184 0
    endloop
  endfacet
  facet normal 0.173649 0.984808 -0
    outer loop
      vertex 30.9775 29.7918 0
      vertex 29.125 30.1184 7
      vertex 30.9775 29.7918 7
    endloop
  endfacet
  facet normal 0.173649 0.984808 0
    outer loop
      vertex 29.125 30.1184 7
      vertex 30.9775 29.7918 0
      vertex 29.125 30.1184 0
    endloop
  endfacet
  facet normal -1 0 0
    outer loop
      vertex 0 0 0
      vertex 0 57 7
      vertex 0 57 0
    endloop
  endfacet
  facet normal -1 -0 0
    outer loop
      vertex 0 57 7
      vertex 0 0 0
      vertex 0 0 7
    endloop
  endfacet
  facet normal 0 0 1
    outer loop
      vertex 11.6066 6.26767 7
      vertex 29.125 6.88157 7
      vertex 11.6066 30.7323 7
    endloop
  endfacet
  facet normal 0 0 1
    outer loop
      vertex 29.125 6.88157 7
      vertex 11.6066 6.26767 7
      vertex 12.25 4.5 7
    endloop
  endfacet
  facet normal -0 0 1
    outer loop
      vertex 9.97753 29.7918 7
      vertex 11.6066 6.26767 7
      vertex 11.6066 30.7323 7
    endloop
  endfacet
  facet normal 0 0 1
    outer loop
      vertex 9.97753 29.7918 7
      vertex 9.97753 7.20822 7
      vertex 11.6066 6.26767 7
    endloop
  endfacet
  facet normal 0 0 1
    outer loop
      vertex 9.97753 29.7918 7
      vertex 8.125 6.88157 7
      vertex 9.97753 7.20822 7
    endloop
  endfacet
  facet normal 0 0 1
    outer loop
      vertex 8.125 30.1184 7
      vertex 8.125 6.88157 7
      vertex 9.97753 29.7918 7
    endloop
  endfacet
  facet normal 0 0 1
    outer loop
      vertex 6.91584 31.5594 7
      vertex 8.125 6.88157 7
      vertex 8.125 30.1184 7
    endloop
  endfacet
  facet normal 0 0 1
    outer loop
      vertex 8.125 6.88157 7
      vertex 6.91584 31.5594 7
      vertex 6.91584 5.44055 7
    endloop
  endfacet
  facet normal -0 0 1
    outer loop
      vertex 32.6066 6.26767 7
      vertex 40 0 7
      vertex 32.6066 30.7323 7
    endloop
  endfacet
  facet normal 0 0 1
    outer loop
      vertex 40 0 7
      vertex 32.6066 6.26767 7
      vertex 33.25 4.5 7
    endloop
  endfacet
  facet normal -0 0 1
    outer loop
      vertex 30.9775 29.7918 7
      vertex 32.6066 6.26767 7
      vertex 32.6066 30.7323 7
    endloop
  endfacet
  facet normal 0 0 1
    outer loop
      vertex 30.9775 29.7918 7
      vertex 30.9775 7.20822 7
      vertex 32.6066 6.26767 7
    endloop
  endfacet
  facet normal 0 0 1
    outer loop
      vertex 29.125 30.1184 7
      vertex 30.9775 7.20822 7
      vertex 30.9775 29.7918 7
    endloop
  endfacet
  facet normal 0 0 1
    outer loop
      vertex 29.125 30.1184 7
      vertex 29.125 6.88157 7
      vertex 30.9775 7.20822 7
    endloop
  endfacet
  facet normal 0 0 1
    outer loop
      vertex 11.6066 30.7323 7
      vertex 27.9158 31.5594 7
      vertex 12.25 32.5 7
    endloop
  endfacet
  facet normal 0 0 1
    outer loop
      vertex 27.9158 31.5594 7
      vertex 11.6066 30.7323 7
      vertex 29.125 30.1184 7
    endloop
  endfacet
  facet normal 0 0 1
    outer loop
      vertex 36.55 49.3153 7
      vertex 32.6066 34.2677 7
      vertex 33.25 32.5 7
    endloop
  endfacet
  facet normal 0 0 1
    outer loop
      vertex 29.125 34.8816 7
      vertex 33.45 49.3153 7
      vertex 31.9 52 7
    endloop
  endfacet
  facet normal 0 0 1
    outer loop
      vertex 36.55 49.3153 7
      vertex 30.9775 35.2082 7
      vertex 32.6066 34.2677 7
    endloop
  endfacet
  facet normal 0 0 1
    outer loop
      vertex 40 57 7
      vertex 38.1 52 7
      vertex 40 0 7
    endloop
  endfacet
  facet normal 0 0 1
    outer loop
      vertex 40 57 7
      vertex 36.55 54.6847 7
      vertex 38.1 52 7
    endloop
  endfacet
  facet normal 0 0 1
    outer loop
      vertex 40 57 7
      vertex 33.45 54.6847 7
      vertex 36.55 54.6847 7
    endloop
  endfacet
  facet normal 0 0 1
    outer loop
      vertex 33.45 49.3153 7
      vertex 29.125 34.8816 7
      vertex 30.9775 35.2082 7
    endloop
  endfacet
  facet normal 0 0 1
    outer loop
      vertex 11.6066 34.2677 7
      vertex 29.125 34.8816 7
      vertex 31.9 52 7
    endloop
  endfacet
  facet normal -0 0 1
    outer loop
      vertex 12.25 32.5 7
      vertex 27.9158 31.5594 7
      vertex 27.9158 33.4406 7
    endloop
  endfacet
  facet normal 0 0 1
    outer loop
      vertex 29.125 30.1184 7
      vertex 11.6066 30.7323 7
      vertex 29.125 6.88157 7
    endloop
  endfacet
  facet normal 0 0 1
    outer loop
      vertex 29.125 6.88157 7
      vertex 12.25 4.5 7
      vertex 27.9158 5.44055 7
    endloop
  endfacet
  facet normal 0 0 1
    outer loop
      vertex 29.125 34.8816 7
      vertex 11.6066 34.2677 7
      vertex 27.9158 33.4406 7
    endloop
  endfacet
  facet normal 0 0 1
    outer loop
      vertex 0 57 7
      vertex 31.9 52 7
      vertex 33.45 54.6847 7
    endloop
  endfacet
  facet normal 0 0 1
    outer loop
      vertex 27.9158 33.4406 7
      vertex 11.6066 34.2677 7
      vertex 12.25 32.5 7
    endloop
  endfacet
  facet normal 0 0 1
    outer loop
      vertex 31.9 52 7
      vertex 9.97753 35.2082 7
      vertex 11.6066 34.2677 7
    endloop
  endfacet
  facet normal 0 0 1
    outer loop
      vertex 31.9 52 7
      vertex 0 57 7
      vertex 9.97753 35.2082 7
    endloop
  endfacet
  facet normal 0 0 1
    outer loop
      vertex 0 57 7
      vertex 6.91584 31.5594 7
      vertex 6.91584 33.4406 7
    endloop
  endfacet
  facet normal 0 0 1
    outer loop
      vertex 6.91584 31.5594 7
      vertex 0 0 7
      vertex 6.91584 5.44055 7
    endloop
  endfacet
  facet normal 0 0 1
    outer loop
      vertex 6.91584 31.5594 7
      vertex 0 57 7
      vertex 0 0 7
    endloop
  endfacet
  facet normal 0 0 1
    outer loop
      vertex 8.125 34.8816 7
      vertex 0 57 7
      vertex 6.91584 33.4406 7
    endloop
  endfacet
  facet normal 0 0 1
    outer loop
      vertex 9.97753 35.2082 7
      vertex 0 57 7
      vertex 8.125 34.8816 7
    endloop
  endfacet
  facet normal -0 0 1
    outer loop
      vertex 0 57 7
      vertex 33.45 54.6847 7
      vertex 40 57 7
    endloop
  endfacet
  facet normal 0 0 1
    outer loop
      vertex 33.25 32.5 7
      vertex 38.1 52 7
      vertex 36.55 49.3153 7
    endloop
  endfacet
  facet normal 0 0 1
    outer loop
      vertex 30.9775 35.2082 7
      vertex 36.55 49.3153 7
      vertex 33.45 49.3153 7
    endloop
  endfacet
  facet normal 0 0 1
    outer loop
      vertex 38.1 52 7
      vertex 33.25 32.5 7
      vertex 40 0 7
    endloop
  endfacet
  facet normal -0 0 1
    outer loop
      vertex 32.6066 30.7323 7
      vertex 40 0 7
      vertex 33.25 32.5 7
    endloop
  endfacet
  facet normal -0 0 1
    outer loop
      vertex 32.6066 2.73233 7
      vertex 40 0 7
      vertex 33.25 4.5 7
    endloop
  endfacet
  facet normal -0 0 1
    outer loop
      vertex 30.9775 1.79178 7
      vertex 40 0 7
      vertex 32.6066 2.73233 7
    endloop
  endfacet
  facet normal 0 0 1
    outer loop
      vertex 9.97753 1.79178 7
      vertex 30.9775 1.79178 7
      vertex 29.125 2.11843 7
    endloop
  endfacet
  facet normal 0 0 1
    outer loop
      vertex 27.9158 5.44055 7
      vertex 12.25 4.5 7
      vertex 27.9158 3.55944 7
    endloop
  endfacet
  facet normal 0 0 1
    outer loop
      vertex 11.6066 2.73233 7
      vertex 27.9158 3.55944 7
      vertex 12.25 4.5 7
    endloop
  endfacet
  facet normal 0 0 1
    outer loop
      vertex 27.9158 3.55944 7
      vertex 11.6066 2.73233 7
      vertex 29.125 2.11843 7
    endloop
  endfacet
  facet normal 0 0 1
    outer loop
      vertex 9.97753 1.79178 7
      vertex 29.125 2.11843 7
      vertex 11.6066 2.73233 7
    endloop
  endfacet
  facet normal 0 0 1
    outer loop
      vertex 30.9775 1.79178 7
      vertex 9.97753 1.79178 7
      vertex 40 0 7
    endloop
  endfacet
  facet normal 0 0 1
    outer loop
      vertex 9.97753 1.79178 7
      vertex 0 0 7
      vertex 40 0 7
    endloop
  endfacet
  facet normal 0 0 1
    outer loop
      vertex 8.125 2.11843 7
      vertex 0 0 7
      vertex 9.97753 1.79178 7
    endloop
  endfacet
  facet normal 0 0 1
    outer loop
      vertex 6.91584 3.55944 7
      vertex 0 0 7
      vertex 8.125 2.11843 7
    endloop
  endfacet
  facet normal 0 0 1
    outer loop
      vertex 6.91584 5.44055 7
      vertex 0 0 7
      vertex 6.91584 3.55944 7
    endloop
  endfacet
  facet normal 1 -0 0
    outer loop
      vertex 40 0 7
      vertex 40 57 0
      vertex 40 57 7
    endloop
  endfacet
  facet normal 1 0 0
    outer loop
      vertex 40 57 0
      vertex 40 0 7
      vertex 40 0 0
    endloop
  endfacet
  facet normal 0 1 -0
    outer loop
      vertex 40 57 0
      vertex 0 57 7
      vertex 40 57 7
    endloop
  endfacet
  facet normal 0 1 0
    outer loop
      vertex 0 57 7
      vertex 40 57 0
      vertex 0 57 0
    endloop
  endfacet
  facet normal 0 0 -1
    outer loop
      vertex 11.6066 30.7323 0
      vertex 29.125 30.1184 0
      vertex 11.6066 6.26767 0
    endloop
  endfacet
  facet normal 0 0 -1
    outer loop
      vertex 29.125 30.1184 0
      vertex 11.6066 30.7323 0
      vertex 12.25 32.5 0
    endloop
  endfacet
  facet normal 0 0 -1
    outer loop
      vertex 9.97753 7.20822 0
      vertex 11.6066 30.7323 0
      vertex 11.6066 6.26767 0
    endloop
  endfacet
  facet normal 0 0 -1
    outer loop
      vertex 9.97753 7.20822 0
      vertex 9.97753 29.7918 0
      vertex 11.6066 30.7323 0
    endloop
  endfacet
  facet normal 0 0 -1
    outer loop
      vertex 8.125 6.88157 0
      vertex 9.97753 29.7918 0
      vertex 9.97753 7.20822 0
    endloop
  endfacet
  facet normal 0 0 -1
    outer loop
      vertex 8.125 6.88157 0
      vertex 8.125 30.1184 0
      vertex 9.97753 29.7918 0
    endloop
  endfacet
  facet normal 0 0 -1
    outer loop
      vertex 6.91584 5.44055 0
      vertex 8.125 30.1184 0
      vertex 8.125 6.88157 0
    endloop
  endfacet
  facet normal -0 0 -1
    outer loop
      vertex 8.125 30.1184 0
      vertex 6.91584 5.44055 0
      vertex 6.91584 31.5594 0
    endloop
  endfacet
  facet normal 0 0 -1
    outer loop
      vertex 32.6066 30.7323 0
      vertex 40 0 0
      vertex 32.6066 6.26767 0
    endloop
  endfacet
  facet normal 0 0 -1
    outer loop
      vertex 40 0 0
      vertex 32.6066 30.7323 0
      vertex 33.25 32.5 0
    endloop
  endfacet
  facet normal 0 0 -1
    outer loop
      vertex 30.9775 7.20822 0
      vertex 32.6066 30.7323 0
      vertex 32.6066 6.26767 0
    endloop
  endfacet
  facet normal 0 0 -1
    outer loop
      vertex 30.9775 7.20822 0
      vertex 30.9775 29.7918 0
      vertex 32.6066 30.7323 0
    endloop
  endfacet
  facet normal 0 0 -1
    outer loop
      vertex 29.125 6.88157 0
      vertex 30.9775 29.7918 0
      vertex 30.9775 7.20822 0
    endloop
  endfacet
  facet normal 0 0 -1
    outer loop
      vertex 29.125 6.88157 0
      vertex 29.125 30.1184 0
      vertex 30.9775 29.7918 0
    endloop
  endfacet
  facet normal 0 0 -1
    outer loop
      vertex 11.6066 6.26767 0
      vertex 27.9158 5.44055 0
      vertex 12.25 4.5 0
    endloop
  endfacet
  facet normal 0 0 -1
    outer loop
      vertex 27.9158 5.44055 0
      vertex 11.6066 6.26767 0
      vertex 29.125 6.88157 0
    endloop
  endfacet
  facet normal 0 0 -1
    outer loop
      vertex 33.25 32.5 0
      vertex 40 57 0
      vertex 40 0 0
    endloop
  endfacet
  facet normal 0 0 -1
    outer loop
      vertex 40 57 0
      vertex 36.5074 51.3289 0
      vertex 36.65 52 0
    endloop
  endfacet
  facet normal 0 0 -1
    outer loop
      vertex 40 57 0
      vertex 33.25 32.5 0
      vertex 36.5074 51.3289 0
    endloop
  endfacet
  facet normal 0 0 -1
    outer loop
      vertex 36.5074 51.3289 0
      vertex 33.25 32.5 0
      vertex 36.1041 50.7738 0
    endloop
  endfacet
  facet normal 0 0 -1
    outer loop
      vertex 32.6066 34.2677 0
      vertex 36.1041 50.7738 0
      vertex 33.25 32.5 0
    endloop
  endfacet
  facet normal 0 0 -1
    outer loop
      vertex 36.1041 50.7738 0
      vertex 32.6066 34.2677 0
      vertex 35.5099 50.4308 0
    endloop
  endfacet
  facet normal 0 0 -1
    outer loop
      vertex 35.5099 50.4308 0
      vertex 32.6066 34.2677 0
      vertex 34.8275 50.359 0
    endloop
  endfacet
  facet normal 0 0 -1
    outer loop
      vertex 30.9775 35.2082 0
      vertex 34.8275 50.359 0
      vertex 32.6066 34.2677 0
    endloop
  endfacet
  facet normal -0 0 -1
    outer loop
      vertex 34.8275 50.359 0
      vertex 30.9775 35.2082 0
      vertex 34.175 50.5711 0
    endloop
  endfacet
  facet normal 0 0 -1
    outer loop
      vertex 32.6066 6.26767 0
      vertex 40 0 0
      vertex 33.25 4.5 0
    endloop
  endfacet
  facet normal 0 0 -1
    outer loop
      vertex 40 0 0
      vertex 32.6066 2.73233 0
      vertex 33.25 4.5 0
    endloop
  endfacet
  facet normal 0 0 -1
    outer loop
      vertex 40 0 0
      vertex 30.9775 1.79178 0
      vertex 32.6066 2.73233 0
    endloop
  endfacet
  facet normal 0 0 -1
    outer loop
      vertex 9.97753 1.79178 0
      vertex 30.9775 1.79178 0
      vertex 40 0 0
    endloop
  endfacet
  facet normal 0 0 -1
    outer loop
      vertex 12.25 4.5 0
      vertex 27.9158 5.44055 0
      vertex 27.9158 3.55944 0
    endloop
  endfacet
  facet normal -0 0 -1
    outer loop
      vertex 29.125 6.88157 0
      vertex 11.6066 6.26767 0
      vertex 29.125 30.1184 0
    endloop
  endfacet
  facet normal 0 0 -1
    outer loop
      vertex 29.125 30.1184 0
      vertex 12.25 32.5 0
      vertex 27.9158 31.5594 0
    endloop
  endfacet
  facet normal 0 0 -1
    outer loop
      vertex 11.6066 2.73233 0
      vertex 27.9158 3.55944 0
      vertex 29.125 2.11843 0
    endloop
  endfacet
  facet normal 0 0 -1
    outer loop
      vertex 30.9775 1.79178 0
      vertex 9.97753 1.79178 0
      vertex 29.125 2.11843 0
    endloop
  endfacet
  facet normal -0 0 -1
    outer loop
      vertex 27.9158 3.55944 0
      vertex 11.6066 2.73233 0
      vertex 12.25 4.5 0
    endloop
  endfacet
  facet normal -0 0 -1
    outer loop
      vertex 29.125 2.11843 0
      vertex 9.97753 1.79178 0
      vertex 11.6066 2.73233 0
    endloop
  endfacet
  facet normal 0 0 -1
    outer loop
      vertex 0 0 0
      vertex 6.91584 5.44055 0
      vertex 6.91584 3.55944 0
    endloop
  endfacet
  facet normal -0 0 -1
    outer loop
      vertex 6.91584 5.44055 0
      vertex 0 0 0
      vertex 6.91584 31.5594 0
    endloop
  endfacet
  facet normal 0 0 -1
    outer loop
      vertex 0 57 0
      vertex 6.91584 31.5594 0
      vertex 0 0 0
    endloop
  endfacet
  facet normal -0 0 -1
    outer loop
      vertex 8.125 2.11843 0
      vertex 0 0 0
      vertex 6.91584 3.55944 0
    endloop
  endfacet
  facet normal -0 0 -1
    outer loop
      vertex 9.97753 1.79178 0
      vertex 0 0 0
      vertex 8.125 2.11843 0
    endloop
  endfacet
  facet normal 0 0 -1
    outer loop
      vertex 0 0 0
      vertex 9.97753 1.79178 0
      vertex 40 0 0
    endloop
  endfacet
  facet normal 0 0 -1
    outer loop
      vertex 36.5074 52.6711 0
      vertex 40 57 0
      vertex 36.65 52 0
    endloop
  endfacet
  facet normal 0 0 -1
    outer loop
      vertex 36.1041 53.2262 0
      vertex 40 57 0
      vertex 36.5074 52.6711 0
    endloop
  endfacet
  facet normal 0 0 -1
    outer loop
      vertex 35.5099 53.5692 0
      vertex 40 57 0
      vertex 36.1041 53.2262 0
    endloop
  endfacet
  facet normal 0 0 -1
    outer loop
      vertex 34.8275 53.641 0
      vertex 40 57 0
      vertex 35.5099 53.5692 0
    endloop
  endfacet
  facet normal 0 0 -1
    outer loop
      vertex 34.175 53.4289 0
      vertex 40 57 0
      vertex 34.8275 53.641 0
    endloop
  endfacet
  facet normal 0 0 -1
    outer loop
      vertex 29.125 34.8816 0
      vertex 34.175 50.5711 0
      vertex 30.9775 35.2082 0
    endloop
  endfacet
  facet normal -0 0 -1
    outer loop
      vertex 34.175 50.5711 0
      vertex 29.125 34.8816 0
      vertex 33.6651 51.0302 0
    endloop
  endfacet
  facet normal -0 0 -1
    outer loop
      vertex 33.6651 51.0302 0
      vertex 29.125 34.8816 0
      vertex 33.3861 51.6569 0
    endloop
  endfacet
  facet normal 0 0 -1
    outer loop
      vertex 11.6066 34.2677 0
      vertex 33.3861 51.6569 0
      vertex 29.125 34.8816 0
    endloop
  endfacet
  facet normal 0 0 -1
    outer loop
      vertex 11.6066 34.2677 0
      vertex 29.125 34.8816 0
      vertex 27.9158 33.4406 0
    endloop
  endfacet
  facet normal 0 0 -1
    outer loop
      vertex 27.9158 31.5594 0
      vertex 12.25 32.5 0
      vertex 27.9158 33.4406 0
    endloop
  endfacet
  facet normal 0 0 -1
    outer loop
      vertex 11.6066 34.2677 0
      vertex 27.9158 33.4406 0
      vertex 12.25 32.5 0
    endloop
  endfacet
  facet normal 0 0 -1
    outer loop
      vertex 9.97753 35.2082 0
      vertex 33.3861 51.6569 0
      vertex 11.6066 34.2677 0
    endloop
  endfacet
  facet normal 0 0 -1
    outer loop
      vertex 0 57 0
      vertex 33.3861 51.6569 0
      vertex 9.97753 35.2082 0
    endloop
  endfacet
  facet normal 0 0 -1
    outer loop
      vertex 33.3861 51.6569 0
      vertex 0 57 0
      vertex 33.3861 52.3431 0
    endloop
  endfacet
  facet normal 0 0 -1
    outer loop
      vertex 33.3861 52.3431 0
      vertex 0 57 0
      vertex 33.6651 52.9698 0
    endloop
  endfacet
  facet normal 0 0 -1
    outer loop
      vertex 0 57 0
      vertex 9.97753 35.2082 0
      vertex 8.125 34.8816 0
    endloop
  endfacet
  facet normal 0 0 -1
    outer loop
      vertex 34.175 53.4289 0
      vertex 0 57 0
      vertex 40 57 0
    endloop
  endfacet
  facet normal 0 0 -1
    outer loop
      vertex 33.6651 52.9698 0
      vertex 0 57 0
      vertex 34.175 53.4289 0
    endloop
  endfacet
  facet normal 0 0 -1
    outer loop
      vertex 6.91584 33.4406 0
      vertex 0 57 0
      vertex 8.125 34.8816 0
    endloop
  endfacet
  facet normal 0 0 -1
    outer loop
      vertex 6.91584 31.5594 0
      vertex 0 57 0
      vertex 6.91584 33.4406 0
    endloop
  endfacet
  facet normal 0 -1 0
    outer loop
      vertex 0 0 0
      vertex 40 0 7
      vertex 0 0 7
    endloop
  endfacet
  facet normal 0 -1 -0
    outer loop
      vertex 40 0 7
      vertex 0 0 0
      vertex 40 0 0
    endloop
  endfacet
  facet normal -0.978147 -0.207912 0
    outer loop
      vertex 36.65 52 0
      vertex 36.5074 52.6711 5
      vertex 36.5074 52.6711 0
    endloop
  endfacet
  facet normal -0.978147 -0.207912 0
    outer loop
      vertex 36.5074 52.6711 5
      vertex 36.65 52 0
      vertex 36.65 52 5
    endloop
  endfacet
  facet normal 1 -0 0
    outer loop
      vertex 33.3861 51.6569 5
      vertex 33.3861 52.3431 0
      vertex 33.3861 52.3431 5
    endloop
  endfacet
  facet normal 1 0 0
    outer loop
      vertex 33.3861 52.3431 0
      vertex 33.3861 51.6569 5
      vertex 33.3861 51.6569 0
    endloop
  endfacet
  facet normal 0.913544 0.406741 0
    outer loop
      vertex 33.6651 51.0302 5
      vertex 33.3861 51.6569 0
      vertex 33.3861 51.6569 5
    endloop
  endfacet
  facet normal 0.913544 0.406741 0
    outer loop
      vertex 33.3861 51.6569 0
      vertex 33.6651 51.0302 5
      vertex 33.6651 51.0302 0
    endloop
  endfacet
  facet normal 0.309018 -0.951056 0
    outer loop
      vertex 34.175 53.4289 0
      vertex 34.8275 53.641 5
      vertex 34.175 53.4289 5
    endloop
  endfacet
  facet normal 0.309018 -0.951056 0
    outer loop
      vertex 34.8275 53.641 5
      vertex 34.175 53.4289 0
      vertex 34.8275 53.641 0
    endloop
  endfacet
  facet normal 0.669131 -0.743145 0
    outer loop
      vertex 33.6651 52.9698 0
      vertex 34.175 53.4289 5
      vertex 33.6651 52.9698 5
    endloop
  endfacet
  facet normal 0.669131 -0.743145 0
    outer loop
      vertex 34.175 53.4289 5
      vertex 33.6651 52.9698 0
      vertex 34.175 53.4289 0
    endloop
  endfacet
  facet normal -0.500001 -0.866025 0
    outer loop
      vertex 35.5099 53.5692 0
      vertex 36.1041 53.2262 5
      vertex 35.5099 53.5692 5
    endloop
  endfacet
  facet normal -0.500001 -0.866025 -0
    outer loop
      vertex 36.1041 53.2262 5
      vertex 35.5099 53.5692 0
      vertex 36.1041 53.2262 0
    endloop
  endfacet
  facet normal -0.809016 -0.587787 0
    outer loop
      vertex 36.5074 52.6711 0
      vertex 36.1041 53.2262 5
      vertex 36.1041 53.2262 0
    endloop
  endfacet
  facet normal -0.809016 -0.587787 0
    outer loop
      vertex 36.1041 53.2262 5
      vertex 36.5074 52.6711 0
      vertex 36.5074 52.6711 5
    endloop
  endfacet
  facet normal -0.104527 -0.994522 0
    outer loop
      vertex 34.8275 53.641 0
      vertex 35.5099 53.5692 5
      vertex 34.8275 53.641 5
    endloop
  endfacet
  facet normal -0.104527 -0.994522 -0
    outer loop
      vertex 35.5099 53.5692 5
      vertex 34.8275 53.641 0
      vertex 35.5099 53.5692 0
    endloop
  endfacet
  facet normal 0.913544 -0.406741 0
    outer loop
      vertex 33.3861 52.3431 5
      vertex 33.6651 52.9698 0
      vertex 33.6651 52.9698 5
    endloop
  endfacet
  facet normal 0.913544 -0.406741 0
    outer loop
      vertex 33.6651 52.9698 0
      vertex 33.3861 52.3431 5
      vertex 33.3861 52.3431 0
    endloop
  endfacet
  facet normal 0.309013 0.951058 -0
    outer loop
      vertex 34.8275 50.359 0
      vertex 34.175 50.5711 5
      vertex 34.8275 50.359 5
    endloop
  endfacet
  facet normal 0.309013 0.951058 0
    outer loop
      vertex 34.175 50.5711 5
      vertex 34.8275 50.359 0
      vertex 34.175 50.5711 0
    endloop
  endfacet
  facet normal 0.669134 0.743142 -0
    outer loop
      vertex 34.175 50.5711 0
      vertex 33.6651 51.0302 5
      vertex 34.175 50.5711 5
    endloop
  endfacet
  facet normal 0.669134 0.743142 0
    outer loop
      vertex 33.6651 51.0302 5
      vertex 34.175 50.5711 0
      vertex 33.6651 51.0302 0
    endloop
  endfacet
  facet normal -0.500001 0.866025 0
    outer loop
      vertex 36.1041 50.7738 0
      vertex 35.5099 50.4308 5
      vertex 36.1041 50.7738 5
    endloop
  endfacet
  facet normal -0.500001 0.866025 0
    outer loop
      vertex 35.5099 50.4308 5
      vertex 36.1041 50.7738 0
      vertex 35.5099 50.4308 0
    endloop
  endfacet
  facet normal -0.809016 0.587787 0
    outer loop
      vertex 36.1041 50.7738 0
      vertex 36.5074 51.3289 5
      vertex 36.5074 51.3289 0
    endloop
  endfacet
  facet normal -0.809016 0.587787 0
    outer loop
      vertex 36.5074 51.3289 5
      vertex 36.1041 50.7738 0
      vertex 36.1041 50.7738 5
    endloop
  endfacet
  facet normal -0.978147 0.207912 0
    outer loop
      vertex 36.5074 51.3289 0
      vertex 36.65 52 5
      vertex 36.65 52 0
    endloop
  endfacet
  facet normal -0.978147 0.207912 0
    outer loop
      vertex 36.65 52 5
      vertex 36.5074 51.3289 0
      vertex 36.5074 51.3289 5
    endloop
  endfacet
  facet normal -0.104527 0.994522 0
    outer loop
      vertex 35.5099 50.4308 0
      vertex 34.8275 50.359 5
      vertex 35.5099 50.4308 5
    endloop
  endfacet
  facet normal -0.104527 0.994522 0
    outer loop
      vertex 34.8275 50.359 5
      vertex 35.5099 50.4308 0
      vertex 34.8275 50.359 0
    endloop
  endfacet
  facet normal -0 0 1
    outer loop
      vertex 36.5074 52.6711 5
      vertex 38.1 52 5
      vertex 36.55 54.6847 5
    endloop
  endfacet
  facet normal 0 0 1
    outer loop
      vertex 38.1 52 5
      vertex 36.5074 52.6711 5
      vertex 36.65 52 5
    endloop
  endfacet
  facet normal 0 0 1
    outer loop
      vertex 36.55 54.6847 5
      vertex 36.1041 53.2262 5
      vertex 36.5074 52.6711 5
    endloop
  endfacet
  facet normal 0 0 1
    outer loop
      vertex 36.55 54.6847 5
      vertex 35.5099 53.5692 5
      vertex 36.1041 53.2262 5
    endloop
  endfacet
  facet normal 0 0 1
    outer loop
      vertex 36.55 54.6847 5
      vertex 34.8275 53.641 5
      vertex 35.5099 53.5692 5
    endloop
  endfacet
  facet normal -0 0 1
    outer loop
      vertex 33.45 54.6847 5
      vertex 34.8275 53.641 5
      vertex 36.55 54.6847 5
    endloop
  endfacet
  facet normal 0 0 1
    outer loop
      vertex 34.8275 53.641 5
      vertex 33.45 54.6847 5
      vertex 34.175 53.4289 5
    endloop
  endfacet
  facet normal 0 0 1
    outer loop
      vertex 33.45 54.6847 5
      vertex 33.6651 52.9698 5
      vertex 34.175 53.4289 5
    endloop
  endfacet
  facet normal 0 0 1
    outer loop
      vertex 31.9 52 5
      vertex 33.6651 52.9698 5
      vertex 33.45 54.6847 5
    endloop
  endfacet
  facet normal 0 0 1
    outer loop
      vertex 33.3861 52.3431 5
      vertex 31.9 52 5
      vertex 33.3861 51.6569 5
    endloop
  endfacet
  facet normal 0 0 1
    outer loop
      vertex 33.6651 52.9698 5
      vertex 31.9 52 5
      vertex 33.3861 52.3431 5
    endloop
  endfacet
  facet normal 0 0 1
    outer loop
      vertex 36.5074 51.3289 5
      vertex 38.1 52 5
      vertex 36.65 52 5
    endloop
  endfacet
  facet normal 0 0 1
    outer loop
      vertex 38.1 52 5
      vertex 36.5074 51.3289 5
      vertex 36.55 49.3153 5
    endloop
  endfacet
  facet normal -0 0 1
    outer loop
      vertex 36.1041 50.7738 5
      vertex 36.55 49.3153 5
      vertex 36.5074 51.3289 5
    endloop
  endfacet
  facet normal -0 0 1
    outer loop
      vertex 35.5099 50.4308 5
      vertex 36.55 49.3153 5
      vertex 36.1041 50.7738 5
    endloop
  endfacet
  facet normal -0 0 1
    outer loop
      vertex 34.8275 50.359 5
      vertex 36.55 49.3153 5
      vertex 35.5099 50.4308 5
    endloop
  endfacet
  facet normal 0 0 1
    outer loop
      vertex 33.45 49.3153 5
      vertex 34.8275 50.359 5
      vertex 34.175 50.5711 5
    endloop
  endfacet
  facet normal 0 0 1
    outer loop
      vertex 34.8275 50.359 5
      vertex 33.45 49.3153 5
      vertex 36.55 49.3153 5
    endloop
  endfacet
  facet normal 0 0 1
    outer loop
      vertex 33.6651 51.0302 5
      vertex 33.45 49.3153 5
      vertex 34.175 50.5711 5
    endloop
  endfacet
  facet normal 0 0 1
    outer loop
      vertex 31.9 52 5
      vertex 33.6651 51.0302 5
      vertex 33.3861 51.6569 5
    endloop
  endfacet
  facet normal 0 0 1
    outer loop
      vertex 33.6651 51.0302 5
      vertex 31.9 52 5
      vertex 33.45 49.3153 5
    endloop
  endfacet
  facet normal -0.866025 -0.5 0
    outer loop
      vertex 38.1 52 5
      vertex 36.55 54.6847 7
      vertex 36.55 54.6847 5
    endloop
  endfacet
  facet normal -0.866025 -0.5 0
    outer loop
      vertex 36.55 54.6847 7
      vertex 38.1 52 5
      vertex 38.1 52 7
    endloop
  endfacet
  facet normal 0.866025 -0.500001 0
    outer loop
      vertex 31.9 52 7
      vertex 33.45 54.6847 5
      vertex 33.45 54.6847 7
    endloop
  endfacet
  facet normal 0.866025 -0.500001 0
    outer loop
      vertex 33.45 54.6847 5
      vertex 31.9 52 7
      vertex 31.9 52 5
    endloop
  endfacet
  facet normal 0 -1 0
    outer loop
      vertex 33.45 54.6847 5
      vertex 36.55 54.6847 7
      vertex 33.45 54.6847 7
    endloop
  endfacet
  facet normal 0 -1 -0
    outer loop
      vertex 36.55 54.6847 7
      vertex 33.45 54.6847 5
      vertex 36.55 54.6847 5
    endloop
  endfacet
  facet normal 0.866025 0.500001 0
    outer loop
      vertex 33.45 49.3153 7
      vertex 31.9 52 5
      vertex 31.9 52 7
    endloop
  endfacet
  facet normal 0.866025 0.500001 0
    outer loop
      vertex 31.9 52 5
      vertex 33.45 49.3153 7
      vertex 33.45 49.3153 5
    endloop
  endfacet
  facet normal -0.866025 0.5 0
    outer loop
      vertex 36.55 49.3153 5
      vertex 38.1 52 7
      vertex 38.1 52 5
    endloop
  endfacet
  facet normal -0.866025 0.5 0
    outer loop
      vertex 38.1 52 7
      vertex 36.55 49.3153 5
      vertex 36.55 49.3153 7
    endloop
  endfacet
  facet normal 0 1 -0
    outer loop
      vertex 36.55 49.3153 5
      vertex 33.45 49.3153 7
      vertex 36.55 49.3153 7
    endloop
  endfacet
  facet normal 0 1 0
    outer loop
      vertex 33.45 49.3153 7
      vertex 36.55 49.3153 5
      vertex 33.45 49.3153 5
    endloop
  endfacet
  facet normal -0.939693 0.34202 0
    outer loop
      vertex 11.6066 -11.2677 0
      vertex 12.25 -9.5 7
      vertex 12.25 -9.5 0
    endloop
  endfacet
  facet normal -0.939693 0.34202 0
    outer loop
      vertex 12.25 -9.5 7
      vertex 11.6066 -11.2677 0
      vertex 11.6066 -11.2677 7
    endloop
  endfacet
  facet normal 1 -0 0
    outer loop
      vertex 6.91584 -10.4406 7
      vertex 6.91584 -8.55944 0
      vertex 6.91584 -8.55944 7
    endloop
  endfacet
  facet normal 1 0 0
    outer loop
      vertex 6.91584 -8.55944 0
      vertex 6.91584 -10.4406 7
      vertex 6.91584 -10.4406 0
    endloop
  endfacet
  facet normal 0.173648 0.984808 -0
    outer loop
      vertex 9.97753 -12.2082 0
      vertex 8.125 -11.8816 7
      vertex 9.97753 -12.2082 7
    endloop
  endfacet
  facet normal 0.173648 0.984808 0
    outer loop
      vertex 8.125 -11.8816 7
      vertex 9.97753 -12.2082 0
      vertex 8.125 -11.8816 0
    endloop
  endfacet
  facet normal -0.5 0.866026 0
    outer loop
      vertex 11.6066 -11.2677 0
      vertex 9.97753 -12.2082 7
      vertex 11.6066 -11.2677 7
    endloop
  endfacet
  facet normal -0.5 0.866026 0
    outer loop
      vertex 9.97753 -12.2082 7
      vertex 11.6066 -11.2677 0
      vertex 9.97753 -12.2082 0
    endloop
  endfacet
  facet normal 0.766044 0.642788 0
    outer loop
      vertex 8.125 -11.8816 7
      vertex 6.91584 -10.4406 0
      vertex 6.91584 -10.4406 7
    endloop
  endfacet
  facet normal 0.766044 0.642788 0
    outer loop
      vertex 6.91584 -10.4406 0
      vertex 8.125 -11.8816 7
      vertex 8.125 -11.8816 0
    endloop
  endfacet
  facet normal -0.939693 -0.34202 0
    outer loop
      vertex 12.25 -9.5 0
      vertex 11.6066 -7.73233 7
      vertex 11.6066 -7.73233 0
    endloop
  endfacet
  facet normal -0.939693 -0.34202 0
    outer loop
      vertex 11.6066 -7.73233 7
      vertex 12.25 -9.5 0
      vertex 12.25 -9.5 7
    endloop
  endfacet
  facet normal -0.5 -0.866026 0
    outer loop
      vertex 9.97753 -6.79178 0
      vertex 11.6066 -7.73233 7
      vertex 9.97753 -6.79178 7
    endloop
  endfacet
  facet normal -0.5 -0.866026 -0
    outer loop
      vertex 11.6066 -7.73233 7
      vertex 9.97753 -6.79178 0
      vertex 11.6066 -7.73233 0
    endloop
  endfacet
  facet normal 0.173648 -0.984808 0
    outer loop
      vertex 8.125 -7.11843 0
      vertex 9.97753 -6.79178 7
      vertex 8.125 -7.11843 7
    endloop
  endfacet
  facet normal 0.173648 -0.984808 0
    outer loop
      vertex 9.97753 -6.79178 7
      vertex 8.125 -7.11843 0
      vertex 9.97753 -6.79178 0
    endloop
  endfacet
  facet normal 0.766045 -0.642787 0
    outer loop
      vertex 6.91584 -8.55944 7
      vertex 8.125 -7.11843 0
      vertex 8.125 -7.11843 7
    endloop
  endfacet
  facet normal 0.766045 -0.642787 0
    outer loop
      vertex 8.125 -7.11843 0
      vertex 6.91584 -8.55944 7
      vertex 6.91584 -8.55944 0
    endloop
  endfacet
  facet normal -0.939693 0.34202 0
    outer loop
      vertex 11.6066 -39.2677 0
      vertex 12.25 -37.5 7
      vertex 12.25 -37.5 0
    endloop
  endfacet
  facet normal -0.939693 0.34202 0
    outer loop
      vertex 12.25 -37.5 7
      vertex 11.6066 -39.2677 0
      vertex 11.6066 -39.2677 7
    endloop
  endfacet
  facet normal 1 -0 0
    outer loop
      vertex 6.91584 -38.4406 7
      vertex 6.91584 -36.5594 0
      vertex 6.91584 -36.5594 7
    endloop
  endfacet
  facet normal 1 0 0
    outer loop
      vertex 6.91584 -36.5594 0
      vertex 6.91584 -38.4406 7
      vertex 6.91584 -38.4406 0
    endloop
  endfacet
  facet normal 0.173649 0.984808 -0
    outer loop
      vertex 9.97753 -40.2082 0
      vertex 8.125 -39.8816 7
      vertex 9.97753 -40.2082 7
    endloop
  endfacet
  facet normal 0.173649 0.984808 0
    outer loop
      vertex 8.125 -39.8816 7
      vertex 9.97753 -40.2082 0
      vertex 8.125 -39.8816 0
    endloop
  endfacet
  facet normal -0.5 0.866025 0
    outer loop
      vertex 11.6066 -39.2677 0
      vertex 9.97753 -40.2082 7
      vertex 11.6066 -39.2677 7
    endloop
  endfacet
  facet normal -0.5 0.866025 0
    outer loop
      vertex 9.97753 -40.2082 7
      vertex 11.6066 -39.2677 0
      vertex 9.97753 -40.2082 0
    endloop
  endfacet
  facet normal 0.766044 0.642788 0
    outer loop
      vertex 8.125 -39.8816 7
      vertex 6.91584 -38.4406 0
      vertex 6.91584 -38.4406 7
    endloop
  endfacet
  facet normal 0.766044 0.642788 0
    outer loop
      vertex 6.91584 -38.4406 0
      vertex 8.125 -39.8816 7
      vertex 8.125 -39.8816 0
    endloop
  endfacet
  facet normal -0.939693 -0.34202 0
    outer loop
      vertex 12.25 -37.5 0
      vertex 11.6066 -35.7323 7
      vertex 11.6066 -35.7323 0
    endloop
  endfacet
  facet normal -0.939693 -0.34202 0
    outer loop
      vertex 11.6066 -35.7323 7
      vertex 12.25 -37.5 0
      vertex 12.25 -37.5 7
    endloop
  endfacet
  facet normal -0.5 -0.866025 0
    outer loop
      vertex 9.97753 -34.7918 0
      vertex 11.6066 -35.7323 7
      vertex 9.97753 -34.7918 7
    endloop
  endfacet
  facet normal -0.5 -0.866025 -0
    outer loop
      vertex 11.6066 -35.7323 7
      vertex 9.97753 -34.7918 0
      vertex 11.6066 -35.7323 0
    endloop
  endfacet
  facet normal 0.766044 -0.642788 0
    outer loop
      vertex 6.91584 -36.5594 7
      vertex 8.125 -35.1184 0
      vertex 8.125 -35.1184 7
    endloop
  endfacet
  facet normal 0.766044 -0.642788 0
    outer loop
      vertex 8.125 -35.1184 0
      vertex 6.91584 -36.5594 7
      vertex 6.91584 -36.5594 0
    endloop
  endfacet
  facet normal 0.173649 -0.984808 0
    outer loop
      vertex 8.125 -35.1184 0
      vertex 9.97753 -34.7918 7
      vertex 8.125 -35.1184 7
    endloop
  endfacet
  facet normal 0.173649 -0.984808 0
    outer loop
      vertex 9.97753 -34.7918 7
      vertex 8.125 -35.1184 0
      vertex 9.97753 -34.7918 0
    endloop
  endfacet
  facet normal -0.939692 0.342021 0
    outer loop
      vertex 32.6066 -11.2677 0
      vertex 33.25 -9.5 7
      vertex 33.25 -9.5 0
    endloop
  endfacet
  facet normal -0.939692 0.342021 0
    outer loop
      vertex 33.25 -9.5 7
      vertex 32.6066 -11.2677 0
      vertex 32.6066 -11.2677 7
    endloop
  endfacet
  facet normal 1 -0 0
    outer loop
      vertex 27.9158 -10.4406 7
      vertex 27.9158 -8.55944 0
      vertex 27.9158 -8.55944 7
    endloop
  endfacet
  facet normal 1 0 0
    outer loop
      vertex 27.9158 -8.55944 0
      vertex 27.9158 -10.4406 7
      vertex 27.9158 -10.4406 0
    endloop
  endfacet
  facet normal 0.173648 0.984808 -0
    outer loop
      vertex 30.9775 -12.2082 0
      vertex 29.125 -11.8816 7
      vertex 30.9775 -12.2082 7
    endloop
  endfacet
  facet normal 0.173648 0.984808 0
    outer loop
      vertex 29.125 -11.8816 7
      vertex 30.9775 -12.2082 0
      vertex 29.125 -11.8816 0
    endloop
  endfacet
  facet normal -0.5 0.866026 0
    outer loop
      vertex 32.6066 -11.2677 0
      vertex 30.9775 -12.2082 7
      vertex 32.6066 -11.2677 7
    endloop
  endfacet
  facet normal -0.5 0.866026 0
    outer loop
      vertex 30.9775 -12.2082 7
      vertex 32.6066 -11.2677 0
      vertex 30.9775 -12.2082 0
    endloop
  endfacet
  facet normal 0.766044 0.642788 0
    outer loop
      vertex 29.125 -11.8816 7
      vertex 27.9158 -10.4406 0
      vertex 27.9158 -10.4406 7
    endloop
  endfacet
  facet normal 0.766044 0.642788 0
    outer loop
      vertex 27.9158 -10.4406 0
      vertex 29.125 -11.8816 7
      vertex 29.125 -11.8816 0
    endloop
  endfacet
  facet normal 0.766044 -0.642788 0
    outer loop
      vertex 27.9158 -8.55944 7
      vertex 29.125 -7.11843 0
      vertex 29.125 -7.11843 7
    endloop
  endfacet
  facet normal 0.766044 -0.642788 0
    outer loop
      vertex 29.125 -7.11843 0
      vertex 27.9158 -8.55944 7
      vertex 27.9158 -8.55944 0
    endloop
  endfacet
  facet normal -0.939692 -0.342021 0
    outer loop
      vertex 33.25 -9.5 0
      vertex 32.6066 -7.73233 7
      vertex 32.6066 -7.73233 0
    endloop
  endfacet
  facet normal -0.939692 -0.342021 0
    outer loop
      vertex 32.6066 -7.73233 7
      vertex 33.25 -9.5 0
      vertex 33.25 -9.5 7
    endloop
  endfacet
  facet normal 0.173648 -0.984808 0
    outer loop
      vertex 29.125 -7.11843 0
      vertex 30.9775 -6.79178 7
      vertex 29.125 -7.11843 7
    endloop
  endfacet
  facet normal 0.173648 -0.984808 0
    outer loop
      vertex 30.9775 -6.79178 7
      vertex 29.125 -7.11843 0
      vertex 30.9775 -6.79178 0
    endloop
  endfacet
  facet normal -0.5 -0.866026 0
    outer loop
      vertex 30.9775 -6.79178 0
      vertex 32.6066 -7.73233 7
      vertex 30.9775 -6.79178 7
    endloop
  endfacet
  facet normal -0.5 -0.866026 -0
    outer loop
      vertex 32.6066 -7.73233 7
      vertex 30.9775 -6.79178 0
      vertex 32.6066 -7.73233 0
    endloop
  endfacet
  facet normal -0.939692 0.342021 0
    outer loop
      vertex 32.6066 -39.2677 0
      vertex 33.25 -37.5 7
      vertex 33.25 -37.5 0
    endloop
  endfacet
  facet normal -0.939692 0.342021 0
    outer loop
      vertex 33.25 -37.5 7
      vertex 32.6066 -39.2677 0
      vertex 32.6066 -39.2677 7
    endloop
  endfacet
  facet normal 1 -0 0
    outer loop
      vertex 27.9158 -38.4406 7
      vertex 27.9158 -36.5594 0
      vertex 27.9158 -36.5594 7
    endloop
  endfacet
  facet normal 1 0 0
    outer loop
      vertex 27.9158 -36.5594 0
      vertex 27.9158 -38.4406 7
      vertex 27.9158 -38.4406 0
    endloop
  endfacet
  facet normal 0.173649 0.984808 -0
    outer loop
      vertex 30.9775 -40.2082 0
      vertex 29.125 -39.8816 7
      vertex 30.9775 -40.2082 7
    endloop
  endfacet
  facet normal 0.173649 0.984808 0
    outer loop
      vertex 29.125 -39.8816 7
      vertex 30.9775 -40.2082 0
      vertex 29.125 -39.8816 0
    endloop
  endfacet
  facet normal -0.5 0.866025 0
    outer loop
      vertex 32.6066 -39.2677 0
      vertex 30.9775 -40.2082 7
      vertex 32.6066 -39.2677 7
    endloop
  endfacet
  facet normal -0.5 0.866025 0
    outer loop
      vertex 30.9775 -40.2082 7
      vertex 32.6066 -39.2677 0
      vertex 30.9775 -40.2082 0
    endloop
  endfacet
  facet normal 0.766044 0.642788 0
    outer loop
      vertex 29.125 -39.8816 7
      vertex 27.9158 -38.4406 0
      vertex 27.9158 -38.4406 7
    endloop
  endfacet
  facet normal 0.766044 0.642788 0
    outer loop
      vertex 27.9158 -38.4406 0
      vertex 29.125 -39.8816 7
      vertex 29.125 -39.8816 0
    endloop
  endfacet
  facet normal -0.939692 -0.342021 0
    outer loop
      vertex 33.25 -37.5 0
      vertex 32.6066 -35.7323 7
      vertex 32.6066 -35.7323 0
    endloop
  endfacet
  facet normal -0.939692 -0.342021 0
    outer loop
      vertex 32.6066 -35.7323 7
      vertex 33.25 -37.5 0
      vertex 33.25 -37.5 7
    endloop
  endfacet
  facet normal -0.5 -0.866025 0
    outer loop
      vertex 30.9775 -34.7918 0
      vertex 32.6066 -35.7323 7
      vertex 30.9775 -34.7918 7
    endloop
  endfacet
  facet normal -0.5 -0.866025 -0
    outer loop
      vertex 32.6066 -35.7323 7
      vertex 30.9775 -34.7918 0
      vertex 32.6066 -35.7323 0
    endloop
  endfacet
  facet normal 0.766044 -0.642788 0
    outer loop
      vertex 27.9158 -36.5594 7
      vertex 29.125 -35.1184 0
      vertex 29.125 -35.1184 7
    endloop
  endfacet
  facet normal 0.766044 -0.642788 0
    outer loop
      vertex 29.125 -35.1184 0
      vertex 27.9158 -36.5594 7
      vertex 27.9158 -36.5594 0
    endloop
  endfacet
  facet normal 0.173649 -0.984808 0
    outer loop
      vertex 29.125 -35.1184 0
      vertex 30.9775 -34.7918 7
      vertex 29.125 -35.1184 7
    endloop
  endfacet
  facet normal 0.173649 -0.984808 0
    outer loop
      vertex 30.9775 -34.7918 7
      vertex 29.125 -35.1184 0
      vertex 30.9775 -34.7918 0
    endloop
  endfacet
  facet normal -1 0 0
    outer loop
      vertex 0 -62 0
      vertex 0 -5 7
      vertex 0 -5 0
    endloop
  endfacet
  facet normal -1 -0 0
    outer loop
      vertex 0 -5 7
      vertex 0 -62 0
      vertex 0 -62 7
    endloop
  endfacet
  facet normal 0 0 1
    outer loop
      vertex 11.6066 -35.7323 7
      vertex 29.125 -35.1184 7
      vertex 11.6066 -11.2677 7
    endloop
  endfacet
  facet normal 0 0 1
    outer loop
      vertex 29.125 -35.1184 7
      vertex 11.6066 -35.7323 7
      vertex 12.25 -37.5 7
    endloop
  endfacet
  facet normal -0 0 1
    outer loop
      vertex 9.97753 -12.2082 7
      vertex 11.6066 -35.7323 7
      vertex 11.6066 -11.2677 7
    endloop
  endfacet
  facet normal 0 0 1
    outer loop
      vertex 9.97753 -12.2082 7
      vertex 9.97753 -34.7918 7
      vertex 11.6066 -35.7323 7
    endloop
  endfacet
  facet normal 0 0 1
    outer loop
      vertex 8.125 -11.8816 7
      vertex 9.97753 -34.7918 7
      vertex 9.97753 -12.2082 7
    endloop
  endfacet
  facet normal 0 0 1
    outer loop
      vertex 8.125 -11.8816 7
      vertex 8.125 -35.1184 7
      vertex 9.97753 -34.7918 7
    endloop
  endfacet
  facet normal 0 0 1
    outer loop
      vertex 6.91584 -10.4406 7
      vertex 8.125 -35.1184 7
      vertex 8.125 -11.8816 7
    endloop
  endfacet
  facet normal 0 0 1
    outer loop
      vertex 8.125 -35.1184 7
      vertex 6.91584 -10.4406 7
      vertex 6.91584 -36.5594 7
    endloop
  endfacet
  facet normal 0 0 1
    outer loop
      vertex 32.6066 -35.7323 7
      vertex 40 -5 7
      vertex 32.6066 -11.2677 7
    endloop
  endfacet
  facet normal 0 0 1
    outer loop
      vertex 40 -5 7
      vertex 32.6066 -35.7323 7
      vertex 33.25 -37.5 7
    endloop
  endfacet
  facet normal -0 0 1
    outer loop
      vertex 30.9775 -12.2082 7
      vertex 32.6066 -35.7323 7
      vertex 32.6066 -11.2677 7
    endloop
  endfacet
  facet normal 0 0 1
    outer loop
      vertex 30.9775 -12.2082 7
      vertex 30.9775 -34.7918 7
      vertex 32.6066 -35.7323 7
    endloop
  endfacet
  facet normal 0 0 1
    outer loop
      vertex 29.125 -11.8816 7
      vertex 30.9775 -34.7918 7
      vertex 30.9775 -12.2082 7
    endloop
  endfacet
  facet normal 0 0 1
    outer loop
      vertex 29.125 -11.8816 7
      vertex 29.125 -35.1184 7
      vertex 30.9775 -34.7918 7
    endloop
  endfacet
  facet normal 0 0 1
    outer loop
      vertex 11.6066 -11.2677 7
      vertex 27.9158 -10.4406 7
      vertex 12.25 -9.5 7
    endloop
  endfacet
  facet normal 0 0 1
    outer loop
      vertex 27.9158 -10.4406 7
      vertex 11.6066 -11.2677 7
      vertex 29.125 -11.8816 7
    endloop
  endfacet
  facet normal 0 0 1
    outer loop
      vertex 40 -5 7
      vertex 38.1 -57 7
      vertex 40 -62 7
    endloop
  endfacet
  facet normal -0 0 1
    outer loop
      vertex 33.25 -37.5 7
      vertex 38.1 -57 7
      vertex 40 -5 7
    endloop
  endfacet
  facet normal 0 0 1
    outer loop
      vertex 38.1 -57 7
      vertex 33.25 -37.5 7
      vertex 36.55 -54.3153 7
    endloop
  endfacet
  facet normal 0 0 1
    outer loop
      vertex 32.6066 -11.2677 7
      vertex 40 -5 7
      vertex 33.25 -9.5 7
    endloop
  endfacet
  facet normal 0 0 1
    outer loop
      vertex 40 -5 7
      vertex 32.6066 -7.73233 7
      vertex 33.25 -9.5 7
    endloop
  endfacet
  facet normal 0 0 1
    outer loop
      vertex 40 -5 7
      vertex 30.9775 -6.79178 7
      vertex 32.6066 -7.73233 7
    endloop
  endfacet
  facet normal 0 0 1
    outer loop
      vertex 9.97753 -6.79178 7
      vertex 30.9775 -6.79178 7
      vertex 40 -5 7
    endloop
  endfacet
  facet normal -0 0 1
    outer loop
      vertex 12.25 -9.5 7
      vertex 27.9158 -10.4406 7
      vertex 27.9158 -8.55944 7
    endloop
  endfacet
  facet normal 0 0 1
    outer loop
      vertex 29.125 -11.8816 7
      vertex 11.6066 -11.2677 7
      vertex 29.125 -35.1184 7
    endloop
  endfacet
  facet normal 0 0 1
    outer loop
      vertex 29.125 -35.1184 7
      vertex 12.25 -37.5 7
      vertex 27.9158 -36.5594 7
    endloop
  endfacet
  facet normal -0 0 1
    outer loop
      vertex 11.6066 -7.73233 7
      vertex 27.9158 -8.55944 7
      vertex 29.125 -7.11843 7
    endloop
  endfacet
  facet normal 0 0 1
    outer loop
      vertex 30.9775 -6.79178 7
      vertex 9.97753 -6.79178 7
      vertex 29.125 -7.11843 7
    endloop
  endfacet
  facet normal 0 0 1
    outer loop
      vertex 27.9158 -8.55944 7
      vertex 11.6066 -7.73233 7
      vertex 12.25 -9.5 7
    endloop
  endfacet
  facet normal 0 0 1
    outer loop
      vertex 29.125 -7.11843 7
      vertex 9.97753 -6.79178 7
      vertex 11.6066 -7.73233 7
    endloop
  endfacet
  facet normal 0 0 1
    outer loop
      vertex 0 -5 7
      vertex 6.91584 -10.4406 7
      vertex 6.91584 -8.55944 7
    endloop
  endfacet
  facet normal 0 0 1
    outer loop
      vertex 6.91584 -10.4406 7
      vertex 0 -5 7
      vertex 6.91584 -36.5594 7
    endloop
  endfacet
  facet normal 0 0 1
    outer loop
      vertex 0 -62 7
      vertex 6.91584 -36.5594 7
      vertex 0 -5 7
    endloop
  endfacet
  facet normal 0 0 1
    outer loop
      vertex 8.125 -7.11843 7
      vertex 0 -5 7
      vertex 6.91584 -8.55944 7
    endloop
  endfacet
  facet normal 0 0 1
    outer loop
      vertex 9.97753 -6.79178 7
      vertex 0 -5 7
      vertex 8.125 -7.11843 7
    endloop
  endfacet
  facet normal -0 0 1
    outer loop
      vertex 0 -5 7
      vertex 9.97753 -6.79178 7
      vertex 40 -5 7
    endloop
  endfacet
  facet normal -0 0 1
    outer loop
      vertex 36.55 -59.6847 7
      vertex 40 -62 7
      vertex 38.1 -57 7
    endloop
  endfacet
  facet normal -0 0 1
    outer loop
      vertex 33.45 -59.6847 7
      vertex 40 -62 7
      vertex 36.55 -59.6847 7
    endloop
  endfacet
  facet normal 0 0 1
    outer loop
      vertex 33.45 -54.3153 7
      vertex 29.125 -39.8816 7
      vertex 31.9 -57 7
    endloop
  endfacet
  facet normal -0 0 1
    outer loop
      vertex 11.6066 -39.2677 7
      vertex 29.125 -39.8816 7
      vertex 27.9158 -38.4406 7
    endloop
  endfacet
  facet normal 0 0 1
    outer loop
      vertex 27.9158 -36.5594 7
      vertex 12.25 -37.5 7
      vertex 27.9158 -38.4406 7
    endloop
  endfacet
  facet normal 0 0 1
    outer loop
      vertex 11.6066 -39.2677 7
      vertex 27.9158 -38.4406 7
      vertex 12.25 -37.5 7
    endloop
  endfacet
  facet normal 0 0 1
    outer loop
      vertex 29.125 -39.8816 7
      vertex 11.6066 -39.2677 7
      vertex 31.9 -57 7
    endloop
  endfacet
  facet normal -0 0 1
    outer loop
      vertex 9.97753 -40.2082 7
      vertex 31.9 -57 7
      vertex 11.6066 -39.2677 7
    endloop
  endfacet
  facet normal 0 0 1
    outer loop
      vertex 0 -62 7
      vertex 31.9 -57 7
      vertex 9.97753 -40.2082 7
    endloop
  endfacet
  facet normal 0 0 1
    outer loop
      vertex 0 -62 7
      vertex 9.97753 -40.2082 7
      vertex 8.125 -39.8816 7
    endloop
  endfacet
  facet normal 0 0 1
    outer loop
      vertex 33.45 -59.6847 7
      vertex 0 -62 7
      vertex 40 -62 7
    endloop
  endfacet
  facet normal 0 0 1
    outer loop
      vertex 31.9 -57 7
      vertex 0 -62 7
      vertex 33.45 -59.6847 7
    endloop
  endfacet
  facet normal 0 0 1
    outer loop
      vertex 6.91584 -38.4406 7
      vertex 0 -62 7
      vertex 8.125 -39.8816 7
    endloop
  endfacet
  facet normal 0 0 1
    outer loop
      vertex 6.91584 -36.5594 7
      vertex 0 -62 7
      vertex 6.91584 -38.4406 7
    endloop
  endfacet
  facet normal -0 0 1
    outer loop
      vertex 32.6066 -39.2677 7
      vertex 36.55 -54.3153 7
      vertex 33.25 -37.5 7
    endloop
  endfacet
  facet normal -0 0 1
    outer loop
      vertex 30.9775 -40.2082 7
      vertex 36.55 -54.3153 7
      vertex 32.6066 -39.2677 7
    endloop
  endfacet
  facet normal 0 0 1
    outer loop
      vertex 36.55 -54.3153 7
      vertex 30.9775 -40.2082 7
      vertex 33.45 -54.3153 7
    endloop
  endfacet
  facet normal 0 0 1
    outer loop
      vertex 29.125 -39.8816 7
      vertex 33.45 -54.3153 7
      vertex 30.9775 -40.2082 7
    endloop
  endfacet
  facet normal 1 -0 0
    outer loop
      vertex 40 -62 7
      vertex 40 -5 0
      vertex 40 -5 7
    endloop
  endfacet
  facet normal 1 0 0
    outer loop
      vertex 40 -5 0
      vertex 40 -62 7
      vertex 40 -62 0
    endloop
  endfacet
  facet normal 0 -1 0
    outer loop
      vertex 0 -62 0
      vertex 40 -62 7
      vertex 0 -62 7
    endloop
  endfacet
  facet normal 0 -1 -0
    outer loop
      vertex 40 -62 7
      vertex 0 -62 0
      vertex 40 -62 0
    endloop
  endfacet
  facet normal 0 0 -1
    outer loop
      vertex 11.6066 -11.2677 0
      vertex 29.125 -11.8816 0
      vertex 11.6066 -35.7323 0
    endloop
  endfacet
  facet normal 0 0 -1
    outer loop
      vertex 29.125 -11.8816 0
      vertex 11.6066 -11.2677 0
      vertex 12.25 -9.5 0
    endloop
  endfacet
  facet normal 0 0 -1
    outer loop
      vertex 9.97753 -34.7918 0
      vertex 11.6066 -11.2677 0
      vertex 11.6066 -35.7323 0
    endloop
  endfacet
  facet normal 0 0 -1
    outer loop
      vertex 9.97753 -34.7918 0
      vertex 9.97753 -12.2082 0
      vertex 11.6066 -11.2677 0
    endloop
  endfacet
  facet normal 0 0 -1
    outer loop
      vertex 9.97753 -34.7918 0
      vertex 8.125 -11.8816 0
      vertex 9.97753 -12.2082 0
    endloop
  endfacet
  facet normal 0 0 -1
    outer loop
      vertex 8.125 -35.1184 0
      vertex 8.125 -11.8816 0
      vertex 9.97753 -34.7918 0
    endloop
  endfacet
  facet normal 0 0 -1
    outer loop
      vertex 6.91584 -36.5594 0
      vertex 8.125 -11.8816 0
      vertex 8.125 -35.1184 0
    endloop
  endfacet
  facet normal -0 0 -1
    outer loop
      vertex 8.125 -11.8816 0
      vertex 6.91584 -36.5594 0
      vertex 6.91584 -10.4406 0
    endloop
  endfacet
  facet normal 0 0 -1
    outer loop
      vertex 32.6066 -11.2677 0
      vertex 40 -5 0
      vertex 32.6066 -35.7323 0
    endloop
  endfacet
  facet normal 0 0 -1
    outer loop
      vertex 40 -5 0
      vertex 32.6066 -11.2677 0
      vertex 33.25 -9.5 0
    endloop
  endfacet
  facet normal 0 0 -1
    outer loop
      vertex 30.9775 -34.7918 0
      vertex 32.6066 -11.2677 0
      vertex 32.6066 -35.7323 0
    endloop
  endfacet
  facet normal 0 0 -1
    outer loop
      vertex 30.9775 -34.7918 0
      vertex 30.9775 -12.2082 0
      vertex 32.6066 -11.2677 0
    endloop
  endfacet
  facet normal 0 0 -1
    outer loop
      vertex 29.125 -35.1184 0
      vertex 30.9775 -12.2082 0
      vertex 30.9775 -34.7918 0
    endloop
  endfacet
  facet normal 0 0 -1
    outer loop
      vertex 29.125 -35.1184 0
      vertex 29.125 -11.8816 0
      vertex 30.9775 -12.2082 0
    endloop
  endfacet
  facet normal 0 0 -1
    outer loop
      vertex 11.6066 -35.7323 0
      vertex 27.9158 -36.5594 0
      vertex 12.25 -37.5 0
    endloop
  endfacet
  facet normal 0 0 -1
    outer loop
      vertex 27.9158 -36.5594 0
      vertex 11.6066 -35.7323 0
      vertex 29.125 -35.1184 0
    endloop
  endfacet
  facet normal 0 0 -1
    outer loop
      vertex 36.5074 -56.3289 0
      vertex 40 -62 0
      vertex 36.65 -57 0
    endloop
  endfacet
  facet normal 0 0 -1
    outer loop
      vertex 40 -62 0
      vertex 36.5074 -57.6711 0
      vertex 36.65 -57 0
    endloop
  endfacet
  facet normal 0 0 -1
    outer loop
      vertex 40 -62 0
      vertex 36.1041 -58.2262 0
      vertex 36.5074 -57.6711 0
    endloop
  endfacet
  facet normal 0 0 -1
    outer loop
      vertex 40 -62 0
      vertex 35.5099 -58.5692 0
      vertex 36.1041 -58.2262 0
    endloop
  endfacet
  facet normal 0 0 -1
    outer loop
      vertex 40 -62 0
      vertex 34.8275 -58.641 0
      vertex 35.5099 -58.5692 0
    endloop
  endfacet
  facet normal 0 0 -1
    outer loop
      vertex 40 -62 0
      vertex 34.175 -58.4289 0
      vertex 34.8275 -58.641 0
    endloop
  endfacet
  facet normal 0 0 -1
    outer loop
      vertex 0 -62 0
      vertex 33.3861 -56.6569 0
      vertex 33.3861 -57.3431 0
    endloop
  endfacet
  facet normal 0 0 -1
    outer loop
      vertex 33.3861 -56.6569 0
      vertex 32.6066 -39.2677 0
      vertex 33.25 -37.5 0
    endloop
  endfacet
  facet normal 0 0 -1
    outer loop
      vertex 33.3861 -56.6569 0
      vertex 30.9775 -40.2082 0
      vertex 32.6066 -39.2677 0
    endloop
  endfacet
  facet normal 0 0 -1
    outer loop
      vertex 33.3861 -56.6569 0
      vertex 29.125 -39.8816 0
      vertex 30.9775 -40.2082 0
    endloop
  endfacet
  facet normal 0 0 -1
    outer loop
      vertex 33.3861 -56.6569 0
      vertex 11.6066 -39.2677 0
      vertex 29.125 -39.8816 0
    endloop
  endfacet
  facet normal 0 0 -1
    outer loop
      vertex 12.25 -37.5 0
      vertex 27.9158 -36.5594 0
      vertex 27.9158 -38.4406 0
    endloop
  endfacet
  facet normal -0 0 -1
    outer loop
      vertex 29.125 -35.1184 0
      vertex 11.6066 -35.7323 0
      vertex 29.125 -11.8816 0
    endloop
  endfacet
  facet normal 0 0 -1
    outer loop
      vertex 29.125 -11.8816 0
      vertex 12.25 -9.5 0
      vertex 27.9158 -10.4406 0
    endloop
  endfacet
  facet normal 0 0 -1
    outer loop
      vertex 29.125 -39.8816 0
      vertex 11.6066 -39.2677 0
      vertex 27.9158 -38.4406 0
    endloop
  endfacet
  facet normal 0 0 -1
    outer loop
      vertex 0 -62 0
      vertex 33.3861 -57.3431 0
      vertex 33.6651 -57.9698 0
    endloop
  endfacet
  facet normal -0 0 -1
    outer loop
      vertex 27.9158 -38.4406 0
      vertex 11.6066 -39.2677 0
      vertex 12.25 -37.5 0
    endloop
  endfacet
  facet normal 0 0 -1
    outer loop
      vertex 0 -62 0
      vertex 33.6651 -57.9698 0
      vertex 34.175 -58.4289 0
    endloop
  endfacet
  facet normal 0 0 -1
    outer loop
      vertex 33.3861 -56.6569 0
      vertex 9.97753 -40.2082 0
      vertex 11.6066 -39.2677 0
    endloop
  endfacet
  facet normal -0 0 -1
    outer loop
      vertex 33.3861 -56.6569 0
      vertex 0 -62 0
      vertex 9.97753 -40.2082 0
    endloop
  endfacet
  facet normal 0 0 -1
    outer loop
      vertex 0 -62 0
      vertex 6.91584 -36.5594 0
      vertex 6.91584 -38.4406 0
    endloop
  endfacet
  facet normal 0 0 -1
    outer loop
      vertex 6.91584 -36.5594 0
      vertex 0 -5 0
      vertex 6.91584 -10.4406 0
    endloop
  endfacet
  facet normal -0 0 -1
    outer loop
      vertex 6.91584 -36.5594 0
      vertex 0 -62 0
      vertex 0 -5 0
    endloop
  endfacet
  facet normal -0 0 -1
    outer loop
      vertex 8.125 -39.8816 0
      vertex 0 -62 0
      vertex 6.91584 -38.4406 0
    endloop
  endfacet
  facet normal -0 0 -1
    outer loop
      vertex 9.97753 -40.2082 0
      vertex 0 -62 0
      vertex 8.125 -39.8816 0
    endloop
  endfacet
  facet normal 0 0 -1
    outer loop
      vertex 0 -62 0
      vertex 34.175 -58.4289 0
      vertex 40 -62 0
    endloop
  endfacet
  facet normal 0 0 -1
    outer loop
      vertex 33.25 -37.5 0
      vertex 40 -62 0
      vertex 36.5074 -56.3289 0
    endloop
  endfacet
  facet normal 0 0 -1
    outer loop
      vertex 33.25 -37.5 0
      vertex 36.5074 -56.3289 0
      vertex 36.1041 -55.7738 0
    endloop
  endfacet
  facet normal 0 0 -1
    outer loop
      vertex 33.25 -37.5 0
      vertex 36.1041 -55.7738 0
      vertex 35.5099 -55.4308 0
    endloop
  endfacet
  facet normal 0 0 -1
    outer loop
      vertex 33.25 -37.5 0
      vertex 35.5099 -55.4308 0
      vertex 34.8275 -55.359 0
    endloop
  endfacet
  facet normal 0 0 -1
    outer loop
      vertex 33.25 -37.5 0
      vertex 34.8275 -55.359 0
      vertex 34.175 -55.5711 0
    endloop
  endfacet
  facet normal 0 0 -1
    outer loop
      vertex 33.25 -37.5 0
      vertex 34.175 -55.5711 0
      vertex 33.6651 -56.0302 0
    endloop
  endfacet
  facet normal 0 0 -1
    outer loop
      vertex 33.25 -37.5 0
      vertex 33.6651 -56.0302 0
      vertex 33.3861 -56.6569 0
    endloop
  endfacet
  facet normal 0 0 -1
    outer loop
      vertex 40 -62 0
      vertex 33.25 -37.5 0
      vertex 40 -5 0
    endloop
  endfacet
  facet normal 0 0 -1
    outer loop
      vertex 32.6066 -35.7323 0
      vertex 40 -5 0
      vertex 33.25 -37.5 0
    endloop
  endfacet
  facet normal 0 0 -1
    outer loop
      vertex 32.6066 -7.73233 0
      vertex 40 -5 0
      vertex 33.25 -9.5 0
    endloop
  endfacet
  facet normal 0 0 -1
    outer loop
      vertex 30.9775 -6.79178 0
      vertex 40 -5 0
      vertex 32.6066 -7.73233 0
    endloop
  endfacet
  facet normal 0 0 -1
    outer loop
      vertex 9.97753 -6.79178 0
      vertex 30.9775 -6.79178 0
      vertex 29.125 -7.11843 0
    endloop
  endfacet
  facet normal 0 0 -1
    outer loop
      vertex 27.9158 -10.4406 0
      vertex 12.25 -9.5 0
      vertex 27.9158 -8.55944 0
    endloop
  endfacet
  facet normal 0 0 -1
    outer loop
      vertex 11.6066 -7.73233 0
      vertex 27.9158 -8.55944 0
      vertex 12.25 -9.5 0
    endloop
  endfacet
  facet normal 0 0 -1
    outer loop
      vertex 27.9158 -8.55944 0
      vertex 11.6066 -7.73233 0
      vertex 29.125 -7.11843 0
    endloop
  endfacet
  facet normal 0 0 -1
    outer loop
      vertex 9.97753 -6.79178 0
      vertex 29.125 -7.11843 0
      vertex 11.6066 -7.73233 0
    endloop
  endfacet
  facet normal 0 0 -1
    outer loop
      vertex 30.9775 -6.79178 0
      vertex 9.97753 -6.79178 0
      vertex 40 -5 0
    endloop
  endfacet
  facet normal 0 0 -1
    outer loop
      vertex 9.97753 -6.79178 0
      vertex 0 -5 0
      vertex 40 -5 0
    endloop
  endfacet
  facet normal 0 0 -1
    outer loop
      vertex 8.125 -7.11843 0
      vertex 0 -5 0
      vertex 9.97753 -6.79178 0
    endloop
  endfacet
  facet normal 0 0 -1
    outer loop
      vertex 6.91584 -8.55944 0
      vertex 0 -5 0
      vertex 8.125 -7.11843 0
    endloop
  endfacet
  facet normal 0 0 -1
    outer loop
      vertex 6.91584 -10.4406 0
      vertex 0 -5 0
      vertex 6.91584 -8.55944 0
    endloop
  endfacet
  facet normal 0 1 -0
    outer loop
      vertex 40 -5 0
      vertex 0 -5 7
      vertex 40 -5 7
    endloop
  endfacet
  facet normal 0 1 0
    outer loop
      vertex 0 -5 7
      vertex 40 -5 0
      vertex 0 -5 0
    endloop
  endfacet
  facet normal -0.978147 0.207912 0
    outer loop
      vertex 36.5074 -57.6711 0
      vertex 36.65 -57 5
      vertex 36.65 -57 0
    endloop
  endfacet
  facet normal -0.978147 0.207912 0
    outer loop
      vertex 36.65 -57 5
      vertex 36.5074 -57.6711 0
      vertex 36.5074 -57.6711 5
    endloop
  endfacet
  facet normal 1 -0 0
    outer loop
      vertex 33.3861 -57.3431 5
      vertex 33.3861 -56.6569 0
      vertex 33.3861 -56.6569 5
    endloop
  endfacet
  facet normal 1 0 0
    outer loop
      vertex 33.3861 -56.6569 0
      vertex 33.3861 -57.3431 5
      vertex 33.3861 -57.3431 0
    endloop
  endfacet
  facet normal 0.913544 -0.406741 0
    outer loop
      vertex 33.3861 -56.6569 5
      vertex 33.6651 -56.0302 0
      vertex 33.6651 -56.0302 5
    endloop
  endfacet
  facet normal 0.913544 -0.406741 0
    outer loop
      vertex 33.6651 -56.0302 0
      vertex 33.3861 -56.6569 5
      vertex 33.3861 -56.6569 0
    endloop
  endfacet
  facet normal 0.309018 0.951056 -0
    outer loop
      vertex 34.8275 -58.641 0
      vertex 34.175 -58.4289 5
      vertex 34.8275 -58.641 5
    endloop
  endfacet
  facet normal 0.309018 0.951056 0
    outer loop
      vertex 34.175 -58.4289 5
      vertex 34.8275 -58.641 0
      vertex 34.175 -58.4289 0
    endloop
  endfacet
  facet normal 0.669131 0.743145 -0
    outer loop
      vertex 34.175 -58.4289 0
      vertex 33.6651 -57.9698 5
      vertex 34.175 -58.4289 5
    endloop
  endfacet
  facet normal 0.669131 0.743145 0
    outer loop
      vertex 33.6651 -57.9698 5
      vertex 34.175 -58.4289 0
      vertex 33.6651 -57.9698 0
    endloop
  endfacet
  facet normal -0.500001 0.866025 0
    outer loop
      vertex 36.1041 -58.2262 0
      vertex 35.5099 -58.5692 5
      vertex 36.1041 -58.2262 5
    endloop
  endfacet
  facet normal -0.500001 0.866025 0
    outer loop
      vertex 35.5099 -58.5692 5
      vertex 36.1041 -58.2262 0
      vertex 35.5099 -58.5692 0
    endloop
  endfacet
  facet normal -0.809016 0.587787 0
    outer loop
      vertex 36.1041 -58.2262 0
      vertex 36.5074 -57.6711 5
      vertex 36.5074 -57.6711 0
    endloop
  endfacet
  facet normal -0.809016 0.587787 0
    outer loop
      vertex 36.5074 -57.6711 5
      vertex 36.1041 -58.2262 0
      vertex 36.1041 -58.2262 5
    endloop
  endfacet
  facet normal -0.104527 0.994522 0
    outer loop
      vertex 35.5099 -58.5692 0
      vertex 34.8275 -58.641 5
      vertex 35.5099 -58.5692 5
    endloop
  endfacet
  facet normal -0.104527 0.994522 0
    outer loop
      vertex 34.8275 -58.641 5
      vertex 35.5099 -58.5692 0
      vertex 34.8275 -58.641 0
    endloop
  endfacet
  facet normal 0.913544 0.406741 0
    outer loop
      vertex 33.6651 -57.9698 5
      vertex 33.3861 -57.3431 0
      vertex 33.3861 -57.3431 5
    endloop
  endfacet
  facet normal 0.913544 0.406741 0
    outer loop
      vertex 33.3861 -57.3431 0
      vertex 33.6651 -57.9698 5
      vertex 33.6651 -57.9698 0
    endloop
  endfacet
  facet normal 0.309013 -0.951058 0
    outer loop
      vertex 34.175 -55.5711 0
      vertex 34.8275 -55.359 5
      vertex 34.175 -55.5711 5
    endloop
  endfacet
  facet normal 0.309013 -0.951058 0
    outer loop
      vertex 34.8275 -55.359 5
      vertex 34.175 -55.5711 0
      vertex 34.8275 -55.359 0
    endloop
  endfacet
  facet normal 0.669134 -0.743142 0
    outer loop
      vertex 33.6651 -56.0302 0
      vertex 34.175 -55.5711 5
      vertex 33.6651 -56.0302 5
    endloop
  endfacet
  facet normal 0.669134 -0.743142 0
    outer loop
      vertex 34.175 -55.5711 5
      vertex 33.6651 -56.0302 0
      vertex 34.175 -55.5711 0
    endloop
  endfacet
  facet normal -0.500001 -0.866025 0
    outer loop
      vertex 35.5099 -55.4308 0
      vertex 36.1041 -55.7738 5
      vertex 35.5099 -55.4308 5
    endloop
  endfacet
  facet normal -0.500001 -0.866025 -0
    outer loop
      vertex 36.1041 -55.7738 5
      vertex 35.5099 -55.4308 0
      vertex 36.1041 -55.7738 0
    endloop
  endfacet
  facet normal -0.809016 -0.587787 0
    outer loop
      vertex 36.5074 -56.3289 0
      vertex 36.1041 -55.7738 5
      vertex 36.1041 -55.7738 0
    endloop
  endfacet
  facet normal -0.809016 -0.587787 0
    outer loop
      vertex 36.1041 -55.7738 5
      vertex 36.5074 -56.3289 0
      vertex 36.5074 -56.3289 5
    endloop
  endfacet
  facet normal -0.978147 -0.207912 0
    outer loop
      vertex 36.65 -57 0
      vertex 36.5074 -56.3289 5
      vertex 36.5074 -56.3289 0
    endloop
  endfacet
  facet normal -0.978147 -0.207912 0
    outer loop
      vertex 36.5074 -56.3289 5
      vertex 36.65 -57 0
      vertex 36.65 -57 5
    endloop
  endfacet
  facet normal -0.104527 -0.994522 0
    outer loop
      vertex 34.8275 -55.359 0
      vertex 35.5099 -55.4308 5
      vertex 34.8275 -55.359 5
    endloop
  endfacet
  facet normal -0.104527 -0.994522 -0
    outer loop
      vertex 35.5099 -55.4308 5
      vertex 34.8275 -55.359 0
      vertex 35.5099 -55.4308 0
    endloop
  endfacet
  facet normal -0 0 1
    outer loop
      vertex 36.5074 -56.3289 5
      vertex 38.1 -57 5
      vertex 36.55 -54.3153 5
    endloop
  endfacet
  facet normal 0 0 1
    outer loop
      vertex 38.1 -57 5
      vertex 36.5074 -56.3289 5
      vertex 36.65 -57 5
    endloop
  endfacet
  facet normal 0 0 1
    outer loop
      vertex 36.55 -54.3153 5
      vertex 36.1041 -55.7738 5
      vertex 36.5074 -56.3289 5
    endloop
  endfacet
  facet normal 0 0 1
    outer loop
      vertex 36.55 -54.3153 5
      vertex 35.5099 -55.4308 5
      vertex 36.1041 -55.7738 5
    endloop
  endfacet
  facet normal 0 0 1
    outer loop
      vertex 36.55 -54.3153 5
      vertex 34.8275 -55.359 5
      vertex 35.5099 -55.4308 5
    endloop
  endfacet
  facet normal -0 0 1
    outer loop
      vertex 33.45 -54.3153 5
      vertex 34.8275 -55.359 5
      vertex 36.55 -54.3153 5
    endloop
  endfacet
  facet normal 0 0 1
    outer loop
      vertex 34.8275 -55.359 5
      vertex 33.45 -54.3153 5
      vertex 34.175 -55.5711 5
    endloop
  endfacet
  facet normal 0 0 1
    outer loop
      vertex 33.45 -54.3153 5
      vertex 33.6651 -56.0302 5
      vertex 34.175 -55.5711 5
    endloop
  endfacet
  facet normal 0 0 1
    outer loop
      vertex 31.9 -57 5
      vertex 33.6651 -56.0302 5
      vertex 33.45 -54.3153 5
    endloop
  endfacet
  facet normal 0 0 1
    outer loop
      vertex 33.3861 -56.6569 5
      vertex 31.9 -57 5
      vertex 33.3861 -57.3431 5
    endloop
  endfacet
  facet normal 0 0 1
    outer loop
      vertex 33.6651 -56.0302 5
      vertex 31.9 -57 5
      vertex 33.3861 -56.6569 5
    endloop
  endfacet
  facet normal 0 0 1
    outer loop
      vertex 36.5074 -57.6711 5
      vertex 38.1 -57 5
      vertex 36.65 -57 5
    endloop
  endfacet
  facet normal 0 0 1
    outer loop
      vertex 38.1 -57 5
      vertex 36.5074 -57.6711 5
      vertex 36.55 -59.6847 5
    endloop
  endfacet
  facet normal -0 0 1
    outer loop
      vertex 36.1041 -58.2262 5
      vertex 36.55 -59.6847 5
      vertex 36.5074 -57.6711 5
    endloop
  endfacet
  facet normal -0 0 1
    outer loop
      vertex 35.5099 -58.5692 5
      vertex 36.55 -59.6847 5
      vertex 36.1041 -58.2262 5
    endloop
  endfacet
  facet normal -0 0 1
    outer loop
      vertex 34.8275 -58.641 5
      vertex 36.55 -59.6847 5
      vertex 35.5099 -58.5692 5
    endloop
  endfacet
  facet normal 0 0 1
    outer loop
      vertex 33.45 -59.6847 5
      vertex 34.8275 -58.641 5
      vertex 34.175 -58.4289 5
    endloop
  endfacet
  facet normal 0 0 1
    outer loop
      vertex 34.8275 -58.641 5
      vertex 33.45 -59.6847 5
      vertex 36.55 -59.6847 5
    endloop
  endfacet
  facet normal 0 0 1
    outer loop
      vertex 33.6651 -57.9698 5
      vertex 33.45 -59.6847 5
      vertex 34.175 -58.4289 5
    endloop
  endfacet
  facet normal 0 0 1
    outer loop
      vertex 31.9 -57 5
      vertex 33.6651 -57.9698 5
      vertex 33.3861 -57.3431 5
    endloop
  endfacet
  facet normal 0 0 1
    outer loop
      vertex 33.6651 -57.9698 5
      vertex 31.9 -57 5
      vertex 33.45 -59.6847 5
    endloop
  endfacet
  facet normal -0.866025 0.5 0
    outer loop
      vertex 36.55 -59.6847 5
      vertex 38.1 -57 7
      vertex 38.1 -57 5
    endloop
  endfacet
  facet normal -0.866025 0.5 0
    outer loop
      vertex 38.1 -57 7
      vertex 36.55 -59.6847 5
      vertex 36.55 -59.6847 7
    endloop
  endfacet
  facet normal 0.866025 0.500001 0
    outer loop
      vertex 33.45 -59.6847 7
      vertex 31.9 -57 5
      vertex 31.9 -57 7
    endloop
  endfacet
  facet normal 0.866025 0.500001 0
    outer loop
      vertex 31.9 -57 5
      vertex 33.45 -59.6847 7
      vertex 33.45 -59.6847 5
    endloop
  endfacet
  facet normal 0 1 -0
    outer loop
      vertex 36.55 -59.6847 5
      vertex 33.45 -59.6847 7
      vertex 36.55 -59.6847 7
    endloop
  endfacet
  facet normal 0 1 0
    outer loop
      vertex 33.45 -59.6847 7
      vertex 36.55 -59.6847 5
      vertex 33.45 -59.6847 5
    endloop
  endfacet
  facet normal 0.866025 -0.500001 0
    outer loop
      vertex 31.9 -57 7
      vertex 33.45 -54.3153 5
      vertex 33.45 -54.3153 7
    endloop
  endfacet
  facet normal 0.866025 -0.500001 0
    outer loop
      vertex 33.45 -54.3153 5
      vertex 31.9 -57 7
      vertex 31.9 -57 5
    endloop
  endfacet
  facet normal -0.866025 -0.5 0
    outer loop
      vertex 38.1 -57 5
      vertex 36.55 -54.3153 7
      vertex 36.55 -54.3153 5
    endloop
  endfacet
  facet normal -0.866025 -0.5 0
    outer loop
      vertex 36.55 -54.3153 7
      vertex 38.1 -57 5
      vertex 38.1 -57 7
    endloop
  endfacet
  facet normal 0 -1 0
    outer loop
      vertex 33.45 -54.3153 5
      vertex 36.55 -54.3153 7
      vertex 33.45 -54.3153 7
    endloop
  endfacet
  facet normal 0 -1 -0
    outer loop
      vertex 36.55 -54.3153 7
      vertex 33.45 -54.3153 5
      vertex 36.55 -54.3153 5
    endloop
  endfacet
endsolid OpenSCAD_Model
